G04*
G04 #@! TF.GenerationSoftware,Altium Limited,Altium Designer,18.0.12 (696)*
G04*
G04 Layer_Color=8388736*
%FSLAX25Y25*%
%MOIN*%
G70*
G01*
G75*
%ADD18R,0.03950X0.03950*%
%ADD19R,0.04202X0.03898*%
%ADD20R,0.06300X0.11800*%
%ADD21R,0.03898X0.04202*%
%ADD22R,0.06312X0.21272*%
%ADD23R,0.08280X0.20485*%
%ADD24O,0.08280X0.03162*%
%ADD25R,0.01981X0.05524*%
%ADD26R,0.05524X0.01981*%
%ADD27R,0.06312X0.04737*%
%ADD28R,0.06800X0.03200*%
%ADD29R,0.05131X0.06902*%
%ADD30R,0.05131X0.06902*%
%ADD31R,0.14383X0.06902*%
%ADD32R,0.09461X0.03162*%
G04:AMPARAMS|DCode=33|XSize=118.24mil|YSize=47.37mil|CornerRadius=23.68mil|HoleSize=0mil|Usage=FLASHONLY|Rotation=90.000|XOffset=0mil|YOffset=0mil|HoleType=Round|Shape=RoundedRectangle|*
%AMROUNDEDRECTD33*
21,1,0.11824,0.00000,0,0,90.0*
21,1,0.07087,0.04737,0,0,90.0*
1,1,0.04737,0.00000,0.03544*
1,1,0.04737,0.00000,-0.03544*
1,1,0.04737,0.00000,-0.03544*
1,1,0.04737,0.00000,0.03544*
%
%ADD33ROUNDEDRECTD33*%
G04:AMPARAMS|DCode=34|XSize=31.62mil|YSize=74.93mil|CornerRadius=15.81mil|HoleSize=0mil|Usage=FLASHONLY|Rotation=0.000|XOffset=0mil|YOffset=0mil|HoleType=Round|Shape=RoundedRectangle|*
%AMROUNDEDRECTD34*
21,1,0.03162,0.04331,0,0,0.0*
21,1,0.00000,0.07493,0,0,0.0*
1,1,0.03162,0.00000,-0.02166*
1,1,0.03162,0.00000,-0.02166*
1,1,0.03162,0.00000,0.02166*
1,1,0.03162,0.00000,0.02166*
%
%ADD34ROUNDEDRECTD34*%
%ADD35O,0.07493X0.02178*%
%ADD36R,0.03162X0.06509*%
%ADD37R,0.04343X0.04540*%
%ADD38R,0.04343X0.04540*%
%ADD39C,0.06800*%
%ADD40C,0.10800*%
%ADD41C,0.12600*%
%ADD42C,0.08674*%
%ADD43C,0.15800*%
%ADD44C,0.24400*%
%ADD45C,0.03162*%
D18*
X891948Y188700D02*
D03*
X885452D02*
D03*
X885552Y195600D02*
D03*
X892048D02*
D03*
D19*
X920000Y205051D02*
D03*
Y198949D02*
D03*
X927000Y205051D02*
D03*
X927000Y198949D02*
D03*
X882500Y296051D02*
D03*
X882500Y289949D02*
D03*
X852500Y289949D02*
D03*
X852500Y296051D02*
D03*
X834000Y276949D02*
D03*
Y283051D02*
D03*
X839500Y282449D02*
D03*
Y288551D02*
D03*
X889300Y230451D02*
D03*
Y224349D02*
D03*
X885500Y272949D02*
D03*
Y279051D02*
D03*
X889900Y251751D02*
D03*
Y245649D02*
D03*
X935500Y240051D02*
D03*
Y233949D02*
D03*
X936000Y256051D02*
D03*
X936000Y249949D02*
D03*
X936000Y266551D02*
D03*
Y260449D02*
D03*
X936000Y286551D02*
D03*
Y280449D02*
D03*
X730500Y212449D02*
D03*
Y218551D02*
D03*
X725000Y212449D02*
D03*
Y218551D02*
D03*
D20*
X899200Y331500D02*
D03*
X881800Y331500D02*
D03*
D21*
X874551Y323500D02*
D03*
X868449D02*
D03*
X871449Y296000D02*
D03*
X877551D02*
D03*
X859949D02*
D03*
X866051Y296000D02*
D03*
X866051Y290000D02*
D03*
X859949Y290000D02*
D03*
X814449Y273000D02*
D03*
X820551D02*
D03*
Y252500D02*
D03*
X814449D02*
D03*
X849051Y228000D02*
D03*
X842949D02*
D03*
X875051D02*
D03*
X868949D02*
D03*
X895949Y231500D02*
D03*
X902051Y231500D02*
D03*
X895949Y236500D02*
D03*
X902051D02*
D03*
X896449Y280500D02*
D03*
X902551D02*
D03*
X902551Y270500D02*
D03*
X896449D02*
D03*
X902051Y258500D02*
D03*
X895949Y258500D02*
D03*
X902151Y252100D02*
D03*
X896049D02*
D03*
X941551Y245000D02*
D03*
X935449D02*
D03*
X942051Y275700D02*
D03*
X935949D02*
D03*
X864449Y212500D02*
D03*
X870551D02*
D03*
X739449Y228500D02*
D03*
X745551D02*
D03*
X747051Y201500D02*
D03*
X740949D02*
D03*
X751949D02*
D03*
X758051D02*
D03*
X769051D02*
D03*
X762949D02*
D03*
X735449Y207500D02*
D03*
X741551D02*
D03*
X746449D02*
D03*
X752551D02*
D03*
X757449D02*
D03*
X763551D02*
D03*
D22*
X832158Y310500D02*
D03*
X851842D02*
D03*
D23*
X871500Y310000D02*
D03*
D24*
X862248Y317500D02*
D03*
X862248Y312500D02*
D03*
X862248Y307500D02*
D03*
Y302500D02*
D03*
X880752Y317500D02*
D03*
X880752Y312500D02*
D03*
X880752Y307500D02*
D03*
X880752Y302500D02*
D03*
D25*
X842436Y279341D02*
D03*
X844405D02*
D03*
X846373D02*
D03*
X848342D02*
D03*
X850310D02*
D03*
X852279D02*
D03*
X854247D02*
D03*
X856216D02*
D03*
X858184D02*
D03*
X860153D02*
D03*
X862121D02*
D03*
X864090D02*
D03*
X866058D02*
D03*
X868027D02*
D03*
X869995D02*
D03*
X871964D02*
D03*
Y234459D02*
D03*
X869995D02*
D03*
X868027D02*
D03*
X866058D02*
D03*
X864090D02*
D03*
X862121D02*
D03*
X860153D02*
D03*
X858184D02*
D03*
X856216D02*
D03*
X854247D02*
D03*
X852279D02*
D03*
X850310D02*
D03*
X848342D02*
D03*
X846373D02*
D03*
X844405D02*
D03*
X842436D02*
D03*
D26*
X879641Y271664D02*
D03*
Y269695D02*
D03*
Y267727D02*
D03*
Y265758D02*
D03*
Y263790D02*
D03*
Y261821D02*
D03*
Y259853D02*
D03*
Y257884D02*
D03*
Y255916D02*
D03*
Y253947D02*
D03*
Y251979D02*
D03*
Y250010D02*
D03*
Y248042D02*
D03*
Y246073D02*
D03*
Y244105D02*
D03*
Y242136D02*
D03*
X834759D02*
D03*
Y244105D02*
D03*
Y246073D02*
D03*
Y248042D02*
D03*
Y250010D02*
D03*
Y251979D02*
D03*
Y253947D02*
D03*
Y255916D02*
D03*
Y257884D02*
D03*
Y259853D02*
D03*
Y261821D02*
D03*
Y263790D02*
D03*
Y265758D02*
D03*
Y267727D02*
D03*
Y269695D02*
D03*
Y271664D02*
D03*
D27*
X809520Y266831D02*
D03*
X824480Y266831D02*
D03*
X809520Y258169D02*
D03*
X824480Y258169D02*
D03*
D28*
X929000Y285400D02*
D03*
X929000Y280400D02*
D03*
Y275400D02*
D03*
X929000Y270400D02*
D03*
X908600Y270500D02*
D03*
Y275400D02*
D03*
X908600Y280400D02*
D03*
Y285400D02*
D03*
X908500Y248600D02*
D03*
Y253600D02*
D03*
Y258600D02*
D03*
Y263600D02*
D03*
X928900Y263500D02*
D03*
Y258600D02*
D03*
Y253600D02*
D03*
Y248600D02*
D03*
X929000Y241400D02*
D03*
Y236400D02*
D03*
X929000Y231400D02*
D03*
X929000Y226400D02*
D03*
X908600Y226500D02*
D03*
Y231400D02*
D03*
X908600Y236400D02*
D03*
X908600Y241400D02*
D03*
D29*
X971755Y272887D02*
D03*
D30*
X962700D02*
D03*
X953645D02*
D03*
D31*
X962700Y246313D02*
D03*
D32*
X853264Y207000D02*
D03*
Y202000D02*
D03*
Y192000D02*
D03*
X873736Y207000D02*
D03*
X873736Y202000D02*
D03*
Y192000D02*
D03*
X853264Y197000D02*
D03*
X873736Y197000D02*
D03*
D33*
X896441Y169752D02*
D03*
X926559D02*
D03*
X847441D02*
D03*
X877559D02*
D03*
D34*
X904118Y181957D02*
D03*
X909039D02*
D03*
X913961D02*
D03*
X918882D02*
D03*
X855118D02*
D03*
X860039D02*
D03*
X864961D02*
D03*
X869882D02*
D03*
D35*
X737780Y221839D02*
D03*
Y219280D02*
D03*
Y216721D02*
D03*
Y214161D02*
D03*
X760220Y221839D02*
D03*
Y219280D02*
D03*
X760220Y216721D02*
D03*
Y214161D02*
D03*
D36*
X777740Y218626D02*
D03*
X770260D02*
D03*
X774000Y209374D02*
D03*
D37*
X919760Y209874D02*
D03*
X923500Y219126D02*
D03*
D38*
X927240Y209874D02*
D03*
D39*
X935000Y174000D02*
D03*
Y184000D02*
D03*
Y194000D02*
D03*
X955000Y174000D02*
D03*
Y184000D02*
D03*
Y194000D02*
D03*
X965000Y174000D02*
D03*
Y184000D02*
D03*
Y194000D02*
D03*
X975000Y174000D02*
D03*
Y184000D02*
D03*
Y194000D02*
D03*
X945000Y174000D02*
D03*
Y184000D02*
D03*
Y194000D02*
D03*
D40*
X970600Y336800D02*
D03*
X927400D02*
D03*
D41*
X958800Y297500D02*
D03*
X939200D02*
D03*
D42*
X824500Y195500D02*
D03*
X834343Y195500D02*
D03*
X793000Y195500D02*
D03*
X802843D02*
D03*
D43*
X736500Y177000D02*
D03*
X766500D02*
D03*
D44*
X900593Y211652D02*
D03*
Y302203D02*
D03*
X813979D02*
D03*
Y211652D02*
D03*
D45*
X850100Y273600D02*
D03*
X840044Y264456D02*
D03*
X810200Y229500D02*
D03*
X852100Y238900D02*
D03*
X849600Y258400D02*
D03*
X850800Y250900D02*
D03*
X848800Y248500D02*
D03*
X849200Y244900D02*
D03*
X829700Y246000D02*
D03*
X869600Y243800D02*
D03*
X864300Y242400D02*
D03*
X889300Y314900D02*
D03*
X885700Y310500D02*
D03*
X847500Y297000D02*
D03*
X839300Y250000D02*
D03*
X796200D02*
D03*
X795700Y257700D02*
D03*
X798600Y201200D02*
D03*
X885700Y265400D02*
D03*
X871300Y247800D02*
D03*
X885400Y252900D02*
D03*
X885200Y247100D02*
D03*
X876400Y232600D02*
D03*
X850900Y212600D02*
D03*
X876000Y212400D02*
D03*
X875400Y219900D02*
D03*
X863600Y228700D02*
D03*
X841800Y162100D02*
D03*
X791300Y185700D02*
D03*
X820600Y278100D02*
D03*
X807700Y287600D02*
D03*
X800100Y293900D02*
D03*
X799300Y288000D02*
D03*
X786100Y298500D02*
D03*
X794200D02*
D03*
X777700Y299000D02*
D03*
X775500Y273400D02*
D03*
X887700Y313200D02*
D03*
X870200Y291800D02*
D03*
X831400Y332700D02*
D03*
X842400Y333600D02*
D03*
X924800Y325100D02*
D03*
X977800Y325000D02*
D03*
X954500Y337700D02*
D03*
X945100Y337400D02*
D03*
X912600Y332300D02*
D03*
X915700Y321700D02*
D03*
X924600Y314700D02*
D03*
X922900Y282400D02*
D03*
X942700Y286100D02*
D03*
X942400Y260100D02*
D03*
X950400Y256900D02*
D03*
X894600Y243900D02*
D03*
X902800Y264000D02*
D03*
X902500Y275300D02*
D03*
X891700Y278100D02*
D03*
X864000Y250700D02*
D03*
X870700Y253200D02*
D03*
X847900Y252600D02*
D03*
X853100Y264200D02*
D03*
X857200Y273600D02*
D03*
X839100Y278100D02*
D03*
X833600Y288000D02*
D03*
X828300Y287900D02*
D03*
X827400Y273400D02*
D03*
X816600Y266200D02*
D03*
X807400Y249700D02*
D03*
X787700Y241100D02*
D03*
X783300Y227900D02*
D03*
X790200Y219400D02*
D03*
X970600Y163700D02*
D03*
X939300Y164100D02*
D03*
X915000Y168500D02*
D03*
X906400Y165800D02*
D03*
X869500Y170200D02*
D03*
X859000Y164000D02*
D03*
X822500Y165300D02*
D03*
X816500Y170200D02*
D03*
X809500Y165100D02*
D03*
X804000Y170700D02*
D03*
X798900Y165000D02*
D03*
X977300Y282800D02*
D03*
X976300Y273800D02*
D03*
X972400Y240000D02*
D03*
X962400Y234500D02*
D03*
X973800Y233000D02*
D03*
X963200Y212800D02*
D03*
X965900Y224900D02*
D03*
X965500Y205700D02*
D03*
X960600Y202100D02*
D03*
X955600Y207400D02*
D03*
X873800Y187300D02*
D03*
X897600Y195600D02*
D03*
X912100Y196300D02*
D03*
X826300Y311200D02*
D03*
X837300Y309100D02*
D03*
X837000Y315700D02*
D03*
X826700Y319300D02*
D03*
X835300Y297000D02*
D03*
X836500Y323600D02*
D03*
X892000Y319300D02*
D03*
X894000Y323200D02*
D03*
X891600Y327000D02*
D03*
X894500Y329700D02*
D03*
X891700Y332200D02*
D03*
X894400Y335400D02*
D03*
X891500Y338900D02*
D03*
X870100Y317900D02*
D03*
X873300Y316600D02*
D03*
X869500Y314600D02*
D03*
X873400Y311900D02*
D03*
X869600Y309700D02*
D03*
X873400Y308000D02*
D03*
X869700Y305900D02*
D03*
X873400Y303800D02*
D03*
X869700Y301800D02*
D03*
X869600Y329500D02*
D03*
X869900Y332500D02*
D03*
X868900Y335400D02*
D03*
X869000Y338900D02*
D03*
X866300Y340600D02*
D03*
X860300Y340100D02*
D03*
X854400Y339700D02*
D03*
X852800Y337000D02*
D03*
X852700Y333100D02*
D03*
X852600Y330200D02*
D03*
X784400Y278200D02*
D03*
X789900Y253100D02*
D03*
X781200Y253400D02*
D03*
X839400Y185100D02*
D03*
X876000Y277700D02*
D03*
X820500Y229200D02*
D03*
X813300Y229700D02*
D03*
X849900Y224700D02*
D03*
X847200Y199500D02*
D03*
X844781Y257181D02*
D03*
X887400Y237000D02*
D03*
Y240100D02*
D03*
X785500Y253213D02*
D03*
X783000Y284800D02*
D03*
X841200Y256400D02*
D03*
X837500Y220600D02*
D03*
X858400Y260300D02*
D03*
X843400Y224500D02*
D03*
X854600Y227400D02*
D03*
X891600Y268500D02*
D03*
X895700Y255000D02*
D03*
X843100Y302600D02*
D03*
X846800Y303600D02*
D03*
X842800Y308100D02*
D03*
X846800Y311700D02*
D03*
X843200Y313800D02*
D03*
X847100Y317700D02*
D03*
X843400Y318300D02*
D03*
X960500Y270400D02*
D03*
X965600Y270500D02*
D03*
Y278400D02*
D03*
X960300Y278100D02*
D03*
X951400Y283200D02*
D03*
X955100Y278500D02*
D03*
X951600Y278200D02*
D03*
X951800Y245600D02*
D03*
X940500Y240600D02*
D03*
X923200Y275400D02*
D03*
X921100Y234600D02*
D03*
X941200Y266200D02*
D03*
X845700Y271700D02*
D03*
X852300Y219600D02*
D03*
X860400Y223800D02*
D03*
X855900Y254300D02*
D03*
X841600Y247800D02*
D03*
X841700Y244700D02*
D03*
X916500Y277100D02*
D03*
X916700Y280600D02*
D03*
X916500Y283800D02*
D03*
X876800Y237100D02*
D03*
X774000Y234000D02*
D03*
X774100Y220000D02*
D03*
X828500Y234500D02*
D03*
X978000Y259500D02*
D03*
X804000Y267000D02*
D03*
X809000Y272000D02*
D03*
X828500Y252500D02*
D03*
X825000D02*
D03*
X928500Y221000D02*
D03*
X928000Y215500D02*
D03*
X916500D02*
D03*
X916000Y221000D02*
D03*
X862500Y217000D02*
D03*
X900500Y177000D02*
D03*
X882000Y176500D02*
D03*
X847500Y180000D02*
D03*
X833300Y184000D02*
D03*
X846500Y186500D02*
D03*
X796500Y243000D02*
D03*
X791000Y236500D02*
D03*
X828500Y241000D02*
D03*
X813500Y241500D02*
D03*
X920000Y194500D02*
D03*
X921500Y192500D02*
D03*
X918500D02*
D03*
X725000Y209000D02*
D03*
X730500D02*
D03*
X736000Y202500D02*
D03*
X763000Y196500D02*
D03*
X768000Y207500D02*
D03*
X766500Y219500D02*
D03*
X770000Y224500D02*
D03*
X762000Y226500D02*
D03*
X757000D02*
D03*
X752500Y222500D02*
D03*
X728500Y203000D02*
D03*
X750000Y162000D02*
D03*
X766500D02*
D03*
X780500Y177500D02*
D03*
X723500Y177000D02*
D03*
X784500Y205500D02*
D03*
X779500Y189500D02*
D03*
X737500Y162000D02*
D03*
X760500D02*
D03*
X774000Y161500D02*
D03*
X779000Y169000D02*
D03*
X724000Y189000D02*
D03*
Y166500D02*
D03*
X729500Y161500D02*
D03*
M02*
