G04*
G04 #@! TF.GenerationSoftware,Altium Limited,Altium Designer,18.0.12 (696)*
G04*
G04 Layer_Physical_Order=1*
G04 Layer_Color=255*
%FSLAX25Y25*%
%MOIN*%
G70*
G01*
G75*
%ADD12C,0.01000*%
%ADD46R,0.03150X0.03150*%
%ADD47R,0.03402X0.03098*%
%ADD48R,0.05500X0.11000*%
%ADD49R,0.03098X0.03402*%
%ADD50R,0.05512X0.20472*%
%ADD51R,0.07480X0.19685*%
%ADD52O,0.07480X0.02362*%
%ADD53R,0.01181X0.04724*%
%ADD54R,0.04724X0.01181*%
%ADD55R,0.05512X0.03937*%
%ADD56R,0.06000X0.02400*%
%ADD57R,0.04331X0.06102*%
%ADD58R,0.04331X0.06102*%
%ADD59R,0.13583X0.06102*%
%ADD60R,0.08661X0.02362*%
G04:AMPARAMS|DCode=61|XSize=110.24mil|YSize=39.37mil|CornerRadius=19.68mil|HoleSize=0mil|Usage=FLASHONLY|Rotation=90.000|XOffset=0mil|YOffset=0mil|HoleType=Round|Shape=RoundedRectangle|*
%AMROUNDEDRECTD61*
21,1,0.11024,0.00000,0,0,90.0*
21,1,0.07087,0.03937,0,0,90.0*
1,1,0.03937,0.00000,0.03544*
1,1,0.03937,0.00000,-0.03544*
1,1,0.03937,0.00000,-0.03544*
1,1,0.03937,0.00000,0.03544*
%
%ADD61ROUNDEDRECTD61*%
G04:AMPARAMS|DCode=62|XSize=23.62mil|YSize=66.93mil|CornerRadius=11.81mil|HoleSize=0mil|Usage=FLASHONLY|Rotation=0.000|XOffset=0mil|YOffset=0mil|HoleType=Round|Shape=RoundedRectangle|*
%AMROUNDEDRECTD62*
21,1,0.02362,0.04331,0,0,0.0*
21,1,0.00000,0.06693,0,0,0.0*
1,1,0.02362,0.00000,-0.02166*
1,1,0.02362,0.00000,-0.02166*
1,1,0.02362,0.00000,0.02166*
1,1,0.02362,0.00000,0.02166*
%
%ADD62ROUNDEDRECTD62*%
%ADD63O,0.06693X0.01378*%
%ADD64R,0.02362X0.05709*%
%ADD65R,0.03543X0.03740*%
%ADD66R,0.03543X0.03740*%
%ADD67C,0.02000*%
%ADD68C,0.03000*%
%ADD69C,0.04000*%
%ADD70R,0.13500X0.06700*%
%ADD71R,0.13000X0.25000*%
%ADD72R,0.07900X0.07600*%
%ADD73R,0.07800X0.14800*%
%ADD74R,0.34900X0.16000*%
%ADD75R,0.06100X0.11400*%
%ADD76R,0.14200X0.21100*%
%ADD77R,0.08300X0.11000*%
%ADD78R,0.07200X0.16500*%
%ADD79R,0.37600X0.05900*%
%ADD80R,0.04900X0.10900*%
%ADD81R,0.15000X0.09500*%
%ADD82R,0.06000X0.09500*%
%ADD83C,0.06000*%
%ADD84C,0.10000*%
%ADD85C,0.11800*%
%ADD86C,0.07874*%
%ADD87C,0.15000*%
%ADD88C,0.23600*%
%ADD89C,0.03937*%
%ADD90C,0.02362*%
G36*
X982135Y258042D02*
X981635Y257993D01*
X981601Y258163D01*
X981226Y258726D01*
X979786Y260166D01*
X979772Y260234D01*
X979356Y260856D01*
X978734Y261272D01*
X978000Y261418D01*
X977266Y261272D01*
X976644Y260856D01*
X976228Y260234D01*
X976082Y259500D01*
X976228Y258766D01*
X976644Y258144D01*
X977266Y257728D01*
X977334Y257715D01*
X978267Y256782D01*
Y196642D01*
X977767Y196472D01*
X977639Y196639D01*
X976866Y197232D01*
X975966Y197605D01*
X975000Y197732D01*
X974034Y197605D01*
X973134Y197232D01*
X972361Y196639D01*
X971768Y195866D01*
X971395Y194966D01*
X971268Y194000D01*
X971395Y193034D01*
X971661Y192392D01*
X969993Y190724D01*
X967629D01*
X967459Y191224D01*
X967639Y191361D01*
X968232Y192134D01*
X968605Y193034D01*
X968732Y194000D01*
X968605Y194966D01*
X968232Y195866D01*
X967639Y196639D01*
X966866Y197232D01*
X965966Y197605D01*
X965000Y197732D01*
X964034Y197605D01*
X963134Y197232D01*
X962732Y196923D01*
X962575D01*
X954333Y205165D01*
X953936Y205430D01*
X953468Y205523D01*
X945111D01*
X943923Y206711D01*
Y227068D01*
X949166Y232310D01*
X949431Y232707D01*
X949524Y233175D01*
Y244838D01*
X950024Y244887D01*
X950028Y244866D01*
X950444Y244244D01*
X951066Y243828D01*
X951800Y243682D01*
X952534Y243828D01*
X952592Y243867D01*
X955209D01*
Y242561D01*
X970191D01*
Y250064D01*
X965423D01*
Y268386D01*
X967000D01*
X967273Y268441D01*
X967505Y268595D01*
X967659Y268827D01*
X967714Y269100D01*
Y280100D01*
X967659Y280373D01*
X967505Y280605D01*
X967273Y280759D01*
X967000Y280814D01*
X958700D01*
X958427Y280759D01*
X958195Y280605D01*
X958114Y280483D01*
X957614Y280595D01*
Y286500D01*
X957559Y286773D01*
X957405Y287005D01*
X957173Y287159D01*
X956900Y287214D01*
X949700D01*
X949427Y287159D01*
X949195Y287005D01*
X949041Y286773D01*
X948986Y286500D01*
Y270172D01*
X948530Y269949D01*
X948505Y269947D01*
X944300Y274151D01*
Y278101D01*
X943264D01*
X943182Y278517D01*
X942916Y278914D01*
X941123Y280707D01*
Y282651D01*
X941030Y283119D01*
X940765Y283516D01*
X938401Y285881D01*
Y288800D01*
X933599D01*
Y286624D01*
X932700D01*
Y287300D01*
X925300D01*
Y283500D01*
X932700D01*
Y284176D01*
X936644D01*
X937661Y283160D01*
X937470Y282698D01*
X933599D01*
Y281624D01*
X932700D01*
Y282300D01*
X925300D01*
Y278500D01*
X932700D01*
Y279176D01*
X933599D01*
Y278200D01*
X933599D01*
X933700Y278101D01*
Y276624D01*
X932700D01*
Y277300D01*
X925300D01*
Y276624D01*
X924645D01*
X924556Y276756D01*
X923934Y277172D01*
X923200Y277318D01*
X922466Y277172D01*
X921844Y276756D01*
X921428Y276134D01*
X921282Y275400D01*
X921428Y274666D01*
X921844Y274044D01*
X922466Y273628D01*
X923200Y273482D01*
X923934Y273628D01*
X924556Y274044D01*
X924645Y274177D01*
X925300D01*
Y273500D01*
X932700D01*
Y274177D01*
X933700D01*
Y273299D01*
X937677D01*
Y272600D01*
X937770Y272132D01*
X938035Y271735D01*
X938146Y271623D01*
X937939Y271124D01*
X934397D01*
X933929Y271030D01*
X933532Y270765D01*
X930690Y267923D01*
X926203D01*
X925735Y267830D01*
X925338Y267565D01*
X923835Y266062D01*
X923570Y265665D01*
X923477Y265197D01*
Y261803D01*
X923570Y261335D01*
X923835Y260938D01*
X925200Y259573D01*
Y256700D01*
X932600D01*
Y260500D01*
X927733D01*
X927095Y261138D01*
X927287Y261600D01*
X932600D01*
Y262277D01*
X932949D01*
X933099Y262306D01*
X933599Y261936D01*
Y258200D01*
Y253802D01*
X936390D01*
X937532Y252660D01*
X937341Y252198D01*
X933599D01*
Y249823D01*
X932600D01*
Y250500D01*
X925200D01*
Y246700D01*
X926111D01*
X926161Y246200D01*
X925811Y246130D01*
X925414Y245865D01*
X923635Y244087D01*
X923370Y243689D01*
X923277Y243221D01*
Y234579D01*
X923370Y234110D01*
X923635Y233714D01*
X925300Y232048D01*
Y229500D01*
X930491D01*
X931977Y228014D01*
Y199071D01*
X929901Y196995D01*
X929401Y197202D01*
Y201198D01*
X924599D01*
Y196700D01*
X925267D01*
Y184129D01*
X919482Y178344D01*
X915857D01*
X915590Y178844D01*
X915733Y179058D01*
X915879Y179791D01*
Y184123D01*
X915733Y184856D01*
X915317Y185479D01*
X915178Y185572D01*
X915091Y186007D01*
X914826Y186404D01*
X911562Y189669D01*
X911165Y189934D01*
X910697Y190027D01*
X898975D01*
X898507Y189934D01*
X898110Y189669D01*
X891665Y183223D01*
X877672D01*
X877203Y183130D01*
X876806Y182865D01*
X871775Y177834D01*
X866896D01*
X866315Y178415D01*
X866317Y178435D01*
X866733Y179058D01*
X866879Y179791D01*
Y184123D01*
X866733Y184856D01*
X866317Y185479D01*
X866214Y185547D01*
X866130Y185968D01*
X865865Y186365D01*
X864223Y188007D01*
Y198000D01*
X864130Y198468D01*
X863865Y198865D01*
X859865Y202865D01*
X859468Y203130D01*
X859000Y203223D01*
X858294D01*
Y203881D01*
X848234D01*
Y200119D01*
X858294D01*
Y200268D01*
X858794Y200475D01*
X861777Y197493D01*
Y187500D01*
X861870Y187032D01*
X862135Y186635D01*
X863479Y185291D01*
X863189Y184856D01*
X863043Y184123D01*
Y179791D01*
X863189Y179058D01*
X863605Y178435D01*
X863737Y178347D01*
Y178039D01*
X863831Y177571D01*
X864096Y177174D01*
X864974Y176296D01*
X864782Y175834D01*
X863896D01*
X861386Y178344D01*
X861395Y178435D01*
X861811Y179058D01*
X861957Y179791D01*
Y184123D01*
X861811Y184856D01*
X861395Y185479D01*
X861263Y185567D01*
Y195461D01*
X861169Y195929D01*
X860904Y196326D01*
X859365Y197865D01*
X858968Y198130D01*
X858500Y198223D01*
X858294D01*
Y198881D01*
X848234D01*
Y195119D01*
X858294D01*
X858294Y195119D01*
Y195119D01*
X858714Y194919D01*
X858815Y194839D01*
Y185567D01*
X858683Y185479D01*
X858267Y184856D01*
X858121Y184123D01*
Y179791D01*
X858267Y179058D01*
X858683Y178435D01*
X858815Y178347D01*
Y177961D01*
X858909Y177493D01*
X859174Y177096D01*
X862524Y173745D01*
X862921Y173480D01*
X863389Y173387D01*
X873110D01*
X873579Y173480D01*
X873976Y173745D01*
X874556Y174326D01*
X874980Y174043D01*
X874959Y173992D01*
X874868Y173295D01*
Y166209D01*
X874959Y165512D01*
X875228Y164863D01*
X875656Y164305D01*
X875750Y164233D01*
X875580Y163733D01*
X871218D01*
X856851Y178100D01*
Y179000D01*
X856890Y179058D01*
X857036Y179791D01*
Y184123D01*
X856890Y184856D01*
X856474Y185479D01*
X855852Y185894D01*
X855118Y186040D01*
X854384Y185894D01*
X853762Y185479D01*
X853346Y184856D01*
X853200Y184123D01*
Y179791D01*
X853346Y179058D01*
X853385Y179000D01*
Y177382D01*
X853517Y176719D01*
X853892Y176156D01*
X869274Y160774D01*
X869738Y160465D01*
X869650Y159965D01*
X720615Y159965D01*
X720615Y345185D01*
X982135Y345185D01*
Y258042D01*
D02*
G37*
G36*
X939551Y267118D02*
X939428Y266934D01*
X939282Y266200D01*
X939428Y265466D01*
X939844Y264844D01*
X940466Y264428D01*
X941200Y264282D01*
X941934Y264428D01*
X942556Y264844D01*
X942972Y265466D01*
X943076Y265987D01*
X943594Y266176D01*
X944676Y265093D01*
Y252458D01*
X944215Y252267D01*
X940424Y256057D01*
Y258100D01*
X940331Y258568D01*
X940066Y258965D01*
X938401Y260630D01*
Y262698D01*
X934530D01*
X934339Y263160D01*
X935481Y264302D01*
X938401D01*
Y267616D01*
X938863Y267807D01*
X939551Y267118D01*
D02*
G37*
G36*
X948037Y265699D02*
X948700Y265567D01*
X959977D01*
Y250064D01*
X955209D01*
Y247333D01*
X952592D01*
X952534Y247372D01*
X951800Y247518D01*
X951066Y247372D01*
X950444Y246956D01*
X950028Y246334D01*
X950024Y246313D01*
X949524Y246362D01*
Y248855D01*
X949431Y249323D01*
X949166Y249720D01*
X947124Y251762D01*
Y265600D01*
X947094Y265747D01*
X947306Y265929D01*
X947549Y266025D01*
X948037Y265699D01*
D02*
G37*
G36*
X940463Y197474D02*
X941025Y197099D01*
X941689Y196967D01*
X942005D01*
X942229Y196467D01*
X941768Y195866D01*
X941395Y194966D01*
X941268Y194000D01*
X941395Y193034D01*
X941661Y192392D01*
X939993Y190724D01*
X937629D01*
X937459Y191224D01*
X937639Y191361D01*
X938232Y192134D01*
X938605Y193034D01*
X938732Y194000D01*
X938605Y194966D01*
X938232Y195866D01*
X937639Y196639D01*
X936866Y197232D01*
X936123Y197539D01*
Y201161D01*
X936585Y201352D01*
X940463Y197474D01*
D02*
G37*
G36*
X929282Y195889D02*
X929276Y195864D01*
Y192136D01*
X929370Y191668D01*
X929635Y191271D01*
X932271Y188635D01*
X932668Y188370D01*
X933136Y188277D01*
X940500D01*
X940968Y188370D01*
X941365Y188635D01*
X943392Y190661D01*
X944034Y190395D01*
X945000Y190268D01*
X945966Y190395D01*
X946866Y190768D01*
X947467Y191229D01*
X947967Y191005D01*
Y189300D01*
X948099Y188637D01*
X948474Y188074D01*
X948573Y187976D01*
X948382Y187514D01*
X946186D01*
X945966Y187605D01*
X945000Y187732D01*
X944034Y187605D01*
X943814Y187514D01*
X936186D01*
X935966Y187605D01*
X935000Y187732D01*
X934034Y187605D01*
X933814Y187514D01*
X930800D01*
X930527Y187459D01*
X930295Y187305D01*
X930141Y187073D01*
X930086Y186800D01*
Y180900D01*
X930141Y180627D01*
X930295Y180395D01*
X930527Y180241D01*
X930800Y180186D01*
X968400D01*
X968673Y180241D01*
X968905Y180395D01*
X969059Y180627D01*
X969114Y180900D01*
Y186800D01*
X969059Y187073D01*
X968905Y187305D01*
X968673Y187459D01*
X968400Y187514D01*
X966186D01*
X965966Y187605D01*
X965000Y187732D01*
X964034Y187605D01*
X963814Y187514D01*
X956186D01*
X955966Y187605D01*
X955000Y187732D01*
X954034Y187605D01*
X953901Y187550D01*
X951433Y190018D01*
Y191749D01*
X951933Y191919D01*
X952361Y191361D01*
X953134Y190768D01*
X954034Y190395D01*
X955000Y190268D01*
X955966Y190395D01*
X956866Y190768D01*
X957639Y191361D01*
X958232Y192134D01*
X958605Y193034D01*
X958695Y193722D01*
X959213Y193989D01*
X959276Y193950D01*
Y192136D01*
X959370Y191668D01*
X959635Y191271D01*
X962271Y188635D01*
X962668Y188370D01*
X963136Y188277D01*
X970500D01*
X970968Y188370D01*
X971365Y188635D01*
X973392Y190661D01*
X974034Y190395D01*
X975000Y190268D01*
X975966Y190395D01*
X976866Y190768D01*
X977639Y191361D01*
X977767Y191528D01*
X978267Y191358D01*
Y186642D01*
X977767Y186472D01*
X977639Y186639D01*
X976866Y187232D01*
X975966Y187605D01*
X975000Y187732D01*
X974034Y187605D01*
X973134Y187232D01*
X972361Y186639D01*
X971768Y185866D01*
X971395Y184966D01*
X971268Y184000D01*
X971395Y183034D01*
X971768Y182134D01*
X972361Y181361D01*
X973134Y180768D01*
X974034Y180395D01*
X975000Y180268D01*
X975966Y180395D01*
X976866Y180768D01*
X977639Y181361D01*
X977767Y181528D01*
X978267Y181358D01*
Y179718D01*
X976099Y177550D01*
X975966Y177605D01*
X975000Y177732D01*
X974034Y177605D01*
X973134Y177232D01*
X972361Y176639D01*
X971768Y175866D01*
X971395Y174966D01*
X971268Y174000D01*
X971395Y173034D01*
X971768Y172134D01*
X972361Y171361D01*
X973134Y170768D01*
X974034Y170395D01*
X975000Y170268D01*
X975966Y170395D01*
X976866Y170768D01*
X977639Y171361D01*
X978232Y172134D01*
X978605Y173034D01*
X978732Y174000D01*
X978605Y174966D01*
X978550Y175099D01*
X981226Y177774D01*
X981601Y178337D01*
X981635Y178507D01*
X982135Y178458D01*
Y159965D01*
X879812D01*
X879725Y160465D01*
X880188Y160774D01*
X882753Y163339D01*
X883129Y163901D01*
X883261Y164565D01*
Y167809D01*
X890982Y175531D01*
X894189D01*
X894335Y175321D01*
X894426Y175053D01*
X894110Y174641D01*
X893841Y173992D01*
X893750Y173295D01*
Y166209D01*
X893841Y165512D01*
X894110Y164863D01*
X894538Y164305D01*
X895095Y163878D01*
X895744Y163609D01*
X896441Y163517D01*
X897138Y163609D01*
X897787Y163878D01*
X898344Y164305D01*
X898772Y164863D01*
X899041Y165512D01*
X899133Y166209D01*
Y173295D01*
X899041Y173992D01*
X898772Y174641D01*
X898344Y175199D01*
X897787Y175626D01*
X897138Y175895D01*
X896441Y175987D01*
X896101Y175942D01*
X895867Y176416D01*
X899175Y179724D01*
X902214D01*
X902346Y179058D01*
X902385Y179000D01*
Y178350D01*
X902517Y177687D01*
X902892Y177125D01*
X904632Y175385D01*
X905195Y175009D01*
X905858Y174877D01*
X920200D01*
X920863Y175009D01*
X921425Y175385D01*
X928226Y182185D01*
X928601Y182748D01*
X928733Y183411D01*
Y196261D01*
X928852Y196293D01*
X929282Y195889D01*
D02*
G37*
G36*
X888825Y178277D02*
X880750Y170202D01*
X880250Y170409D01*
Y173295D01*
X880159Y173992D01*
X879890Y174641D01*
X879462Y175199D01*
X878905Y175626D01*
X878256Y175895D01*
X877559Y175987D01*
X876862Y175895D01*
X876812Y175874D01*
X876528Y176298D01*
X879007Y178777D01*
X888618D01*
X888825Y178277D01*
D02*
G37*
%LPC*%
G36*
X970600Y342549D02*
X969112Y342353D01*
X967725Y341779D01*
X966535Y340865D01*
X965621Y339675D01*
X965047Y338288D01*
X964851Y336800D01*
X965047Y335312D01*
X965621Y333925D01*
X966535Y332735D01*
X967725Y331821D01*
X969112Y331247D01*
X970600Y331051D01*
X972088Y331247D01*
X973475Y331821D01*
X974665Y332735D01*
X975579Y333925D01*
X976153Y335312D01*
X976349Y336800D01*
X976153Y338288D01*
X975579Y339675D01*
X974665Y340865D01*
X973475Y341779D01*
X972088Y342353D01*
X970600Y342549D01*
D02*
G37*
G36*
X927400D02*
X925912Y342353D01*
X924525Y341779D01*
X923335Y340865D01*
X922421Y339675D01*
X921847Y338288D01*
X921651Y336800D01*
X921847Y335312D01*
X922421Y333925D01*
X923335Y332735D01*
X924525Y331821D01*
X925912Y331247D01*
X927400Y331051D01*
X928888Y331247D01*
X930275Y331821D01*
X931465Y332735D01*
X932379Y333925D01*
X932953Y335312D01*
X933149Y336800D01*
X932953Y338288D01*
X932379Y339675D01*
X931465Y340865D01*
X930275Y341779D01*
X928888Y342353D01*
X927400Y342549D01*
D02*
G37*
G36*
X884500Y343014D02*
X849600D01*
X849327Y342959D01*
X849095Y342805D01*
X848941Y342573D01*
X848886Y342300D01*
Y326300D01*
X848941Y326027D01*
X849095Y325795D01*
X849327Y325641D01*
X849600Y325586D01*
X866200D01*
Y323702D01*
X861915Y319418D01*
X859689D01*
X858955Y319272D01*
X858333Y318856D01*
X857917Y318234D01*
X857771Y317500D01*
X857917Y316766D01*
X858333Y316144D01*
X858955Y315728D01*
X859689Y315582D01*
X864807D01*
X865541Y315728D01*
X866163Y316144D01*
X866579Y316766D01*
X866725Y317500D01*
X866579Y318234D01*
X866201Y318800D01*
X868499Y321099D01*
X870698D01*
Y325586D01*
X871386D01*
Y321100D01*
X871441Y320827D01*
X871595Y320595D01*
X871827Y320441D01*
X872100Y320386D01*
X876086D01*
Y315900D01*
X876141Y315627D01*
X876295Y315395D01*
X876527Y315241D01*
X876800Y315186D01*
X884600D01*
X884873Y315241D01*
X885105Y315395D01*
X885259Y315627D01*
X885314Y315900D01*
Y330700D01*
X885259Y330973D01*
X885250Y330987D01*
Y337700D01*
X885214D01*
Y342300D01*
X885159Y342573D01*
X885005Y342805D01*
X884773Y342959D01*
X884500Y343014D01*
D02*
G37*
G36*
X902800Y342514D02*
X889800D01*
X889527Y342459D01*
X889295Y342305D01*
X889141Y342073D01*
X889086Y341800D01*
Y316800D01*
X889141Y316527D01*
X889295Y316295D01*
X889527Y316141D01*
X889800Y316086D01*
X890448D01*
Y313601D01*
X887939Y311092D01*
X887757Y311148D01*
X887432Y311293D01*
X887056Y311856D01*
X886434Y312272D01*
X885700Y312418D01*
X884966Y312272D01*
X884344Y311856D01*
X883928Y311234D01*
X883914Y311166D01*
X882167Y309418D01*
X878193D01*
X877459Y309272D01*
X876837Y308856D01*
X876421Y308234D01*
X876275Y307500D01*
X876421Y306766D01*
X876837Y306144D01*
X877459Y305728D01*
X878193Y305582D01*
X883311D01*
X884045Y305728D01*
X884667Y306144D01*
X884860Y306432D01*
X885360Y306280D01*
Y303720D01*
X884860Y303568D01*
X884667Y303856D01*
X884045Y304272D01*
X883311Y304418D01*
X878193D01*
X877459Y304272D01*
X876837Y303856D01*
X876421Y303234D01*
X876275Y302500D01*
X876421Y301766D01*
X876837Y301144D01*
X877459Y300728D01*
X878193Y300582D01*
X879019D01*
Y298401D01*
X875302D01*
Y293599D01*
X879800D01*
Y293599D01*
X880099Y293802D01*
X882198D01*
X882390Y293340D01*
X881274Y292225D01*
X881256Y292198D01*
X880099D01*
Y287700D01*
X883292D01*
X883483Y287238D01*
X881869Y285624D01*
X872373D01*
X871905Y285530D01*
X871508Y285265D01*
X869130Y282887D01*
X868865Y282490D01*
X868847Y282403D01*
X855293D01*
Y283314D01*
X855200Y283782D01*
X854935Y284179D01*
X852669Y286444D01*
X852272Y286709D01*
X851804Y286803D01*
X847832D01*
X845523Y289111D01*
Y291304D01*
X845430Y291772D01*
X845165Y292169D01*
X843469Y293866D01*
X843072Y294131D01*
X842604Y294224D01*
X824260D01*
X824192Y294299D01*
X823999Y294688D01*
X824123Y294833D01*
X825151Y296511D01*
X825904Y298328D01*
X826363Y300242D01*
X826517Y302203D01*
X826363Y304165D01*
X825904Y306078D01*
X825151Y307896D01*
X824123Y309573D01*
X822845Y311069D01*
X821349Y312347D01*
X819671Y313375D01*
X817853Y314128D01*
X815940Y314587D01*
X813979Y314742D01*
X812017Y314587D01*
X810104Y314128D01*
X808286Y313375D01*
X806609Y312347D01*
X805113Y311069D01*
X803835Y309573D01*
X802807Y307896D01*
X802054Y306078D01*
X801595Y304165D01*
X801440Y302203D01*
X801595Y300242D01*
X802054Y298328D01*
X802807Y296511D01*
X803835Y294833D01*
X805113Y293337D01*
X806609Y292059D01*
X808286Y291031D01*
X810104Y290278D01*
X812017Y289819D01*
X813979Y289665D01*
X815940Y289819D01*
X817853Y290278D01*
X819671Y291031D01*
X820061Y291270D01*
X820373Y290875D01*
X799054Y269556D01*
X798788Y269159D01*
X798695Y268690D01*
Y244377D01*
X798788Y243909D01*
X799054Y243512D01*
X808263Y234303D01*
Y231177D01*
X808356Y230709D01*
X808267Y230503D01*
X807672Y230391D01*
X803898Y234165D01*
X803501Y234430D01*
X803033Y234524D01*
X778307D01*
X777965Y234865D01*
X777568Y235130D01*
X777100Y235224D01*
X775445D01*
X775356Y235356D01*
X774734Y235772D01*
X774000Y235918D01*
X773266Y235772D01*
X772644Y235356D01*
X772228Y234734D01*
X772082Y234000D01*
X772217Y233324D01*
X772174Y233161D01*
X771993Y232823D01*
X744779D01*
X744588Y233285D01*
X762782Y251479D01*
X778086D01*
Y249900D01*
X778141Y249627D01*
X778295Y249395D01*
X778527Y249241D01*
X778800Y249186D01*
X792300D01*
X792573Y249241D01*
X792805Y249395D01*
X792959Y249627D01*
X793014Y249900D01*
Y256600D01*
X792959Y256873D01*
X792805Y257105D01*
X792573Y257259D01*
X792300Y257314D01*
X784733D01*
Y276348D01*
X785134Y276428D01*
X785756Y276844D01*
X786172Y277466D01*
X786318Y278200D01*
X786172Y278934D01*
X785756Y279556D01*
X785134Y279972D01*
X784733Y280052D01*
Y284008D01*
X784772Y284066D01*
X784918Y284800D01*
X784772Y285534D01*
X784356Y286156D01*
X783734Y286572D01*
X783000Y286718D01*
X782266Y286572D01*
X781644Y286156D01*
X781228Y285534D01*
X781082Y284800D01*
X781228Y284066D01*
X781267Y284008D01*
Y257314D01*
X778800D01*
X778527Y257259D01*
X778295Y257105D01*
X778141Y256873D01*
X778086Y256600D01*
Y254946D01*
X762064D01*
X761401Y254814D01*
X760838Y254438D01*
X738223Y231823D01*
X737848Y231261D01*
X737838Y231214D01*
X723500Y231214D01*
X723227Y231159D01*
X722995Y231005D01*
X722841Y230773D01*
X722786Y230500D01*
Y220800D01*
X722599D01*
Y216302D01*
X722786D01*
Y215500D01*
X722841Y215227D01*
X722995Y214995D01*
X723227Y214841D01*
X723500Y214786D01*
X733320Y214786D01*
X733731Y214286D01*
X733706Y214161D01*
X733814Y213619D01*
X734121Y213160D01*
X734286Y213049D01*
Y210000D01*
X734341Y209727D01*
X734495Y209495D01*
X734727Y209341D01*
X735000Y209286D01*
X738286D01*
Y205214D01*
X738341Y204941D01*
X738397Y204857D01*
X738341Y204773D01*
X738286Y204500D01*
Y202296D01*
X736995Y201005D01*
X736995Y201005D01*
X725995Y190005D01*
X725841Y189773D01*
X725786Y189500D01*
X725786Y167500D01*
X725841Y167227D01*
X725995Y166995D01*
X726227Y166841D01*
X726500Y166786D01*
X748786Y166786D01*
X749059Y166841D01*
X749495Y166995D01*
X749727Y166841D01*
X750000Y166786D01*
X774500D01*
X774773Y166841D01*
X775005Y166995D01*
X775159Y167227D01*
X775214Y167500D01*
Y198500D01*
X775667Y198786D01*
X777000D01*
X777273Y198841D01*
X777505Y198995D01*
X777659Y199227D01*
X777714Y199500D01*
Y211704D01*
X780505Y214495D01*
X780659Y214727D01*
X780714Y215000D01*
Y222000D01*
X780659Y222273D01*
X780505Y222505D01*
X780273Y222659D01*
X780000Y222714D01*
X773000D01*
X772727Y222659D01*
X772495Y222505D01*
X771995Y222005D01*
X771841Y221773D01*
X771786Y221500D01*
Y215801D01*
X771770Y215785D01*
X769030D01*
X768883Y216005D01*
X768652Y216159D01*
X768379Y216214D01*
X767296Y216214D01*
X765005Y218505D01*
X764773Y218659D01*
X764500Y218714D01*
X763463D01*
X763394Y218700D01*
X763324Y218700D01*
X763259Y218673D01*
X763190Y218659D01*
X763177Y218650D01*
X762808Y218577D01*
X757633D01*
X757264Y218650D01*
X757251Y218659D01*
X757182Y218673D01*
X757117Y218700D01*
X757047D01*
X756978Y218714D01*
X753296Y218714D01*
X750214Y221796D01*
X750214Y229876D01*
X750367Y230134D01*
X750646Y230377D01*
X801822D01*
X807644Y224554D01*
X808041Y224289D01*
X808510Y224195D01*
X810538D01*
X810598Y223695D01*
X810104Y223577D01*
X808286Y222824D01*
X806609Y221796D01*
X805113Y220518D01*
X803835Y219022D01*
X802807Y217344D01*
X802054Y215527D01*
X801595Y213614D01*
X801440Y211652D01*
X801595Y209690D01*
X802054Y207777D01*
X802807Y205960D01*
X803835Y204282D01*
X805113Y202786D01*
X806609Y201508D01*
X808286Y200480D01*
X810104Y199727D01*
X812017Y199268D01*
X813979Y199113D01*
X815940Y199268D01*
X817853Y199727D01*
X819671Y200480D01*
X821349Y201508D01*
X822845Y202786D01*
X824123Y204282D01*
X825151Y205960D01*
X825904Y207777D01*
X826363Y209690D01*
X826517Y211652D01*
X826363Y213614D01*
X825904Y215527D01*
X825151Y217344D01*
X824123Y219022D01*
X822845Y220518D01*
X821349Y221796D01*
X819671Y222824D01*
X817853Y223577D01*
X815940Y224036D01*
X815798Y224047D01*
X815662Y224532D01*
X815662Y224560D01*
X818704Y227602D01*
X819144Y227844D01*
X819766Y227428D01*
X820500Y227282D01*
X820656Y227313D01*
X821335Y226635D01*
X821732Y226370D01*
X822200Y226276D01*
X835893D01*
X840935Y221235D01*
X841332Y220970D01*
X841800Y220877D01*
X850667D01*
X851136Y220970D01*
X851532Y221235D01*
X853165Y222867D01*
X853430Y223264D01*
X853524Y223733D01*
X854017Y223716D01*
Y221950D01*
X854149Y221287D01*
X854524Y220724D01*
X855874Y219374D01*
X856437Y218999D01*
X857100Y218867D01*
X864782D01*
X868433Y215216D01*
X868302Y214901D01*
X868302D01*
Y212702D01*
X866180Y210580D01*
X865804Y210018D01*
X865672Y209354D01*
Y202594D01*
X865804Y201931D01*
X866180Y201369D01*
X866774Y200774D01*
X867337Y200399D01*
X868000Y200267D01*
X868705D01*
Y200119D01*
X878767D01*
X878854Y199655D01*
Y196639D01*
X876095Y193881D01*
X868705D01*
Y190119D01*
X878767D01*
Y193092D01*
X880942Y195267D01*
X881054Y195434D01*
X881554Y195282D01*
Y191375D01*
X881647Y190907D01*
X881912Y190510D01*
X883177Y189244D01*
Y186425D01*
X887727D01*
Y190975D01*
X884908D01*
X884001Y191882D01*
Y193325D01*
X887827D01*
Y197875D01*
X886775D01*
Y204537D01*
X887468Y205229D01*
X887733Y205627D01*
X887827Y206095D01*
Y209140D01*
X888326Y209200D01*
X888668Y207777D01*
X889421Y205960D01*
X890449Y204282D01*
X891727Y202786D01*
X893223Y201508D01*
X894901Y200480D01*
X896718Y199727D01*
X898631Y199268D01*
X900593Y199113D01*
X902554Y199268D01*
X904468Y199727D01*
X906285Y200480D01*
X907963Y201508D01*
X909459Y202786D01*
X910737Y204282D01*
X911765Y205960D01*
X912518Y207777D01*
X912977Y209690D01*
X913132Y211652D01*
X912977Y213614D01*
X912518Y215527D01*
X911765Y217344D01*
X910737Y219022D01*
X909459Y220518D01*
X907963Y221796D01*
X906285Y222824D01*
X904468Y223577D01*
X902554Y224036D01*
X900593Y224191D01*
X898631Y224036D01*
X896718Y223577D01*
X894901Y222824D01*
X893223Y221796D01*
X891727Y220518D01*
X890449Y219022D01*
X889421Y217344D01*
X888668Y215527D01*
X888326Y214105D01*
X887827Y214164D01*
Y214583D01*
X887816Y214633D01*
Y217410D01*
X887827Y217461D01*
Y221145D01*
X888781Y222100D01*
X891701D01*
Y226598D01*
X886899D01*
Y223710D01*
X886582Y223452D01*
X886127Y223650D01*
Y235058D01*
X886567Y235294D01*
X886666Y235228D01*
X887400Y235082D01*
X888134Y235228D01*
X888756Y235644D01*
X888845Y235776D01*
X893700D01*
Y234099D01*
X893700D01*
Y233901D01*
X893700D01*
Y231205D01*
X893238Y231014D01*
X892574Y231677D01*
X892012Y232053D01*
X891701Y232115D01*
Y232700D01*
X886899D01*
Y228202D01*
X891147D01*
X891463Y227886D01*
X891474Y227869D01*
X894069Y225274D01*
X894069Y225274D01*
X894631Y224899D01*
X895295Y224767D01*
X904900D01*
Y224600D01*
X912300D01*
Y224787D01*
X912863Y224899D01*
X913426Y225274D01*
X913805Y225654D01*
X914267Y225462D01*
Y224167D01*
X914227Y224159D01*
X913995Y224005D01*
X913841Y223773D01*
X913786Y223500D01*
Y214000D01*
X913841Y213727D01*
X913995Y213495D01*
X914227Y213341D01*
X914500Y213286D01*
X929500D01*
X929773Y213341D01*
X930005Y213495D01*
X930159Y213727D01*
X930214Y214000D01*
Y220179D01*
X930272Y220266D01*
X930418Y221000D01*
X930272Y221734D01*
X930214Y221821D01*
Y223500D01*
X930159Y223773D01*
X930005Y224005D01*
X929773Y224159D01*
X929500Y224214D01*
X917733D01*
Y244882D01*
X917826Y244974D01*
X918201Y245537D01*
X918333Y246200D01*
Y273786D01*
X919100D01*
X919373Y273841D01*
X919605Y273995D01*
X919759Y274227D01*
X919814Y274500D01*
Y285400D01*
X919759Y285673D01*
X919605Y285905D01*
X919373Y286059D01*
X919100Y286114D01*
X914223D01*
Y286897D01*
X914130Y287365D01*
X913865Y287762D01*
X912962Y288665D01*
X912565Y288930D01*
X912097Y289023D01*
X885775D01*
X885401Y288949D01*
X885064Y289128D01*
X884901Y289260D01*
Y290949D01*
X885050Y291097D01*
X885568Y291201D01*
X886131Y291576D01*
X888319Y293764D01*
X888694Y294327D01*
X888826Y294990D01*
Y296665D01*
X889317Y296762D01*
X889421Y296511D01*
X890449Y294833D01*
X891727Y293337D01*
X893223Y292059D01*
X894901Y291031D01*
X896718Y290278D01*
X898631Y289819D01*
X900593Y289665D01*
X902554Y289819D01*
X904468Y290278D01*
X906285Y291031D01*
X907963Y292059D01*
X909459Y293337D01*
X910737Y294833D01*
X911765Y296511D01*
X912518Y298328D01*
X912977Y300242D01*
X913132Y302203D01*
X912977Y304165D01*
X912518Y306078D01*
X911765Y307896D01*
X910737Y309573D01*
X909459Y311069D01*
X907963Y312347D01*
X906285Y313375D01*
X904468Y314128D01*
X902554Y314587D01*
X900593Y314742D01*
X898631Y314587D01*
X896718Y314128D01*
X894901Y313375D01*
X894414Y313077D01*
X893914Y313357D01*
Y316086D01*
X902800D01*
X903073Y316141D01*
X903305Y316295D01*
X903459Y316527D01*
X903514Y316800D01*
Y341800D01*
X903459Y342073D01*
X903305Y342305D01*
X903073Y342459D01*
X902800Y342514D01*
D02*
G37*
G36*
X854200Y322114D02*
X840000D01*
X839727Y322059D01*
X839495Y321905D01*
X839341Y321673D01*
X839286Y321400D01*
Y300300D01*
X839341Y300027D01*
X839495Y299795D01*
X839727Y299641D01*
X840000Y299586D01*
X848387D01*
Y299564D01*
X850767D01*
Y298300D01*
X850099D01*
Y293802D01*
X854867D01*
Y292198D01*
X850099D01*
Y287700D01*
X854901D01*
Y288215D01*
X856149D01*
X856812Y288347D01*
X857200Y288606D01*
X857700Y288448D01*
Y287599D01*
X862198D01*
Y292401D01*
X858333D01*
Y293599D01*
X862198D01*
Y298401D01*
X861682D01*
Y299483D01*
X862781Y300582D01*
X864807D01*
X865541Y300728D01*
X866163Y301144D01*
X866579Y301766D01*
X866725Y302500D01*
X866579Y303234D01*
X866163Y303856D01*
X865541Y304272D01*
X864807Y304418D01*
X859689D01*
X859424Y304365D01*
X859177Y304826D01*
X859933Y305582D01*
X864807D01*
X865541Y305728D01*
X866163Y306144D01*
X866579Y306766D01*
X866725Y307500D01*
X866579Y308234D01*
X866163Y308856D01*
X865541Y309272D01*
X864807Y309418D01*
X859689D01*
X858955Y309272D01*
X858333Y308856D01*
X858303Y308811D01*
X858174Y308726D01*
X855798Y306350D01*
X855298Y306557D01*
Y310767D01*
X858897D01*
X858955Y310728D01*
X859689Y310582D01*
X864807D01*
X865541Y310728D01*
X866163Y311144D01*
X866579Y311766D01*
X866725Y312500D01*
X866579Y313234D01*
X866163Y313856D01*
X865541Y314272D01*
X864807Y314418D01*
X859689D01*
X858955Y314272D01*
X858897Y314233D01*
X855298D01*
Y321436D01*
X854906D01*
X854859Y321673D01*
X854705Y321905D01*
X854473Y322059D01*
X854200Y322114D01*
D02*
G37*
G36*
X939200Y304132D02*
X937906Y304005D01*
X936662Y303627D01*
X935515Y303014D01*
X934511Y302189D01*
X933686Y301185D01*
X933073Y300038D01*
X932695Y298794D01*
X932568Y297500D01*
X932695Y296206D01*
X933073Y294962D01*
X933686Y293815D01*
X934511Y292811D01*
X935515Y291986D01*
X936662Y291373D01*
X937906Y290996D01*
X939200Y290868D01*
X940494Y290996D01*
X941738Y291373D01*
X942885Y291986D01*
X943890Y292811D01*
X944714Y293815D01*
X945327Y294962D01*
X945704Y296206D01*
X945832Y297500D01*
X945704Y298794D01*
X945327Y300038D01*
X944714Y301185D01*
X943890Y302189D01*
X942885Y303014D01*
X941738Y303627D01*
X940494Y304005D01*
X939200Y304132D01*
D02*
G37*
G36*
X762878Y223255D02*
X757563D01*
X757021Y223147D01*
X756562Y222840D01*
X756255Y222380D01*
X756147Y221839D01*
X756255Y221297D01*
X756562Y220837D01*
X757021Y220530D01*
X757563Y220422D01*
X762878D01*
X763420Y220530D01*
X763879Y220837D01*
X764186Y221297D01*
X764294Y221839D01*
X764186Y222380D01*
X763879Y222840D01*
X763420Y223147D01*
X762878Y223255D01*
D02*
G37*
G36*
X858294Y208881D02*
X848234D01*
Y205119D01*
X858294D01*
Y208881D01*
D02*
G37*
G36*
X922231Y212444D02*
X917288D01*
Y207304D01*
X917599Y207300D01*
Y202802D01*
X922401D01*
Y207300D01*
X922231Y207304D01*
Y212444D01*
D02*
G37*
G36*
X929712Y212444D02*
X924769D01*
Y207304D01*
X924599Y207300D01*
Y202802D01*
X929401D01*
Y207300D01*
X929712Y207304D01*
Y212444D01*
D02*
G37*
G36*
X834343Y200177D02*
X833132Y200018D01*
X832004Y199550D01*
X831036Y198807D01*
X830292Y197838D01*
X829825Y196711D01*
X829666Y195500D01*
X829825Y194290D01*
X830292Y193161D01*
X831036Y192193D01*
X832004Y191450D01*
X833132Y190982D01*
X834343Y190823D01*
X835553Y190982D01*
X836681Y191450D01*
X837650Y192193D01*
X838393Y193161D01*
X838860Y194290D01*
X839020Y195500D01*
X838860Y196711D01*
X838393Y197838D01*
X837650Y198807D01*
X836681Y199550D01*
X835553Y200018D01*
X834343Y200177D01*
D02*
G37*
G36*
X824500Y200177D02*
X823289Y200018D01*
X822161Y199550D01*
X821193Y198807D01*
X820450Y197838D01*
X819982Y196711D01*
X819823Y195500D01*
X819982Y194290D01*
X820450Y193161D01*
X821193Y192193D01*
X822161Y191450D01*
X823289Y190982D01*
X824500Y190823D01*
X825710Y190982D01*
X826838Y191450D01*
X827807Y192193D01*
X828550Y193161D01*
X829018Y194290D01*
X829177Y195500D01*
X829018Y196711D01*
X828550Y197838D01*
X827807Y198807D01*
X826838Y199550D01*
X825710Y200018D01*
X824500Y200177D01*
D02*
G37*
G36*
X802843D02*
X801632Y200018D01*
X800504Y199550D01*
X799536Y198807D01*
X798792Y197838D01*
X798325Y196711D01*
X798166Y195500D01*
X798325Y194290D01*
X798792Y193161D01*
X799536Y192193D01*
X800504Y191450D01*
X801632Y190982D01*
X802843Y190823D01*
X804053Y190982D01*
X805181Y191450D01*
X806150Y192193D01*
X806893Y193161D01*
X807360Y194290D01*
X807520Y195500D01*
X807360Y196711D01*
X806893Y197838D01*
X806150Y198807D01*
X805181Y199550D01*
X804053Y200018D01*
X802843Y200177D01*
D02*
G37*
G36*
X793000D02*
X791789Y200018D01*
X790661Y199550D01*
X789693Y198807D01*
X788950Y197838D01*
X788482Y196711D01*
X788323Y195500D01*
X788482Y194290D01*
X788950Y193161D01*
X789693Y192193D01*
X790661Y191450D01*
X791789Y190982D01*
X793000Y190823D01*
X794210Y190982D01*
X795338Y191450D01*
X796307Y192193D01*
X797050Y193161D01*
X797518Y194290D01*
X797677Y195500D01*
X797518Y196711D01*
X797050Y197838D01*
X796307Y198807D01*
X795338Y199550D01*
X794210Y200018D01*
X793000Y200177D01*
D02*
G37*
G36*
X923000Y201214D02*
X917000D01*
X916727Y201159D01*
X916495Y201005D01*
X916341Y200773D01*
X916286Y200500D01*
Y191000D01*
X916341Y190727D01*
X916495Y190495D01*
X916727Y190341D01*
X917000Y190286D01*
X923000D01*
X923273Y190341D01*
X923505Y190495D01*
X923659Y190727D01*
X923714Y191000D01*
Y200500D01*
X923659Y200773D01*
X923505Y201005D01*
X923273Y201159D01*
X923000Y201214D01*
D02*
G37*
G36*
X858294Y193881D02*
X848234D01*
Y190119D01*
X858294D01*
Y193881D01*
D02*
G37*
G36*
X829237Y180866D02*
X828540Y180774D01*
X827891Y180505D01*
X827334Y180077D01*
X826906Y179520D01*
X826637Y178871D01*
X826546Y178174D01*
X826637Y177477D01*
X826906Y176828D01*
X827334Y176271D01*
X827891Y175843D01*
X828540Y175574D01*
X829237Y175482D01*
X829934Y175574D01*
X830583Y175843D01*
X831140Y176271D01*
X831568Y176828D01*
X831837Y177477D01*
X831929Y178174D01*
X831837Y178871D01*
X831568Y179520D01*
X831140Y180077D01*
X830583Y180505D01*
X829934Y180774D01*
X829237Y180866D01*
D02*
G37*
G36*
X796363D02*
X795666Y180774D01*
X795017Y180505D01*
X794460Y180077D01*
X794032Y179520D01*
X793763Y178871D01*
X793672Y178174D01*
X793763Y177477D01*
X794032Y176828D01*
X794460Y176271D01*
X795017Y175843D01*
X795666Y175574D01*
X796363Y175482D01*
X797060Y175574D01*
X797709Y175843D01*
X798266Y176271D01*
X798694Y176828D01*
X798963Y177477D01*
X799054Y178174D01*
X798963Y178871D01*
X798694Y179520D01*
X798266Y180077D01*
X797709Y180505D01*
X797060Y180774D01*
X796363Y180866D01*
D02*
G37*
G36*
X847441Y175987D02*
X846744Y175895D01*
X846095Y175626D01*
X845538Y175199D01*
X845110Y174641D01*
X844841Y173992D01*
X844750Y173295D01*
Y166209D01*
X844841Y165512D01*
X845110Y164863D01*
X845538Y164305D01*
X846095Y163878D01*
X846744Y163609D01*
X847441Y163517D01*
X848138Y163609D01*
X848787Y163878D01*
X849344Y164305D01*
X849772Y164863D01*
X850041Y165512D01*
X850132Y166209D01*
Y173295D01*
X850041Y173992D01*
X849772Y174641D01*
X849344Y175199D01*
X848787Y175626D01*
X848138Y175895D01*
X847441Y175987D01*
D02*
G37*
%LPD*%
G36*
X841376Y287900D02*
X841470Y287432D01*
X841735Y287035D01*
X845756Y283014D01*
X845922Y282903D01*
X845770Y282403D01*
X845082D01*
Y276279D01*
X849086D01*
Y275185D01*
X848744Y274956D01*
X848328Y274334D01*
X848182Y273600D01*
X848328Y272866D01*
X848744Y272244D01*
X849366Y271828D01*
X850100Y271682D01*
X850834Y271828D01*
X851456Y272244D01*
X851872Y272866D01*
X852018Y273600D01*
X851872Y274334D01*
X851534Y274840D01*
Y276279D01*
X873254D01*
Y276279D01*
X873517Y276494D01*
X873605Y276477D01*
X874555D01*
X874644Y276344D01*
X875266Y275928D01*
X876000Y275782D01*
X876734Y275928D01*
X877356Y276344D01*
X877772Y276966D01*
X877918Y277700D01*
X877772Y278434D01*
X877356Y279056D01*
X876734Y279472D01*
X876000Y279618D01*
X875266Y279472D01*
X874644Y279056D01*
X874590Y278976D01*
X874089Y278947D01*
X873254Y279781D01*
Y282403D01*
X872848D01*
X872651Y282858D01*
X872910Y283176D01*
X882376D01*
X882844Y283270D01*
X883241Y283535D01*
X886282Y286577D01*
X904900D01*
Y283500D01*
X911777D01*
Y282300D01*
X904900D01*
X904800Y282759D01*
Y282901D01*
X900302D01*
Y279084D01*
X899802Y278877D01*
X898698Y279981D01*
Y282901D01*
X894200D01*
Y278099D01*
X897119D01*
X897974Y277244D01*
Y272901D01*
X894200D01*
Y268099D01*
X895225D01*
Y267356D01*
X893894Y266024D01*
X892197D01*
X891728Y265931D01*
X891331Y265666D01*
X886742Y261076D01*
X882703D01*
Y264468D01*
Y269018D01*
X876579D01*
Y268951D01*
X875027D01*
X874559Y268857D01*
X874162Y268592D01*
X871746Y266177D01*
X861745D01*
X861277Y266083D01*
X860880Y265818D01*
X858966Y263905D01*
X857414D01*
X856946Y263811D01*
X856549Y263546D01*
X855154Y262151D01*
X854889Y261754D01*
X854795Y261286D01*
Y258293D01*
X852654Y256151D01*
X852388Y255754D01*
X852295Y255286D01*
Y253163D01*
X851696Y252563D01*
X851534Y252672D01*
X850800Y252818D01*
X850066Y252672D01*
X849444Y252256D01*
X849028Y251634D01*
X848885Y250917D01*
X848882Y250900D01*
X848802Y250431D01*
X848365Y250331D01*
X848066Y250272D01*
X847916Y250172D01*
X847444Y249856D01*
X847028Y249234D01*
X846882Y248500D01*
X847028Y247766D01*
X847444Y247144D01*
X847858Y246867D01*
X847896Y246291D01*
X847844Y246256D01*
X847428Y245634D01*
X847282Y244900D01*
X847428Y244166D01*
X847844Y243544D01*
X848466Y243128D01*
X849200Y242982D01*
X849934Y243128D01*
X850556Y243544D01*
X850972Y244166D01*
X851118Y244900D01*
X851087Y245057D01*
X851507Y245477D01*
X852700D01*
X853168Y245570D01*
X853565Y245835D01*
X856607Y248877D01*
X857471D01*
X857940Y248970D01*
X858337Y249235D01*
X860846Y251744D01*
X861112Y252141D01*
X861205Y252610D01*
Y253066D01*
X864815Y256677D01*
X875337D01*
X875529Y256215D01*
X875214Y255900D01*
X874949Y255503D01*
X874856Y255034D01*
Y242086D01*
X873893Y241124D01*
X861774D01*
X861306Y241030D01*
X860909Y240765D01*
X859288Y239144D01*
X859023Y238747D01*
X858930Y238279D01*
Y237521D01*
X856894D01*
Y232217D01*
X856500Y231823D01*
X855538D01*
Y237335D01*
X855612Y237445D01*
X855705Y237914D01*
Y239374D01*
X860207Y243877D01*
X867619D01*
X867682Y243800D01*
X867828Y243066D01*
X868244Y242444D01*
X868866Y242028D01*
X869050Y241991D01*
X869132Y241937D01*
X869600Y241844D01*
X870068Y241937D01*
X870150Y241991D01*
X870334Y242028D01*
X870956Y242444D01*
X871372Y243066D01*
X871518Y243800D01*
X871372Y244534D01*
X870956Y245156D01*
X870334Y245572D01*
X869990Y245640D01*
X869665Y245965D01*
X869268Y246230D01*
X868800Y246323D01*
X859700D01*
X859232Y246230D01*
X858835Y245965D01*
X853616Y240746D01*
X853351Y240349D01*
X853330Y240341D01*
X852834Y240672D01*
X852100Y240818D01*
X851366Y240672D01*
X850744Y240256D01*
X850328Y239634D01*
X850249Y239238D01*
X850039Y239151D01*
X849571Y239245D01*
X841348D01*
X840880Y239151D01*
X840483Y238886D01*
X839780Y238183D01*
X839515Y237786D01*
X839422Y237318D01*
Y234252D01*
X835793Y230624D01*
X824174D01*
X822351Y232446D01*
X821955Y232712D01*
X821486Y232805D01*
X819842D01*
X819635Y233305D01*
X820765Y234435D01*
X821030Y234832D01*
X821124Y235300D01*
Y239294D01*
X827415Y245585D01*
X827893Y245440D01*
X827928Y245266D01*
X828344Y244644D01*
X828966Y244228D01*
X829700Y244082D01*
X830434Y244228D01*
X831056Y244644D01*
X831197Y244854D01*
X831536Y244806D01*
X831697Y244703D01*
Y241520D01*
X831477Y241476D01*
X831080Y241211D01*
X827635Y237765D01*
X827370Y237368D01*
X827277Y236900D01*
Y235945D01*
X827144Y235856D01*
X826728Y235234D01*
X826582Y234500D01*
X826728Y233766D01*
X827144Y233144D01*
X827766Y232728D01*
X828500Y232582D01*
X829234Y232728D01*
X829856Y233144D01*
X830272Y233766D01*
X830418Y234500D01*
X830272Y235234D01*
X829856Y235856D01*
X829771Y235913D01*
X829742Y236412D01*
X832452Y239122D01*
X837618D01*
X838073Y239212D01*
X838580D01*
X839048Y239306D01*
X839445Y239571D01*
X840551Y240676D01*
X842767D01*
X843236Y240770D01*
X843633Y241035D01*
X845246Y242649D01*
X845512Y243045D01*
X845605Y243514D01*
Y249586D01*
X845512Y250055D01*
X845246Y250451D01*
X838916Y256781D01*
X838831Y256838D01*
X838756Y257470D01*
X839365Y258079D01*
X839630Y258476D01*
X839723Y258945D01*
Y262123D01*
X840044Y262538D01*
X840778Y262684D01*
X841400Y263100D01*
X841816Y263722D01*
X841962Y264456D01*
X841816Y265190D01*
X841400Y265812D01*
X840778Y266228D01*
X840044Y266374D01*
X839310Y266228D01*
X838688Y265812D01*
X838321Y265264D01*
X838011Y265281D01*
X837821Y265347D01*
Y270441D01*
X839058D01*
X839164Y270282D01*
X842713Y266733D01*
X843441Y266247D01*
X843586Y266218D01*
Y258645D01*
X843425Y258537D01*
X843009Y257915D01*
X842863Y257181D01*
X843009Y256447D01*
X843425Y255825D01*
X844047Y255409D01*
X844781Y255263D01*
X845515Y255409D01*
X845780Y255586D01*
X850400D01*
X850673Y255641D01*
X850905Y255795D01*
X851059Y256027D01*
X851114Y256300D01*
Y257279D01*
X851372Y257666D01*
X851518Y258400D01*
X851372Y259134D01*
X851114Y259521D01*
Y266076D01*
X856747D01*
X857605Y266247D01*
X858333Y266733D01*
X860857Y269257D01*
X872700D01*
X873558Y269428D01*
X874286Y269914D01*
X874638Y270441D01*
X876579D01*
Y270374D01*
X882703D01*
Y272955D01*
X881787D01*
X881596Y273416D01*
X884852Y276673D01*
X885427D01*
X889867Y272233D01*
Y269292D01*
X889828Y269234D01*
X889682Y268500D01*
X889828Y267766D01*
X890244Y267144D01*
X890866Y266728D01*
X891600Y266582D01*
X892334Y266728D01*
X892956Y267144D01*
X893372Y267766D01*
X893518Y268500D01*
X893372Y269234D01*
X893333Y269292D01*
Y272951D01*
X893201Y273615D01*
X892826Y274177D01*
X887901Y279102D01*
Y281300D01*
X883099D01*
Y278381D01*
X878776Y274057D01*
X878511Y273660D01*
X878417Y273192D01*
Y272955D01*
X876579D01*
Y272887D01*
X874419D01*
X874286Y273086D01*
X873558Y273572D01*
X872700Y273743D01*
X859928D01*
X859069Y273572D01*
X858342Y273086D01*
X855818Y270562D01*
X845229D01*
X842993Y272797D01*
Y273350D01*
X842908Y273778D01*
X843301Y274171D01*
X843566Y274568D01*
X843659Y275036D01*
Y276279D01*
X843727D01*
Y282403D01*
X841901D01*
Y284698D01*
X837099D01*
Y280200D01*
X839847D01*
X841146Y278901D01*
Y276279D01*
X841146Y276279D01*
X841146D01*
X841015Y275833D01*
X840750Y275593D01*
X839892Y275422D01*
X839164Y274936D01*
X838678Y274208D01*
X838507Y273350D01*
Y272887D01*
X837821D01*
Y272955D01*
X835223D01*
Y274700D01*
X836401D01*
Y279198D01*
X831599D01*
Y274700D01*
X832777D01*
Y272955D01*
X831697D01*
Y268405D01*
Y265014D01*
X827936D01*
Y269499D01*
X821775D01*
Y270599D01*
X822800D01*
Y275401D01*
X818302D01*
Y270599D01*
X819328D01*
Y267449D01*
X819421Y266981D01*
X819686Y266584D01*
X820535Y265735D01*
X820932Y265470D01*
X821024Y265451D01*
Y264162D01*
X823257D01*
Y263920D01*
X823331Y263545D01*
X823153Y263209D01*
X823020Y263045D01*
X813171D01*
X812703Y262951D01*
X812306Y262686D01*
X810458Y260838D01*
X806064D01*
Y255501D01*
X812523D01*
X812818Y255001D01*
X812763Y254901D01*
X812200D01*
Y250099D01*
X816698D01*
Y254901D01*
X815672D01*
Y256851D01*
X815579Y257319D01*
X815314Y257716D01*
X813965Y259065D01*
X813568Y259330D01*
X813100Y259423D01*
X813073Y259445D01*
X813056Y259975D01*
X813678Y260597D01*
X831697D01*
Y258562D01*
Y254626D01*
X837612D01*
X842111Y250126D01*
X841865Y249665D01*
X841600Y249718D01*
X840866Y249572D01*
X840244Y249156D01*
X839828Y248534D01*
X839751Y248146D01*
X838296Y246691D01*
X837821Y246923D01*
Y249332D01*
X831869D01*
X831638Y249808D01*
X832518Y250689D01*
X837821D01*
Y253270D01*
X831697D01*
Y253127D01*
X831610Y253109D01*
X831213Y252844D01*
X819035Y240666D01*
X818770Y240269D01*
X818676Y239801D01*
Y235807D01*
X814816Y231946D01*
X814551Y231549D01*
X814273Y231434D01*
X814026Y231474D01*
X813300Y231618D01*
X813200Y231598D01*
X812410Y232388D01*
Y235514D01*
X812317Y235982D01*
X812051Y236379D01*
X802842Y245588D01*
Y267479D01*
X825440Y290077D01*
X841376D01*
Y287900D01*
D02*
G37*
G36*
X911777Y272400D02*
X904900D01*
X904800Y272859D01*
Y272901D01*
X900422D01*
Y277751D01*
X900708Y278099D01*
X904800D01*
X904900Y278500D01*
X911777D01*
Y272400D01*
D02*
G37*
G36*
X898333Y268041D02*
X899640Y266734D01*
X900037Y266469D01*
X900505Y266376D01*
X909891D01*
X911477Y264790D01*
Y260500D01*
X904800D01*
Y260500D01*
X904300Y260501D01*
Y260901D01*
X902630D01*
X899564Y263966D01*
X899168Y264231D01*
X898699Y264324D01*
X896308D01*
X896117Y264786D01*
X897314Y265984D01*
X897579Y266381D01*
X897672Y266849D01*
Y268099D01*
X898294D01*
X898333Y268041D01*
D02*
G37*
G36*
X893700Y259112D02*
Y256099D01*
X893700D01*
X893901Y255599D01*
X893782Y255000D01*
X893865Y254581D01*
X893800Y254501D01*
X893800D01*
Y249699D01*
X894215D01*
Y249351D01*
X894347Y248688D01*
X894723Y248126D01*
X902674Y240174D01*
X903237Y239799D01*
X903900Y239667D01*
X904900D01*
Y239500D01*
X911567D01*
Y238300D01*
X904900D01*
Y237723D01*
X904300D01*
Y238901D01*
X900172D01*
X900065Y239061D01*
X897361Y241765D01*
X896964Y242030D01*
X896496Y242124D01*
X888200D01*
X887732Y242030D01*
X887641Y241970D01*
X887400Y242018D01*
X886868Y241912D01*
X886409Y242181D01*
X886344Y242258D01*
X886318Y242487D01*
X887057Y243227D01*
X887499Y243400D01*
Y243400D01*
X887499Y243400D01*
X892301D01*
Y247898D01*
X887499D01*
Y246823D01*
X887281Y246779D01*
X886884Y246514D01*
X884760Y244390D01*
X884131Y244468D01*
X884068Y244562D01*
X883660Y244970D01*
X883263Y245235D01*
X882795Y245328D01*
X882703D01*
Y248786D01*
X888159D01*
X888627Y248880D01*
X889024Y249145D01*
X889381Y249502D01*
X892301D01*
Y254000D01*
X887499D01*
Y251234D01*
X882703D01*
Y254693D01*
X888120D01*
X888588Y254786D01*
X888985Y255051D01*
X893238Y259303D01*
X893700Y259112D01*
D02*
G37*
G36*
X898162Y255748D02*
X898235Y255639D01*
X899140Y254734D01*
X899537Y254469D01*
X899902Y254396D01*
Y249699D01*
X904400D01*
X904800Y249457D01*
Y246700D01*
X912200D01*
X912200Y246700D01*
Y246700D01*
X912200Y246700D01*
X912626Y246522D01*
X914267Y244882D01*
Y242438D01*
X913805Y242247D01*
X913426Y242626D01*
X912863Y243001D01*
X912300Y243113D01*
Y243300D01*
X904900D01*
Y243300D01*
X904415Y243336D01*
X898484Y249267D01*
X898298Y249699D01*
X898298D01*
X898298Y249699D01*
Y254501D01*
X897682D01*
Y255000D01*
X897596Y255433D01*
X898003Y255771D01*
X898162Y255748D01*
D02*
G37*
G36*
X845082Y231397D02*
X845150D01*
Y230678D01*
X845243Y230210D01*
X845508Y229813D01*
X846802Y228519D01*
Y225599D01*
X847828D01*
Y225351D01*
X847921Y224883D01*
X847996Y224770D01*
X847982Y224700D01*
X848128Y223966D01*
X848223Y223823D01*
X847956Y223323D01*
X842307D01*
X837470Y228160D01*
X837469Y228161D01*
X837431Y228755D01*
X837464Y228834D01*
X840684Y232053D01*
X841146Y231862D01*
Y231397D01*
X843727D01*
Y236797D01*
X845082D01*
Y231397D01*
D02*
G37*
G36*
X870673D02*
X870741D01*
Y231087D01*
X870834Y230619D01*
X871099Y230222D01*
X872802Y228519D01*
Y227232D01*
X871892Y226323D01*
X862975D01*
X862183Y227115D01*
X861786Y227380D01*
X861317Y227473D01*
X856977D01*
X856976Y227476D01*
X856386Y228066D01*
X856372Y228134D01*
X855956Y228756D01*
X855776Y228876D01*
X855928Y229377D01*
X857007D01*
X857475Y229470D01*
X857872Y229735D01*
X859049Y230912D01*
X859314Y231309D01*
X859332Y231397D01*
X869318D01*
Y236797D01*
X870673D01*
Y231397D01*
D02*
G37*
G36*
X875028Y236366D02*
X875444Y235744D01*
X876066Y235328D01*
X876800Y235182D01*
X877534Y235328D01*
X877917Y235584D01*
X878417Y235317D01*
Y208881D01*
X870037D01*
X869845Y209343D01*
X870602Y210099D01*
X872800D01*
Y214901D01*
X872285D01*
Y215549D01*
X872285Y215549D01*
X872153Y216212D01*
X871777Y216774D01*
X866726Y221826D01*
X866163Y222201D01*
X865500Y222333D01*
X857818D01*
X857483Y222668D01*
Y225026D01*
X860811D01*
X861603Y224234D01*
X862000Y223969D01*
X862468Y223876D01*
X872399D01*
X872867Y223969D01*
X873264Y224234D01*
X874629Y225599D01*
X877300D01*
Y230401D01*
X874381D01*
X873254Y231527D01*
Y236797D01*
X874942D01*
X875028Y236366D01*
D02*
G37*
G36*
X741077Y230000D02*
Y223637D01*
X740577Y223227D01*
X740437Y223255D01*
X735122D01*
X734580Y223147D01*
X734121Y222840D01*
X733814Y222380D01*
X733706Y221839D01*
X733814Y221297D01*
X734121Y220837D01*
X734163Y220809D01*
Y220309D01*
X734121Y220281D01*
X733814Y219822D01*
X733706Y219280D01*
X733814Y218738D01*
X734121Y218278D01*
X734580Y217971D01*
X735122Y217863D01*
X740437D01*
X740979Y217971D01*
X741438Y218278D01*
X741700Y218670D01*
X741973Y218662D01*
X742200Y218586D01*
X742200Y215500D01*
X740827D01*
X740437Y215578D01*
X735122D01*
X734732Y215500D01*
X723500Y215500D01*
Y230500D01*
X740644Y230500D01*
X741077Y230000D01*
D02*
G37*
G36*
X763141Y214797D02*
X763365Y214648D01*
X763395Y214603D01*
X763402Y214596D01*
X763407Y214586D01*
X763514Y214425D01*
X763566Y214161D01*
X763514Y213898D01*
X763407Y213737D01*
X763380Y213672D01*
X763341Y213614D01*
X763327Y213545D01*
X763300Y213480D01*
Y213410D01*
X763286Y213341D01*
Y212000D01*
X763341Y211727D01*
X763495Y211495D01*
X764000Y210991D01*
Y210000D01*
X761000D01*
Y208211D01*
X760928Y208102D01*
X760928Y208102D01*
X760928Y208102D01*
X760832Y207623D01*
X760757Y207244D01*
Y205214D01*
X755500Y205214D01*
X755227Y205159D01*
X754995Y205005D01*
X754841Y204773D01*
X754786Y204500D01*
Y200214D01*
X754198D01*
X753925Y200159D01*
X753693Y200005D01*
X753565Y199813D01*
X750214D01*
Y214286D01*
X756453Y214286D01*
X756522Y214300D01*
X756592D01*
X756657Y214327D01*
X756726Y214341D01*
X756784Y214380D01*
X756849Y214407D01*
X756899Y214456D01*
X756957Y214495D01*
X756996Y214554D01*
X757046Y214603D01*
X757076Y214648D01*
X757300Y214797D01*
X757633Y214864D01*
X762808D01*
X763141Y214797D01*
D02*
G37*
G36*
X881979Y218910D02*
X881969Y218859D01*
Y213185D01*
X881979Y213134D01*
Y208010D01*
X881365Y207395D01*
X880865Y207602D01*
Y240845D01*
X881979D01*
Y218910D01*
D02*
G37*
G36*
X749500Y221500D02*
X753000Y218000D01*
X756978Y218000D01*
X757021Y217971D01*
X757563Y217863D01*
X762878D01*
X763420Y217971D01*
X763463Y218000D01*
X764500D01*
X767000Y215500D01*
X768379Y215500D01*
Y215072D01*
X772141D01*
Y215146D01*
X772495Y215500D01*
X772500D01*
Y221500D01*
X773000Y222000D01*
X780000D01*
Y215000D01*
X777000Y212000D01*
Y199500D01*
X772000Y199500D01*
X772000Y204000D01*
X769786Y206214D01*
X770072Y206642D01*
X770243Y207500D01*
X770072Y208358D01*
X769586Y209086D01*
X768858Y209572D01*
X768000Y209743D01*
X766257D01*
X764000Y212000D01*
Y213341D01*
X764186Y213619D01*
X764294Y214161D01*
X764186Y214703D01*
X764000Y214982D01*
Y215000D01*
X763988D01*
X763879Y215163D01*
X763420Y215470D01*
X762878Y215578D01*
X757563D01*
X757021Y215470D01*
X756562Y215163D01*
X756453Y215000D01*
X743263Y215000D01*
X742914Y215500D01*
X742914Y218586D01*
X742909Y218612D01*
X742912Y218638D01*
X742882Y218748D01*
X742859Y218860D01*
X742845Y218881D01*
X742838Y218906D01*
X742768Y218996D01*
X742705Y219091D01*
X742683Y219106D01*
X742667Y219126D01*
X742568Y219182D01*
X742473Y219246D01*
X742448Y219251D01*
X742425Y219264D01*
X742300Y219305D01*
Y220687D01*
X742407Y220708D01*
X742804Y220973D01*
X743165Y221335D01*
X743430Y221732D01*
X743524Y222200D01*
Y229831D01*
X743693Y230000D01*
X749500Y230000D01*
X749500Y221500D01*
D02*
G37*
G36*
X740688Y214800D02*
X740758D01*
X740827Y214786D01*
X742200D01*
X742473Y214841D01*
X742494Y214855D01*
X742678Y214591D01*
X742724Y214547D01*
X742759Y214495D01*
X742823Y214452D01*
X742879Y214398D01*
X742938Y214375D01*
X742990Y214341D01*
X743067Y214325D01*
X743139Y214297D01*
X743202Y214299D01*
X743263Y214286D01*
X749500Y214286D01*
Y199607D01*
X749495Y199604D01*
X749426Y199500D01*
X745214D01*
Y204500D01*
X745159Y204773D01*
X745005Y205005D01*
X744773Y205159D01*
X744500Y205214D01*
X739000D01*
Y210000D01*
X735000D01*
Y214826D01*
X735192Y214864D01*
X740367D01*
X740688Y214800D01*
D02*
G37*
G36*
X765752Y209238D02*
X765984Y209084D01*
X766257Y209029D01*
X767930D01*
X768580Y208900D01*
X769072Y208572D01*
X769400Y208080D01*
X769515Y207500D01*
X769400Y206920D01*
X769193Y206610D01*
X769166Y206545D01*
X769127Y206487D01*
X769113Y206418D01*
X769086Y206353D01*
Y206283D01*
X769073Y206214D01*
X769086Y206145D01*
Y206074D01*
X769113Y206010D01*
X769127Y205941D01*
X769166Y205882D01*
X769193Y205817D01*
X769243Y205767D01*
X769282Y205709D01*
X769315Y205676D01*
X769124Y205214D01*
X765300D01*
X765027Y205159D01*
X764795Y205005D01*
X764641Y204773D01*
X764586Y204500D01*
Y198777D01*
X764584Y198773D01*
X764529Y198500D01*
Y196570D01*
X764400Y195920D01*
X764072Y195428D01*
X763580Y195100D01*
X763000Y194985D01*
X762420Y195100D01*
X761928Y195428D01*
X761600Y195920D01*
X761471Y196570D01*
Y199099D01*
X761416Y199372D01*
X761413Y199377D01*
Y203623D01*
X761416Y203628D01*
X761471Y203901D01*
Y204500D01*
X761416Y204773D01*
X761360Y204857D01*
X761416Y204941D01*
X761471Y205214D01*
Y207174D01*
X761602Y207836D01*
X761620Y207879D01*
X761659Y207938D01*
X761673Y208007D01*
X761700Y208071D01*
Y208142D01*
X761714Y208211D01*
Y209286D01*
X764000D01*
X764273Y209341D01*
X764505Y209495D01*
X764618Y209665D01*
X764824Y209752D01*
X765185Y209806D01*
X765752Y209238D01*
D02*
G37*
G36*
X771286Y203704D02*
X771286Y199500D01*
X771341Y199227D01*
X771495Y198995D01*
X771727Y198841D01*
X772000Y198786D01*
X772214D01*
X772500Y198500D01*
X774500D01*
Y167500D01*
X750000D01*
Y199099D01*
X754198D01*
Y199500D01*
X755500D01*
Y204500D01*
X760757Y204500D01*
Y203901D01*
X760700D01*
Y199099D01*
X760757D01*
Y196500D01*
X760928Y195642D01*
X761414Y194914D01*
X762142Y194428D01*
X763000Y194257D01*
X763858Y194428D01*
X764586Y194914D01*
X765072Y195642D01*
X765243Y196500D01*
Y198500D01*
X765300D01*
Y204500D01*
X770491D01*
X771286Y203704D01*
D02*
G37*
G36*
X744500Y198500D02*
X749286Y198500D01*
Y168000D01*
X748786Y167500D01*
X726500Y167500D01*
X726500Y189500D01*
X737500Y200500D01*
X739000Y202000D01*
Y204500D01*
X744500D01*
Y198500D01*
D02*
G37*
%LPC*%
G36*
X926559Y175987D02*
X925862Y175895D01*
X925213Y175626D01*
X924656Y175199D01*
X924228Y174641D01*
X923959Y173992D01*
X923868Y173295D01*
Y166209D01*
X923959Y165512D01*
X924228Y164863D01*
X924656Y164305D01*
X925213Y163878D01*
X925862Y163609D01*
X926559Y163517D01*
X927256Y163609D01*
X927905Y163878D01*
X928462Y164305D01*
X928890Y164863D01*
X929159Y165512D01*
X929251Y166209D01*
Y173295D01*
X929159Y173992D01*
X928890Y174641D01*
X928462Y175199D01*
X927905Y175626D01*
X927256Y175895D01*
X926559Y175987D01*
D02*
G37*
%LPD*%
D12*
X856019Y257786D02*
Y261286D01*
X853519Y255286D02*
X856019Y257786D01*
X853519Y252656D02*
Y255286D01*
X851763Y250900D02*
X853519Y252656D01*
X850800Y250900D02*
X851763D01*
X838321Y244985D02*
X841368Y248032D01*
X855067Y251800D02*
X856767D01*
X851786Y248519D02*
X855067Y251800D01*
X895949Y255000D02*
Y258500D01*
X874473Y228578D02*
X875051Y229155D01*
X874473Y227173D02*
Y228578D01*
X859386Y262681D02*
X859429Y262638D01*
X861745Y264953D01*
X872253D01*
X875027Y267727D01*
X879641D01*
X859496Y260300D02*
X862449Y263253D01*
X858400Y260300D02*
X859496D01*
X875576Y265581D02*
X879463D01*
X873249Y263253D02*
X875576Y265581D01*
X879463D02*
X879641Y265758D01*
X862449Y263253D02*
X873249D01*
X863153Y261553D02*
X873953D01*
X855900Y254300D02*
X863153Y261553D01*
X863857Y259853D02*
X879641D01*
X858281Y254277D02*
X863857Y259853D01*
X864308Y257900D02*
X887700D01*
X859981Y253573D02*
X864308Y257900D01*
X873953Y261553D02*
X876190Y263790D01*
X879641D01*
X850100Y273600D02*
X850310Y273810D01*
Y279341D01*
X838500Y262912D02*
X840044Y264456D01*
X838500Y258945D02*
Y262912D01*
X837440Y257884D02*
X838500Y258945D01*
X868800Y245100D02*
X870216Y243684D01*
X869600Y243067D02*
X870216Y243684D01*
X859700Y245100D02*
X868800D01*
X854481Y239881D02*
X859700Y245100D01*
X854481Y237914D02*
Y239881D01*
X854247Y237680D02*
X854481Y237914D01*
X854247Y234459D02*
Y237680D01*
X862300Y238021D02*
X875879D01*
X862121Y237842D02*
X862300Y238021D01*
X862121Y234459D02*
Y237842D01*
X876079Y241579D02*
Y255034D01*
X874400Y239900D02*
X876079Y241579D01*
X861774Y239900D02*
X874400D01*
X876079Y255034D02*
X876960Y255916D01*
X831946Y240346D02*
X837618D01*
X828500Y236900D02*
X831946Y240346D01*
X837708Y240436D02*
X838580D01*
X837618Y240346D02*
X837708Y240436D01*
X838580D02*
X840044Y241900D01*
X838321Y244985D02*
X838321D01*
X837441Y244105D02*
X838321Y244985D01*
X834759Y244105D02*
X837441D01*
X834759Y242136D02*
X837876D01*
X819514Y231581D02*
X821486D01*
X818119Y230186D02*
X819514Y231581D01*
X818119Y228747D02*
Y230186D01*
X814790Y225419D02*
X818119Y228747D01*
X809214Y227119D02*
X814086D01*
X810200Y229500D02*
Y230463D01*
X821486Y231581D02*
X823667Y229400D01*
X836300D01*
X840646Y233746D01*
X836400Y227500D02*
X841800Y222100D01*
X822200Y227500D02*
X836400D01*
X820500Y229200D02*
X822200Y227500D01*
X841348Y238021D02*
X849571D01*
X840646Y237318D02*
X841348Y238021D01*
X840646Y233746D02*
Y237318D01*
X828500Y234500D02*
Y236900D01*
X849571Y238021D02*
X850310Y237282D01*
X852100Y238900D02*
X852279Y238721D01*
Y234459D02*
Y238721D01*
X859981Y252610D02*
Y253573D01*
X857471Y250100D02*
X859981Y252610D01*
X856100Y250100D02*
X857471D01*
X852700Y246700D02*
X856100Y250100D01*
X851000Y246700D02*
X852700D01*
X856767Y251800D02*
X858281Y253314D01*
Y254277D01*
X851019Y248519D02*
X851786D01*
X851000Y248500D02*
X851019Y248519D01*
X848800Y248500D02*
X851000D01*
X856019Y261286D02*
X857414Y262681D01*
X849200Y244900D02*
X851000Y246700D01*
X854070Y279341D02*
Y283314D01*
X829700Y246000D02*
X831742Y248042D01*
X834759D01*
X869600Y243067D02*
Y243800D01*
X860153Y238279D02*
X861774Y239900D01*
X852300Y223733D02*
Y226333D01*
X850667Y222100D02*
X852300Y223733D01*
X852219Y226414D02*
X852300Y226333D01*
X841800Y222100D02*
X850667D01*
X854433Y230600D02*
X857007D01*
X852219Y226414D02*
Y228386D01*
X854433Y230600D01*
X857007D02*
X858184Y231777D01*
X869995Y282021D02*
X872373Y284400D01*
X869995Y279341D02*
Y282021D01*
X872373Y284400D02*
X882376D01*
X885775Y287800D01*
X809486Y231177D02*
X810200Y230463D01*
X809486Y231177D02*
Y234810D01*
X799919Y244377D02*
X809486Y234810D01*
X799919Y244377D02*
Y268690D01*
X811186Y231881D02*
Y235514D01*
X801619Y245081D02*
X811186Y235514D01*
X801619Y245081D02*
Y267986D01*
X815681Y228714D02*
Y231081D01*
X819900Y235300D01*
Y239801D01*
X832078Y251979D01*
X808510Y225419D02*
X814790D01*
X802328Y231600D02*
X808510Y225419D01*
X743563Y231600D02*
X802328D01*
X811186Y231881D02*
X813300Y229767D01*
Y229700D02*
Y229767D01*
X871964Y279341D02*
X873605Y277700D01*
X876000D01*
X824229Y293000D02*
X842604D01*
X851804Y285579D02*
X854070Y283314D01*
Y279341D02*
X854247D01*
X847325Y285579D02*
X851804D01*
X844300Y288604D02*
X847325Y285579D01*
X844300Y288604D02*
Y291304D01*
X842604Y293000D02*
X844300Y291304D01*
X851100Y283879D02*
X852279Y282700D01*
X824933Y291300D02*
X841900D01*
X842600Y290600D01*
Y287900D02*
Y290600D01*
Y287900D02*
X846621Y283879D01*
X851100D01*
X799919Y268690D02*
X824229Y293000D01*
X852279Y279341D02*
Y282700D01*
X801619Y267986D02*
X824933Y291300D01*
X777800Y233300D02*
X803033D01*
X809214Y227119D01*
X814086D02*
X815681Y228714D01*
X849702Y224700D02*
X849900D01*
X849051Y225351D02*
X849702Y224700D01*
X857414Y262681D02*
X859386D01*
X886603Y221652D02*
X889300Y224349D01*
X886603Y217461D02*
Y221652D01*
X886593Y217451D02*
X886603Y217461D01*
X886593Y214593D02*
Y217451D01*
Y214593D02*
X886603Y214583D01*
Y206095D02*
Y214583D01*
X885552Y205044D02*
X886603Y206095D01*
X885552Y195600D02*
Y205044D01*
X883203Y218869D02*
Y243697D01*
X883193Y218859D02*
X883203Y218869D01*
X883193Y213185D02*
Y218859D01*
Y213185D02*
X883203Y213175D01*
Y207503D02*
Y213175D01*
X884893Y213889D02*
Y218155D01*
Y213889D02*
X884903Y213879D01*
Y206799D02*
Y213879D01*
X882777Y204673D02*
X884903Y206799D01*
X880077Y204377D02*
X883203Y207503D01*
X879641Y207341D02*
Y242136D01*
X884903Y218165D02*
Y242803D01*
X884893Y218155D02*
X884903Y218165D01*
X899200Y232400D02*
Y238196D01*
X898300Y231500D02*
X899200Y232400D01*
X895949Y231500D02*
X898300D01*
X896496Y240900D02*
X899200Y238196D01*
X888200Y240900D02*
X896496D01*
X887400Y240100D02*
X888200Y240900D01*
X888159Y250010D02*
X889900Y251751D01*
X879641Y250010D02*
X888159D01*
X882795Y244105D02*
X883203Y243697D01*
X895449Y237000D02*
X895949Y236500D01*
X887400Y237000D02*
X895449D01*
X887749Y245649D02*
X889900D01*
X884903Y242803D02*
X887749Y245649D01*
X882777Y191375D02*
Y204673D01*
Y191375D02*
X885452Y188700D01*
X880077Y196133D02*
Y204377D01*
X875945Y192000D02*
X880077Y196133D01*
X834759Y257884D02*
X837440D01*
X872399Y225099D02*
X874473Y227173D01*
X862468Y225099D02*
X872399D01*
X871964Y231087D02*
X874473Y228578D01*
X875051Y228000D02*
Y229155D01*
X861317Y226250D02*
X862468Y225099D01*
X855750Y226250D02*
X861317D01*
X844276Y225376D02*
X844951Y224700D01*
X843400Y224500D02*
X844276Y225376D01*
X849051Y225351D02*
Y228000D01*
X858184Y231777D02*
Y234459D01*
X896449Y266849D02*
Y270500D01*
X894401Y264801D02*
X896449Y266849D01*
X892197Y264801D02*
X894401D01*
X887249Y259853D02*
X892197Y264801D01*
X879641Y259853D02*
X887249D01*
X872700Y271500D02*
X872864Y271664D01*
X879641D01*
X840750Y273350D02*
X842436Y275036D01*
X839064Y271664D02*
X840750Y273350D01*
X929000Y285400D02*
X937151D01*
X939651Y240051D02*
X941551Y241951D01*
X944604Y204300D02*
X953468D01*
X942700Y206204D02*
X944604Y204300D01*
X942700Y206204D02*
Y227575D01*
X953468Y204300D02*
X962068Y195700D01*
X945900Y251255D02*
X948300Y248855D01*
Y233175D02*
Y248855D01*
X942700Y227575D02*
X948300Y233175D01*
X934900Y196600D02*
Y234100D01*
Y196600D02*
X936250Y195250D01*
X935000Y194000D02*
X936250Y195250D01*
X946600Y233880D02*
Y248150D01*
X944900Y234584D02*
Y247022D01*
X933200Y198564D02*
Y228521D01*
X930500Y195864D02*
X933200Y198564D01*
X939300Y228983D02*
X944900Y234584D01*
X941000Y228279D02*
X946600Y233880D01*
X941000Y205500D02*
Y228279D01*
X939300Y204200D02*
Y228983D01*
X930321Y231400D02*
X933200Y228521D01*
X932551Y236449D02*
X934900Y234100D01*
X939300Y204200D02*
X942600Y200900D01*
X941000Y205500D02*
X943900Y202600D01*
X952764D02*
X960500Y194864D01*
X948100Y200900D02*
X955000Y194000D01*
X942600Y200900D02*
X948100D01*
X943900Y202600D02*
X952764D01*
X941551Y241951D02*
Y245000D01*
X935500Y240051D02*
X939651D01*
X936000Y255923D02*
X944900Y247022D01*
X936000Y255923D02*
Y256051D01*
X937151Y285400D02*
X939900Y282651D01*
Y280200D02*
Y282651D01*
Y280200D02*
X942051Y278049D01*
Y275700D02*
Y278049D01*
X935649Y275400D02*
X935949Y275700D01*
X929000Y275400D02*
X935649D01*
X936000Y286551D02*
X937151Y285400D01*
X938900Y272600D02*
Y277696D01*
X936147Y280449D02*
X938900Y277696D01*
X936000Y280449D02*
X936147D01*
X938900Y272600D02*
X945900Y265600D01*
X923200Y275400D02*
X929000D01*
X963300Y195700D02*
X965000Y194000D01*
X962068Y195700D02*
X963300D01*
X945900Y251255D02*
Y265600D01*
X934397Y269900D02*
X938500D01*
X941200Y266200D02*
Y267200D01*
X938500Y269900D02*
X941200Y267200D01*
X931197Y266700D02*
X934397Y269900D01*
X926203Y266700D02*
X931197D01*
X924700Y265197D02*
X926203Y266700D01*
X924500Y243221D02*
X926279Y245000D01*
X935449D01*
X924700Y261803D02*
Y265197D01*
Y261803D02*
X927903Y258600D01*
X928900D01*
X845700Y271700D02*
Y274800D01*
X844405Y276095D02*
X845700Y274800D01*
X844405Y276095D02*
Y279341D01*
X912700Y256903D02*
Y265297D01*
X900505Y267599D02*
X910398D01*
X912700Y265297D01*
X914400Y256199D02*
Y266001D01*
X913000Y267401D02*
X914400Y266001D01*
X913000Y267401D02*
Y286897D01*
X899198Y268906D02*
Y277751D01*
Y268906D02*
X900505Y267599D01*
X902551Y270500D02*
X908600D01*
X911801Y253600D02*
X914400Y256199D01*
X876960Y255916D02*
X879641D01*
X888120D01*
X887700Y257900D02*
X892901Y263101D01*
X888120Y255916D02*
X893605Y261401D01*
X897995D01*
X899100Y260296D01*
Y256504D02*
Y260296D01*
X902051Y258500D02*
Y259749D01*
X898699Y263101D02*
X902051Y259749D01*
X892901Y263101D02*
X898699D01*
X899100Y256504D02*
X900005Y255599D01*
X904097D01*
X904698Y256200D01*
X911997D01*
X912700Y256903D01*
X908500Y253600D02*
X911801D01*
X902151Y252100D02*
X903551Y253500D01*
X903600D01*
X903700Y253600D01*
X908500D01*
X860153Y234459D02*
Y238279D01*
X896449Y280500D02*
X899198Y277751D01*
X912097Y287800D02*
X913000Y286897D01*
X885775Y287800D02*
X912097D01*
X841600Y247800D02*
X842000Y248200D01*
X840600Y243600D02*
X841700Y244700D01*
X839340Y243600D02*
X840600D01*
X837876Y242136D02*
X839340Y243600D01*
X834759Y255916D02*
X838051D01*
X842767Y241900D02*
X844381Y243514D01*
X838051Y255916D02*
X844381Y249586D01*
Y243514D02*
Y249586D01*
X841368Y248032D02*
X841600Y247800D01*
X840044Y241900D02*
X842767D01*
X871964Y231087D02*
Y234459D01*
X868949Y228000D02*
X869995Y229046D01*
Y234459D01*
X875879Y238021D02*
X876800Y237100D01*
X879300Y207000D02*
X879641Y207341D01*
X844951Y224700D02*
Y225998D01*
X842949Y228000D02*
X844951Y225998D01*
X846373Y230678D02*
X849051Y228000D01*
X846373Y230678D02*
Y234459D01*
X842949Y228000D02*
X844405Y229456D01*
Y234459D01*
X777100Y234000D02*
X777800Y233300D01*
X774000Y234000D02*
X777100D01*
X832078Y251979D02*
X834759D01*
Y271664D02*
X839064D01*
X842436Y275036D02*
Y279341D01*
X834000Y272423D02*
X834759Y271664D01*
X834000Y272423D02*
Y276949D01*
X839500Y286200D02*
Y288551D01*
Y286200D02*
X840502Y285198D01*
X841932D01*
X844405Y282724D01*
Y279341D02*
Y282724D01*
X839500Y282277D02*
X842436Y279341D01*
X839500Y282277D02*
Y282449D01*
X935951Y280400D02*
X936000Y280449D01*
X929000Y280400D02*
X935951D01*
X932949Y263500D02*
X936000Y266551D01*
X928900Y263500D02*
X932949D01*
X939201Y255550D02*
Y258100D01*
X936852Y260449D02*
X939201Y258100D01*
X936000Y260449D02*
X936852D01*
X934651Y248600D02*
X936000Y249949D01*
X928900Y248600D02*
X934651D01*
X908500Y280500D02*
X908600Y280400D01*
X902551Y280500D02*
X908500D01*
X908600Y270500D02*
X908600Y270500D01*
X879641Y273192D02*
X885500Y279051D01*
X879641Y271664D02*
Y273192D01*
X885500Y271000D02*
Y272949D01*
Y271000D02*
X885600Y270900D01*
X884395Y269695D02*
X885600Y270900D01*
X879641Y269695D02*
X884395D01*
X908500Y231500D02*
X908600Y231400D01*
X902051Y231500D02*
X908500D01*
X908500Y236500D02*
X908600Y236400D01*
X902051Y236500D02*
X908500D01*
X908400Y258500D02*
X908500Y258600D01*
X902051Y258500D02*
X908400D01*
X879641Y244105D02*
X882795D01*
X873736Y192000D02*
X875945D01*
X873736Y207000D02*
X873736Y207000D01*
X879300D01*
X809520Y258169D02*
X813069D01*
X813100Y258200D01*
X814449Y256851D01*
Y252500D02*
Y256851D01*
X821631Y266831D02*
X824480D01*
X821400Y266600D02*
X821631Y266831D01*
X820551Y267449D02*
X821400Y266600D01*
X820551Y267449D02*
Y273000D01*
X824610Y263790D02*
X834759D01*
X824480Y263920D02*
X824610Y263790D01*
X824480Y263920D02*
Y266831D01*
X809520Y258169D02*
X813171Y261821D01*
X834759D01*
X742300Y222200D02*
Y230337D01*
X741939Y221839D02*
X742300Y222200D01*
X737780Y221839D02*
X741939D01*
X742300Y230337D02*
X743563Y231600D01*
X850310Y234459D02*
Y237282D01*
X737780Y219280D02*
Y221839D01*
X939201Y255550D02*
X946600Y248150D01*
X960500Y192136D02*
Y194864D01*
Y192136D02*
X963136Y189500D01*
X970500D01*
X975000Y194000D01*
X934151Y241400D02*
X935500Y240051D01*
X929000Y241400D02*
X934151D01*
X924500Y234579D02*
Y243221D01*
Y234579D02*
X927679Y231400D01*
X929000D01*
X929049Y236449D02*
X932551D01*
X940500Y189500D02*
X945000Y194000D01*
X933136Y189500D02*
X940500D01*
X930500Y192136D02*
X933136Y189500D01*
X930500Y192136D02*
Y195864D01*
X929000Y231400D02*
X930321D01*
X929000Y236400D02*
X929049Y236449D01*
X865000Y181496D02*
Y185500D01*
X910697Y188804D02*
X913961Y185539D01*
X898975Y188804D02*
X910697D01*
X893000Y180000D02*
X899804Y186803D01*
X878500Y180000D02*
X893000D01*
X873110Y174610D02*
X878500Y180000D01*
X892172Y182000D02*
X898975Y188804D01*
X877672Y182000D02*
X892172D01*
X872282Y176611D02*
X877672Y182000D01*
X909039Y181957D02*
Y184961D01*
X907197Y186803D02*
X909039Y184961D01*
X899804Y186803D02*
X907197D01*
X866389Y176611D02*
X872282D01*
X913961Y181957D02*
Y185539D01*
Y181457D02*
Y181957D01*
X909039Y181457D02*
Y181957D01*
X860039D02*
Y195461D01*
Y177961D02*
Y181957D01*
X863389Y174610D02*
X873110D01*
X860039Y177961D02*
X863389Y174610D01*
X864961Y178039D02*
X866389Y176611D01*
X864961Y178039D02*
Y181457D01*
X865000Y181496D01*
X863000Y187500D02*
X865000Y185500D01*
X863000Y187500D02*
Y198000D01*
X859000Y202000D02*
X863000Y198000D01*
X853264Y202000D02*
X859000D01*
X858500Y197000D02*
X860039Y195461D01*
X853264Y197000D02*
X858500D01*
D46*
X891948Y188700D02*
D03*
X885452D02*
D03*
X885552Y195600D02*
D03*
X892048D02*
D03*
D47*
X920000Y205051D02*
D03*
Y198949D02*
D03*
X927000Y205051D02*
D03*
X927000Y198949D02*
D03*
X882500Y296051D02*
D03*
X882500Y289949D02*
D03*
X852500Y289949D02*
D03*
X852500Y296051D02*
D03*
X834000Y276949D02*
D03*
Y283051D02*
D03*
X839500Y282449D02*
D03*
Y288551D02*
D03*
X889300Y230451D02*
D03*
Y224349D02*
D03*
X885500Y272949D02*
D03*
Y279051D02*
D03*
X889900Y251751D02*
D03*
Y245649D02*
D03*
X935500Y240051D02*
D03*
Y233949D02*
D03*
X936000Y256051D02*
D03*
X936000Y249949D02*
D03*
X936000Y266551D02*
D03*
Y260449D02*
D03*
X936000Y286551D02*
D03*
Y280449D02*
D03*
X730500Y212449D02*
D03*
Y218551D02*
D03*
X725000Y212449D02*
D03*
Y218551D02*
D03*
D48*
X899200Y331500D02*
D03*
X881800Y331500D02*
D03*
D49*
X874551Y323500D02*
D03*
X868449D02*
D03*
X871449Y296000D02*
D03*
X877551D02*
D03*
X859949D02*
D03*
X866051Y296000D02*
D03*
X866051Y290000D02*
D03*
X859949Y290000D02*
D03*
X814449Y273000D02*
D03*
X820551D02*
D03*
Y252500D02*
D03*
X814449D02*
D03*
X849051Y228000D02*
D03*
X842949D02*
D03*
X875051D02*
D03*
X868949D02*
D03*
X895949Y231500D02*
D03*
X902051Y231500D02*
D03*
X895949Y236500D02*
D03*
X902051D02*
D03*
X896449Y280500D02*
D03*
X902551D02*
D03*
X902551Y270500D02*
D03*
X896449D02*
D03*
X902051Y258500D02*
D03*
X895949Y258500D02*
D03*
X902151Y252100D02*
D03*
X896049D02*
D03*
X941551Y245000D02*
D03*
X935449D02*
D03*
X942051Y275700D02*
D03*
X935949D02*
D03*
X864449Y212500D02*
D03*
X870551D02*
D03*
X739449Y228500D02*
D03*
X745551D02*
D03*
X747051Y201500D02*
D03*
X740949D02*
D03*
X751949D02*
D03*
X758051D02*
D03*
X769051D02*
D03*
X762949D02*
D03*
X735449Y207500D02*
D03*
X741551D02*
D03*
X746449D02*
D03*
X752551D02*
D03*
X757449D02*
D03*
X763551D02*
D03*
D50*
X832158Y310500D02*
D03*
X851842D02*
D03*
D51*
X871500Y310000D02*
D03*
D52*
X862248Y317500D02*
D03*
X862248Y312500D02*
D03*
X862248Y307500D02*
D03*
Y302500D02*
D03*
X880752Y317500D02*
D03*
X880752Y312500D02*
D03*
X880752Y307500D02*
D03*
X880752Y302500D02*
D03*
D53*
X842436Y279341D02*
D03*
X844405D02*
D03*
X846373D02*
D03*
X848342D02*
D03*
X850310D02*
D03*
X852279D02*
D03*
X854247D02*
D03*
X856216D02*
D03*
X858184D02*
D03*
X860153D02*
D03*
X862121D02*
D03*
X864090D02*
D03*
X866058D02*
D03*
X868027D02*
D03*
X869995D02*
D03*
X871964D02*
D03*
Y234459D02*
D03*
X869995D02*
D03*
X868027D02*
D03*
X866058D02*
D03*
X864090D02*
D03*
X862121D02*
D03*
X860153D02*
D03*
X858184D02*
D03*
X856216D02*
D03*
X854247D02*
D03*
X852279D02*
D03*
X850310D02*
D03*
X848342D02*
D03*
X846373D02*
D03*
X844405D02*
D03*
X842436D02*
D03*
D54*
X879641Y271664D02*
D03*
Y269695D02*
D03*
Y267727D02*
D03*
Y265758D02*
D03*
Y263790D02*
D03*
Y261821D02*
D03*
Y259853D02*
D03*
Y257884D02*
D03*
Y255916D02*
D03*
Y253947D02*
D03*
Y251979D02*
D03*
Y250010D02*
D03*
Y248042D02*
D03*
Y246073D02*
D03*
Y244105D02*
D03*
Y242136D02*
D03*
X834759D02*
D03*
Y244105D02*
D03*
Y246073D02*
D03*
Y248042D02*
D03*
Y250010D02*
D03*
Y251979D02*
D03*
Y253947D02*
D03*
Y255916D02*
D03*
Y257884D02*
D03*
Y259853D02*
D03*
Y261821D02*
D03*
Y263790D02*
D03*
Y265758D02*
D03*
Y267727D02*
D03*
Y269695D02*
D03*
Y271664D02*
D03*
D55*
X809520Y266831D02*
D03*
X824480Y266831D02*
D03*
X809520Y258169D02*
D03*
X824480Y258169D02*
D03*
D56*
X929000Y285400D02*
D03*
X929000Y280400D02*
D03*
Y275400D02*
D03*
X929000Y270400D02*
D03*
X908600Y270500D02*
D03*
Y275400D02*
D03*
X908600Y280400D02*
D03*
Y285400D02*
D03*
X908500Y248600D02*
D03*
Y253600D02*
D03*
Y258600D02*
D03*
Y263600D02*
D03*
X928900Y263500D02*
D03*
Y258600D02*
D03*
Y253600D02*
D03*
Y248600D02*
D03*
X929000Y241400D02*
D03*
Y236400D02*
D03*
X929000Y231400D02*
D03*
X929000Y226400D02*
D03*
X908600Y226500D02*
D03*
Y231400D02*
D03*
X908600Y236400D02*
D03*
X908600Y241400D02*
D03*
D57*
X971755Y272887D02*
D03*
D58*
X962700D02*
D03*
X953645D02*
D03*
D59*
X962700Y246313D02*
D03*
D60*
X853264Y207000D02*
D03*
Y202000D02*
D03*
Y192000D02*
D03*
X873736Y207000D02*
D03*
X873736Y202000D02*
D03*
Y192000D02*
D03*
X853264Y197000D02*
D03*
X873736Y197000D02*
D03*
D61*
X896441Y169752D02*
D03*
X926559D02*
D03*
X847441D02*
D03*
X877559D02*
D03*
D62*
X904118Y181957D02*
D03*
X909039D02*
D03*
X913961D02*
D03*
X918882D02*
D03*
X855118D02*
D03*
X860039D02*
D03*
X864961D02*
D03*
X869882D02*
D03*
D63*
X737780Y221839D02*
D03*
Y219280D02*
D03*
Y216721D02*
D03*
Y214161D02*
D03*
X760220Y221839D02*
D03*
Y219280D02*
D03*
X760220Y216721D02*
D03*
Y214161D02*
D03*
D64*
X777740Y218626D02*
D03*
X770260D02*
D03*
X774000Y209374D02*
D03*
D65*
X919760Y209874D02*
D03*
X923500Y219126D02*
D03*
D66*
X927240Y209874D02*
D03*
D67*
X895949Y249351D02*
Y255000D01*
X783000Y255713D02*
Y284800D01*
X762064Y253213D02*
X785500D01*
X882700Y307500D02*
X885700Y310500D01*
X880752Y307500D02*
X882700D01*
X892000Y319300D02*
X892181Y319119D01*
Y312883D02*
Y319119D01*
X887093Y307795D02*
X892181Y312883D01*
X887093Y294990D02*
Y307795D01*
X884905Y292802D02*
X887093Y294990D01*
X884303Y292802D02*
X884905D01*
X882500Y290999D02*
X884303Y292802D01*
X882500Y289949D02*
Y290999D01*
X845600Y311900D02*
X846200Y312500D01*
X862248D01*
X862449Y317500D02*
X868449Y323500D01*
X862248Y317500D02*
X862449D01*
X880752Y297799D02*
X882500Y296051D01*
X880752Y297799D02*
Y302500D01*
X882449Y296000D02*
X882500Y296051D01*
X877551Y296000D02*
X882449D01*
X851842Y310500D02*
X852500Y309842D01*
Y296051D02*
Y309842D01*
X859949Y300201D02*
X862248Y302500D01*
X859949Y296000D02*
Y300201D01*
X856149Y289949D02*
X856600Y290400D01*
X852500Y289949D02*
X856149D01*
X859549Y290400D02*
X859949Y290000D01*
X856600Y290400D02*
X859549D01*
X856600D02*
Y304700D01*
X859400Y307500D01*
X862248D01*
X885500Y279051D02*
X891600Y272951D01*
Y268500D02*
Y272951D01*
X895949Y249351D02*
X903900Y241400D01*
X908600D01*
X913300Y227600D02*
Y240300D01*
X912200Y226500D02*
X913300Y227600D01*
X908600Y226500D02*
X912200D01*
X908600Y241400D02*
X912200D01*
X913300Y240300D01*
X895295Y226500D02*
X908600D01*
X892700Y229095D02*
X895295Y226500D01*
X892700Y229095D02*
Y229100D01*
X891349Y230451D02*
X892700Y229100D01*
X889300Y230451D02*
X891349D01*
X739449Y228500D02*
Y230597D01*
X762064Y253213D01*
X783000Y255713D02*
X785500Y253213D01*
X916600Y246200D02*
Y280800D01*
X870551Y212500D02*
Y215549D01*
X865500Y220600D02*
X870551Y215549D01*
X857100Y220600D02*
X865500D01*
X855750Y221950D02*
X857100Y220600D01*
X855750Y221950D02*
Y226250D01*
X854600Y227400D02*
X855750Y226250D01*
X921200Y229500D02*
Y252200D01*
X960600Y267300D02*
X962700Y269400D01*
X948700Y267300D02*
X960600D01*
X942051Y273949D02*
X948700Y267300D01*
X962700Y269400D02*
Y272887D01*
X949700Y189300D02*
X955000Y184000D01*
X949700Y189300D02*
Y195947D01*
X940500Y233295D02*
Y240600D01*
X937100Y229895D02*
X940500Y233295D01*
X937100Y203289D02*
Y229895D01*
Y203289D02*
X941689Y198700D01*
X946947D01*
X949700Y195947D01*
X942051Y273949D02*
Y275700D01*
X951800Y245600D02*
X961987D01*
X922300Y253300D02*
X922600Y253600D01*
X921200Y252200D02*
X922300Y253300D01*
X921200Y229500D02*
X924300Y226400D01*
X923700Y270400D02*
X929000D01*
X922300Y269000D02*
X923700Y270400D01*
X922300Y253300D02*
Y269000D01*
X924300Y226400D02*
X929000D01*
X922600Y253600D02*
X928900D01*
X916000Y281400D02*
X916600Y280800D01*
X916000Y245600D02*
X916600Y246200D01*
X916000Y221000D02*
Y245600D01*
X913000Y248600D02*
X916000Y245600D01*
X908500Y248600D02*
X913000D01*
X978000Y259500D02*
X980000Y257500D01*
Y179000D02*
Y257500D01*
X975000Y174000D02*
X980000Y179000D01*
X927000Y205051D02*
X927240Y205291D01*
Y209874D01*
X919760Y205291D02*
X920000Y205051D01*
X919760Y205291D02*
Y209874D01*
X867500Y197000D02*
X873736D01*
X865500Y199000D02*
X867500Y197000D01*
X865500Y199000D02*
Y199036D01*
X864406Y200130D02*
X865500Y199036D01*
X864406Y200130D02*
Y212457D01*
X864449Y212500D01*
X867406Y209354D02*
X870551Y212500D01*
X867406Y202594D02*
Y209354D01*
X868000Y202000D02*
X873736D01*
X867406Y202594D02*
X868000Y202000D01*
X898457Y181457D02*
X904118D01*
Y181957D01*
Y178350D02*
Y181457D01*
X927000Y183411D02*
Y198949D01*
X920200Y176611D02*
X927000Y183411D01*
X905858Y176611D02*
X920200D01*
X904118Y178350D02*
X905858Y176611D01*
X894264Y177264D02*
X898457Y181457D01*
X890264Y177264D02*
X894264D01*
X881528Y168527D02*
X890264Y177264D01*
X870500Y162000D02*
X878963D01*
X881528Y164565D01*
Y168527D01*
X855118Y177382D02*
X870500Y162000D01*
X855118Y177382D02*
Y181457D01*
D68*
X859928Y271500D02*
X872700D01*
X856747Y268319D02*
X859928Y271500D01*
X844300Y268319D02*
X856747D01*
X840750Y271868D02*
X844300Y268319D01*
X840750Y271868D02*
Y273350D01*
X971755Y272887D02*
Y284545D01*
X958800Y297500D02*
X971755Y284545D01*
X763000Y207244D02*
X763256Y207500D01*
X763256Y207500D01*
X768000D01*
X763000Y196500D02*
Y207244D01*
D69*
X962700Y246313D02*
X962700Y246313D01*
X961987Y245600D02*
X962700Y246313D01*
X962700Y246313D02*
Y269400D01*
D70*
X785550Y253250D02*
D03*
D71*
X896300Y329300D02*
D03*
D72*
X876050Y324900D02*
D03*
D73*
X880700Y323300D02*
D03*
D74*
X867050Y334300D02*
D03*
D75*
X847350Y262000D02*
D03*
D76*
X847100Y310850D02*
D03*
D77*
X962850Y274600D02*
D03*
D78*
X953300Y278250D02*
D03*
D79*
X949600Y183850D02*
D03*
D80*
X916650Y279950D02*
D03*
D81*
X922000Y218750D02*
D03*
D82*
X920000Y195750D02*
D03*
D83*
X935000Y174000D02*
D03*
Y184000D02*
D03*
Y194000D02*
D03*
X955000Y174000D02*
D03*
Y184000D02*
D03*
Y194000D02*
D03*
X965000Y174000D02*
D03*
Y184000D02*
D03*
Y194000D02*
D03*
X975000Y174000D02*
D03*
Y184000D02*
D03*
Y194000D02*
D03*
X945000Y174000D02*
D03*
Y184000D02*
D03*
Y194000D02*
D03*
D84*
X970600Y336800D02*
D03*
X927400D02*
D03*
D85*
X958800Y297500D02*
D03*
X939200D02*
D03*
D86*
X824500Y195500D02*
D03*
X834343Y195500D02*
D03*
X793000Y195500D02*
D03*
X802843D02*
D03*
D87*
X736500Y177000D02*
D03*
X766500D02*
D03*
D88*
X900593Y211652D02*
D03*
Y302203D02*
D03*
X813979D02*
D03*
Y211652D02*
D03*
D89*
X829237Y178174D02*
D03*
X796363D02*
D03*
D90*
X850100Y273600D02*
D03*
X840044Y264456D02*
D03*
X810200Y229500D02*
D03*
X852100Y238900D02*
D03*
X849600Y258400D02*
D03*
X850800Y250900D02*
D03*
X848800Y248500D02*
D03*
X849200Y244900D02*
D03*
X829700Y246000D02*
D03*
X869600Y243800D02*
D03*
X864300Y242400D02*
D03*
X889300Y314900D02*
D03*
X885700Y310500D02*
D03*
X847500Y297000D02*
D03*
X839300Y250000D02*
D03*
X796200D02*
D03*
X795700Y257700D02*
D03*
X798600Y201200D02*
D03*
X885700Y265400D02*
D03*
X871300Y247800D02*
D03*
X885400Y252900D02*
D03*
X885200Y247100D02*
D03*
X876400Y232600D02*
D03*
X850900Y212600D02*
D03*
X876000Y212400D02*
D03*
X875400Y219900D02*
D03*
X863600Y228700D02*
D03*
X841800Y162100D02*
D03*
X791300Y185700D02*
D03*
X820600Y278100D02*
D03*
X807700Y287600D02*
D03*
X800100Y293900D02*
D03*
X799300Y288000D02*
D03*
X786100Y298500D02*
D03*
X794200D02*
D03*
X777700Y299000D02*
D03*
X775500Y273400D02*
D03*
X887700Y313200D02*
D03*
X870200Y291800D02*
D03*
X831400Y332700D02*
D03*
X842400Y333600D02*
D03*
X924800Y325100D02*
D03*
X977800Y325000D02*
D03*
X954500Y337700D02*
D03*
X945100Y337400D02*
D03*
X912600Y332300D02*
D03*
X915700Y321700D02*
D03*
X924600Y314700D02*
D03*
X922900Y282400D02*
D03*
X942700Y286100D02*
D03*
X942400Y260100D02*
D03*
X950400Y256900D02*
D03*
X894600Y243900D02*
D03*
X902800Y264000D02*
D03*
X902500Y275300D02*
D03*
X891700Y278100D02*
D03*
X864000Y250700D02*
D03*
X870700Y253200D02*
D03*
X847900Y252600D02*
D03*
X853100Y264200D02*
D03*
X857200Y273600D02*
D03*
X839100Y278100D02*
D03*
X833600Y288000D02*
D03*
X828300Y287900D02*
D03*
X827400Y273400D02*
D03*
X816600Y266200D02*
D03*
X807400Y249700D02*
D03*
X787700Y241100D02*
D03*
X783300Y227900D02*
D03*
X790200Y219400D02*
D03*
X970600Y163700D02*
D03*
X939300Y164100D02*
D03*
X915000Y168500D02*
D03*
X906400Y165800D02*
D03*
X869500Y170200D02*
D03*
X859000Y164000D02*
D03*
X822500Y165300D02*
D03*
X816500Y170200D02*
D03*
X809500Y165100D02*
D03*
X804000Y170700D02*
D03*
X798900Y165000D02*
D03*
X977300Y282800D02*
D03*
X976300Y273800D02*
D03*
X972400Y240000D02*
D03*
X962400Y234500D02*
D03*
X973800Y233000D02*
D03*
X963200Y212800D02*
D03*
X965900Y224900D02*
D03*
X965500Y205700D02*
D03*
X960600Y202100D02*
D03*
X955600Y207400D02*
D03*
X873800Y187300D02*
D03*
X897600Y195600D02*
D03*
X912100Y196300D02*
D03*
X826300Y311200D02*
D03*
X837300Y309100D02*
D03*
X837000Y315700D02*
D03*
X826700Y319300D02*
D03*
X835300Y297000D02*
D03*
X836500Y323600D02*
D03*
X892000Y319300D02*
D03*
X894000Y323200D02*
D03*
X891600Y327000D02*
D03*
X894500Y329700D02*
D03*
X891700Y332200D02*
D03*
X894400Y335400D02*
D03*
X891500Y338900D02*
D03*
X870100Y317900D02*
D03*
X873300Y316600D02*
D03*
X869500Y314600D02*
D03*
X873400Y311900D02*
D03*
X869600Y309700D02*
D03*
X873400Y308000D02*
D03*
X869700Y305900D02*
D03*
X873400Y303800D02*
D03*
X869700Y301800D02*
D03*
X869600Y329500D02*
D03*
X869900Y332500D02*
D03*
X868900Y335400D02*
D03*
X869000Y338900D02*
D03*
X866300Y340600D02*
D03*
X860300Y340100D02*
D03*
X854400Y339700D02*
D03*
X852800Y337000D02*
D03*
X852700Y333100D02*
D03*
X852600Y330200D02*
D03*
X784400Y278200D02*
D03*
X789900Y253100D02*
D03*
X781200Y253400D02*
D03*
X839400Y185100D02*
D03*
X876000Y277700D02*
D03*
X820500Y229200D02*
D03*
X813300Y229700D02*
D03*
X849900Y224700D02*
D03*
X847200Y199500D02*
D03*
X844781Y257181D02*
D03*
X887400Y237000D02*
D03*
Y240100D02*
D03*
X785500Y253213D02*
D03*
X783000Y284800D02*
D03*
X841200Y256400D02*
D03*
X837500Y220600D02*
D03*
X858400Y260300D02*
D03*
X843400Y224500D02*
D03*
X854600Y227400D02*
D03*
X891600Y268500D02*
D03*
X895700Y255000D02*
D03*
X843100Y302600D02*
D03*
X846800Y303600D02*
D03*
X842800Y308100D02*
D03*
X846800Y311700D02*
D03*
X843200Y313800D02*
D03*
X847100Y317700D02*
D03*
X843400Y318300D02*
D03*
X960500Y270400D02*
D03*
X965600Y270500D02*
D03*
Y278400D02*
D03*
X960300Y278100D02*
D03*
X951400Y283200D02*
D03*
X955100Y278500D02*
D03*
X951600Y278200D02*
D03*
X951800Y245600D02*
D03*
X940500Y240600D02*
D03*
X923200Y275400D02*
D03*
X921100Y234600D02*
D03*
X941200Y266200D02*
D03*
X845700Y271700D02*
D03*
X852300Y219600D02*
D03*
X860400Y223800D02*
D03*
X855900Y254300D02*
D03*
X841600Y247800D02*
D03*
X841700Y244700D02*
D03*
X916500Y277100D02*
D03*
X916700Y280600D02*
D03*
X916500Y283800D02*
D03*
X876800Y237100D02*
D03*
X774000Y234000D02*
D03*
X774100Y220000D02*
D03*
X828500Y234500D02*
D03*
X978000Y259500D02*
D03*
X804000Y267000D02*
D03*
X809000Y272000D02*
D03*
X828500Y252500D02*
D03*
X825000D02*
D03*
X928500Y221000D02*
D03*
X928000Y215500D02*
D03*
X916500D02*
D03*
X916000Y221000D02*
D03*
X862500Y217000D02*
D03*
X900500Y177000D02*
D03*
X882000Y176500D02*
D03*
X847500Y180000D02*
D03*
X833300Y184000D02*
D03*
X846500Y186500D02*
D03*
X796500Y243000D02*
D03*
X791000Y236500D02*
D03*
X828500Y241000D02*
D03*
X813500Y241500D02*
D03*
X920000Y194500D02*
D03*
X921500Y192500D02*
D03*
X918500D02*
D03*
X725000Y209000D02*
D03*
X730500D02*
D03*
X736000Y202500D02*
D03*
X763000Y196500D02*
D03*
X768000Y207500D02*
D03*
X766500Y219500D02*
D03*
X770000Y224500D02*
D03*
X762000Y226500D02*
D03*
X757000D02*
D03*
X752500Y222500D02*
D03*
X728500Y203000D02*
D03*
X750000Y162000D02*
D03*
X766500D02*
D03*
X780500Y177500D02*
D03*
X723500Y177000D02*
D03*
X784500Y205500D02*
D03*
X779500Y189500D02*
D03*
X737500Y162000D02*
D03*
X760500D02*
D03*
X774000Y161500D02*
D03*
X779000Y169000D02*
D03*
X724000Y189000D02*
D03*
Y166500D02*
D03*
X729500Y161500D02*
D03*
M02*
