M48
;Layer_Color=9474304
;FILE_FORMAT=2:5
INCH,LZ
;TYPE=PLATED
T1F00S00C0.01181
T2F00S00C0.03550
T3F00S00C0.03937
T4F00S00C0.04500
T5F00S00C0.06500
T6F00S00C0.07000
T7F00S00C0.12000
%
T01
X09393Y01641
X09706Y01637
X09655Y02057
X09606Y02021
X09556Y02074
X09632Y02128
X09659Y02249
X09624Y02345
X09738Y0233
X09724Y024
X0978Y02595
X09763Y02738
X09773Y02828
X09656Y02784
X09603Y02781
X09551Y02785
X09516Y02782
X09514Y02832
X09427Y02861
X09412Y02662
X09424Y02601
X09504Y02569
X09518Y02456
X09405Y02406
X09605Y02704
X09656Y02705
X09232Y02754
X09229Y02824
X09165Y02838
X09167Y02806
X09165Y02771
X09025Y02753
X09028Y0264
X08916Y02685
X08857Y02654
X08854Y02529
X08852Y02471
X08874Y02401
Y0237
X08768Y02371
X08764Y02326
X08754Y02199
X0876Y02124
X08625Y0217
X08604Y02238
X08636Y02287
X08546Y02274
X08499Y02247
X08434Y02245
X08375Y02206
X08523Y02196
X08509Y02126
X08472Y01995
X08465Y01865
X08475Y018
X08394Y01851
X08333Y0184
X08225Y01653
X08165Y01702
X08095Y01651
X07989Y0165
X0804Y01707
X07913Y01857
X07986Y02012
X07845Y02055
X07902Y02194
X07833Y02279
X0791Y02365
X07877Y02411
X07965Y0243
X07962Y025
X07957Y02577
X07899Y02531
X07855Y0253213
X08074Y02497
X08135Y02415
X08133Y02297
X08102Y02295
X08205Y02292
X08285Y02345
Y0241
X08297Y0246
X08285Y02525
X0825
X08393Y025
X08416Y02478
X08417Y02447
X08492Y02449
X08488Y02485
X08508Y02509
X08479Y02526
X08496Y02584
X0844781Y0257181
X08412Y02564
X0840044Y0264456
X08457Y02717
X08501Y02736
X08572
X08531Y02642
X08584Y02603
X08559Y02543
X0864Y02507
X08643Y02424
X08696Y02438
X08713Y02478
X08707Y02532
X08957Y0255
X08946Y02439
X09211Y02346
X0916Y0221
X09165Y02155
X0928
X09285Y0221
X092Y01945
X09215Y01925
X09185
X09121Y01963
X08976Y01956
X09005Y0177
X09064Y01658
X0915Y01685
X0882Y01765
X08695Y01702
X0859Y0164
X08418Y01621
X08738Y01873
X08521Y02389
X08391Y02781
X08336Y0288
X08283Y02879
X08274Y02734
X08206Y02781
X08166Y02662
X0804Y0267
X0809Y0272
X08077Y02876
X07993Y0288
X08001Y02939
X07942Y02985
X07861
X0783Y02848
X07844Y02782
X08353Y0297
X08475
X08468Y03036
X08431Y03026
X08428Y03081
X08373Y03091
X08468Y03117
X08263Y03112
X08696Y03097
X08697Y03059
Y03018
X08734Y03038
Y0308
Y03119
X08857Y03105
X08702Y02918
X0876Y02777
X08917Y02781
X07755Y02734
X07812Y02534
X0774Y0234
X077Y02245
X07665Y02195
X07741Y022
X0768Y02075
X0763Y01965
X07795Y01895
X07805Y01775
X0779Y0169
X0774Y01615
X07665Y0162
X07605
X075
X07375
X07295Y01615
X0724Y01665
X07235Y0177
X0724Y0189
X07285Y0203
X07305Y0209
X0725
X0736Y02025
X07525Y02225
X0757Y02265
X0762
X07777Y0299
X08267Y03193
X0837Y03157
X08432Y03138
X08434Y03183
X08471Y03177
X08365Y03236
X08314Y03327
X08424Y03336
X08527Y03331
X08526Y03302
X08528Y0337
X08544Y03397
X08603Y03401
X08663Y03406
X0869Y03389
X08689Y03354
X08699Y03325
X08696Y03295
X08701Y03179
X08695Y03146
X08733Y03166
X08893Y03149
X08877Y03132
X0892Y03193
X0894Y03232
X08916Y0327
X08917Y03322
X08945Y03297
X08944Y03354
X08915Y03389
X09126Y03323
X09157Y03217
X09248Y03251
X09246Y03147
X09451Y03374
X09545Y03377
X09778Y0325
T02
X0945Y0174
X0955
Y0184
Y0194
X0965
Y0184
Y0174
X0975
Y0184
Y0194
X0945
Y0184
X0935
Y0174
Y0194
T03
X0796363Y0178174
X0793Y01955
X0802843
X08245
X0834343Y01955
X0829237Y0178174
T04
X09274Y03368
X09706
T05
X07365Y0177
X07665
T06
X09392Y02975
X09588
T07
X0813979Y0211652
X0900593
Y0302203
X0813979
M30
