G04*
G04 #@! TF.GenerationSoftware,Altium Limited,Altium Designer,18.0.12 (696)*
G04*
G04 Layer_Physical_Order=4*
G04 Layer_Color=16711680*
%FSLAX25Y25*%
%MOIN*%
G70*
G01*
G75*
%ADD12C,0.01000*%
%ADD47R,0.03402X0.03098*%
%ADD49R,0.03098X0.03402*%
%ADD50R,0.05512X0.20472*%
%ADD57R,0.04331X0.06102*%
%ADD58R,0.04331X0.06102*%
%ADD59R,0.13583X0.06102*%
%ADD60R,0.08661X0.02362*%
G04:AMPARAMS|DCode=61|XSize=110.24mil|YSize=39.37mil|CornerRadius=19.68mil|HoleSize=0mil|Usage=FLASHONLY|Rotation=90.000|XOffset=0mil|YOffset=0mil|HoleType=Round|Shape=RoundedRectangle|*
%AMROUNDEDRECTD61*
21,1,0.11024,0.00000,0,0,90.0*
21,1,0.07087,0.03937,0,0,90.0*
1,1,0.03937,0.00000,0.03544*
1,1,0.03937,0.00000,-0.03544*
1,1,0.03937,0.00000,-0.03544*
1,1,0.03937,0.00000,0.03544*
%
%ADD61ROUNDEDRECTD61*%
G04:AMPARAMS|DCode=62|XSize=23.62mil|YSize=66.93mil|CornerRadius=11.81mil|HoleSize=0mil|Usage=FLASHONLY|Rotation=0.000|XOffset=0mil|YOffset=0mil|HoleType=Round|Shape=RoundedRectangle|*
%AMROUNDEDRECTD62*
21,1,0.02362,0.04331,0,0,0.0*
21,1,0.00000,0.06693,0,0,0.0*
1,1,0.02362,0.00000,-0.02166*
1,1,0.02362,0.00000,-0.02166*
1,1,0.02362,0.00000,0.02166*
1,1,0.02362,0.00000,0.02166*
%
%ADD62ROUNDEDRECTD62*%
%ADD67C,0.02000*%
%ADD68C,0.03000*%
%ADD69C,0.04000*%
%ADD83C,0.06000*%
%ADD85C,0.11800*%
%ADD86C,0.07874*%
%ADD87C,0.15000*%
%ADD88C,0.23600*%
%ADD89C,0.03937*%
%ADD90C,0.02362*%
%ADD91R,0.04724X0.02165*%
G04:AMPARAMS|DCode=92|XSize=27.56mil|YSize=70.87mil|CornerRadius=4.13mil|HoleSize=0mil|Usage=FLASHONLY|Rotation=180.000|XOffset=0mil|YOffset=0mil|HoleType=Round|Shape=RoundedRectangle|*
%AMROUNDEDRECTD92*
21,1,0.02756,0.06260,0,0,180.0*
21,1,0.01929,0.07087,0,0,180.0*
1,1,0.00827,-0.00965,0.03130*
1,1,0.00827,0.00965,0.03130*
1,1,0.00827,0.00965,-0.03130*
1,1,0.00827,-0.00965,-0.03130*
%
%ADD92ROUNDEDRECTD92*%
G04:AMPARAMS|DCode=93|XSize=62.99mil|YSize=78.74mil|CornerRadius=15.75mil|HoleSize=0mil|Usage=FLASHONLY|Rotation=0.000|XOffset=0mil|YOffset=0mil|HoleType=Round|Shape=RoundedRectangle|*
%AMROUNDEDRECTD93*
21,1,0.06299,0.04724,0,0,0.0*
21,1,0.03150,0.07874,0,0,0.0*
1,1,0.03150,0.01575,-0.02362*
1,1,0.03150,-0.01575,-0.02362*
1,1,0.03150,-0.01575,0.02362*
1,1,0.03150,0.01575,0.02362*
%
%ADD93ROUNDEDRECTD93*%
%ADD94O,0.08661X0.02362*%
%ADD95R,0.09055X0.09055*%
%ADD96R,0.12992X0.09449*%
%ADD97R,0.10236X0.04331*%
%ADD98R,0.06102X0.04331*%
%ADD99R,0.06102X0.04331*%
%ADD100R,0.06102X0.13583*%
%ADD101R,0.02362X0.04528*%
%ADD102R,0.11700X0.23700*%
%ADD103R,0.22200X0.15900*%
%ADD104R,0.06400X0.04900*%
%ADD105R,0.09600X0.21300*%
%ADD106R,0.08800X0.11100*%
%ADD107R,0.06600X0.10300*%
%ADD108R,0.04900X0.10800*%
%ADD109R,0.14500X0.13000*%
%ADD110R,0.06000X0.07000*%
G36*
X982135Y262598D02*
X981635Y262390D01*
X980419Y263607D01*
X979893Y263958D01*
X971733Y272118D01*
Y288400D01*
X971723Y288451D01*
X972486Y289214D01*
X972972Y289942D01*
X973143Y290800D01*
Y327900D01*
X972972Y328758D01*
X972486Y329486D01*
X971985Y329821D01*
X971984Y329829D01*
X972087Y330354D01*
X973138Y330673D01*
X974284Y331286D01*
X975290Y332111D01*
X976114Y333116D01*
X976727Y334262D01*
X977104Y335506D01*
X977232Y336800D01*
X977104Y338094D01*
X976727Y339338D01*
X976114Y340484D01*
X975290Y341490D01*
X974284Y342314D01*
X973138Y342927D01*
X971894Y343304D01*
X970600Y343432D01*
X969306Y343304D01*
X968062Y342927D01*
X966916Y342314D01*
X965911Y341490D01*
X965086Y340484D01*
X964473Y339338D01*
X964095Y338094D01*
X963968Y336800D01*
X964095Y335506D01*
X964473Y334262D01*
X965086Y333116D01*
X965911Y332111D01*
X966916Y331286D01*
X967285Y331088D01*
X967159Y330588D01*
X961866D01*
X961358Y330927D01*
X960500Y331098D01*
X941764D01*
Y331720D01*
X934261D01*
Y330943D01*
X931455D01*
X931276Y331443D01*
X932090Y332111D01*
X932914Y333116D01*
X933527Y334262D01*
X933904Y335506D01*
X934032Y336800D01*
X933904Y338094D01*
X933527Y339338D01*
X932914Y340484D01*
X932090Y341490D01*
X931085Y342314D01*
X929938Y342927D01*
X928694Y343304D01*
X927400Y343432D01*
X926106Y343304D01*
X924862Y342927D01*
X923715Y342314D01*
X922711Y341490D01*
X921886Y340484D01*
X921273Y339338D01*
X920895Y338094D01*
X920768Y336800D01*
X920895Y335506D01*
X921273Y334262D01*
X921886Y333116D01*
X922711Y332111D01*
X923524Y331443D01*
X923345Y330943D01*
X902798D01*
Y341936D01*
X895887D01*
Y341814D01*
X889900D01*
X889627Y341759D01*
X889395Y341605D01*
X889241Y341373D01*
X889186Y341100D01*
Y317400D01*
X889241Y317127D01*
X889395Y316895D01*
X889627Y316741D01*
X889900Y316686D01*
X901600D01*
X901873Y316741D01*
X902105Y316895D01*
X902259Y317127D01*
X902314Y317400D01*
Y320064D01*
X902798D01*
Y326457D01*
X934261D01*
Y325990D01*
X941764D01*
Y326612D01*
X960500D01*
X960836Y326336D01*
Y322043D01*
X941764D01*
Y322665D01*
X934261D01*
Y316935D01*
X941764D01*
Y317557D01*
X960836D01*
Y312309D01*
X964657D01*
Y295074D01*
X960426Y290843D01*
X948689D01*
X947830Y290672D01*
X947103Y290186D01*
X945814Y288897D01*
X945328Y288170D01*
X945157Y287311D01*
Y275189D01*
X945328Y274330D01*
X945814Y273603D01*
X948803Y270614D01*
X949530Y270128D01*
X950389Y269957D01*
X957886D01*
Y269000D01*
X957941Y268727D01*
X958095Y268495D01*
X958188Y268433D01*
X958037Y267933D01*
X941992D01*
X941934Y267972D01*
X941200Y268118D01*
X940466Y267972D01*
X939844Y267556D01*
X939428Y266934D01*
X939282Y266200D01*
X939428Y265466D01*
X939844Y264844D01*
X940466Y264428D01*
X941200Y264282D01*
X941934Y264428D01*
X941992Y264467D01*
X970582D01*
X976215Y258834D01*
X976228Y258766D01*
X976644Y258144D01*
X977193Y257777D01*
X977361Y257238D01*
X964274Y244151D01*
X963899Y243589D01*
X963767Y242926D01*
Y229292D01*
X962043Y227568D01*
X961582Y227815D01*
X961619Y228000D01*
X961473Y228734D01*
X961057Y229356D01*
X960435Y229772D01*
X959701Y229918D01*
X953402D01*
X952668Y229772D01*
X952615Y229737D01*
X951126Y231226D01*
X950563Y231601D01*
X949900Y231733D01*
X947800D01*
Y232401D01*
X943302D01*
Y227599D01*
X947800D01*
Y228267D01*
X949182D01*
X950674Y226774D01*
X951237Y226399D01*
X951900Y226267D01*
X952610D01*
X952668Y226228D01*
X953402Y226082D01*
X959701D01*
X960435Y226228D01*
X960564Y226315D01*
X961014Y226014D01*
X960967Y225775D01*
Y224855D01*
X960467Y224751D01*
X960435Y224772D01*
X959701Y224918D01*
X953402D01*
X952668Y224772D01*
X952610Y224733D01*
X947800D01*
Y226401D01*
X943302D01*
Y221599D01*
X945471D01*
X945674Y221401D01*
X945471Y220901D01*
X943302D01*
Y217030D01*
X942840Y216839D01*
X941698Y217981D01*
Y220901D01*
X940672D01*
Y221599D01*
X941698D01*
Y226401D01*
X937200D01*
Y221599D01*
X938225D01*
Y220901D01*
X937200D01*
Y216099D01*
X940119D01*
X941276Y214942D01*
Y205035D01*
X940619D01*
Y199107D01*
X944381D01*
Y205035D01*
X943723D01*
Y215449D01*
X943694Y215599D01*
X944064Y216099D01*
X947800D01*
Y216267D01*
X952610D01*
X952668Y216228D01*
X953402Y216082D01*
X959701D01*
X960435Y216228D01*
X961057Y216644D01*
X961473Y217266D01*
X961619Y218000D01*
X961473Y218734D01*
X961057Y219356D01*
X960435Y219772D01*
X959701Y219918D01*
X953402D01*
X952668Y219772D01*
X952610Y219733D01*
X947800D01*
Y220767D01*
X947800Y220901D01*
X948124Y221267D01*
X952610D01*
X952668Y221228D01*
X953402Y221082D01*
X959701D01*
X960435Y221228D01*
X960493Y221267D01*
X961700D01*
X962363Y221399D01*
X962926Y221774D01*
X963926Y222774D01*
X964301Y223337D01*
X964433Y224000D01*
Y225057D01*
X966726Y227349D01*
X967101Y227911D01*
X967233Y228574D01*
Y242208D01*
X981635Y256610D01*
X982135Y256402D01*
X982135Y196613D01*
X981635Y196564D01*
X981601Y196734D01*
X981226Y197297D01*
X978233Y200289D01*
Y208543D01*
X978101Y209206D01*
X977726Y209769D01*
X977182Y210312D01*
Y211082D01*
X978598D01*
X979332Y211228D01*
X979955Y211644D01*
X980370Y212266D01*
X980516Y213000D01*
X980370Y213734D01*
X979955Y214356D01*
X979332Y214772D01*
X978598Y214918D01*
X977182D01*
Y216082D01*
X978598D01*
X979332Y216228D01*
X979955Y216644D01*
X980370Y217266D01*
X980516Y218000D01*
X980370Y218734D01*
X979955Y219356D01*
X979332Y219772D01*
X978598Y219918D01*
X975525D01*
X975318Y220418D01*
X975982Y221082D01*
X978598D01*
X979332Y221228D01*
X979955Y221644D01*
X980370Y222266D01*
X980516Y223000D01*
X980370Y223734D01*
X979955Y224356D01*
X979332Y224772D01*
X978598Y224918D01*
X977182D01*
Y226082D01*
X978598D01*
X979332Y226228D01*
X979955Y226644D01*
X980370Y227266D01*
X980516Y228000D01*
X980370Y228734D01*
X979955Y229356D01*
X979332Y229772D01*
X978598Y229918D01*
X972299D01*
X971565Y229772D01*
X970943Y229356D01*
X970527Y228734D01*
X970381Y228000D01*
X970527Y227266D01*
X970943Y226644D01*
X971565Y226228D01*
X972299Y226082D01*
X973715D01*
Y224918D01*
X972299D01*
X971565Y224772D01*
X970943Y224356D01*
X970527Y223734D01*
X970381Y223000D01*
X970420Y222803D01*
X970318Y222782D01*
X969756Y222407D01*
X967892Y220543D01*
X967517Y219981D01*
X967385Y219318D01*
Y211682D01*
X967517Y211019D01*
X967892Y210457D01*
X971767Y206582D01*
Y200289D01*
X968774Y197297D01*
X968399Y196734D01*
X968357Y196525D01*
X967822Y196400D01*
X967639Y196639D01*
X966866Y197232D01*
X965966Y197605D01*
X965000Y197732D01*
X964034Y197605D01*
X963134Y197232D01*
X962361Y196639D01*
X961768Y195866D01*
X961395Y194966D01*
X961268Y194000D01*
X961395Y193034D01*
X961768Y192134D01*
X962361Y191361D01*
X963134Y190768D01*
X964034Y190395D01*
X965000Y190268D01*
X965966Y190395D01*
X966866Y190768D01*
X967639Y191361D01*
X967767Y191528D01*
X968267Y191358D01*
Y189000D01*
X968399Y188337D01*
X968774Y187774D01*
X971450Y185099D01*
X971395Y184966D01*
X971268Y184000D01*
X971395Y183034D01*
X971768Y182134D01*
X972361Y181361D01*
X973134Y180768D01*
X974034Y180395D01*
X975000Y180268D01*
X975966Y180395D01*
X976866Y180768D01*
X977405Y181181D01*
X977961Y180996D01*
X977977Y180928D01*
X974747Y177699D01*
X974034Y177605D01*
X973134Y177232D01*
X972361Y176639D01*
X971768Y175866D01*
X971395Y174966D01*
X971268Y174000D01*
X971395Y173034D01*
X971768Y172134D01*
X972361Y171361D01*
X973134Y170768D01*
X974034Y170395D01*
X975000Y170268D01*
X975966Y170395D01*
X976866Y170768D01*
X977639Y171361D01*
X978232Y172134D01*
X978605Y173034D01*
X978732Y174000D01*
X978605Y174966D01*
X978232Y175866D01*
X978052Y176101D01*
X981226Y179274D01*
X981601Y179837D01*
X981635Y180007D01*
X982135Y179958D01*
Y159965D01*
X720615Y159965D01*
X720615Y345185D01*
X982135Y345185D01*
Y262598D01*
D02*
G37*
%LPC*%
G36*
X871700Y343714D02*
X849500D01*
X849227Y343659D01*
X848995Y343505D01*
X848841Y343273D01*
X848786Y343000D01*
Y327100D01*
X848841Y326827D01*
X848995Y326595D01*
X849227Y326441D01*
X849500Y326386D01*
X871700D01*
X871973Y326441D01*
X872205Y326595D01*
X872359Y326827D01*
X872414Y327100D01*
Y343000D01*
X872359Y343273D01*
X872205Y343505D01*
X871973Y343659D01*
X871700Y343714D01*
D02*
G37*
G36*
X885700Y312418D02*
X884966Y312272D01*
X884344Y311856D01*
X883928Y311234D01*
X883782Y310500D01*
X883928Y309766D01*
X883967Y309708D01*
Y308682D01*
X883401D01*
Y309198D01*
X878599D01*
Y304700D01*
X878599D01*
Y300302D01*
X883401D01*
Y304800D01*
X883606Y305216D01*
X884949D01*
X885612Y305347D01*
X886174Y305723D01*
X886926Y306474D01*
X887301Y307037D01*
X887433Y307700D01*
Y309708D01*
X887472Y309766D01*
X887618Y310500D01*
X887472Y311234D01*
X887056Y311856D01*
X886434Y312272D01*
X885700Y312418D01*
D02*
G37*
G36*
X927918Y307480D02*
X916282D01*
Y301750D01*
X927918D01*
Y302372D01*
X931156D01*
X933218Y300310D01*
X933073Y300038D01*
X932695Y298794D01*
X932568Y297500D01*
X932695Y296206D01*
X933073Y294962D01*
X933686Y293815D01*
X934511Y292811D01*
X935515Y291986D01*
X936662Y291373D01*
X937906Y290996D01*
X939200Y290868D01*
X940494Y290996D01*
X941738Y291373D01*
X942885Y291986D01*
X943890Y292811D01*
X944714Y293815D01*
X945327Y294962D01*
X945704Y296206D01*
X945832Y297500D01*
X945704Y298794D01*
X945327Y300038D01*
X944714Y301185D01*
X943890Y302189D01*
X942885Y303014D01*
X941738Y303627D01*
X940494Y304005D01*
X939200Y304132D01*
X937906Y304005D01*
X936662Y303627D01*
X936390Y303482D01*
X933671Y306201D01*
X932943Y306687D01*
X932085Y306858D01*
X927918D01*
Y307480D01*
D02*
G37*
G36*
X813979Y314742D02*
X812017Y314587D01*
X810104Y314128D01*
X808286Y313375D01*
X806609Y312347D01*
X805113Y311069D01*
X803835Y309573D01*
X802807Y307896D01*
X802054Y306078D01*
X801595Y304165D01*
X801440Y302203D01*
X801595Y300242D01*
X802054Y298328D01*
X802807Y296511D01*
X803835Y294833D01*
X805113Y293337D01*
X806609Y292059D01*
X808286Y291031D01*
X810104Y290278D01*
X812017Y289819D01*
X813979Y289665D01*
X815940Y289819D01*
X817853Y290278D01*
X819671Y291031D01*
X821349Y292059D01*
X822845Y293337D01*
X824123Y294833D01*
X825151Y296511D01*
X825904Y298328D01*
X826363Y300242D01*
X826517Y302203D01*
X826363Y304165D01*
X825904Y306078D01*
X825151Y307896D01*
X824123Y309573D01*
X822845Y311069D01*
X821349Y312347D01*
X819671Y313375D01*
X817853Y314128D01*
X815940Y314587D01*
X813979Y314742D01*
D02*
G37*
G36*
X849100Y321914D02*
X839500D01*
X839227Y321859D01*
X838995Y321705D01*
X838841Y321473D01*
X838786Y321200D01*
Y307820D01*
X838741Y307762D01*
X838470Y307105D01*
X838377Y306400D01*
Y297200D01*
X838470Y296495D01*
X838741Y295838D01*
X839174Y295274D01*
X848775Y285673D01*
X849339Y285241D01*
X849996Y284969D01*
X850701Y284876D01*
X909699D01*
X910404Y284969D01*
X911061Y285241D01*
X911625Y285673D01*
X917071Y291120D01*
X927918D01*
Y296850D01*
X916282D01*
Y296708D01*
X916085D01*
X915380Y296616D01*
X914723Y296343D01*
X914159Y295911D01*
X908571Y290322D01*
X905856D01*
X905758Y290813D01*
X906285Y291031D01*
X907963Y292059D01*
X909459Y293337D01*
X910737Y294833D01*
X911765Y296511D01*
X912518Y298328D01*
X912977Y300242D01*
X913132Y302203D01*
X912977Y304165D01*
X912518Y306078D01*
X911765Y307896D01*
X910737Y309573D01*
X909459Y311069D01*
X907963Y312347D01*
X906285Y313375D01*
X904468Y314128D01*
X902554Y314587D01*
X900593Y314742D01*
X898631Y314587D01*
X896718Y314128D01*
X894901Y313375D01*
X893223Y312347D01*
X891727Y311069D01*
X890449Y309573D01*
X889421Y307896D01*
X888668Y306078D01*
X888209Y304165D01*
X888054Y302203D01*
X888209Y300242D01*
X888668Y298328D01*
X889421Y296511D01*
X890449Y294833D01*
X891727Y293337D01*
X893223Y292059D01*
X894901Y291031D01*
X895427Y290813D01*
X895330Y290322D01*
X883300D01*
Y294200D01*
X883401D01*
Y298698D01*
X878599D01*
Y294200D01*
X878802D01*
Y290322D01*
X851829D01*
X843823Y298328D01*
Y299186D01*
X849100D01*
X849373Y299241D01*
X849605Y299395D01*
X849759Y299627D01*
X849814Y299900D01*
Y321200D01*
X849759Y321473D01*
X849605Y321705D01*
X849373Y321859D01*
X849100Y321914D01*
D02*
G37*
G36*
X785300Y296113D02*
X780802D01*
Y291613D01*
X780802D01*
Y286812D01*
X781318D01*
Y285668D01*
X781228Y285534D01*
X781082Y284800D01*
X781228Y284066D01*
X781318Y283932D01*
Y282236D01*
X781450Y281573D01*
X781826Y281011D01*
X782635Y280202D01*
Y278944D01*
X782628Y278934D01*
X782482Y278200D01*
X782628Y277466D01*
X782635Y277456D01*
Y276036D01*
X787932D01*
X787932Y276036D01*
X787932Y276036D01*
X788038Y276036D01*
X788140Y275699D01*
X788140D01*
Y275699D01*
X787871Y275323D01*
X773974Y261426D01*
X773599Y260863D01*
X773467Y260200D01*
Y251266D01*
X773599Y250603D01*
X773974Y250040D01*
X778340Y245674D01*
X778903Y245299D01*
X779566Y245167D01*
X797033D01*
X800318Y241882D01*
Y240901D01*
X799802D01*
Y236099D01*
X804300D01*
Y236537D01*
X804820D01*
Y235978D01*
X807938D01*
X808094Y235534D01*
X808096Y235477D01*
X806363Y233744D01*
X805901Y233936D01*
Y234300D01*
X801099D01*
Y229802D01*
X805901D01*
Y230391D01*
X806054Y230467D01*
X806290Y230419D01*
X806595Y230175D01*
Y227990D01*
X806401Y227845D01*
X805901Y228097D01*
Y228198D01*
X801099D01*
Y225278D01*
X792135Y216314D01*
X791870Y215917D01*
X791860Y215869D01*
X787772D01*
Y205414D01*
X791777D01*
Y200012D01*
X790661Y199550D01*
X789693Y198807D01*
X788950Y197838D01*
X788482Y196711D01*
X788323Y195500D01*
X788482Y194290D01*
X788753Y193635D01*
X788329Y193352D01*
X785500Y196181D01*
Y199101D01*
X781002D01*
Y194299D01*
X783922D01*
X788723Y189498D01*
X789120Y189233D01*
X789588Y189139D01*
X797706D01*
X798174Y189233D01*
X798571Y189498D01*
X800517Y191444D01*
X801632Y190982D01*
X802843Y190823D01*
X804053Y190982D01*
X805181Y191450D01*
X806150Y192193D01*
X806476Y192619D01*
X806977Y192449D01*
Y191807D01*
X804553Y189383D01*
X804288Y188986D01*
X804195Y188518D01*
Y187899D01*
X804019Y187864D01*
X803651Y187618D01*
X803405Y187250D01*
X803318Y186816D01*
Y180556D01*
X803405Y180122D01*
X803651Y179753D01*
X804019Y179507D01*
X804454Y179421D01*
X806383D01*
X806817Y179507D01*
X807185Y179753D01*
X807432Y180122D01*
X807518Y180556D01*
Y186816D01*
X807432Y187250D01*
X807185Y187618D01*
X807048Y187710D01*
X806945Y188288D01*
X806957Y188327D01*
X808616Y189986D01*
X809116Y189778D01*
Y187899D01*
X808940Y187864D01*
X808572Y187618D01*
X808326Y187250D01*
X808240Y186816D01*
Y180556D01*
X808326Y180122D01*
X808572Y179753D01*
X808940Y179507D01*
X809375Y179421D01*
X811304D01*
X811738Y179507D01*
X812107Y179753D01*
X812353Y180122D01*
X812439Y180556D01*
Y186816D01*
X812353Y187250D01*
X812107Y187618D01*
X811738Y187864D01*
X811563Y187899D01*
Y196733D01*
X812259Y197429D01*
X819363D01*
X819772Y197510D01*
X819964Y197368D01*
X820160Y197140D01*
X819982Y196711D01*
X819823Y195500D01*
X819982Y194290D01*
X820450Y193161D01*
X821193Y192193D01*
X821544Y191923D01*
X821374Y191423D01*
X818200D01*
X817732Y191330D01*
X817335Y191065D01*
X814395Y188126D01*
X814276Y187947D01*
X813862Y187864D01*
X813493Y187618D01*
X813247Y187250D01*
X813161Y186816D01*
Y180556D01*
X813247Y180122D01*
X813493Y179753D01*
X813862Y179507D01*
X814296Y179421D01*
X816225D01*
X816660Y179507D01*
X817028Y179753D01*
X817274Y180122D01*
X817360Y180556D01*
Y186816D01*
X817274Y187250D01*
X817156Y187426D01*
X818707Y188977D01*
X819593D01*
X819784Y188515D01*
X819317Y188047D01*
X819252Y187951D01*
X819217D01*
X818783Y187864D01*
X818414Y187618D01*
X818169Y187250D01*
X818082Y186816D01*
Y180556D01*
X818169Y180122D01*
X818414Y179753D01*
X818783Y179507D01*
X819217Y179421D01*
X821146D01*
X821581Y179507D01*
X821949Y179753D01*
X822195Y180122D01*
X822282Y180556D01*
Y186816D01*
X822281Y186819D01*
X822598Y187206D01*
X832197D01*
X837549Y181854D01*
X837945Y181588D01*
X838414Y181495D01*
X846852D01*
X847320Y181588D01*
X847717Y181854D01*
X854258Y188396D01*
X858092D01*
X858560Y188489D01*
X858957Y188754D01*
X861275Y191073D01*
X861738Y190881D01*
Y189468D01*
X859174Y186904D01*
X858909Y186507D01*
X858815Y186039D01*
Y185567D01*
X858683Y185479D01*
X858267Y184856D01*
X858121Y184123D01*
Y179791D01*
X858267Y179058D01*
X858683Y178435D01*
X858815Y178347D01*
Y177961D01*
X858909Y177493D01*
X859174Y177096D01*
X862635Y173635D01*
X863032Y173370D01*
X863500Y173276D01*
X873000D01*
X873468Y173370D01*
X873865Y173635D01*
X874556Y174326D01*
X874980Y174043D01*
X874959Y173992D01*
X874868Y173295D01*
Y166209D01*
X874959Y165512D01*
X875228Y164863D01*
X875656Y164305D01*
X876213Y163878D01*
X876862Y163609D01*
X877559Y163517D01*
X878256Y163609D01*
X878905Y163878D01*
X879462Y164305D01*
X879890Y164863D01*
X880159Y165512D01*
X880250Y166209D01*
Y173295D01*
X880159Y173992D01*
X879890Y174641D01*
X879462Y175199D01*
X878905Y175626D01*
X878256Y175895D01*
X877559Y175987D01*
X876862Y175895D01*
X876812Y175874D01*
X876528Y176298D01*
X879007Y178777D01*
X893000D01*
X893468Y178870D01*
X893865Y179135D01*
X900310Y185580D01*
X906690D01*
X907326Y184944D01*
X907267Y184856D01*
X907121Y184123D01*
Y179791D01*
X907267Y179058D01*
X907683Y178435D01*
X908305Y178020D01*
X909039Y177874D01*
X909773Y178020D01*
X910395Y178435D01*
X910811Y179058D01*
X910957Y179791D01*
Y184123D01*
X910811Y184856D01*
X910395Y185479D01*
X909928Y185791D01*
X909904Y185826D01*
X908612Y187118D01*
X908804Y187580D01*
X910190D01*
X912479Y185291D01*
X912189Y184856D01*
X912043Y184123D01*
Y179791D01*
X912189Y179058D01*
X912605Y178435D01*
X913227Y178020D01*
X913961Y177874D01*
X914695Y178020D01*
X915317Y178435D01*
X915733Y179058D01*
X915879Y179791D01*
Y183998D01*
X916320Y184264D01*
X916964Y183620D01*
Y179791D01*
X917110Y179058D01*
X917526Y178435D01*
X918148Y178020D01*
X918882Y177874D01*
X919616Y178020D01*
X920238Y178435D01*
X920654Y179058D01*
X920800Y179791D01*
Y184123D01*
X920654Y184856D01*
X920238Y185479D01*
X919616Y185894D01*
X919587Y185900D01*
X916378Y189108D01*
X916570Y189570D01*
X917303D01*
X917967Y189702D01*
X918529Y190078D01*
X918738Y190286D01*
X923000D01*
X923273Y190341D01*
X923505Y190495D01*
X923659Y190727D01*
X923714Y191000D01*
Y198000D01*
X923659Y198273D01*
X923505Y198505D01*
X923273Y198659D01*
X923000Y198714D01*
X917000D01*
X916727Y198659D01*
X916495Y198505D01*
X916341Y198273D01*
X916286Y198000D01*
Y193037D01*
X897768D01*
X897105Y192905D01*
X896542Y192529D01*
X890246Y186233D01*
X876636D01*
X876636Y186233D01*
X875973Y186101D01*
X875410Y185726D01*
X875410Y185726D01*
X873375Y183690D01*
X871800D01*
Y184123D01*
X871654Y184856D01*
X871238Y185479D01*
X870616Y185894D01*
X869882Y186040D01*
X869148Y185894D01*
X868526Y185479D01*
X868110Y184856D01*
X867964Y184123D01*
Y179791D01*
X868110Y179058D01*
X868526Y178435D01*
X868843Y178224D01*
X868691Y177724D01*
X867007D01*
X866315Y178415D01*
X866317Y178435D01*
X866733Y179058D01*
X866879Y179791D01*
Y184123D01*
X866733Y184856D01*
X866317Y185479D01*
X866185Y185567D01*
Y194454D01*
X867507Y195776D01*
X868705D01*
Y195119D01*
X878767D01*
Y198881D01*
X868705D01*
Y198223D01*
X867706D01*
X867515Y198685D01*
X868948Y200119D01*
X878767D01*
Y203881D01*
X868705D01*
X868423Y204264D01*
Y204736D01*
X868705Y205119D01*
X868923Y205119D01*
X878767D01*
Y208881D01*
X868923D01*
X868705Y208881D01*
X868423Y209264D01*
Y241533D01*
X868380Y241752D01*
X868818Y242060D01*
X868866Y242028D01*
X869600Y241882D01*
X870334Y242028D01*
X870956Y242444D01*
X871045Y242577D01*
X873293D01*
X876418Y239452D01*
X876253Y238909D01*
X876066Y238872D01*
X875444Y238456D01*
X875028Y237834D01*
X874882Y237100D01*
X875028Y236366D01*
X875444Y235744D01*
X876066Y235328D01*
X876800Y235182D01*
X877534Y235328D01*
X878156Y235744D01*
X878245Y235876D01*
X885888D01*
X886044Y235644D01*
X886666Y235228D01*
X887400Y235082D01*
X888134Y235228D01*
X888756Y235644D01*
X889172Y236266D01*
X889318Y237000D01*
X889172Y237734D01*
X888855Y238208D01*
X888756Y238744D01*
X889172Y239366D01*
X889318Y240100D01*
X889172Y240834D01*
X888756Y241456D01*
X888134Y241872D01*
X887400Y242018D01*
X886666Y241872D01*
X886044Y241456D01*
X885628Y240834D01*
X885526Y240323D01*
X879007D01*
X874665Y244665D01*
X874268Y244930D01*
X873800Y245023D01*
X871045D01*
X870956Y245156D01*
X870334Y245572D01*
X869600Y245718D01*
X868866Y245572D01*
X868783Y245517D01*
X868342Y245752D01*
Y271612D01*
X873207Y276477D01*
X874555D01*
X874644Y276344D01*
X875266Y275928D01*
X876000Y275782D01*
X876734Y275928D01*
X877356Y276344D01*
X877772Y276966D01*
X877918Y277700D01*
X877772Y278434D01*
X877356Y279056D01*
X876734Y279472D01*
X876000Y279618D01*
X875266Y279472D01*
X874644Y279056D01*
X874555Y278924D01*
X872700D01*
X872232Y278830D01*
X871835Y278565D01*
X866254Y272984D01*
X865989Y272587D01*
X865895Y272119D01*
Y241614D01*
X865977Y241206D01*
Y219274D01*
X865515Y219083D01*
X864351Y220246D01*
X863955Y220512D01*
X863486Y220605D01*
X860226D01*
X858205Y222626D01*
Y231074D01*
X861846Y234716D01*
X862111Y235113D01*
X862205Y235581D01*
Y256405D01*
X862111Y256873D01*
X861846Y257270D01*
X859923Y259193D01*
X860172Y259566D01*
X860318Y260300D01*
X860172Y261034D01*
X859756Y261656D01*
X859134Y262072D01*
X858400Y262218D01*
X857666Y262072D01*
X857044Y261656D01*
X856628Y261034D01*
X856517Y260476D01*
X856482Y260300D01*
X856011Y260106D01*
X855875Y260133D01*
X851214D01*
Y260700D01*
X851159Y260973D01*
X851005Y261205D01*
X850773Y261359D01*
X850500Y261414D01*
X844403D01*
X843800Y261534D01*
X825352D01*
X824688Y261402D01*
X824126Y261026D01*
X823798Y260698D01*
X821599D01*
Y260433D01*
X814500D01*
X813837Y260301D01*
X813274Y259926D01*
X808295Y254946D01*
X792991D01*
Y256964D01*
X778009D01*
Y251562D01*
X777547Y251370D01*
X776933Y251984D01*
Y259482D01*
X789818Y272367D01*
X799600D01*
X800263Y272499D01*
X800826Y272874D01*
X808118Y280167D01*
X913586D01*
Y274700D01*
X913641Y274427D01*
X913795Y274195D01*
X914027Y274041D01*
X914300Y273986D01*
X919200D01*
X919473Y274041D01*
X919705Y274195D01*
X919859Y274427D01*
X919914Y274700D01*
Y285500D01*
X919859Y285773D01*
X919705Y286005D01*
X919473Y286159D01*
X919200Y286214D01*
X914300D01*
X914027Y286159D01*
X913795Y286005D01*
X913641Y285773D01*
X913586Y285500D01*
Y284233D01*
X797268D01*
X796604Y284101D01*
X796284Y283888D01*
X795785Y284155D01*
Y286812D01*
X796300D01*
Y291312D01*
X796300D01*
Y296113D01*
X791802D01*
Y291613D01*
X791802D01*
Y286812D01*
X792318D01*
Y283539D01*
X791690D01*
Y276036D01*
X791274Y275833D01*
X789100D01*
X789067Y275827D01*
X788587Y275950D01*
X788587Y275950D01*
D01*
X788365Y276197D01*
X788365Y276365D01*
X788365Y276400D01*
Y283539D01*
X784785D01*
Y284129D01*
X784918Y284800D01*
X784785Y285471D01*
Y286812D01*
X785300D01*
Y291312D01*
X785300D01*
Y296113D01*
D02*
G37*
G36*
X853300Y277901D02*
X848802D01*
Y274995D01*
X848744Y274956D01*
X848328Y274334D01*
X848182Y273600D01*
X848328Y272866D01*
X848744Y272244D01*
X849366Y271828D01*
X850100Y271682D01*
X850286Y271719D01*
X850583Y271521D01*
X851051Y271428D01*
X851519Y271521D01*
X851916Y271786D01*
X852182Y272183D01*
X852275Y272651D01*
Y273099D01*
X853300D01*
Y277901D01*
D02*
G37*
G36*
X826401Y266800D02*
X821599D01*
Y262302D01*
X826401D01*
Y263328D01*
X838535D01*
X838688Y263100D01*
X839310Y262684D01*
X840044Y262538D01*
X840778Y262684D01*
X841400Y263100D01*
X841816Y263722D01*
X841962Y264456D01*
X841816Y265190D01*
X841400Y265812D01*
X840778Y266228D01*
X840044Y266374D01*
X839310Y266228D01*
X838688Y265812D01*
X838662Y265775D01*
X826401D01*
Y266800D01*
D02*
G37*
G36*
X891600Y270418D02*
X890866Y270272D01*
X890244Y269856D01*
X889828Y269234D01*
X889682Y268500D01*
X889828Y267766D01*
X889867Y267708D01*
Y259100D01*
X889999Y258437D01*
X890374Y257874D01*
X893915Y254334D01*
X893928Y254266D01*
X894344Y253644D01*
X894966Y253228D01*
X895700Y253082D01*
X896434Y253228D01*
X897056Y253644D01*
X897472Y254266D01*
X897618Y255000D01*
X897472Y255734D01*
X897056Y256356D01*
X896434Y256772D01*
X896366Y256785D01*
X893333Y259818D01*
Y267708D01*
X893372Y267766D01*
X893518Y268500D01*
X893372Y269234D01*
X892956Y269856D01*
X892334Y270272D01*
X891600Y270418D01*
D02*
G37*
G36*
X951800Y247518D02*
X951066Y247372D01*
X951008Y247333D01*
X945500D01*
X944837Y247201D01*
X944274Y246826D01*
X939834Y242386D01*
X939766Y242372D01*
X939144Y241956D01*
X938728Y241334D01*
X938582Y240600D01*
X938728Y239866D01*
X939144Y239244D01*
X939766Y238828D01*
X940500Y238682D01*
X941234Y238828D01*
X941856Y239244D01*
X942272Y239866D01*
X942286Y239934D01*
X946218Y243867D01*
X951008D01*
X951066Y243828D01*
X951800Y243682D01*
X952534Y243828D01*
X953156Y244244D01*
X953572Y244866D01*
X953718Y245600D01*
X953572Y246334D01*
X953156Y246956D01*
X952534Y247372D01*
X951800Y247518D01*
D02*
G37*
G36*
X923200Y277318D02*
X922466Y277172D01*
X921844Y276756D01*
X921428Y276134D01*
X921282Y275400D01*
X921428Y274666D01*
X921844Y274044D01*
X921976Y273955D01*
Y271507D01*
X917854Y267384D01*
X917589Y266987D01*
X917495Y266519D01*
Y233471D01*
X917589Y233003D01*
X917854Y232606D01*
X919912Y230548D01*
X919721Y230086D01*
X917272D01*
Y227714D01*
X914500D01*
X914227Y227659D01*
X913995Y227505D01*
X913841Y227273D01*
X913786Y227000D01*
Y214000D01*
X913841Y213727D01*
X913995Y213495D01*
X914227Y213341D01*
X914500Y213286D01*
X929000D01*
X929273Y213341D01*
X929505Y213495D01*
X929659Y213727D01*
X929714Y214000D01*
Y214679D01*
X929772Y214766D01*
X929918Y215500D01*
X929772Y216234D01*
X929714Y216321D01*
Y219549D01*
X929856Y219644D01*
X930272Y220266D01*
X930418Y221000D01*
X930272Y221734D01*
X929856Y222356D01*
X929714Y222451D01*
Y227000D01*
X929659Y227273D01*
X929505Y227505D01*
X929273Y227659D01*
X929000Y227714D01*
X927728D01*
Y229362D01*
X931599D01*
Y227802D01*
X936401D01*
Y228828D01*
X937200D01*
Y227599D01*
X941698D01*
Y232401D01*
X937200D01*
Y231275D01*
X936401D01*
Y232300D01*
X931599D01*
Y231809D01*
X922111D01*
X919942Y233978D01*
Y266012D01*
X924065Y270135D01*
X924330Y270532D01*
X924424Y271000D01*
Y273955D01*
X924556Y274044D01*
X924972Y274666D01*
X925118Y275400D01*
X924972Y276134D01*
X924556Y276756D01*
X923934Y277172D01*
X923200Y277318D01*
D02*
G37*
G36*
X774000Y235918D02*
X773266Y235772D01*
X772644Y235356D01*
X772228Y234734D01*
X772082Y234000D01*
X772228Y233266D01*
X772644Y232644D01*
X772877Y232488D01*
Y221445D01*
X772744Y221356D01*
X772328Y220734D01*
X772182Y220000D01*
X772328Y219266D01*
X772744Y218644D01*
X773366Y218228D01*
X774100Y218082D01*
X774834Y218228D01*
X775456Y218644D01*
X775872Y219266D01*
X776018Y220000D01*
X775872Y220734D01*
X775456Y221356D01*
X775323Y221445D01*
Y232622D01*
X775356Y232644D01*
X775772Y233266D01*
X775918Y234000D01*
X775772Y234734D01*
X775356Y235356D01*
X774734Y235772D01*
X774000Y235918D01*
D02*
G37*
G36*
X936401Y226198D02*
X931599D01*
Y221700D01*
X932777D01*
Y215689D01*
X932870Y215221D01*
X933135Y214824D01*
X936879Y211080D01*
Y207965D01*
X940641D01*
Y213893D01*
X937526D01*
X935223Y216196D01*
Y221700D01*
X936401D01*
Y226198D01*
D02*
G37*
G36*
X900593Y224191D02*
X898631Y224036D01*
X896718Y223577D01*
X894901Y222824D01*
X893223Y221796D01*
X891727Y220518D01*
X890449Y219022D01*
X889421Y217344D01*
X888668Y215527D01*
X888209Y213614D01*
X888054Y211652D01*
X888209Y209690D01*
X888668Y207777D01*
X889421Y205960D01*
X890449Y204282D01*
X891727Y202786D01*
X893223Y201508D01*
X894901Y200480D01*
X896718Y199727D01*
X898631Y199268D01*
X900593Y199113D01*
X902554Y199268D01*
X904468Y199727D01*
X906285Y200480D01*
X907963Y201508D01*
X909459Y202786D01*
X910737Y204282D01*
X911765Y205960D01*
X912518Y207777D01*
X912977Y209690D01*
X913132Y211652D01*
X912977Y213614D01*
X912518Y215527D01*
X911765Y217344D01*
X910737Y219022D01*
X909459Y220518D01*
X907963Y221796D01*
X906285Y222824D01*
X904468Y223577D01*
X902554Y224036D01*
X900593Y224191D01*
D02*
G37*
G36*
X955000Y197732D02*
X954034Y197605D01*
X953134Y197232D01*
X952361Y196639D01*
X951768Y195866D01*
X951395Y194966D01*
X951268Y194000D01*
X951395Y193034D01*
X951768Y192134D01*
X952361Y191361D01*
X953134Y190768D01*
X954034Y190395D01*
X955000Y190268D01*
X955966Y190395D01*
X956866Y190768D01*
X957639Y191361D01*
X958232Y192134D01*
X958605Y193034D01*
X958732Y194000D01*
X958605Y194966D01*
X958232Y195866D01*
X957639Y196639D01*
X956866Y197232D01*
X955966Y197605D01*
X955000Y197732D01*
D02*
G37*
G36*
X945000D02*
X944034Y197605D01*
X943134Y197232D01*
X942361Y196639D01*
X941768Y195866D01*
X941395Y194966D01*
X941268Y194000D01*
X941395Y193034D01*
X941768Y192134D01*
X942361Y191361D01*
X943134Y190768D01*
X944034Y190395D01*
X945000Y190268D01*
X945966Y190395D01*
X946866Y190768D01*
X947639Y191361D01*
X948232Y192134D01*
X948605Y193034D01*
X948732Y194000D01*
X948605Y194966D01*
X948232Y195866D01*
X947639Y196639D01*
X946866Y197232D01*
X945966Y197605D01*
X945000Y197732D01*
D02*
G37*
G36*
X935000D02*
X934034Y197605D01*
X933134Y197232D01*
X932361Y196639D01*
X931768Y195866D01*
X931395Y194966D01*
X931268Y194000D01*
X931395Y193034D01*
X931768Y192134D01*
X932361Y191361D01*
X933134Y190768D01*
X934034Y190395D01*
X935000Y190268D01*
X935966Y190395D01*
X936866Y190768D01*
X937639Y191361D01*
X938232Y192134D01*
X938605Y193034D01*
X938732Y194000D01*
X938605Y194966D01*
X938232Y195866D01*
X937639Y196639D01*
X936866Y197232D01*
X935966Y197605D01*
X935000Y197732D01*
D02*
G37*
G36*
X878767Y193881D02*
X868705D01*
Y190119D01*
X878767D01*
Y193881D01*
D02*
G37*
G36*
X801461Y187951D02*
X799532D01*
X799098Y187864D01*
X798730Y187618D01*
X798483Y187250D01*
X798397Y186816D01*
Y180607D01*
X798272Y180496D01*
X797931Y180334D01*
X797709Y180505D01*
X797060Y180774D01*
X796363Y180866D01*
X795666Y180774D01*
X795017Y180505D01*
X794460Y180077D01*
X794032Y179520D01*
X793763Y178871D01*
X793672Y178174D01*
X793763Y177477D01*
X794032Y176828D01*
X794460Y176271D01*
X795017Y175843D01*
X795666Y175574D01*
X796363Y175482D01*
X797060Y175574D01*
X797709Y175843D01*
X798266Y176271D01*
X798694Y176828D01*
X798963Y177477D01*
X799054Y178174D01*
X798963Y178871D01*
X798876Y179080D01*
X798915Y179155D01*
X799253Y179476D01*
X799532Y179421D01*
X801461D01*
X801896Y179507D01*
X802264Y179753D01*
X802510Y180122D01*
X802597Y180556D01*
Y186816D01*
X802510Y187250D01*
X802264Y187618D01*
X801896Y187864D01*
X801461Y187951D01*
D02*
G37*
G36*
X965000Y187732D02*
X964034Y187605D01*
X963134Y187232D01*
X962361Y186639D01*
X961768Y185866D01*
X961395Y184966D01*
X961268Y184000D01*
X961395Y183034D01*
X961768Y182134D01*
X962361Y181361D01*
X963134Y180768D01*
X964034Y180395D01*
X965000Y180268D01*
X965966Y180395D01*
X966866Y180768D01*
X967639Y181361D01*
X968232Y182134D01*
X968605Y183034D01*
X968732Y184000D01*
X968605Y184966D01*
X968232Y185866D01*
X967639Y186639D01*
X966866Y187232D01*
X965966Y187605D01*
X965000Y187732D01*
D02*
G37*
G36*
X955000D02*
X954034Y187605D01*
X953134Y187232D01*
X952361Y186639D01*
X951768Y185866D01*
X951395Y184966D01*
X951268Y184000D01*
X951395Y183034D01*
X951768Y182134D01*
X952361Y181361D01*
X953134Y180768D01*
X954034Y180395D01*
X955000Y180268D01*
X955966Y180395D01*
X956866Y180768D01*
X957639Y181361D01*
X958232Y182134D01*
X958605Y183034D01*
X958732Y184000D01*
X958605Y184966D01*
X958232Y185866D01*
X957639Y186639D01*
X956866Y187232D01*
X955966Y187605D01*
X955000Y187732D01*
D02*
G37*
G36*
X945000D02*
X944034Y187605D01*
X943134Y187232D01*
X942361Y186639D01*
X941768Y185866D01*
X941395Y184966D01*
X941268Y184000D01*
X941395Y183034D01*
X941768Y182134D01*
X942361Y181361D01*
X943134Y180768D01*
X944034Y180395D01*
X945000Y180268D01*
X945966Y180395D01*
X946866Y180768D01*
X947639Y181361D01*
X948232Y182134D01*
X948605Y183034D01*
X948732Y184000D01*
X948605Y184966D01*
X948232Y185866D01*
X947639Y186639D01*
X946866Y187232D01*
X945966Y187605D01*
X945000Y187732D01*
D02*
G37*
G36*
X935000D02*
X934034Y187605D01*
X933134Y187232D01*
X932361Y186639D01*
X931768Y185866D01*
X931395Y184966D01*
X931268Y184000D01*
X931395Y183034D01*
X931768Y182134D01*
X932361Y181361D01*
X933134Y180768D01*
X934034Y180395D01*
X935000Y180268D01*
X935966Y180395D01*
X936866Y180768D01*
X937639Y181361D01*
X938232Y182134D01*
X938605Y183034D01*
X938732Y184000D01*
X938605Y184966D01*
X938232Y185866D01*
X937639Y186639D01*
X936866Y187232D01*
X935966Y187605D01*
X935000Y187732D01*
D02*
G37*
G36*
X829237Y180866D02*
X828540Y180774D01*
X827891Y180505D01*
X827334Y180077D01*
X826906Y179520D01*
X826637Y178871D01*
X826546Y178174D01*
X826637Y177477D01*
X826906Y176828D01*
X827334Y176271D01*
X827891Y175843D01*
X828540Y175574D01*
X829237Y175482D01*
X829934Y175574D01*
X830583Y175843D01*
X831140Y176271D01*
X831568Y176828D01*
X831837Y177477D01*
X831929Y178174D01*
X831837Y178871D01*
X831568Y179520D01*
X831140Y180077D01*
X830583Y180505D01*
X829934Y180774D01*
X829237Y180866D01*
D02*
G37*
G36*
X766500Y185240D02*
X764892Y185081D01*
X763347Y184613D01*
X761922Y183851D01*
X760674Y182826D01*
X759649Y181578D01*
X758887Y180153D01*
X758419Y178607D01*
X758260Y177000D01*
X758419Y175392D01*
X758887Y173847D01*
X759649Y172422D01*
X760674Y171174D01*
X761922Y170149D01*
X763347Y169387D01*
X764892Y168919D01*
X766500Y168760D01*
X768108Y168919D01*
X769653Y169387D01*
X771078Y170149D01*
X772326Y171174D01*
X773351Y172422D01*
X774113Y173847D01*
X774581Y175392D01*
X774740Y177000D01*
X774581Y178607D01*
X774113Y180153D01*
X773351Y181578D01*
X772326Y182826D01*
X771078Y183851D01*
X769653Y184613D01*
X768108Y185081D01*
X766500Y185240D01*
D02*
G37*
G36*
X736500D02*
X734893Y185081D01*
X733347Y184613D01*
X731922Y183851D01*
X730674Y182826D01*
X729649Y181578D01*
X728888Y180153D01*
X728419Y178607D01*
X728260Y177000D01*
X728419Y175392D01*
X728888Y173847D01*
X729649Y172422D01*
X730674Y171174D01*
X731922Y170149D01*
X733347Y169387D01*
X734893Y168919D01*
X736500Y168760D01*
X738107Y168919D01*
X739653Y169387D01*
X741078Y170149D01*
X742326Y171174D01*
X743351Y172422D01*
X744112Y173847D01*
X744581Y175392D01*
X744740Y177000D01*
X744581Y178607D01*
X744112Y180153D01*
X743351Y181578D01*
X742326Y182826D01*
X741078Y183851D01*
X739653Y184613D01*
X738107Y185081D01*
X736500Y185240D01*
D02*
G37*
G36*
X835930Y175375D02*
X832780D01*
X831893Y175199D01*
X831140Y174696D01*
X830638Y173944D01*
X830461Y173056D01*
Y168332D01*
X830638Y167444D01*
X831140Y166692D01*
X831893Y166189D01*
X832780Y166012D01*
X835930D01*
X836818Y166189D01*
X837570Y166692D01*
X838073Y167444D01*
X838249Y168332D01*
Y173056D01*
X838073Y173944D01*
X837570Y174696D01*
X836818Y175199D01*
X835930Y175375D01*
D02*
G37*
G36*
X792820D02*
X789670D01*
X788782Y175199D01*
X788030Y174696D01*
X787527Y173944D01*
X787351Y173056D01*
Y168332D01*
X787527Y167444D01*
X788030Y166692D01*
X788782Y166189D01*
X789670Y166012D01*
X792820D01*
X793707Y166189D01*
X794460Y166692D01*
X794962Y167444D01*
X795139Y168332D01*
Y173056D01*
X794962Y173944D01*
X794460Y174696D01*
X793707Y175199D01*
X792820Y175375D01*
D02*
G37*
G36*
X926559Y175987D02*
X925862Y175895D01*
X925213Y175626D01*
X924656Y175199D01*
X924228Y174641D01*
X923959Y173992D01*
X923868Y173295D01*
Y166209D01*
X923959Y165512D01*
X924228Y164863D01*
X924656Y164305D01*
X925213Y163878D01*
X925862Y163609D01*
X926559Y163517D01*
X927256Y163609D01*
X927905Y163878D01*
X928462Y164305D01*
X928890Y164863D01*
X929159Y165512D01*
X929251Y166209D01*
Y173295D01*
X929159Y173992D01*
X928890Y174641D01*
X928462Y175199D01*
X927905Y175626D01*
X927256Y175895D01*
X926559Y175987D01*
D02*
G37*
G36*
X896441D02*
X895744Y175895D01*
X895095Y175626D01*
X894538Y175199D01*
X894110Y174641D01*
X893841Y173992D01*
X893750Y173295D01*
Y166209D01*
X893841Y165512D01*
X894110Y164863D01*
X894538Y164305D01*
X895095Y163878D01*
X895744Y163609D01*
X896441Y163517D01*
X897138Y163609D01*
X897787Y163878D01*
X898344Y164305D01*
X898772Y164863D01*
X899041Y165512D01*
X899133Y166209D01*
Y173295D01*
X899041Y173992D01*
X898772Y174641D01*
X898344Y175199D01*
X897787Y175626D01*
X897138Y175895D01*
X896441Y175987D01*
D02*
G37*
G36*
X847441D02*
X846744Y175895D01*
X846095Y175626D01*
X845538Y175199D01*
X845110Y174641D01*
X844841Y173992D01*
X844750Y173295D01*
Y166209D01*
X844841Y165512D01*
X845110Y164863D01*
X845538Y164305D01*
X846095Y163878D01*
X846744Y163609D01*
X847441Y163517D01*
X848138Y163609D01*
X848787Y163878D01*
X849344Y164305D01*
X849772Y164863D01*
X850041Y165512D01*
X850132Y166209D01*
Y173295D01*
X850041Y173992D01*
X849772Y174641D01*
X849344Y175199D01*
X848787Y175626D01*
X848138Y175895D01*
X847441Y175987D01*
D02*
G37*
%LPD*%
G36*
X842940Y257567D02*
X842863Y257181D01*
X843009Y256447D01*
X843048Y256389D01*
Y254733D01*
X838051D01*
X837388Y254601D01*
X836826Y254226D01*
X835298Y252698D01*
X833099D01*
Y249778D01*
X830829Y247508D01*
X830434Y247772D01*
X829700Y247918D01*
X828966Y247772D01*
X828344Y247356D01*
X827928Y246734D01*
X827782Y246000D01*
X827928Y245266D01*
X828344Y244644D01*
X828966Y244228D01*
X829700Y244082D01*
X830434Y244228D01*
X831056Y244644D01*
X831159Y244798D01*
X831519Y244870D01*
X831916Y245135D01*
X834981Y248200D01*
X837901D01*
Y250398D01*
X838769Y251267D01*
X843681D01*
X843776Y251286D01*
X844781D01*
X845444Y251417D01*
X846007Y251793D01*
X846383Y252356D01*
X846514Y253019D01*
Y255086D01*
X850500D01*
X850773Y255141D01*
X851005Y255295D01*
X851159Y255527D01*
X851214Y255800D01*
Y256667D01*
X854770D01*
X854922Y256460D01*
X854803Y255829D01*
X854544Y255656D01*
X854128Y255034D01*
X853982Y254300D01*
X854128Y253566D01*
X854544Y252944D01*
X854677Y252855D01*
Y250407D01*
X854215Y250216D01*
X852665Y251765D01*
X852338Y251983D01*
X852156Y252256D01*
X851534Y252672D01*
X850800Y252818D01*
X850066Y252672D01*
X849444Y252256D01*
X849028Y251634D01*
X848885Y250917D01*
X848882Y250900D01*
X848802Y250431D01*
X848365Y250331D01*
X848066Y250272D01*
X847916Y250172D01*
X847444Y249856D01*
X847028Y249234D01*
X847026Y249223D01*
X842855D01*
X842334Y249572D01*
X841600Y249718D01*
X840866Y249572D01*
X840244Y249156D01*
X839828Y248534D01*
X839682Y247800D01*
X839828Y247066D01*
X840176Y246545D01*
X840344Y246056D01*
X839928Y245434D01*
X839782Y244700D01*
X839928Y243966D01*
X840344Y243344D01*
X840966Y242928D01*
X841700Y242782D01*
X842434Y242928D01*
X843056Y243344D01*
X843279Y243676D01*
X847755D01*
X847844Y243544D01*
X848466Y243128D01*
X849200Y242982D01*
X849934Y243128D01*
X850556Y243544D01*
X850972Y244166D01*
X851118Y244900D01*
X850972Y245634D01*
X850556Y246256D01*
X850142Y246533D01*
X850104Y247109D01*
X850156Y247144D01*
X850572Y247766D01*
X850718Y248500D01*
X850718Y248500D01*
X850719Y248505D01*
X850719Y248505D01*
X850800Y248982D01*
X851534Y249128D01*
X851718Y249251D01*
X853358Y247612D01*
Y240852D01*
X852917Y240617D01*
X852834Y240672D01*
X852100Y240818D01*
X851366Y240672D01*
X850744Y240256D01*
X850328Y239634D01*
X850236Y239172D01*
X826901D01*
Y240198D01*
X822099D01*
Y239172D01*
X821180D01*
Y239543D01*
X819341D01*
Y243458D01*
X821180D01*
Y247023D01*
X815056D01*
Y243458D01*
X816895D01*
Y239543D01*
X815056D01*
Y238903D01*
X814992Y238890D01*
X814595Y238625D01*
X811819Y235849D01*
X811391D01*
X810944Y235978D01*
Y239543D01*
X804820D01*
Y238983D01*
X804300D01*
Y240901D01*
X803784D01*
Y242600D01*
X803652Y243263D01*
X803589Y243359D01*
X804247Y244017D01*
X804820D01*
Y243458D01*
X810944D01*
Y247023D01*
X804820D01*
Y246463D01*
X803740D01*
X803272Y246370D01*
X802875Y246105D01*
X801936Y245166D01*
X798977Y248126D01*
X798415Y248501D01*
X797751Y248633D01*
X780284D01*
X779918Y249000D01*
X780109Y249461D01*
X792991D01*
Y251479D01*
X809013D01*
X809676Y251611D01*
X810238Y251987D01*
X815218Y256967D01*
X821599D01*
Y256200D01*
X826401D01*
Y258067D01*
X842555D01*
X842940Y257567D01*
D02*
G37*
G36*
X852867Y222746D02*
Y221389D01*
X852999Y220725D01*
X853374Y220163D01*
X854716Y218822D01*
Y214901D01*
X854200D01*
Y210099D01*
X856398D01*
X857155Y209343D01*
X856963Y208881D01*
X848705D01*
Y222706D01*
X849088Y222911D01*
X849205Y222920D01*
X849900Y222782D01*
X850634Y222928D01*
X850692Y222967D01*
X851900D01*
X852367Y223060D01*
X852867Y222746D01*
D02*
G37*
G36*
X858854Y218516D02*
X859251Y218251D01*
X859719Y218158D01*
X862980D01*
X864277Y216861D01*
Y203716D01*
X858696Y198135D01*
X858431Y197738D01*
X858337Y197270D01*
Y194168D01*
X858051Y193881D01*
X848234D01*
Y190119D01*
X851868D01*
X852059Y189657D01*
X846345Y183942D01*
X838920D01*
X834348Y188515D01*
X834540Y188977D01*
X837601D01*
X838069Y189070D01*
X838466Y189335D01*
X840108Y190977D01*
X844096D01*
X844564Y191070D01*
X844961Y191335D01*
X846266Y192640D01*
X846531Y193037D01*
X846624Y193505D01*
Y197932D01*
X846531Y198400D01*
X846266Y198797D01*
X846042Y199021D01*
Y199979D01*
X846646Y200583D01*
X846912Y200980D01*
X847005Y201448D01*
Y206012D01*
X847466Y206203D01*
X847535Y206135D01*
X847932Y205870D01*
X848234Y205810D01*
Y205119D01*
X857322D01*
X857529Y204619D01*
X856791Y203881D01*
X848234D01*
Y200119D01*
X858294D01*
Y200579D01*
X858587Y200774D01*
X860820Y203008D01*
X861196Y203570D01*
X861328Y204233D01*
X861328Y204233D01*
Y209354D01*
X861196Y210018D01*
X860820Y210580D01*
X858698Y212702D01*
Y214901D01*
X858182D01*
Y218534D01*
X858644Y218726D01*
X858854Y218516D01*
D02*
G37*
G36*
X832387Y215331D02*
X832196Y214869D01*
X829272D01*
Y204414D01*
X831031D01*
X831222Y203952D01*
X826826Y199556D01*
X825710Y200018D01*
X824500Y200177D01*
X823289Y200018D01*
X823080Y199931D01*
X822797Y200355D01*
X827844Y205402D01*
X828109Y205799D01*
X828202Y206267D01*
Y217037D01*
X828109Y217505D01*
X827844Y217902D01*
X822408Y223338D01*
X822600Y223800D01*
X823919D01*
X832387Y215331D01*
D02*
G37*
G36*
X805411Y223200D02*
X800114Y217902D01*
X799848Y217505D01*
X799755Y217037D01*
Y206267D01*
X799848Y205799D01*
X800114Y205402D01*
X805842Y199673D01*
X805512Y199296D01*
X805181Y199550D01*
X804053Y200018D01*
X802843Y200177D01*
X801632Y200018D01*
X800504Y199550D01*
X799536Y198807D01*
X798792Y197838D01*
X798325Y196711D01*
X798166Y195500D01*
X798325Y194290D01*
X798787Y193175D01*
X797199Y191586D01*
X796295D01*
X796134Y192060D01*
X796307Y192193D01*
X797050Y193161D01*
X797518Y194290D01*
X797677Y195500D01*
X797518Y196711D01*
X797050Y197838D01*
X796307Y198807D01*
X795338Y199550D01*
X794223Y200012D01*
Y205414D01*
X798228D01*
Y215869D01*
X795804D01*
X795613Y216331D01*
X802981Y223700D01*
X805204D01*
X805411Y223200D01*
D02*
G37*
G36*
X851208Y236516D02*
X851286Y236243D01*
X849835Y234792D01*
X849570Y234395D01*
X849477Y233927D01*
Y231911D01*
X844916Y227350D01*
X844651Y226954D01*
X844558Y226485D01*
Y201955D01*
X843954Y201351D01*
X843688Y200955D01*
X843595Y200486D01*
Y198514D01*
X843638Y198300D01*
X843297Y197800D01*
X840099D01*
Y196723D01*
X838855D01*
X838393Y197838D01*
X837650Y198807D01*
X836681Y199550D01*
X835553Y200018D01*
X834343Y200177D01*
X833132Y200018D01*
X832004Y199550D01*
X831036Y198807D01*
X830292Y197838D01*
X829825Y196711D01*
X829666Y195500D01*
X829825Y194290D01*
X830292Y193161D01*
X831036Y192193D01*
X831386Y191923D01*
X831217Y191423D01*
X827626D01*
X827456Y191923D01*
X827807Y192193D01*
X828550Y193161D01*
X829018Y194290D01*
X829177Y195500D01*
X829018Y196711D01*
X828556Y197826D01*
X835145Y204414D01*
X839728D01*
Y214869D01*
X835723D01*
Y214949D01*
X835630Y215417D01*
X835365Y215814D01*
X826201Y224978D01*
Y226919D01*
X829365Y230084D01*
X829630Y230481D01*
X829723Y230949D01*
Y233055D01*
X829856Y233144D01*
X830272Y233766D01*
X830418Y234500D01*
X830272Y235234D01*
X829856Y235856D01*
X829304Y236225D01*
X829315Y236511D01*
X829387Y236725D01*
X851061D01*
X851208Y236516D01*
D02*
G37*
D12*
X841400Y248000D02*
X841800D01*
X851051Y272651D02*
Y275500D01*
X850100Y273600D02*
X850102D01*
X851051Y272651D01*
X839749Y264551D02*
X839944Y264356D01*
X823500Y225949D02*
X828500Y230949D01*
X823500Y225949D02*
X834500Y214949D01*
X810200Y226258D02*
Y229500D01*
X809414Y232081D02*
X814286D01*
X807819Y230486D02*
X809414Y232081D01*
X807819Y227219D02*
Y230486D01*
X806549Y225949D02*
X807819Y227219D01*
X808974Y234626D02*
X812326D01*
X806400Y232051D02*
X808974Y234626D01*
X803500Y232051D02*
X806400D01*
X851149Y237949D02*
X852100Y238900D01*
X824500Y237949D02*
X851149D01*
X854581Y237808D02*
Y248119D01*
X856281Y237104D02*
Y248823D01*
X850700Y233927D02*
X854581Y237808D01*
X851800Y250900D02*
X854581Y248119D01*
X852400Y233223D02*
X856281Y237104D01*
X855900Y249204D02*
X856281Y248823D01*
X850700Y231404D02*
Y233927D01*
X852400Y230700D02*
Y233223D01*
X860981Y235581D02*
Y256405D01*
X856981Y231581D02*
X860981Y235581D01*
X856981Y222119D02*
Y231581D01*
X841800Y248000D02*
X848300D01*
X848800Y248500D01*
X850800Y250900D02*
X851800D01*
X841900Y244900D02*
X849200D01*
X841700Y244700D02*
X841900Y244900D01*
X921605Y230586D02*
X934000D01*
X923200Y271000D02*
Y275400D01*
X918719Y266519D02*
X923200Y271000D01*
X918719Y233471D02*
Y266519D01*
X826979Y206267D02*
Y217037D01*
X819363Y198652D02*
X826979Y206267D01*
X811752Y198652D02*
X819363D01*
X810339Y197239D02*
X811752Y198652D01*
X810339Y183686D02*
Y197239D01*
X803500Y225949D02*
X806549D01*
X814286Y232081D02*
X817167Y229200D01*
X814600Y225000D02*
X819016D01*
X813300Y226300D02*
X814600Y225000D01*
X813300Y226300D02*
Y229700D01*
X800979Y217037D02*
X810200Y226258D01*
X831051Y246000D02*
X835500Y250449D01*
X829700Y246000D02*
X831051D01*
X873800Y243800D02*
X878500Y239100D01*
X869600Y243800D02*
X873800D01*
X867119Y241614D02*
Y272119D01*
Y241614D02*
X867200Y241533D01*
X867119Y272119D02*
X872700Y277700D01*
X867200Y202505D02*
Y241533D01*
X878500Y239100D02*
X886133D01*
X886414Y239381D01*
X886681D01*
X887400Y240100D01*
X821429Y188429D02*
X832703D01*
X820182Y187182D02*
X821429Y188429D01*
X820182Y183686D02*
Y187182D01*
X832703Y188429D02*
X838414Y182719D01*
X846852D02*
X853752Y189619D01*
X838414Y182719D02*
X846852D01*
X837601Y190200D02*
X839601Y192200D01*
X818200Y190200D02*
X837601D01*
X856981Y222119D02*
X859719Y219381D01*
X857900Y192000D02*
X859561Y193661D01*
Y197270D02*
X865500Y203209D01*
X859561Y193661D02*
Y197270D01*
X865500Y203209D02*
Y217367D01*
X853264Y192000D02*
X857900D01*
X861261Y196566D02*
X867200Y202505D01*
X862961Y195862D02*
X869099Y202000D01*
X873736D01*
X844096Y192200D02*
X845401Y193505D01*
X839601Y192200D02*
X844096D01*
X848400Y207000D02*
X853264D01*
X847481Y207919D02*
X848400Y207000D01*
X847481Y207919D02*
Y225781D01*
X844819Y200486D02*
X845781Y201448D01*
X844819Y198514D02*
Y200486D01*
Y198514D02*
X845401Y197932D01*
Y193505D02*
Y197932D01*
X845781Y201448D02*
Y226485D01*
X850700Y231404D01*
X847481Y225781D02*
X852400Y230700D01*
X800979Y206267D02*
X808200Y199046D01*
Y191300D02*
Y199046D01*
X805418Y188518D02*
X808200Y191300D01*
X872700Y277700D02*
X876000D01*
X817167Y229200D02*
X820500D01*
X819449Y232051D02*
X823500D01*
X818000Y233500D02*
X819449Y232051D01*
X818000Y233500D02*
Y237642D01*
X819016Y225000D02*
X826979Y217037D01*
X800979Y206267D02*
Y217037D01*
X812326Y234626D02*
X815460Y237760D01*
X818118D01*
X815261Y187261D02*
X818200Y190200D01*
X815261Y183686D02*
Y187261D01*
X805418Y183686D02*
Y188518D01*
X797706Y190363D02*
X802843Y195500D01*
X789588Y190363D02*
X797706D01*
X783251Y196700D02*
X789588Y190363D01*
X861261Y192788D02*
Y196566D01*
X858092Y189619D02*
X861261Y192788D01*
X853752Y189619D02*
X858092D01*
X862961Y188961D02*
Y195862D01*
X876800Y237100D02*
X887300D01*
X887400Y237000D01*
X824000Y264551D02*
X839749D01*
X802051Y242600D02*
Y243551D01*
X857986Y259400D02*
X860981Y256405D01*
X855900Y249204D02*
Y254300D01*
X858400Y259814D02*
Y260300D01*
X857986Y259400D02*
X858400Y259814D01*
X841800Y248000D02*
X842000Y248200D01*
X841600Y247800D02*
X841800Y248000D01*
X918719Y233471D02*
X921605Y230586D01*
X934000Y230051D02*
Y230586D01*
X844949Y272451D02*
X845700Y271700D01*
X844949Y272451D02*
Y275500D01*
X863486Y219381D02*
X865500Y217367D01*
X859719Y219381D02*
X863486D01*
X841400Y248000D02*
X841600Y247800D01*
X774000Y234000D02*
X774100Y233900D01*
Y220000D02*
Y233900D01*
X828500Y230949D02*
Y234500D01*
X942500Y202071D02*
Y215449D01*
X939449Y218500D02*
X942500Y215449D01*
X939449Y218500D02*
Y224000D01*
X934000Y215689D02*
X938760Y210929D01*
X934000Y215689D02*
Y223949D01*
X939398Y230051D02*
X939449Y230000D01*
X934000Y230051D02*
X939398D01*
X842449Y195500D02*
X842500Y195551D01*
X834343Y195500D02*
X842449D01*
X802051Y243551D02*
X803740Y245240D01*
X807882D01*
X802051Y238500D02*
X802791Y237760D01*
X807882D01*
X818000Y237642D02*
X818118Y237760D01*
X822409Y233142D02*
X823500Y232051D01*
X818307Y237949D02*
X824500D01*
X818118Y237760D02*
X818307Y237949D01*
X818118Y237760D02*
Y245240D01*
X793000Y210642D02*
Y215449D01*
X803500Y225949D01*
X793000Y210642D02*
X793000Y210642D01*
Y195500D02*
Y210642D01*
X834500Y205500D02*
Y209642D01*
X824500Y195500D02*
X834500Y205500D01*
Y209642D02*
Y214949D01*
X910697Y188804D02*
X913961Y185539D01*
X898804Y188804D02*
X910697D01*
X913961Y181957D02*
Y185539D01*
X892000Y182000D02*
X898804Y188804D01*
X909039Y181957D02*
Y184961D01*
X907197Y186803D02*
X909039Y184961D01*
X899804Y186803D02*
X907197D01*
X893000Y180000D02*
X899804Y186803D01*
X877672Y182000D02*
X892000D01*
X872172Y176500D02*
X877672Y182000D01*
X866500Y176500D02*
X872172D01*
X864961Y178039D02*
X866500Y176500D01*
X878500Y180000D02*
X893000D01*
X873000Y174500D02*
X878500Y180000D01*
X864961Y178039D02*
Y181957D01*
X863500Y174500D02*
X873000D01*
X860039Y177961D02*
X863500Y174500D01*
X860039Y177961D02*
Y181957D01*
Y186039D02*
X862961Y188961D01*
X860039Y181957D02*
Y186039D01*
X864961Y181957D02*
Y194961D01*
X867000Y197000D01*
X873736D01*
D47*
X934000Y223949D02*
D03*
Y230051D02*
D03*
X823800Y226049D02*
D03*
Y232151D02*
D03*
X803500Y225949D02*
D03*
Y232051D02*
D03*
X881000Y302551D02*
D03*
X881000Y296449D02*
D03*
X881000Y313051D02*
D03*
X881000Y306949D02*
D03*
X824500Y237949D02*
D03*
Y244051D02*
D03*
X835500Y250449D02*
D03*
Y256551D02*
D03*
X824000Y264551D02*
D03*
Y258449D02*
D03*
X842500Y195551D02*
D03*
Y189449D02*
D03*
D49*
X939449Y230000D02*
D03*
X945551D02*
D03*
Y224000D02*
D03*
X939449D02*
D03*
Y218500D02*
D03*
X945551D02*
D03*
X787949Y289213D02*
D03*
X794051D02*
D03*
X776949Y289213D02*
D03*
X783051Y289213D02*
D03*
X776949Y293713D02*
D03*
X783051D02*
D03*
X787949Y293713D02*
D03*
X794051D02*
D03*
X874949Y292000D02*
D03*
X881051Y292000D02*
D03*
X856449Y212500D02*
D03*
X862551Y212500D02*
D03*
X777149Y196700D02*
D03*
X783251Y196700D02*
D03*
X795949Y238500D02*
D03*
X802051D02*
D03*
X844949Y275500D02*
D03*
X851051D02*
D03*
D50*
X879657Y331000D02*
D03*
X899343D02*
D03*
D57*
X776445Y279787D02*
D03*
D58*
X794555Y279787D02*
D03*
X785500Y279787D02*
D03*
D59*
X785500Y253213D02*
D03*
D60*
X873736Y207000D02*
D03*
Y202000D02*
D03*
X873736Y192000D02*
D03*
X853264Y207000D02*
D03*
Y202000D02*
D03*
Y192000D02*
D03*
X873736Y197000D02*
D03*
X853264D02*
D03*
D61*
X926559Y169752D02*
D03*
X896441D02*
D03*
X877559D02*
D03*
X847441D02*
D03*
D62*
X918882Y181957D02*
D03*
X913961D02*
D03*
X909039D02*
D03*
X904118D02*
D03*
X869882D02*
D03*
X864961D02*
D03*
X860039D02*
D03*
X855118D02*
D03*
D67*
X783051Y282236D02*
Y293713D01*
X785500Y253213D02*
X809013D01*
X854600Y232311D02*
X858781Y236492D01*
X854600Y227400D02*
Y232311D01*
X858781Y236492D02*
Y255493D01*
X855875Y258400D02*
X858781Y255493D01*
X849600Y258400D02*
X855875D01*
X973700Y221251D02*
X975449Y223000D01*
X973700Y221181D02*
Y221251D01*
X970982Y221181D02*
X973700D01*
X961700Y223000D02*
X962700Y224000D01*
Y225775D01*
X965500Y228574D01*
X885700Y307700D02*
Y310500D01*
X884949Y306949D02*
X885700Y307700D01*
X980881Y258307D02*
Y260693D01*
X979193Y262381D02*
X980881Y260693D01*
X979019Y262381D02*
X979193D01*
X970000Y271400D02*
X979019Y262381D01*
X970000Y271400D02*
Y288400D01*
X969250Y289150D02*
X970000Y288400D01*
X965500Y242926D02*
X980881Y258307D01*
X965500Y228574D02*
Y242926D01*
X956551Y223000D02*
X961700D01*
X960500Y213000D02*
X962700Y215200D01*
X954800Y231600D02*
X960175D01*
X969945Y328855D02*
X970900Y327900D01*
X921901Y233401D02*
X952999D01*
X921100Y234202D02*
X921901Y233401D01*
X857361Y202000D02*
X859595Y204233D01*
X853264Y202000D02*
X857361D01*
X859595Y204233D02*
Y209354D01*
X856937Y197757D02*
X862595Y203415D01*
X856937Y197757D02*
X857361D01*
X862595Y203415D02*
Y210597D01*
X881000Y292051D02*
X881051Y292000D01*
X881000Y292051D02*
Y296449D01*
X881000Y302551D02*
X881000Y302551D01*
X881000Y302551D02*
Y306949D01*
X884949D01*
X849900Y224700D02*
X851900D01*
X844781Y257181D02*
Y258819D01*
X856604Y197000D02*
X857361Y197757D01*
X891600Y259100D02*
X895700Y255000D01*
X891600Y259100D02*
Y268500D01*
X776949Y280291D02*
Y293713D01*
X776445Y279787D02*
X776949Y280291D01*
X783051Y282236D02*
X785500Y279787D01*
X794051Y280291D02*
Y293713D01*
Y280291D02*
X794555Y279787D01*
X843700Y253019D02*
X844781D01*
X843681Y253000D02*
X843700Y253019D01*
X838051Y253000D02*
X843681D01*
X835500Y250449D02*
X838051Y253000D01*
X844781Y253019D02*
Y257181D01*
X843800Y259800D02*
X844781Y258819D01*
X825352Y259800D02*
X843800D01*
X824000Y258449D02*
X825352Y259800D01*
X823749Y258700D02*
X824000Y258449D01*
X814500Y258700D02*
X823749D01*
X809013Y253213D02*
X814500Y258700D01*
X807400Y281900D02*
X915400D01*
X799600Y274100D02*
X807400Y281900D01*
X789100Y274100D02*
X799600D01*
X775200Y260200D02*
X789100Y274100D01*
X775200Y251266D02*
Y260200D01*
Y251266D02*
X779566Y246900D01*
X797751D02*
X802051Y242600D01*
Y238500D02*
Y242600D01*
X779566Y246900D02*
X797751D01*
X851900Y224700D02*
X854600Y227400D01*
X856449Y212500D02*
Y219540D01*
X854600Y221389D02*
X856449Y219540D01*
X854600Y221389D02*
Y227400D01*
X915200Y282500D02*
X916500Y283800D01*
X797268Y282500D02*
X915200D01*
X794555Y279787D02*
X797268Y282500D01*
X915400Y281900D02*
X916700Y280600D01*
X953900Y280200D02*
X957300Y283600D01*
X960500Y328855D02*
X969945D01*
X964587Y319800D02*
X964587Y319800D01*
X945500Y245600D02*
X951800D01*
X940500Y240600D02*
X945500Y245600D01*
X921100Y234202D02*
Y234600D01*
X948311Y213000D02*
X956551D01*
X946240Y210929D02*
X948311Y213000D01*
X956551D02*
X960500D01*
X952999Y233401D02*
X954800Y231600D01*
X945551Y230000D02*
X949900D01*
X951900Y228000D01*
X956551D01*
X945551Y224000D02*
X946551Y223000D01*
X956551D01*
X945551Y218500D02*
X946051Y218000D01*
X956551D01*
X941200Y266200D02*
X971300D01*
X978000Y259500D01*
X862551Y210640D02*
Y212500D01*
Y210640D02*
X862595Y210597D01*
X853264Y197000D02*
X856604D01*
X856449Y212500D02*
X859595Y209354D01*
X969118Y211682D02*
Y219318D01*
X970982Y221181D01*
X980000Y180500D02*
Y196071D01*
X975000Y175500D02*
X980000Y180500D01*
X975000Y174000D02*
Y175500D01*
X975449Y209594D02*
Y213000D01*
Y209594D02*
X976500Y208543D01*
Y199571D02*
Y208543D01*
Y199571D02*
X980000Y196071D01*
X969118Y211682D02*
X973500Y207300D01*
Y199571D02*
Y207300D01*
X970000Y196071D02*
X973500Y199571D01*
X970000Y189000D02*
Y196071D01*
Y189000D02*
X975000Y184000D01*
X975449Y228000D02*
X975449Y228000D01*
Y223000D02*
Y228000D01*
X975449Y213000D02*
X975449Y213000D01*
X975449Y213000D02*
Y218000D01*
X917303Y191304D02*
X918500Y192500D01*
X911732Y191304D02*
X917303D01*
X874093Y181957D02*
X876636Y184500D01*
X890965D01*
X897768Y191304D01*
X911732D01*
X869882Y181957D02*
X874093D01*
X918882D02*
Y184153D01*
X911732Y191304D02*
X918882Y184153D01*
D68*
X969250Y289150D02*
X970900Y290800D01*
X963700Y283600D02*
X969250Y289150D01*
X895209Y330409D02*
X896918Y328700D01*
X938013D01*
X894500Y329700D02*
X895209Y330409D01*
X938013Y328700D02*
Y328855D01*
X970900Y290800D02*
Y327900D01*
X964587Y319800D02*
X966900Y317487D01*
Y294145D02*
Y317487D01*
X961355Y288600D02*
X966900Y294145D01*
X932085Y304615D02*
X939200Y297500D01*
X922100Y304615D02*
X932085D01*
X938013Y319800D02*
X964587D01*
X950389Y272200D02*
X961400D01*
X957300Y283600D02*
X963700D01*
X961400Y274200D02*
X965600Y278400D01*
X961400Y272200D02*
Y274200D01*
X947400Y275189D02*
X950389Y272200D01*
X947400Y275189D02*
Y287311D01*
X948689Y288600D01*
X961355D01*
X938013Y328855D02*
X960500D01*
D69*
X841100Y297200D02*
Y306400D01*
X916085Y293985D02*
X922100D01*
X909699Y287599D02*
X916085Y293985D01*
X850701Y287599D02*
X909699D01*
X841100Y306400D02*
X842800Y308100D01*
X841100Y297200D02*
X850701Y287599D01*
D83*
X935000Y174000D02*
D03*
Y184000D02*
D03*
Y194000D02*
D03*
X955000Y174000D02*
D03*
Y184000D02*
D03*
Y194000D02*
D03*
X965000Y174000D02*
D03*
Y184000D02*
D03*
Y194000D02*
D03*
X975000Y174000D02*
D03*
Y184000D02*
D03*
Y194000D02*
D03*
X945000Y174000D02*
D03*
Y184000D02*
D03*
Y194000D02*
D03*
D85*
X970600Y336800D02*
D03*
X927400D02*
D03*
X958800Y297500D02*
D03*
X939200D02*
D03*
D86*
X824500Y195500D02*
D03*
X834343Y195500D02*
D03*
X793000Y195500D02*
D03*
X802843D02*
D03*
D87*
X736500Y177000D02*
D03*
X766500D02*
D03*
D88*
X900593Y211652D02*
D03*
Y302203D02*
D03*
X813979D02*
D03*
Y211652D02*
D03*
D89*
X829237Y178174D02*
D03*
X796363D02*
D03*
D90*
X850100Y273600D02*
D03*
X840044Y264456D02*
D03*
X810200Y229500D02*
D03*
X852100Y238900D02*
D03*
X849600Y258400D02*
D03*
X850800Y250900D02*
D03*
X848800Y248500D02*
D03*
X849200Y244900D02*
D03*
X829700Y246000D02*
D03*
X869600Y243800D02*
D03*
X864300Y242400D02*
D03*
X889300Y314900D02*
D03*
X885700Y310500D02*
D03*
X847500Y297000D02*
D03*
X839300Y250000D02*
D03*
X796200D02*
D03*
X795700Y257700D02*
D03*
X798600Y201200D02*
D03*
X885700Y265400D02*
D03*
X871300Y247800D02*
D03*
X885400Y252900D02*
D03*
X885200Y247100D02*
D03*
X876400Y232600D02*
D03*
X850900Y212600D02*
D03*
X876000Y212400D02*
D03*
X875400Y219900D02*
D03*
X863600Y228700D02*
D03*
X841800Y162100D02*
D03*
X791300Y185700D02*
D03*
X820600Y278100D02*
D03*
X807700Y287600D02*
D03*
X800100Y293900D02*
D03*
X799300Y288000D02*
D03*
X786100Y298500D02*
D03*
X794200D02*
D03*
X777700Y299000D02*
D03*
X775500Y273400D02*
D03*
X887700Y313200D02*
D03*
X870200Y291800D02*
D03*
X831400Y332700D02*
D03*
X842400Y333600D02*
D03*
X924800Y325100D02*
D03*
X977800Y325000D02*
D03*
X954500Y337700D02*
D03*
X945100Y337400D02*
D03*
X912600Y332300D02*
D03*
X915700Y321700D02*
D03*
X924600Y314700D02*
D03*
X922900Y282400D02*
D03*
X942700Y286100D02*
D03*
X942400Y260100D02*
D03*
X950400Y256900D02*
D03*
X894600Y243900D02*
D03*
X902800Y264000D02*
D03*
X902500Y275300D02*
D03*
X891700Y278100D02*
D03*
X864000Y250700D02*
D03*
X870700Y253200D02*
D03*
X847900Y252600D02*
D03*
X853100Y264200D02*
D03*
X857200Y273600D02*
D03*
X839100Y278100D02*
D03*
X833600Y288000D02*
D03*
X828300Y287900D02*
D03*
X827400Y273400D02*
D03*
X816600Y266200D02*
D03*
X807400Y249700D02*
D03*
X787700Y241100D02*
D03*
X783300Y227900D02*
D03*
X790200Y219400D02*
D03*
X970600Y163700D02*
D03*
X939300Y164100D02*
D03*
X915000Y168500D02*
D03*
X906400Y165800D02*
D03*
X869500Y170200D02*
D03*
X859000Y164000D02*
D03*
X822500Y165300D02*
D03*
X816500Y170200D02*
D03*
X809500Y165100D02*
D03*
X804000Y170700D02*
D03*
X798900Y165000D02*
D03*
X977300Y282800D02*
D03*
X976300Y273800D02*
D03*
X972400Y240000D02*
D03*
X962400Y234500D02*
D03*
X973800Y233000D02*
D03*
X963200Y212800D02*
D03*
X965900Y224900D02*
D03*
X965500Y205700D02*
D03*
X960600Y202100D02*
D03*
X955600Y207400D02*
D03*
X873800Y187300D02*
D03*
X897600Y195600D02*
D03*
X912100Y196300D02*
D03*
X826300Y311200D02*
D03*
X837300Y309100D02*
D03*
X837000Y315700D02*
D03*
X826700Y319300D02*
D03*
X835300Y297000D02*
D03*
X836500Y323600D02*
D03*
X892000Y319300D02*
D03*
X894000Y323200D02*
D03*
X891600Y327000D02*
D03*
X894500Y329700D02*
D03*
X891700Y332200D02*
D03*
X894400Y335400D02*
D03*
X891500Y338900D02*
D03*
X870100Y317900D02*
D03*
X873300Y316600D02*
D03*
X869500Y314600D02*
D03*
X873400Y311900D02*
D03*
X869600Y309700D02*
D03*
X873400Y308000D02*
D03*
X869700Y305900D02*
D03*
X873400Y303800D02*
D03*
X869700Y301800D02*
D03*
X869600Y329500D02*
D03*
X869900Y332500D02*
D03*
X868900Y335400D02*
D03*
X869000Y338900D02*
D03*
X866300Y340600D02*
D03*
X860300Y340100D02*
D03*
X854400Y339700D02*
D03*
X852800Y337000D02*
D03*
X852700Y333100D02*
D03*
X852600Y330200D02*
D03*
X784400Y278200D02*
D03*
X789900Y253100D02*
D03*
X781200Y253400D02*
D03*
X839400Y185100D02*
D03*
X876000Y277700D02*
D03*
X820500Y229200D02*
D03*
X813300Y229700D02*
D03*
X849900Y224700D02*
D03*
X847200Y199500D02*
D03*
X844781Y257181D02*
D03*
X887400Y237000D02*
D03*
Y240100D02*
D03*
X785500Y253213D02*
D03*
X783000Y284800D02*
D03*
X841200Y256400D02*
D03*
X837500Y220600D02*
D03*
X858400Y260300D02*
D03*
X843400Y224500D02*
D03*
X854600Y227400D02*
D03*
X891600Y268500D02*
D03*
X895700Y255000D02*
D03*
X843100Y302600D02*
D03*
X846800Y303600D02*
D03*
X842800Y308100D02*
D03*
X846800Y311700D02*
D03*
X843200Y313800D02*
D03*
X847100Y317700D02*
D03*
X843400Y318300D02*
D03*
X960500Y270400D02*
D03*
X965600Y270500D02*
D03*
Y278400D02*
D03*
X960300Y278100D02*
D03*
X951400Y283200D02*
D03*
X955100Y278500D02*
D03*
X951600Y278200D02*
D03*
X951800Y245600D02*
D03*
X940500Y240600D02*
D03*
X923200Y275400D02*
D03*
X921100Y234600D02*
D03*
X941200Y266200D02*
D03*
X845700Y271700D02*
D03*
X852300Y219600D02*
D03*
X860400Y223800D02*
D03*
X855900Y254300D02*
D03*
X841600Y247800D02*
D03*
X841700Y244700D02*
D03*
X916500Y277100D02*
D03*
X916700Y280600D02*
D03*
X916500Y283800D02*
D03*
X876800Y237100D02*
D03*
X774000Y234000D02*
D03*
X774100Y220000D02*
D03*
X828500Y234500D02*
D03*
X978000Y259500D02*
D03*
X804000Y267000D02*
D03*
X809000Y272000D02*
D03*
X828500Y252500D02*
D03*
X825000D02*
D03*
X928500Y221000D02*
D03*
X928000Y215500D02*
D03*
X916500D02*
D03*
X916000Y221000D02*
D03*
X862500Y217000D02*
D03*
X900500Y177000D02*
D03*
X882000Y176500D02*
D03*
X847500Y180000D02*
D03*
X833300Y184000D02*
D03*
X846500Y186500D02*
D03*
X796500Y243000D02*
D03*
X791000Y236500D02*
D03*
X828500Y241000D02*
D03*
X813500Y241500D02*
D03*
X920000Y194500D02*
D03*
X921500Y192500D02*
D03*
X918500D02*
D03*
X725000Y209000D02*
D03*
X730500D02*
D03*
X736000Y202500D02*
D03*
X763000Y196500D02*
D03*
X768000Y207500D02*
D03*
X766500Y219500D02*
D03*
X770000Y224500D02*
D03*
X762000Y226500D02*
D03*
X757000D02*
D03*
X752500Y222500D02*
D03*
X728500Y203000D02*
D03*
X750000Y162000D02*
D03*
X766500D02*
D03*
X780500Y177500D02*
D03*
X723500Y177000D02*
D03*
X784500Y205500D02*
D03*
X779500Y189500D02*
D03*
X737500Y162000D02*
D03*
X760500D02*
D03*
X774000Y161500D02*
D03*
X779000Y169000D02*
D03*
X724000Y189000D02*
D03*
Y166500D02*
D03*
X729500Y161500D02*
D03*
D91*
X807882Y237760D02*
D03*
X807882Y241500D02*
D03*
Y245240D02*
D03*
X818118D02*
D03*
Y237760D02*
D03*
D92*
X810339Y183686D02*
D03*
X800497D02*
D03*
X825103D02*
D03*
X805418D02*
D03*
X815261D02*
D03*
X820182D02*
D03*
D93*
X791245Y170694D02*
D03*
X834355D02*
D03*
D94*
X975449Y228000D02*
D03*
X975449Y223000D02*
D03*
X975449Y218000D02*
D03*
X975449Y213000D02*
D03*
X956551Y228000D02*
D03*
Y223000D02*
D03*
X956551Y218000D02*
D03*
Y213000D02*
D03*
D95*
X793000Y210642D02*
D03*
X793000Y228358D02*
D03*
X922500Y224858D02*
D03*
X922500Y207142D02*
D03*
X834500Y227358D02*
D03*
Y209642D02*
D03*
D96*
X861600Y304919D02*
D03*
Y332281D02*
D03*
D97*
X922100Y293985D02*
D03*
Y304615D02*
D03*
D98*
X938013Y310745D02*
D03*
D99*
X938013Y319800D02*
D03*
X938013Y328855D02*
D03*
D100*
X964587Y319800D02*
D03*
D101*
X942500Y202071D02*
D03*
X946240Y210929D02*
D03*
X938760D02*
D03*
D102*
X895750Y329250D02*
D03*
D103*
X860600Y335050D02*
D03*
D104*
X847300Y258250D02*
D03*
D105*
X844300Y310550D02*
D03*
D106*
X963000Y274550D02*
D03*
D107*
X952900Y281250D02*
D03*
D108*
X916750Y280100D02*
D03*
D109*
X921750Y220500D02*
D03*
D110*
X920000Y194500D02*
D03*
M02*
