M48
;Layer_Color=9474304
;FILE_FORMAT=2:5
INCH,LZ
;TYPE=PLATED
T1F00S00C0.02000
T2F00S00C0.03543
T3F00S00C0.13800
T4F00S00C0.22500
%
T01
X0377953Y0109252
Y0116142
X0385827
X0385827Y0109252
X0393701
Y0116142
X0401575Y0109252
X0409449
X0416339
X0424213
Y0116142
X0417323
X0409449
X0410433Y0135827
X0417323
X0425197
Y0142717
X0418307
X0410433
X0402559
X0394685
Y0135827
X0386811
X0386811Y0142717
X0378937
Y0135827
X0433071
Y0142717
X0440945
Y0135827
X04483Y01339
X04489Y0138
X0452Y01389
X04515Y01357
Y01323
X04531Y01294
X04554Y01264
X0458Y01244
X04609Y01231
X04644Y01224
X04676Y0123
X0464567Y0112205
X0458661
X0452756
X044685
X0439961Y0109252
Y0116142
X0432087
Y0109252
X0450787Y0102362
X0456693
X0462598
X0468504
X04533Y01422
X04498Y0142
X0452756Y0153543
X0458661
X0464567
X0470472
X0476378
X0482283
X04791Y01428
X04755Y01431
X0477Y014
X04776Y01364
X04773Y01326
X0476Y01295
X04736Y01265
X04706Y01243
X0470472Y0112205
X0476378
X0482283
X0480315Y0102362
X0474409
X0492126Y0109252
Y0116142
X05
X05Y0109252
X0507874
X0515748
Y0116142
X0523622
Y0109252
X0533465Y0112205
X053937
X0545276
X0551181
X0557087
X0562992
X0568898
X0566929Y0102362
X0561024
X0555118
X0549213
X0543307
X0537402
X05428Y01257
X05454Y01241
X05485Y01229
X05522
X05559Y01234
X0559Y01251
X05612Y01275
X05631Y01307
X05641Y01342
X0564Y01375
X05631Y0141
X05667Y01402
X05675Y01364
X05686Y01433
X0565Y01441
X05614
X05587Y01464
X0557087Y0153543
X0551181
X0545276
X053937
X0533465
X05334Y01423
X05367Y01436
X05404Y01438
X05388Y01405
X05381Y0137
X0538Y01338
X05389Y01309
X05406Y01279
X05348Y01354
X05354Y01394
X05431Y01461
X0523622Y0142717
Y0135827
X0515748
Y0142717
X0507874
X05
X05Y0135827
X0492126
Y0142717
X04805Y01386
X04801Y01343
X0579724Y0135827
X0579724Y0142717
X0587598
Y0135827
X0595472
X0595472Y0142717
X0603346
Y0135827
X0611221Y0142717
X061811
Y0109252
X0610236
X0603346
Y0116142
X0595472
X0595472Y0109252
X0587598
Y0116142
X0579724
X0579724Y0109252
X0568898Y0153543
X0562992
X0625984Y0142717
Y0135827
X0633858
Y0142717
Y0116142
Y0109252
X0625984
Y0116142
Y017126
Y0179134
Y0187008
Y0194882
Y0202756
Y021063
Y0218504
Y0226378
Y0234252
Y0242126
Y025
Y0257874
Y0265748
Y0272638
Y0280512
Y0288386
Y029626
Y0304134
Y0312008
X063189Y0308071
Y0300197
Y0292323
Y0284449
Y0276575
Y0268701
Y0261811
Y0253937
Y0246063
Y0238189
Y0230315
Y0222441
Y0214567
Y0206693
Y0198819
Y0190945
Y0183071
Y0175197
Y0167323
X06048Y01655
Y01751
Y01846
Y01941
X0593504Y0190945
X0587598
X0580709
X0573819
Y0184055
X0580709
X0587598
X0593504
Y0177165
X0587598Y0177165
Y0170276
X0593504
Y0163386
X0587598
X0580709
X0573819
Y0170276
X0580709
Y0177165
X0573819
X0542323Y0176181
Y0168307
X0536417Y0172244
Y0180118
Y0187992
Y0195866
Y020374
Y0211614
Y0219488
Y0227362
Y0235236
Y024311
X0542323Y0239173
Y0231299
Y0223425
Y0215551
Y0207677
Y0199803
Y0191929
Y0184055
X05182Y01845
X05181Y01749
X05182Y01656
X050689Y0163386
X0500984
X0494095
X0487205
Y0170276
X0494095
X0500984
X050689
Y0177165
X0500984Y0177165
Y0184055
X050689
Y0190945
X0500984
X0494095
X0487205
Y0184055
X0494095
Y0177165
X0487205
Y021063
X0494095
X0500984
X050689
Y021752
X0500984
Y0224409
X050689Y022441
Y0231299
X0500984
X0494095
Y0224409
Y021752
X0487205
Y0224409
Y0231299
Y0238189
X0494095
X0500984
X050689
X05182Y02339
Y02247
Y02151
X05181Y01941
X05182Y02434
X0519685Y0253937
X0512795
X050689
Y0260827
X0512795
Y0267717
X050689Y0267717
Y0274606
X0512795
X0519685
Y0267717
Y0260827
X0526575
Y0267717
Y0274606
Y0281496
X0519685
X0512795
X050689
X0495079Y0277559
Y0267717
Y0257874
Y0248031
X0478346Y0259842
Y0267717
Y027559
Y0283465
Y0291339
Y0299213
Y0307087
X0472441Y030315
Y0311024
Y0279528
Y0271654
Y0263779
Y0255906
X0471457Y0235236
Y0230315
Y0225394
X0526575Y0253937
X0536417Y0258858
Y0266732
Y0273622
Y0281496
X0542323Y0277559
Y0269685
Y0262795
Y0254921
X055315Y0259842
Y0267717
Y027559
X0559055Y0271654
Y0263779
Y0255906
X0564961Y0259842
Y0267717
Y027559
Y0283465
Y0291339
Y0299213
Y0307087
X0559055Y030315
Y0311024
X055315Y0307087
X0542323Y0309055
Y0301181
X0536417Y0305118
X0526575Y0308071
X0519685
X0512795
X050689
Y0301181
X0512795
X0519685
X0526575
X0559055Y0279528
X0581693Y0277559
Y0267717
Y0257874
Y0248031
X0580709Y0238189
X0587598
X0593504
Y0231299
X0587598
Y022441
X0593504Y022441
Y021752
X0587598
X0580709
Y022441
Y0231299
X0573819
Y022441
Y021752
Y021063
X0580709
X0587598
X0593504
X06048Y02151
Y02246
Y02342
Y02429
X0606299Y0253937
X0599409
X0593504
Y0260827
X0599409
Y0267717
X0593504Y0267717
Y0274606
X0599409
X0606299
Y0267717
Y0260827
X0613189
Y0267717
Y0274606
Y0281496
X0606299
X0599409
X0593504
Y0301181
X0599409
X0606299
X0613189
Y0308071
X0606299
X0599409
X0593504
X0613189Y0253937
X0573819Y0238189
X0558071Y0235236
Y0230315
Y0225394
X0455709Y0223425
Y0231299
Y0239173
X0449803Y0235236
Y0227362
Y0219488
Y0211614
Y020374
Y0195866
Y0187992
Y0180118
Y0172244
X0455709Y0176181
Y0168307
Y0184055
Y0191929
Y0199803
Y0207677
Y0215551
X04316Y02148
Y02249
X04314Y02342
Y02435
X0433071Y0253937
X0426181
X0420276
Y0260827
X0426181
Y0267717
X0420276Y0267717
Y0274606
X0426181
X0433071
Y0267717
Y0260827
X0439961
Y0267717
Y0274606
Y0281496
X0433071
X0426181
X0420276
X0408465Y0277559
Y0267717
Y0257874
Y0248031
X040748Y0238189
X041437
X0420276
Y0231299
X041437
Y022441
X0420276Y022441
Y021752
X041437
X040748
Y022441
Y0231299
X0400591
Y022441
Y021752
Y021063
X040748
X041437
X0420276
Y0190945
X041437
X040748
X0400591
Y0184055
X040748
X041437
X0420276
Y0177165
X041437Y0177165
Y0170276
X0420276
Y0163386
X041437
X040748
X0400591
Y0170276
X040748
Y0177165
X0400591
X04316Y01756
Y01846
Y01941
Y01658
X0449803Y024311
Y0258858
Y0266732
Y0273622
Y0281496
X0455709Y0277559
Y0269685
Y0262795
Y0254921
X0466535Y0259842
Y0267717
Y027559
Y0307087
X0455709Y0309055
Y0301181
X0449803Y0305118
X0439961Y0308071
X0433071
X0426181
X0420276
Y0301181
X0426181
X0433071
X0439961
Y0253937
X0391732Y0259842
Y0267717
Y027559
Y0283465
Y0291339
Y0299213
Y0307087
X0385827Y030315
Y0311024
X0379921Y0307087
Y0299213
Y0291339
Y0283465
Y027559
Y0267717
Y0259842
X0385827Y0255906
Y0263779
Y0271654
Y0279528
Y0287402
Y0295276
X0384842Y0235236
Y0230315
Y0225394
X0400591Y0238189
X0391732Y0314961
Y0322835
Y0330709
Y0338583
Y0346457
Y0354331
Y0362205
X0385827Y0358268
Y0350394
Y034252
Y0334646
Y0326772
Y0318898
X0379921Y0322835
Y0330709
Y0338583
Y0346457
Y0354331
Y0362205
X038189Y0372047
X038189Y0380906
X038189Y0385827
X0390748
X0390748Y0380906
X0390748Y0372047
X0399606
Y0378937
X0408465Y0380906
X0408465Y0385827
X0417323
X0417323Y0380906
X0417323Y0372047
X0408465
X0427165Y0371063
X0431102
X0440945
X0444882Y0370079
X0448819Y0371063
X0458661
X0462598
X0466535Y0362205
Y0354331
Y0346457
Y0338583
Y0330709
Y0322835
Y0314961
X0455709Y0316929
Y0324803
Y0332677
Y0340551
Y0348425
Y0356299
Y0364173
X0449803Y0360236
X0444882
X0437992
Y0352362
X0444882
X0449803
Y0344488
X0444882
Y0337598
X0449803Y0336614
Y032874
Y0320866
Y0312992
X0439961Y0314961
X0433071
X0426181
X0420276Y0314961
Y032185
X0426181
X0433071
X0439961
Y032874
X0433071
X0426181
X0420276
X0431102Y0337598
X0437992
Y0344488
X0430118Y038189
X042815Y0384842
X0432087
Y0388779
X042815
Y0392717
X0432087
X0430118Y0395669
Y0404528
X0433071Y0406496
X0436024Y0404528
X0438976Y0406496
X0441929Y0404528
X0444882Y0406496
X0447835Y0404528
X0450787Y0406496
X045374Y0404528
X0456693Y0406496
X0459646Y0404528
X0462598Y0406496
Y0418307
X0456693
X0450787
X0444882
X0438976
X0433071
X0427165
Y0406496
X0417323Y0405512
X0408465
X0408465Y041437
X0399606
X0390748
X038189
Y0405512
X0390748
X0417323Y041437
X0459646Y0395669
X0457677Y0392717
X0461614
Y0388779
X0457677
Y0384842
X0461614
X0459646Y038189
X0379921Y0314961
X0472441Y0318898
Y0326772
Y0334646
Y034252
Y0350394
Y0358268
X0478346Y0362205
X0478346Y0354331
Y0346457
Y0338583
Y0330709
Y0322835
Y0314961
X050689Y0314961
X0512795Y0314961
Y032185
X050689
Y032874
X0512795
X0519685
X0526575
Y032185
X0519685
Y0314961
X0526575
X0536417Y0312992
Y0320866
Y032874
Y0336614
X0531496Y0337598
Y0344488
X0536417
Y0352362
X0531496
X0524606
Y0360236
X0531496
X0536417
X0542323Y0356299
Y0364173
X0545276Y0370079
X0549213
X0557087Y0372047
X0557087Y0380906
X0557087Y0385827
X0565945
X0565945Y0380906
X0565945Y0372047
X0574803
X0574803Y0377953
X0583661Y0380906
Y0385827
X059252
Y0380906
X059252Y0372047
X0583661
X0600394Y0370079
X0604331Y0370079
X0614173
X061811Y0369094
X0622047Y0370079
X061811Y0361221
X0611221
Y0353346
X061811
Y0345472
Y0338583
X0611221
X0604331
X0606299Y032874
X0599409
X0593504
Y032185
X0599409
Y0314961
X0593504Y0314961
X0606299Y0314961
Y032185
X0613189
Y0314961
Y032874
X0611221Y0345472
X0602362Y0379921
X0600394Y0382874
Y0386811
Y0390748
X0604331
Y0386811
Y0382874
X0602362Y0393701
X0603346Y0403543
X0606299Y0405512
X0609252Y0403543
X0612205Y0405512
X0615158Y0404528
X061811Y0405512
X0621063Y0403543
X0624016Y0405512
Y0417323
X061811
X0612205
X0606299
X0600394
X059252Y041437
Y0405512
X0600394
X0583661
X0583661Y041437
X0574803
X0565945
X0557087
Y0405512
X0549213Y0405512
X054626Y0403543
X0543307Y0405512
X0540354Y0403543
X0537402Y0405512
X0534449Y0403543
X0531496Y0405512
X0528543Y0404528
X0525591Y0405512
X0522638Y0403543
X0519685Y0405512
X0516732Y0403543
X0513779Y0405512
X0505905
X0497047
X0497047Y041437
X0488189
X0479331
X0470472
Y0405512
X0479331
Y0385827
X0479331Y038189
X0470472
X0470472Y0385827
Y0373031
X0479331
X0488189
X0488189Y0378937
X0497047Y038189
X0497047Y0385827
X0505905
X0505905Y038189
X0505905Y0373031
X0497047
X0513779Y0370079
X0517717
X0527559
X0531496Y0369094
X0535433Y0370079
X054626Y038189
X0548495Y0384569
X0548228Y0388779
Y0392717
X0544291
Y0388779
Y0384842
X054626Y0395669
X0549213Y0417323
X0543307
X0537402
X0531496
X0525591
X0519685
X0513779
X0505905Y041437
X0516732Y0394685
X0514764Y0391732
Y0387795
Y0383858
X0518701
Y0387795
Y0391732
X0516732Y0380906
X0524606Y0344488
Y0337598
X0517717
X0542323Y0340551
Y0332677
Y0324803
Y0316929
X055315Y0314961
Y0322835
Y0330709
Y0338583
Y0346457
Y0354331
Y0362205
X0559055Y0358268
Y0350394
Y034252
Y0334646
Y0326772
Y0318898
X0564961Y0322835
Y0330709
Y0338583
Y0346457
Y0354331
Y0362205
X0542323Y0348425
X0564961Y0314961
X0565945Y0405512
X0626968Y0403543
X0629921Y0405512
X0632874Y0403543
X0634646Y0405905
Y0417323
X0629921
X0632874Y0394685
X0634842Y0391732
Y0387795
X063189
X0630905Y0391732
Y0383858
X0634842
X0632874Y0380906
X063189Y0370079
X0634646
X063189Y0363189
Y0355315
Y0347441
Y0339567
Y0331693
Y0323819
Y0315945
X0625984Y0319882
Y0327756
Y033563
Y0343504
Y0351378
Y0359252
T02
X0399606Y0116142
Y0135827
X0507874
Y0116142
X0614173
Y0135827
X0561181Y0165748
X0551181
X0399606Y0385827
Y0405512
X0488189
Y0385827
X0574803
Y0405512
T03
X0555118Y0200787
Y0291339
X0468504
Y0200787
T04
X0464567Y0135827
X0551181
X0444882Y0387795
X0531496
X0617717
M30
