G04*
G04 #@! TF.GenerationSoftware,Altium Limited,Altium Designer,18.0.12 (696)*
G04*
G04 Layer_Physical_Order=6*
G04 Layer_Color=16776960*
%FSLAX25Y25*%
%MOIN*%
G70*
G01*
G75*
%ADD42R,0.05906X0.05906*%
%ADD43C,0.05906*%
%ADD44R,0.38000X0.55000*%
%ADD45C,0.03500*%
G36*
X597717Y418046D02*
X597715Y418041D01*
X597620Y417323D01*
X597715Y416605D01*
X597717Y416600D01*
Y406235D01*
X597715Y406230D01*
X597620Y405512D01*
X597715Y404794D01*
X597717Y404789D01*
Y391471D01*
X597715Y391466D01*
X597625Y390783D01*
X551496D01*
Y403970D01*
X551615Y404125D01*
X551892Y404794D01*
X551986Y405512D01*
X551892Y406230D01*
X551615Y406899D01*
X551496Y407053D01*
Y415781D01*
X551615Y415936D01*
X551892Y416605D01*
X551986Y417323D01*
X551892Y418041D01*
X551615Y418710D01*
X551496Y418864D01*
Y424126D01*
X597717D01*
Y418046D01*
D02*
G37*
G36*
X511496Y418864D02*
X511377Y418710D01*
X511100Y418041D01*
X511006Y417323D01*
X511100Y416605D01*
X511377Y415936D01*
X511496Y415781D01*
Y407053D01*
X511377Y406899D01*
X511100Y406230D01*
X511006Y405512D01*
X511100Y404794D01*
X511377Y404125D01*
X511496Y403970D01*
Y390783D01*
X464882D01*
Y404955D01*
X465000Y405109D01*
X465278Y405778D01*
X465372Y406496D01*
X465278Y407214D01*
X465000Y407883D01*
X464882Y408038D01*
Y416766D01*
X465000Y416920D01*
X465278Y417589D01*
X465372Y418307D01*
X465278Y419025D01*
X465000Y419694D01*
X464882Y419849D01*
Y424126D01*
X511496D01*
Y418864D01*
D02*
G37*
G36*
X424882Y419849D02*
X424763Y419694D01*
X424486Y419025D01*
X424392Y418307D01*
X424486Y417589D01*
X424763Y416920D01*
X424882Y416766D01*
Y408038D01*
X424763Y407883D01*
X424486Y407214D01*
X424392Y406496D01*
X424486Y405778D01*
X424763Y405109D01*
X424882Y404955D01*
Y390783D01*
X376071D01*
X376071Y391283D01*
Y424126D01*
X424882D01*
Y419849D01*
D02*
G37*
G36*
X597717Y387534D02*
X597715Y387529D01*
X597620Y386811D01*
X597715Y386093D01*
X597717Y386088D01*
Y383597D01*
X597715Y383592D01*
X597620Y382874D01*
X597715Y382156D01*
X597717Y382151D01*
Y370802D01*
X597715Y370797D01*
X597620Y370079D01*
X597715Y369361D01*
X597717Y369356D01*
Y367795D01*
X598852D01*
X599007Y367677D01*
X599374Y367525D01*
X599374Y353769D01*
X590814Y345209D01*
X590593Y344878D01*
X590516Y344488D01*
X590516Y261811D01*
X590593Y261421D01*
X590773Y261152D01*
X590730Y260827D01*
X590825Y260109D01*
X591102Y259440D01*
X591543Y258865D01*
X592117Y258425D01*
X592786Y258148D01*
X593504Y258053D01*
X593811Y258094D01*
X595159Y256746D01*
X594891Y256339D01*
X594222Y256616D01*
X593504Y256711D01*
X592786Y256616D01*
X592117Y256339D01*
X591543Y255898D01*
X591102Y255324D01*
X590825Y254655D01*
X590730Y253937D01*
X590825Y253219D01*
X591102Y252550D01*
X591543Y251976D01*
X592117Y251535D01*
X592786Y251258D01*
X593504Y251163D01*
X594222Y251258D01*
X594891Y251535D01*
X595465Y251976D01*
X595906Y252550D01*
X596183Y253219D01*
X596205Y253381D01*
X596709D01*
X596730Y253219D01*
X597007Y252550D01*
X597448Y251976D01*
X598023Y251535D01*
X598692Y251258D01*
X599409Y251163D01*
X600127Y251258D01*
X600495Y251410D01*
X601343Y250562D01*
X601343Y165354D01*
X601420Y164964D01*
X601641Y164633D01*
X603610Y162665D01*
X603940Y162444D01*
X604331Y162366D01*
X636725Y162366D01*
X636725Y161866D01*
Y144289D01*
X636381Y144152D01*
X636225Y144150D01*
X635820Y144678D01*
X635245Y145119D01*
X634576Y145396D01*
X633858Y145490D01*
X633140Y145396D01*
X632471Y145119D01*
X631897Y144678D01*
X631456Y144103D01*
X631179Y143434D01*
X631084Y142717D01*
X631179Y141999D01*
X631456Y141330D01*
X631897Y140755D01*
X632471Y140314D01*
X633140Y140037D01*
X633858Y139943D01*
X634576Y140037D01*
X635245Y140314D01*
X635820Y140755D01*
X636225Y141283D01*
X636381Y141281D01*
X636725Y141144D01*
Y137399D01*
X636381Y137262D01*
X636225Y137260D01*
X635820Y137788D01*
X635245Y138229D01*
X634576Y138506D01*
X633858Y138601D01*
X633140Y138506D01*
X632471Y138229D01*
X631897Y137788D01*
X631456Y137214D01*
X631179Y136545D01*
X631084Y135827D01*
X631179Y135109D01*
X631456Y134440D01*
X631897Y133865D01*
X632471Y133425D01*
X633140Y133148D01*
X633858Y133053D01*
X634576Y133148D01*
X635245Y133425D01*
X635820Y133865D01*
X636225Y134393D01*
X636381Y134392D01*
X636725Y134254D01*
Y99496D01*
X568502D01*
X568364Y99840D01*
X568363Y99996D01*
X568890Y100401D01*
X569331Y100975D01*
X569608Y101644D01*
X569703Y102362D01*
X569608Y103080D01*
X569331Y103749D01*
X568890Y104323D01*
X568316Y104764D01*
X567647Y105041D01*
X566929Y105136D01*
X566211Y105041D01*
X565542Y104764D01*
X564968Y104323D01*
X564527Y103749D01*
X564250Y103080D01*
X564228Y102918D01*
X563724D01*
X563703Y103080D01*
X563426Y103749D01*
X562985Y104323D01*
X562410Y104764D01*
X561741Y105041D01*
X561024Y105136D01*
X560306Y105041D01*
X559637Y104764D01*
X559062Y104323D01*
X558622Y103749D01*
X558344Y103080D01*
X558323Y102918D01*
X557819D01*
X557797Y103080D01*
X557520Y103749D01*
X557079Y104323D01*
X556505Y104764D01*
X555836Y105041D01*
X555118Y105136D01*
X554400Y105041D01*
X553731Y104764D01*
X553157Y104323D01*
X552716Y103749D01*
X552439Y103080D01*
X552418Y102918D01*
X551913D01*
X551892Y103080D01*
X551615Y103749D01*
X551174Y104323D01*
X550599Y104764D01*
X549930Y105041D01*
X549213Y105136D01*
X548495Y105041D01*
X547826Y104764D01*
X547251Y104323D01*
X546810Y103749D01*
X546533Y103080D01*
X546512Y102918D01*
X546008D01*
X545986Y103080D01*
X545709Y103749D01*
X545268Y104323D01*
X544694Y104764D01*
X544025Y105041D01*
X543307Y105136D01*
X542589Y105041D01*
X541920Y104764D01*
X541346Y104323D01*
X540905Y103749D01*
X540628Y103080D01*
X540606Y102918D01*
X540102D01*
X540081Y103080D01*
X539804Y103749D01*
X539363Y104323D01*
X538788Y104764D01*
X538120Y105041D01*
X537402Y105136D01*
X536684Y105041D01*
X536015Y104764D01*
X535440Y104323D01*
X534999Y103749D01*
X534722Y103080D01*
X534628Y102362D01*
X534722Y101644D01*
X534999Y100975D01*
X535440Y100401D01*
X535968Y99996D01*
X535966Y99840D01*
X535829Y99496D01*
X376071D01*
Y134254D01*
X376414Y134392D01*
X376571Y134393D01*
X376976Y133865D01*
X377550Y133425D01*
X378219Y133148D01*
X378937Y133053D01*
X379655Y133148D01*
X380324Y133425D01*
X380898Y133865D01*
X381339Y134440D01*
X381616Y135109D01*
X381711Y135827D01*
X381616Y136545D01*
X381339Y137214D01*
X380898Y137788D01*
X380324Y138229D01*
X379655Y138506D01*
X378937Y138601D01*
X378219Y138506D01*
X377550Y138229D01*
X376976Y137788D01*
X376571Y137260D01*
X376414Y137262D01*
X376071Y137399D01*
Y141144D01*
X376414Y141281D01*
X376571Y141283D01*
X376976Y140755D01*
X377550Y140314D01*
X378219Y140037D01*
X378937Y139943D01*
X379655Y140037D01*
X380324Y140314D01*
X380898Y140755D01*
X381339Y141330D01*
X381616Y141999D01*
X381711Y142717D01*
X381616Y143434D01*
X381339Y144103D01*
X380898Y144678D01*
X380324Y145119D01*
X379655Y145396D01*
X378937Y145490D01*
X378219Y145396D01*
X377550Y145119D01*
X376976Y144678D01*
X376571Y144150D01*
X376414Y144152D01*
X376071Y144289D01*
X376071Y389764D01*
X424882D01*
Y372604D01*
X424763Y372450D01*
X424486Y371781D01*
X424392Y371063D01*
X424486Y370345D01*
X424763Y369676D01*
X424882Y369521D01*
Y367795D01*
X425162D01*
X425162Y336052D01*
X420583Y331473D01*
X420276Y331514D01*
X419558Y331419D01*
X418889Y331142D01*
X418314Y330701D01*
X417873Y330127D01*
X417596Y329458D01*
X417502Y328740D01*
X417542Y328433D01*
X416602Y327493D01*
X416381Y327162D01*
X416303Y326772D01*
X416303Y257874D01*
X416381Y257484D01*
X416602Y257153D01*
X418116Y255639D01*
X417873Y255324D01*
X417596Y254655D01*
X417502Y253937D01*
X417596Y253219D01*
X417873Y252550D01*
X418314Y251976D01*
X418889Y251535D01*
X419558Y251258D01*
X420276Y251163D01*
X420994Y251258D01*
X421663Y251535D01*
X421978Y251777D01*
X428960Y244795D01*
X428721Y244218D01*
X428626Y243500D01*
X428721Y242782D01*
X428998Y242113D01*
X429099Y241982D01*
Y235718D01*
X428998Y235587D01*
X428721Y234918D01*
X428626Y234200D01*
X428721Y233482D01*
X428998Y232813D01*
X429099Y232682D01*
X429099Y226047D01*
X428921Y225618D01*
X428826Y224900D01*
X428921Y224182D01*
X429099Y223753D01*
Y215947D01*
X428921Y215518D01*
X428826Y214800D01*
X428921Y214082D01*
X429099Y213653D01*
Y195247D01*
X428921Y194818D01*
X428826Y194100D01*
X428921Y193382D01*
X429099Y192953D01*
X429099Y185747D01*
X428921Y185318D01*
X428826Y184600D01*
X428921Y183882D01*
X429099Y183453D01*
Y176747D01*
X428921Y176318D01*
X428826Y175600D01*
X428921Y174882D01*
X429099Y174453D01*
Y174213D01*
X429176Y173822D01*
X429397Y173492D01*
X436287Y166602D01*
X436618Y166381D01*
X437008Y166303D01*
X453803D01*
X454322Y165905D01*
X454991Y165628D01*
X455709Y165533D01*
X456427Y165628D01*
X457095Y165905D01*
X457670Y166346D01*
X458111Y166920D01*
X458388Y167589D01*
X458482Y168307D01*
X458388Y169025D01*
X458236Y169392D01*
X464304Y175460D01*
X464525Y175791D01*
X464602Y176181D01*
Y193429D01*
X465031Y193686D01*
X465466Y193453D01*
X466955Y193002D01*
X468504Y192849D01*
X470053Y193002D01*
X471542Y193453D01*
X472914Y194187D01*
X474117Y195174D01*
X475104Y196377D01*
X475838Y197750D01*
X476290Y199239D01*
X476442Y200787D01*
X476290Y202336D01*
X475838Y203825D01*
X475104Y205198D01*
X474117Y206401D01*
X472914Y207388D01*
X471542Y208121D01*
X470053Y208573D01*
X468504Y208726D01*
X466955Y208573D01*
X465466Y208121D01*
X465031Y207889D01*
X464602Y208146D01*
X464602Y283980D01*
X465031Y284237D01*
X465466Y284005D01*
X466955Y283553D01*
X468504Y283400D01*
X470053Y283553D01*
X471542Y284005D01*
X472914Y284738D01*
X474117Y285725D01*
X475104Y286928D01*
X475838Y288301D01*
X476290Y289790D01*
X476442Y291339D01*
X476290Y292887D01*
X475838Y294376D01*
X475104Y295749D01*
X474117Y296952D01*
X472914Y297939D01*
X471542Y298673D01*
X470053Y299124D01*
X468504Y299277D01*
X466955Y299124D01*
X465466Y298673D01*
X465031Y298440D01*
X464602Y298697D01*
X464602Y367795D01*
X464882D01*
Y369521D01*
X465000Y369676D01*
X465278Y370345D01*
X465372Y371063D01*
X465278Y371781D01*
X465000Y372450D01*
X464882Y372604D01*
Y389764D01*
X511496D01*
Y371620D01*
X511377Y371466D01*
X511100Y370797D01*
X511006Y370079D01*
X511100Y369361D01*
X511377Y368692D01*
X511496Y368537D01*
Y367795D01*
X511776D01*
X511776Y337036D01*
X506149Y331410D01*
X505503Y331142D01*
X504928Y330701D01*
X504488Y330127D01*
X504220Y329481D01*
X503216Y328477D01*
X502995Y328146D01*
X502917Y327756D01*
Y262795D01*
X502995Y262405D01*
X503216Y262074D01*
X504156Y261134D01*
X504116Y260827D01*
X504211Y260109D01*
X504488Y259440D01*
X504928Y258865D01*
X505503Y258425D01*
X506172Y258148D01*
X506890Y258053D01*
X507197Y258094D01*
X508545Y256746D01*
X508277Y256339D01*
X507608Y256616D01*
X506890Y256711D01*
X506172Y256616D01*
X505503Y256339D01*
X504928Y255898D01*
X504488Y255324D01*
X504211Y254655D01*
X504116Y253937D01*
X504211Y253219D01*
X504488Y252550D01*
X504928Y251976D01*
X505503Y251535D01*
X506172Y251258D01*
X506890Y251163D01*
X507608Y251258D01*
X508277Y251535D01*
X508851Y251976D01*
X509292Y252550D01*
X509569Y253219D01*
X509590Y253381D01*
X510095D01*
X510116Y253219D01*
X510393Y252550D01*
X510834Y251976D01*
X511408Y251535D01*
X512077Y251258D01*
X512795Y251163D01*
X513513Y251258D01*
X513880Y251410D01*
X515713Y249578D01*
Y244581D01*
X515521Y244118D01*
X515426Y243400D01*
X515521Y242682D01*
X515713Y242219D01*
Y235081D01*
X515521Y234618D01*
X515426Y233900D01*
X515521Y233182D01*
X515713Y232719D01*
Y225881D01*
X515521Y225418D01*
X515426Y224700D01*
X515521Y223982D01*
X515713Y223519D01*
Y216281D01*
X515521Y215818D01*
X515426Y215100D01*
X515521Y214382D01*
X515713Y213919D01*
X515713Y195506D01*
X515698Y195487D01*
X515421Y194818D01*
X515326Y194100D01*
X515421Y193382D01*
X515698Y192713D01*
X515713Y192694D01*
Y185681D01*
X515521Y185218D01*
X515426Y184500D01*
X515521Y183782D01*
X515713Y183319D01*
Y176306D01*
X515698Y176287D01*
X515421Y175618D01*
X515326Y174900D01*
X515421Y174182D01*
X515698Y173513D01*
X515713Y173494D01*
Y168307D01*
X515790Y167917D01*
X516011Y167586D01*
X516055Y167322D01*
X515798Y166987D01*
X515521Y166318D01*
X515426Y165600D01*
X515521Y164882D01*
X515798Y164213D01*
X516239Y163639D01*
X516813Y163198D01*
X517482Y162921D01*
X518200Y162826D01*
X518918Y162921D01*
X519587Y163198D01*
X520161Y163639D01*
X520602Y164213D01*
X520879Y164882D01*
X520974Y165600D01*
X520879Y166318D01*
X520685Y166788D01*
X520955Y167288D01*
X539769D01*
X539921Y166920D01*
X540361Y166346D01*
X540936Y165905D01*
X541605Y165628D01*
X542323Y165533D01*
X543041Y165628D01*
X543710Y165905D01*
X544284Y166346D01*
X544725Y166920D01*
X545002Y167589D01*
X545097Y168307D01*
X545056Y168614D01*
X550918Y174476D01*
X551139Y174807D01*
X551217Y175197D01*
Y193429D01*
X551645Y193686D01*
X552080Y193453D01*
X553569Y193002D01*
X555118Y192849D01*
X556667Y193002D01*
X558156Y193453D01*
X559528Y194187D01*
X560731Y195174D01*
X561719Y196377D01*
X562452Y197750D01*
X562904Y199239D01*
X563056Y200787D01*
X562904Y202336D01*
X562452Y203825D01*
X561719Y205198D01*
X560731Y206401D01*
X559528Y207388D01*
X558156Y208121D01*
X556667Y208573D01*
X555118Y208726D01*
X553569Y208573D01*
X552080Y208121D01*
X551645Y207889D01*
X551217Y208146D01*
X551217Y283980D01*
X551645Y284237D01*
X552080Y284005D01*
X553569Y283553D01*
X555118Y283400D01*
X556667Y283553D01*
X558156Y284005D01*
X559528Y284738D01*
X560731Y285725D01*
X561719Y286928D01*
X562452Y288301D01*
X562904Y289790D01*
X563056Y291339D01*
X562904Y292887D01*
X562452Y294376D01*
X561719Y295749D01*
X560731Y296952D01*
X559528Y297939D01*
X558156Y298673D01*
X556667Y299124D01*
X555118Y299277D01*
X553569Y299124D01*
X552080Y298673D01*
X551645Y298440D01*
X551217Y298697D01*
X551216Y367795D01*
X551496D01*
Y368537D01*
X551615Y368692D01*
X551892Y369361D01*
X551986Y370079D01*
X551892Y370797D01*
X551615Y371466D01*
X551496Y371620D01*
Y389764D01*
X597717D01*
Y387534D01*
D02*
G37*
G36*
X550197Y297520D02*
X549505Y296952D01*
X548518Y295749D01*
X547784Y294376D01*
X547332Y292887D01*
X547180Y291339D01*
X547332Y289790D01*
X547784Y288301D01*
X548518Y286928D01*
X549505Y285725D01*
X550197Y285158D01*
X550197Y206968D01*
X549505Y206401D01*
X548518Y205198D01*
X547784Y203825D01*
X547332Y202336D01*
X547180Y200787D01*
X547332Y199239D01*
X547784Y197750D01*
X548518Y196377D01*
X549505Y195174D01*
X550197Y194606D01*
Y175197D01*
X543307Y168307D01*
X516732D01*
X516732Y250000D01*
X503937Y262795D01*
Y327756D01*
X512795Y336614D01*
X512795Y424126D01*
X550197D01*
X550197Y297520D01*
D02*
G37*
G36*
X463583Y297520D02*
X462891Y296952D01*
X461903Y295749D01*
X461170Y294376D01*
X460718Y292887D01*
X460566Y291339D01*
X460718Y289790D01*
X461170Y288301D01*
X461903Y286928D01*
X462891Y285725D01*
X463583Y285158D01*
X463583Y206968D01*
X462891Y206401D01*
X461903Y205198D01*
X461170Y203825D01*
X460718Y202336D01*
X460566Y200787D01*
X460718Y199239D01*
X461170Y197750D01*
X461903Y196377D01*
X462891Y195174D01*
X463583Y194606D01*
Y176181D01*
X454724Y167323D01*
X437008D01*
X430118Y174213D01*
X430118Y245079D01*
X417323Y257874D01*
X417323Y326772D01*
X426181Y335630D01*
X426181Y424126D01*
X463583D01*
X463583Y297520D01*
D02*
G37*
G36*
X636725Y163386D02*
X604331Y163386D01*
X602362Y165354D01*
X602362Y250984D01*
X591536Y261811D01*
X591536Y344488D01*
X600394Y353346D01*
X600394Y424126D01*
X636725D01*
X636725Y163386D01*
D02*
G37*
%LPC*%
G36*
X420276Y240963D02*
X419558Y240868D01*
X418889Y240591D01*
X418314Y240150D01*
X417873Y239576D01*
X417596Y238907D01*
X417575Y238744D01*
X417071D01*
X417049Y238907D01*
X416772Y239576D01*
X416331Y240150D01*
X415757Y240591D01*
X415088Y240868D01*
X414370Y240963D01*
X413652Y240868D01*
X412983Y240591D01*
X412409Y240150D01*
X411968Y239576D01*
X411691Y238907D01*
X411596Y238189D01*
X411691Y237471D01*
X411968Y236802D01*
X412409Y236228D01*
X412983Y235787D01*
X413652Y235510D01*
X414370Y235415D01*
X415088Y235510D01*
X415757Y235787D01*
X416331Y236228D01*
X416772Y236802D01*
X417049Y237471D01*
X417071Y237633D01*
X417575D01*
X417596Y237471D01*
X417873Y236802D01*
X418314Y236228D01*
X418889Y235787D01*
X419558Y235510D01*
X420276Y235415D01*
X420994Y235510D01*
X421662Y235787D01*
X422237Y236228D01*
X422678Y236802D01*
X422955Y237471D01*
X423049Y238189D01*
X422955Y238907D01*
X422678Y239576D01*
X422237Y240150D01*
X421662Y240591D01*
X420994Y240868D01*
X420276Y240963D01*
D02*
G37*
G36*
X573819D02*
X573101Y240868D01*
X572432Y240591D01*
X571858Y240150D01*
X571417Y239576D01*
X571140Y238907D01*
X571045Y238189D01*
X571140Y237471D01*
X571417Y236802D01*
X571858Y236228D01*
X572432Y235787D01*
X573101Y235510D01*
X573819Y235415D01*
X574537Y235510D01*
X575206Y235787D01*
X575780Y236228D01*
X576221Y236802D01*
X576498Y237471D01*
X576593Y238189D01*
X576498Y238907D01*
X576221Y239576D01*
X575780Y240150D01*
X575206Y240591D01*
X574537Y240868D01*
X573819Y240963D01*
D02*
G37*
G36*
X487205Y240963D02*
X486487Y240868D01*
X485818Y240591D01*
X485243Y240150D01*
X484803Y239576D01*
X484525Y238907D01*
X484431Y238189D01*
X484525Y237471D01*
X484803Y236802D01*
X485243Y236228D01*
X485818Y235787D01*
X486487Y235510D01*
X487205Y235415D01*
X487923Y235510D01*
X488592Y235787D01*
X489166Y236228D01*
X489607Y236802D01*
X489884Y237471D01*
X489979Y238189D01*
X489884Y238907D01*
X489607Y239576D01*
X489166Y240150D01*
X488592Y240591D01*
X487923Y240868D01*
X487205Y240963D01*
D02*
G37*
G36*
X420276Y234073D02*
X419558Y233978D01*
X418889Y233701D01*
X418314Y233260D01*
X417873Y232686D01*
X417596Y232017D01*
X417575Y231855D01*
X417071D01*
X417049Y232017D01*
X416772Y232686D01*
X416331Y233260D01*
X415757Y233701D01*
X415088Y233978D01*
X414370Y234073D01*
X413652Y233978D01*
X412983Y233701D01*
X412409Y233260D01*
X411968Y232686D01*
X411691Y232017D01*
X411596Y231299D01*
X411691Y230581D01*
X411968Y229912D01*
X412409Y229338D01*
X412983Y228897D01*
X413652Y228620D01*
X414370Y228525D01*
X415088Y228620D01*
X415757Y228897D01*
X416331Y229338D01*
X416772Y229912D01*
X417049Y230581D01*
X417071Y230744D01*
X417575D01*
X417596Y230581D01*
X417873Y229912D01*
X418314Y229338D01*
X418889Y228897D01*
X419558Y228620D01*
X420276Y228525D01*
X420994Y228620D01*
X421662Y228897D01*
X422237Y229338D01*
X422678Y229912D01*
X422955Y230581D01*
X423049Y231299D01*
X422955Y232017D01*
X422678Y232686D01*
X422237Y233260D01*
X421662Y233701D01*
X420994Y233978D01*
X420276Y234073D01*
D02*
G37*
G36*
X573819D02*
X573101Y233978D01*
X572432Y233701D01*
X571858Y233260D01*
X571417Y232686D01*
X571140Y232017D01*
X571045Y231299D01*
X571140Y230581D01*
X571417Y229912D01*
X571858Y229338D01*
X572432Y228897D01*
X573101Y228620D01*
X573819Y228525D01*
X574537Y228620D01*
X575206Y228897D01*
X575780Y229338D01*
X576221Y229912D01*
X576498Y230581D01*
X576593Y231299D01*
X576498Y232017D01*
X576221Y232686D01*
X575780Y233260D01*
X575206Y233701D01*
X574537Y233978D01*
X573819Y234073D01*
D02*
G37*
G36*
X487205Y234073D02*
X486487Y233978D01*
X485818Y233701D01*
X485243Y233260D01*
X484803Y232686D01*
X484525Y232017D01*
X484431Y231299D01*
X484525Y230581D01*
X484803Y229912D01*
X485243Y229338D01*
X485818Y228897D01*
X486487Y228620D01*
X487205Y228525D01*
X487923Y228620D01*
X488592Y228897D01*
X489166Y229338D01*
X489607Y229912D01*
X489884Y230581D01*
X489979Y231299D01*
X489884Y232017D01*
X489607Y232686D01*
X489166Y233260D01*
X488592Y233701D01*
X487923Y233978D01*
X487205Y234073D01*
D02*
G37*
G36*
X420276Y227183D02*
X419558Y227089D01*
X418889Y226812D01*
X418314Y226371D01*
X417873Y225796D01*
X417596Y225127D01*
X417575Y224965D01*
X417071D01*
X417049Y225127D01*
X416772Y225796D01*
X416331Y226371D01*
X415757Y226812D01*
X415088Y227089D01*
X414370Y227183D01*
X413652Y227089D01*
X412983Y226812D01*
X412409Y226371D01*
X411968Y225796D01*
X411691Y225127D01*
X411596Y224410D01*
X411691Y223692D01*
X411968Y223023D01*
X412409Y222448D01*
X412983Y222007D01*
X413652Y221730D01*
X414370Y221636D01*
X415088Y221730D01*
X415757Y222007D01*
X416331Y222448D01*
X416772Y223023D01*
X417049Y223692D01*
X417071Y223854D01*
X417575D01*
X417596Y223692D01*
X417873Y223023D01*
X418314Y222448D01*
X418889Y222007D01*
X419558Y221730D01*
X420276Y221636D01*
X420994Y221730D01*
X421662Y222007D01*
X422237Y222448D01*
X422678Y223023D01*
X422955Y223692D01*
X423049Y224410D01*
X422955Y225127D01*
X422678Y225796D01*
X422237Y226371D01*
X421662Y226812D01*
X420994Y227089D01*
X420276Y227183D01*
D02*
G37*
G36*
X558071Y238010D02*
X557353Y237915D01*
X556684Y237638D01*
X556110Y237197D01*
X555669Y236623D01*
X555392Y235954D01*
X555297Y235236D01*
X555392Y234518D01*
X555669Y233849D01*
X556110Y233275D01*
X556350Y233091D01*
Y232460D01*
X556110Y232276D01*
X555669Y231702D01*
X555392Y231033D01*
X555297Y230315D01*
X555392Y229597D01*
X555669Y228928D01*
X556110Y228354D01*
X556350Y228169D01*
Y227539D01*
X556110Y227355D01*
X555669Y226781D01*
X555392Y226112D01*
X555297Y225394D01*
X555392Y224676D01*
X555669Y224007D01*
X556110Y223432D01*
X556684Y222992D01*
X557353Y222714D01*
X558071Y222620D01*
X558789Y222714D01*
X559458Y222992D01*
X560032Y223432D01*
X560473Y224007D01*
X560750Y224676D01*
X560845Y225394D01*
X560750Y226112D01*
X560473Y226781D01*
X560032Y227355D01*
X559792Y227539D01*
Y228169D01*
X560032Y228354D01*
X560473Y228928D01*
X560750Y229597D01*
X560845Y230315D01*
X560750Y231033D01*
X560473Y231702D01*
X560032Y232276D01*
X559792Y232460D01*
Y233091D01*
X560032Y233275D01*
X560473Y233849D01*
X560750Y234518D01*
X560845Y235236D01*
X560750Y235954D01*
X560473Y236623D01*
X560032Y237197D01*
X559458Y237638D01*
X558789Y237915D01*
X558071Y238010D01*
D02*
G37*
G36*
X471457D02*
X470739Y237915D01*
X470070Y237638D01*
X469495Y237197D01*
X469055Y236623D01*
X468778Y235954D01*
X468683Y235236D01*
X468778Y234518D01*
X469055Y233849D01*
X469495Y233275D01*
X469735Y233091D01*
Y232460D01*
X469495Y232276D01*
X469055Y231702D01*
X468778Y231033D01*
X468683Y230315D01*
X468778Y229597D01*
X469055Y228928D01*
X469495Y228354D01*
X469735Y228169D01*
Y227539D01*
X469495Y227355D01*
X469055Y226781D01*
X468778Y226112D01*
X468683Y225394D01*
X468778Y224676D01*
X469055Y224007D01*
X469495Y223432D01*
X470070Y222992D01*
X470739Y222714D01*
X471457Y222620D01*
X472175Y222714D01*
X472844Y222992D01*
X473418Y223432D01*
X473859Y224007D01*
X474136Y224676D01*
X474230Y225394D01*
X474136Y226112D01*
X473859Y226781D01*
X473418Y227355D01*
X473178Y227539D01*
Y228169D01*
X473418Y228354D01*
X473859Y228928D01*
X474136Y229597D01*
X474230Y230315D01*
X474136Y231033D01*
X473859Y231702D01*
X473418Y232276D01*
X473178Y232460D01*
Y233091D01*
X473418Y233275D01*
X473859Y233849D01*
X474136Y234518D01*
X474230Y235236D01*
X474136Y235954D01*
X473859Y236623D01*
X473418Y237197D01*
X472844Y237638D01*
X472175Y237915D01*
X471457Y238010D01*
D02*
G37*
G36*
X384842D02*
X384125Y237915D01*
X383456Y237638D01*
X382881Y237197D01*
X382440Y236623D01*
X382163Y235954D01*
X382069Y235236D01*
X382163Y234518D01*
X382440Y233849D01*
X382881Y233275D01*
X383121Y233091D01*
Y232460D01*
X382881Y232276D01*
X382440Y231702D01*
X382163Y231033D01*
X382069Y230315D01*
X382163Y229597D01*
X382440Y228928D01*
X382881Y228354D01*
X383121Y228169D01*
Y227539D01*
X382881Y227355D01*
X382440Y226781D01*
X382163Y226112D01*
X382069Y225394D01*
X382163Y224676D01*
X382440Y224007D01*
X382881Y223432D01*
X383456Y222992D01*
X384125Y222714D01*
X384842Y222620D01*
X385560Y222714D01*
X386229Y222992D01*
X386804Y223432D01*
X387245Y224007D01*
X387522Y224676D01*
X387616Y225394D01*
X387522Y226112D01*
X387245Y226781D01*
X386804Y227355D01*
X386564Y227539D01*
Y228169D01*
X386804Y228354D01*
X387245Y228928D01*
X387522Y229597D01*
X387616Y230315D01*
X387522Y231033D01*
X387245Y231702D01*
X386804Y232276D01*
X386564Y232460D01*
Y233091D01*
X386804Y233275D01*
X387245Y233849D01*
X387522Y234518D01*
X387616Y235236D01*
X387522Y235954D01*
X387245Y236623D01*
X386804Y237197D01*
X386229Y237638D01*
X385560Y237915D01*
X384842Y238010D01*
D02*
G37*
G36*
X573819Y227183D02*
X573101Y227089D01*
X572432Y226812D01*
X571858Y226371D01*
X571417Y225796D01*
X571140Y225127D01*
X571045Y224410D01*
X571140Y223692D01*
X571417Y223023D01*
X571858Y222448D01*
X572432Y222007D01*
X573101Y221730D01*
X573819Y221636D01*
X574537Y221730D01*
X575206Y222007D01*
X575780Y222448D01*
X576221Y223023D01*
X576498Y223692D01*
X576593Y224410D01*
X576498Y225127D01*
X576221Y225796D01*
X575780Y226371D01*
X575206Y226812D01*
X574537Y227089D01*
X573819Y227183D01*
D02*
G37*
G36*
X487205Y227183D02*
X486487Y227089D01*
X485818Y226812D01*
X485243Y226371D01*
X484803Y225796D01*
X484525Y225127D01*
X484431Y224409D01*
X484525Y223692D01*
X484803Y223023D01*
X485243Y222448D01*
X485818Y222007D01*
X486487Y221730D01*
X487205Y221636D01*
X487923Y221730D01*
X488592Y222007D01*
X489166Y222448D01*
X489607Y223023D01*
X489884Y223692D01*
X489979Y224409D01*
X489884Y225127D01*
X489607Y225796D01*
X489166Y226371D01*
X488592Y226812D01*
X487923Y227089D01*
X487205Y227183D01*
D02*
G37*
G36*
X420276Y220293D02*
X419558Y220199D01*
X418889Y219922D01*
X418314Y219481D01*
X417873Y218907D01*
X417596Y218238D01*
X417575Y218075D01*
X417071D01*
X417049Y218238D01*
X416772Y218907D01*
X416331Y219481D01*
X415757Y219922D01*
X415088Y220199D01*
X414370Y220293D01*
X413652Y220199D01*
X412983Y219922D01*
X412409Y219481D01*
X411968Y218907D01*
X411691Y218238D01*
X411596Y217520D01*
X411691Y216802D01*
X411968Y216133D01*
X412409Y215558D01*
X412983Y215118D01*
X413652Y214841D01*
X414370Y214746D01*
X415088Y214841D01*
X415757Y215118D01*
X416331Y215558D01*
X416772Y216133D01*
X417049Y216802D01*
X417071Y216964D01*
X417575D01*
X417596Y216802D01*
X417873Y216133D01*
X418314Y215558D01*
X418889Y215118D01*
X419558Y214841D01*
X420276Y214746D01*
X420994Y214841D01*
X421662Y215118D01*
X422237Y215558D01*
X422678Y216133D01*
X422955Y216802D01*
X423049Y217520D01*
X422955Y218238D01*
X422678Y218907D01*
X422237Y219481D01*
X421662Y219922D01*
X420994Y220199D01*
X420276Y220293D01*
D02*
G37*
G36*
X573819D02*
X573101Y220199D01*
X572432Y219922D01*
X571858Y219481D01*
X571417Y218907D01*
X571140Y218238D01*
X571045Y217520D01*
X571140Y216802D01*
X571417Y216133D01*
X571858Y215558D01*
X572432Y215118D01*
X573101Y214841D01*
X573819Y214746D01*
X574537Y214841D01*
X575206Y215118D01*
X575780Y215558D01*
X576221Y216133D01*
X576498Y216802D01*
X576593Y217520D01*
X576498Y218238D01*
X576221Y218907D01*
X575780Y219481D01*
X575206Y219922D01*
X574537Y220199D01*
X573819Y220293D01*
D02*
G37*
G36*
X487205Y220293D02*
X486487Y220199D01*
X485818Y219922D01*
X485243Y219481D01*
X484803Y218906D01*
X484525Y218238D01*
X484431Y217520D01*
X484525Y216802D01*
X484803Y216133D01*
X485243Y215558D01*
X485818Y215118D01*
X486487Y214841D01*
X487205Y214746D01*
X487923Y214841D01*
X488592Y215118D01*
X489166Y215558D01*
X489607Y216133D01*
X489884Y216802D01*
X489979Y217520D01*
X489884Y218238D01*
X489607Y218906D01*
X489166Y219481D01*
X488592Y219922D01*
X487923Y220199D01*
X487205Y220293D01*
D02*
G37*
G36*
X420276Y213404D02*
X419558Y213309D01*
X418889Y213032D01*
X418314Y212591D01*
X417873Y212017D01*
X417596Y211348D01*
X417575Y211185D01*
X417071D01*
X417049Y211348D01*
X416772Y212017D01*
X416331Y212591D01*
X415757Y213032D01*
X415088Y213309D01*
X414370Y213404D01*
X413652Y213309D01*
X412983Y213032D01*
X412409Y212591D01*
X411968Y212017D01*
X411691Y211348D01*
X411596Y210630D01*
X411691Y209912D01*
X411968Y209243D01*
X412409Y208669D01*
X412983Y208228D01*
X413652Y207951D01*
X414370Y207856D01*
X415088Y207951D01*
X415757Y208228D01*
X416331Y208669D01*
X416772Y209243D01*
X417049Y209912D01*
X417071Y210074D01*
X417575D01*
X417596Y209912D01*
X417873Y209243D01*
X418314Y208669D01*
X418889Y208228D01*
X419558Y207951D01*
X420276Y207856D01*
X420994Y207951D01*
X421662Y208228D01*
X422237Y208669D01*
X422678Y209243D01*
X422955Y209912D01*
X423049Y210630D01*
X422955Y211348D01*
X422678Y212017D01*
X422237Y212591D01*
X421662Y213032D01*
X420994Y213309D01*
X420276Y213404D01*
D02*
G37*
G36*
X573819D02*
X573101Y213309D01*
X572432Y213032D01*
X571858Y212591D01*
X571417Y212017D01*
X571140Y211348D01*
X571045Y210630D01*
X571140Y209912D01*
X571417Y209243D01*
X571858Y208669D01*
X572432Y208228D01*
X573101Y207951D01*
X573819Y207856D01*
X574537Y207951D01*
X575206Y208228D01*
X575780Y208669D01*
X576221Y209243D01*
X576498Y209912D01*
X576593Y210630D01*
X576498Y211348D01*
X576221Y212017D01*
X575780Y212591D01*
X575206Y213032D01*
X574537Y213309D01*
X573819Y213404D01*
D02*
G37*
G36*
X487205Y213404D02*
X486487Y213309D01*
X485818Y213032D01*
X485243Y212591D01*
X484803Y212017D01*
X484525Y211348D01*
X484431Y210630D01*
X484525Y209912D01*
X484803Y209243D01*
X485243Y208669D01*
X485818Y208228D01*
X486487Y207951D01*
X487205Y207856D01*
X487923Y207951D01*
X488592Y208228D01*
X489166Y208669D01*
X489607Y209243D01*
X489884Y209912D01*
X489979Y210630D01*
X489884Y211348D01*
X489607Y212017D01*
X489166Y212591D01*
X488592Y213032D01*
X487923Y213309D01*
X487205Y213404D01*
D02*
G37*
G36*
X420276Y193719D02*
X419558Y193624D01*
X418889Y193347D01*
X418314Y192906D01*
X417873Y192332D01*
X417596Y191663D01*
X417575Y191500D01*
X417071D01*
X417049Y191663D01*
X416772Y192332D01*
X416331Y192906D01*
X415757Y193347D01*
X415088Y193624D01*
X414370Y193719D01*
X413652Y193624D01*
X412983Y193347D01*
X412409Y192906D01*
X411968Y192332D01*
X411691Y191663D01*
X411596Y190945D01*
X411691Y190227D01*
X411968Y189558D01*
X412409Y188984D01*
X412983Y188543D01*
X413652Y188266D01*
X414370Y188171D01*
X415088Y188266D01*
X415757Y188543D01*
X416331Y188984D01*
X416772Y189558D01*
X417049Y190227D01*
X417071Y190389D01*
X417575D01*
X417596Y190227D01*
X417873Y189558D01*
X418314Y188984D01*
X418889Y188543D01*
X419558Y188266D01*
X420276Y188171D01*
X420994Y188266D01*
X421662Y188543D01*
X422237Y188984D01*
X422678Y189558D01*
X422955Y190227D01*
X423049Y190945D01*
X422955Y191663D01*
X422678Y192332D01*
X422237Y192906D01*
X421662Y193347D01*
X420994Y193624D01*
X420276Y193719D01*
D02*
G37*
G36*
X573819D02*
X573101Y193624D01*
X572432Y193347D01*
X571858Y192906D01*
X571417Y192332D01*
X571140Y191663D01*
X571045Y190945D01*
X571140Y190227D01*
X571417Y189558D01*
X571858Y188984D01*
X572432Y188543D01*
X573101Y188266D01*
X573819Y188171D01*
X574537Y188266D01*
X575206Y188543D01*
X575780Y188984D01*
X576221Y189558D01*
X576498Y190227D01*
X576593Y190945D01*
X576498Y191663D01*
X576221Y192332D01*
X575780Y192906D01*
X575206Y193347D01*
X574537Y193624D01*
X573819Y193719D01*
D02*
G37*
G36*
X487205Y193719D02*
X486487Y193624D01*
X485818Y193347D01*
X485243Y192906D01*
X484803Y192332D01*
X484525Y191663D01*
X484431Y190945D01*
X484525Y190227D01*
X484803Y189558D01*
X485243Y188984D01*
X485818Y188543D01*
X486487Y188266D01*
X487205Y188171D01*
X487923Y188266D01*
X488592Y188543D01*
X489166Y188984D01*
X489607Y189558D01*
X489884Y190227D01*
X489979Y190945D01*
X489884Y191663D01*
X489607Y192332D01*
X489166Y192906D01*
X488592Y193347D01*
X487923Y193624D01*
X487205Y193719D01*
D02*
G37*
G36*
X420276Y186829D02*
X419558Y186734D01*
X418889Y186457D01*
X418314Y186016D01*
X417873Y185442D01*
X417596Y184773D01*
X417575Y184611D01*
X417071D01*
X417049Y184773D01*
X416772Y185442D01*
X416331Y186016D01*
X415757Y186457D01*
X415088Y186734D01*
X414370Y186829D01*
X413652Y186734D01*
X412983Y186457D01*
X412409Y186016D01*
X411968Y185442D01*
X411691Y184773D01*
X411596Y184055D01*
X411691Y183337D01*
X411968Y182668D01*
X412409Y182094D01*
X412983Y181653D01*
X413652Y181376D01*
X414370Y181281D01*
X415088Y181376D01*
X415757Y181653D01*
X416331Y182094D01*
X416772Y182668D01*
X417049Y183337D01*
X417071Y183500D01*
X417575D01*
X417596Y183337D01*
X417873Y182668D01*
X418314Y182094D01*
X418889Y181653D01*
X419558Y181376D01*
X420276Y181281D01*
X420994Y181376D01*
X421662Y181653D01*
X422237Y182094D01*
X422678Y182668D01*
X422955Y183337D01*
X423049Y184055D01*
X422955Y184773D01*
X422678Y185442D01*
X422237Y186016D01*
X421662Y186457D01*
X420994Y186734D01*
X420276Y186829D01*
D02*
G37*
G36*
X573819D02*
X573101Y186734D01*
X572432Y186457D01*
X571858Y186016D01*
X571417Y185442D01*
X571140Y184773D01*
X571045Y184055D01*
X571140Y183337D01*
X571417Y182668D01*
X571858Y182094D01*
X572432Y181653D01*
X573101Y181376D01*
X573819Y181281D01*
X574537Y181376D01*
X575206Y181653D01*
X575780Y182094D01*
X576221Y182668D01*
X576498Y183337D01*
X576593Y184055D01*
X576498Y184773D01*
X576221Y185442D01*
X575780Y186016D01*
X575206Y186457D01*
X574537Y186734D01*
X573819Y186829D01*
D02*
G37*
G36*
X487205Y186829D02*
X486487Y186734D01*
X485818Y186457D01*
X485243Y186016D01*
X484803Y185442D01*
X484525Y184773D01*
X484431Y184055D01*
X484525Y183337D01*
X484803Y182668D01*
X485243Y182094D01*
X485818Y181653D01*
X486487Y181376D01*
X487205Y181281D01*
X487923Y181376D01*
X488592Y181653D01*
X489166Y182094D01*
X489607Y182668D01*
X489884Y183337D01*
X489979Y184055D01*
X489884Y184773D01*
X489607Y185442D01*
X489166Y186016D01*
X488592Y186457D01*
X487923Y186734D01*
X487205Y186829D01*
D02*
G37*
G36*
X420276Y179939D02*
X419558Y179845D01*
X418889Y179568D01*
X418314Y179127D01*
X417873Y178552D01*
X417596Y177883D01*
X417575Y177721D01*
X417071D01*
X417049Y177883D01*
X416772Y178552D01*
X416331Y179127D01*
X415757Y179568D01*
X415088Y179845D01*
X414370Y179939D01*
X413652Y179845D01*
X412983Y179568D01*
X412409Y179127D01*
X411968Y178552D01*
X411691Y177883D01*
X411596Y177165D01*
X411691Y176447D01*
X411968Y175778D01*
X412409Y175204D01*
X412983Y174763D01*
X413652Y174486D01*
X414370Y174392D01*
X415088Y174486D01*
X415757Y174763D01*
X416331Y175204D01*
X416772Y175778D01*
X417049Y176447D01*
X417071Y176610D01*
X417575D01*
X417596Y176447D01*
X417873Y175778D01*
X418314Y175204D01*
X418889Y174763D01*
X419558Y174486D01*
X420276Y174392D01*
X420994Y174486D01*
X421662Y174763D01*
X422237Y175204D01*
X422678Y175778D01*
X422955Y176447D01*
X423049Y177165D01*
X422955Y177883D01*
X422678Y178552D01*
X422237Y179127D01*
X421662Y179568D01*
X420994Y179845D01*
X420276Y179939D01*
D02*
G37*
G36*
X573819Y179939D02*
X573101Y179845D01*
X572432Y179568D01*
X571858Y179127D01*
X571417Y178552D01*
X571140Y177883D01*
X571045Y177165D01*
X571140Y176447D01*
X571417Y175778D01*
X571858Y175204D01*
X572432Y174763D01*
X573101Y174486D01*
X573819Y174392D01*
X574537Y174486D01*
X575206Y174763D01*
X575780Y175204D01*
X576221Y175778D01*
X576498Y176447D01*
X576593Y177165D01*
X576498Y177883D01*
X576221Y178552D01*
X575780Y179127D01*
X575206Y179568D01*
X574537Y179845D01*
X573819Y179939D01*
D02*
G37*
G36*
X487205Y179939D02*
X486487Y179845D01*
X485818Y179568D01*
X485243Y179127D01*
X484803Y178552D01*
X484525Y177883D01*
X484431Y177165D01*
X484525Y176447D01*
X484803Y175778D01*
X485243Y175204D01*
X485818Y174763D01*
X486487Y174486D01*
X487205Y174392D01*
X487923Y174486D01*
X488592Y174763D01*
X489166Y175204D01*
X489607Y175778D01*
X489884Y176447D01*
X489979Y177165D01*
X489884Y177883D01*
X489607Y178552D01*
X489166Y179127D01*
X488592Y179568D01*
X487923Y179845D01*
X487205Y179939D01*
D02*
G37*
G36*
X420276Y173049D02*
X419558Y172955D01*
X418889Y172678D01*
X418314Y172237D01*
X417873Y171662D01*
X417596Y170993D01*
X417575Y170831D01*
X417071D01*
X417049Y170993D01*
X416772Y171662D01*
X416331Y172237D01*
X415757Y172678D01*
X415088Y172955D01*
X414370Y173049D01*
X413652Y172955D01*
X412983Y172678D01*
X412409Y172237D01*
X411968Y171662D01*
X411691Y170993D01*
X411596Y170276D01*
X411691Y169558D01*
X411968Y168889D01*
X412409Y168314D01*
X412983Y167874D01*
X413652Y167596D01*
X414370Y167502D01*
X415088Y167596D01*
X415757Y167874D01*
X416331Y168314D01*
X416772Y168889D01*
X417049Y169558D01*
X417071Y169720D01*
X417575D01*
X417596Y169558D01*
X417873Y168889D01*
X418314Y168314D01*
X418889Y167874D01*
X419558Y167596D01*
X420276Y167502D01*
X420994Y167596D01*
X421662Y167874D01*
X422237Y168314D01*
X422678Y168889D01*
X422955Y169558D01*
X423049Y170276D01*
X422955Y170993D01*
X422678Y171662D01*
X422237Y172237D01*
X421662Y172678D01*
X420994Y172955D01*
X420276Y173049D01*
D02*
G37*
G36*
X573819D02*
X573101Y172955D01*
X572432Y172678D01*
X571858Y172237D01*
X571417Y171662D01*
X571140Y170993D01*
X571045Y170276D01*
X571140Y169558D01*
X571417Y168889D01*
X571858Y168314D01*
X572432Y167874D01*
X573101Y167596D01*
X573819Y167502D01*
X574537Y167596D01*
X575206Y167874D01*
X575780Y168314D01*
X576221Y168889D01*
X576498Y169558D01*
X576593Y170276D01*
X576498Y170993D01*
X576221Y171662D01*
X575780Y172237D01*
X575206Y172678D01*
X574537Y172955D01*
X573819Y173049D01*
D02*
G37*
G36*
X487205Y173049D02*
X486487Y172955D01*
X485818Y172678D01*
X485243Y172237D01*
X484803Y171662D01*
X484525Y170993D01*
X484431Y170276D01*
X484525Y169558D01*
X484803Y168889D01*
X485243Y168314D01*
X485818Y167874D01*
X486487Y167596D01*
X487205Y167502D01*
X487923Y167596D01*
X488592Y167874D01*
X489166Y168314D01*
X489607Y168889D01*
X489884Y169558D01*
X489979Y170276D01*
X489884Y170993D01*
X489607Y171662D01*
X489166Y172237D01*
X488592Y172678D01*
X487923Y172955D01*
X487205Y173049D01*
D02*
G37*
G36*
X420276Y166160D02*
X419558Y166065D01*
X418889Y165788D01*
X418314Y165347D01*
X417873Y164773D01*
X417596Y164104D01*
X417575Y163941D01*
X417071D01*
X417049Y164104D01*
X416772Y164773D01*
X416331Y165347D01*
X415757Y165788D01*
X415088Y166065D01*
X414370Y166160D01*
X413652Y166065D01*
X412983Y165788D01*
X412409Y165347D01*
X411968Y164773D01*
X411691Y164104D01*
X411596Y163386D01*
X411691Y162668D01*
X411968Y161999D01*
X412409Y161425D01*
X412983Y160984D01*
X413652Y160707D01*
X414370Y160612D01*
X415088Y160707D01*
X415757Y160984D01*
X416331Y161425D01*
X416772Y161999D01*
X417049Y162668D01*
X417071Y162830D01*
X417575D01*
X417596Y162668D01*
X417873Y161999D01*
X418314Y161425D01*
X418889Y160984D01*
X419558Y160707D01*
X420276Y160612D01*
X420994Y160707D01*
X421662Y160984D01*
X422237Y161425D01*
X422678Y161999D01*
X422955Y162668D01*
X423049Y163386D01*
X422955Y164104D01*
X422678Y164773D01*
X422237Y165347D01*
X421662Y165788D01*
X420994Y166065D01*
X420276Y166160D01*
D02*
G37*
G36*
X431600Y168574D02*
X430882Y168479D01*
X430213Y168202D01*
X429639Y167761D01*
X429198Y167187D01*
X428921Y166518D01*
X428826Y165800D01*
X428921Y165082D01*
X429198Y164413D01*
X429639Y163839D01*
X430213Y163398D01*
X430882Y163121D01*
X431600Y163026D01*
X432318Y163121D01*
X432987Y163398D01*
X433561Y163839D01*
X434002Y164413D01*
X434279Y165082D01*
X434374Y165800D01*
X434279Y166518D01*
X434002Y167187D01*
X433561Y167761D01*
X432987Y168202D01*
X432318Y168479D01*
X431600Y168574D01*
D02*
G37*
G36*
X561181Y169735D02*
X560149Y169599D01*
X559188Y169201D01*
X558362Y168567D01*
X557728Y167742D01*
X557330Y166780D01*
X557194Y165748D01*
X557330Y164716D01*
X557728Y163755D01*
X558362Y162929D01*
X559188Y162295D01*
X560149Y161897D01*
X561181Y161761D01*
X562213Y161897D01*
X563174Y162295D01*
X564000Y162929D01*
X564634Y163755D01*
X565032Y164716D01*
X565168Y165748D01*
X565032Y166780D01*
X564634Y167742D01*
X564000Y168567D01*
X563174Y169201D01*
X562213Y169599D01*
X561181Y169735D01*
D02*
G37*
G36*
X573819Y166160D02*
X573101Y166065D01*
X572432Y165788D01*
X571858Y165347D01*
X571417Y164773D01*
X571140Y164104D01*
X571045Y163386D01*
X571140Y162668D01*
X571417Y161999D01*
X571858Y161425D01*
X572432Y160984D01*
X573101Y160707D01*
X573819Y160612D01*
X574537Y160707D01*
X575206Y160984D01*
X575780Y161425D01*
X576221Y161999D01*
X576498Y162668D01*
X576593Y163386D01*
X576498Y164104D01*
X576221Y164773D01*
X575780Y165347D01*
X575206Y165788D01*
X574537Y166065D01*
X573819Y166160D01*
D02*
G37*
G36*
X487205Y166159D02*
X486487Y166065D01*
X485818Y165788D01*
X485243Y165347D01*
X484803Y164773D01*
X484525Y164104D01*
X484431Y163386D01*
X484525Y162668D01*
X484803Y161999D01*
X485243Y161425D01*
X485818Y160984D01*
X486487Y160707D01*
X487205Y160612D01*
X487923Y160707D01*
X488592Y160984D01*
X489166Y161425D01*
X489607Y161999D01*
X489884Y162668D01*
X489979Y163386D01*
X489884Y164104D01*
X489607Y164773D01*
X489166Y165347D01*
X488592Y165788D01*
X487923Y166065D01*
X487205Y166159D01*
D02*
G37*
G36*
X568898Y156317D02*
X568180Y156222D01*
X567511Y155945D01*
X566936Y155505D01*
X566496Y154930D01*
X566218Y154261D01*
X566197Y154099D01*
X565693D01*
X565671Y154261D01*
X565394Y154930D01*
X564953Y155505D01*
X564379Y155945D01*
X563710Y156222D01*
X562992Y156317D01*
X562274Y156222D01*
X561605Y155945D01*
X561031Y155505D01*
X560590Y154930D01*
X560313Y154261D01*
X560291Y154099D01*
X559787D01*
X559766Y154261D01*
X559489Y154930D01*
X559048Y155505D01*
X558473Y155945D01*
X557804Y156222D01*
X557087Y156317D01*
X556369Y156222D01*
X555700Y155945D01*
X555125Y155505D01*
X554684Y154930D01*
X554407Y154261D01*
X554386Y154099D01*
X553882D01*
X553860Y154261D01*
X553583Y154930D01*
X553142Y155505D01*
X552568Y155945D01*
X551899Y156222D01*
X551181Y156317D01*
X550463Y156222D01*
X549794Y155945D01*
X549220Y155505D01*
X548779Y154930D01*
X548502Y154261D01*
X548481Y154099D01*
X547976D01*
X547955Y154261D01*
X547678Y154930D01*
X547237Y155505D01*
X546663Y155945D01*
X545994Y156222D01*
X545276Y156317D01*
X544558Y156222D01*
X543889Y155945D01*
X543314Y155505D01*
X542873Y154930D01*
X542596Y154261D01*
X542575Y154099D01*
X542071D01*
X542049Y154261D01*
X541772Y154930D01*
X541331Y155505D01*
X540757Y155945D01*
X540088Y156222D01*
X539370Y156317D01*
X538652Y156222D01*
X537983Y155945D01*
X537409Y155505D01*
X536968Y154930D01*
X536691Y154261D01*
X536669Y154099D01*
X536165D01*
X536144Y154261D01*
X535867Y154930D01*
X535426Y155505D01*
X534851Y155945D01*
X534183Y156222D01*
X533465Y156317D01*
X532747Y156222D01*
X532078Y155945D01*
X531503Y155505D01*
X531062Y154930D01*
X530785Y154261D01*
X530691Y153543D01*
X530785Y152825D01*
X531062Y152156D01*
X531503Y151582D01*
X532078Y151141D01*
X532747Y150864D01*
X533465Y150770D01*
X534183Y150864D01*
X534851Y151141D01*
X535426Y151582D01*
X535867Y152156D01*
X536144Y152825D01*
X536165Y152988D01*
X536669D01*
X536691Y152825D01*
X536968Y152156D01*
X537409Y151582D01*
X537983Y151141D01*
X538652Y150864D01*
X539370Y150770D01*
X540088Y150864D01*
X540757Y151141D01*
X541331Y151582D01*
X541772Y152156D01*
X542049Y152825D01*
X542071Y152988D01*
X542575D01*
X542596Y152825D01*
X542873Y152156D01*
X543314Y151582D01*
X543889Y151141D01*
X544558Y150864D01*
X545276Y150770D01*
X545994Y150864D01*
X546663Y151141D01*
X547237Y151582D01*
X547678Y152156D01*
X547955Y152825D01*
X547976Y152988D01*
X548481D01*
X548502Y152825D01*
X548779Y152156D01*
X549220Y151582D01*
X549794Y151141D01*
X550463Y150864D01*
X551181Y150770D01*
X551899Y150864D01*
X552568Y151141D01*
X553142Y151582D01*
X553583Y152156D01*
X553860Y152825D01*
X553882Y152988D01*
X554386D01*
X554407Y152825D01*
X554684Y152156D01*
X555125Y151582D01*
X555700Y151141D01*
X556369Y150864D01*
X557087Y150770D01*
X557804Y150864D01*
X558473Y151141D01*
X559048Y151582D01*
X559489Y152156D01*
X559766Y152825D01*
X559787Y152988D01*
X560291D01*
X560313Y152825D01*
X560590Y152156D01*
X561031Y151582D01*
X561605Y151141D01*
X562274Y150864D01*
X562992Y150770D01*
X563710Y150864D01*
X564379Y151141D01*
X564953Y151582D01*
X565394Y152156D01*
X565671Y152825D01*
X565693Y152988D01*
X566197D01*
X566218Y152825D01*
X566496Y152156D01*
X566936Y151582D01*
X567511Y151141D01*
X568180Y150864D01*
X568898Y150770D01*
X569616Y150864D01*
X570285Y151141D01*
X570859Y151582D01*
X571300Y152156D01*
X571577Y152825D01*
X571671Y153543D01*
X571577Y154261D01*
X571300Y154930D01*
X570859Y155505D01*
X570285Y155945D01*
X569616Y156222D01*
X568898Y156317D01*
D02*
G37*
G36*
X558700Y149174D02*
X557982Y149079D01*
X557313Y148802D01*
X556739Y148361D01*
X556298Y147787D01*
X556021Y147118D01*
X555984Y147097D01*
X554978Y147513D01*
X553103Y147963D01*
X551181Y148115D01*
X549259Y147963D01*
X547384Y147513D01*
X545768Y146844D01*
X545502Y147487D01*
X545061Y148061D01*
X544487Y148502D01*
X543818Y148779D01*
X543100Y148874D01*
X542382Y148779D01*
X541713Y148502D01*
X541139Y148061D01*
X540698Y147487D01*
X540421Y146818D01*
X540388Y146572D01*
X539682Y146479D01*
X539013Y146202D01*
X538439Y145761D01*
X538425Y145743D01*
X538087Y146002D01*
X537418Y146279D01*
X536700Y146374D01*
X535982Y146279D01*
X535313Y146002D01*
X534739Y145561D01*
X534298Y144987D01*
X534269Y144917D01*
X534118Y144979D01*
X533400Y145074D01*
X532682Y144979D01*
X532013Y144702D01*
X531439Y144261D01*
X530998Y143687D01*
X530721Y143018D01*
X530626Y142300D01*
X530721Y141582D01*
X530998Y140913D01*
X531439Y140339D01*
X532013Y139898D01*
X532657Y139631D01*
X532626Y139400D01*
X532721Y138682D01*
X532998Y138013D01*
X533254Y137680D01*
X532839Y137361D01*
X532398Y136787D01*
X532121Y136118D01*
X532026Y135400D01*
X532121Y134682D01*
X532398Y134013D01*
X532839Y133439D01*
X533413Y132998D01*
X534082Y132721D01*
X534800Y132626D01*
X535473Y132715D01*
X535598Y132413D01*
X536039Y131839D01*
X536246Y131679D01*
X536221Y131618D01*
X536126Y130900D01*
X536221Y130182D01*
X536498Y129513D01*
X536939Y128939D01*
X537513Y128498D01*
X537885Y128344D01*
X537826Y127900D01*
X537921Y127182D01*
X538198Y126513D01*
X538639Y125939D01*
X539213Y125498D01*
X539882Y125221D01*
X540093Y125193D01*
X540121Y124982D01*
X540398Y124313D01*
X540839Y123739D01*
X541413Y123298D01*
X542082Y123021D01*
X542800Y122926D01*
X542904Y122940D01*
X542998Y122713D01*
X543439Y122139D01*
X544013Y121698D01*
X544682Y121421D01*
X545400Y121326D01*
X546118Y121421D01*
X546157Y121437D01*
X546539Y120939D01*
X547113Y120498D01*
X547782Y120221D01*
X548500Y120126D01*
X549218Y120221D01*
X549887Y120498D01*
X550350Y120853D01*
X550813Y120498D01*
X551482Y120221D01*
X552200Y120126D01*
X552918Y120221D01*
X553587Y120498D01*
X554161Y120939D01*
X554320Y121146D01*
X554513Y120998D01*
X555182Y120721D01*
X555900Y120626D01*
X556618Y120721D01*
X557287Y120998D01*
X557861Y121439D01*
X558302Y122013D01*
X558461Y122397D01*
X559000Y122326D01*
X559718Y122421D01*
X560387Y122698D01*
X560961Y123139D01*
X561402Y123713D01*
X561679Y124382D01*
X561734Y124796D01*
X561918Y124821D01*
X562587Y125098D01*
X563161Y125539D01*
X563602Y126113D01*
X563879Y126782D01*
X563974Y127500D01*
X563901Y128055D01*
X564487Y128298D01*
X565061Y128739D01*
X565502Y129313D01*
X565779Y129982D01*
X565874Y130700D01*
X565779Y131418D01*
X565589Y131877D01*
X566061Y132239D01*
X566502Y132813D01*
X566779Y133482D01*
X566810Y133717D01*
X567500Y133626D01*
X568218Y133721D01*
X568887Y133998D01*
X569461Y134439D01*
X569902Y135013D01*
X570179Y135682D01*
X570274Y136400D01*
X570179Y137118D01*
X569902Y137787D01*
X569461Y138361D01*
X569017Y138702D01*
X569102Y138813D01*
X569379Y139482D01*
X569474Y140200D01*
X569413Y140660D01*
X569987Y140898D01*
X570561Y141339D01*
X571002Y141913D01*
X571279Y142582D01*
X571374Y143300D01*
X571279Y144018D01*
X571002Y144687D01*
X570561Y145261D01*
X569987Y145702D01*
X569318Y145979D01*
X568600Y146074D01*
X567882Y145979D01*
X567231Y145710D01*
X566961Y146061D01*
X566387Y146502D01*
X565718Y146779D01*
X565000Y146874D01*
X564282Y146779D01*
X563613Y146502D01*
X563200Y146185D01*
X562787Y146502D01*
X562118Y146779D01*
X561412Y146872D01*
X561379Y147118D01*
X561102Y147787D01*
X560661Y148361D01*
X560087Y148802D01*
X559418Y149079D01*
X558700Y149174D01*
D02*
G37*
G36*
X625984Y145490D02*
X625266Y145396D01*
X624597Y145119D01*
X624023Y144678D01*
X623582Y144103D01*
X623305Y143434D01*
X623210Y142717D01*
X623305Y141999D01*
X623582Y141330D01*
X624023Y140755D01*
X624597Y140314D01*
X625266Y140037D01*
X625984Y139943D01*
X626702Y140037D01*
X627371Y140314D01*
X627946Y140755D01*
X628386Y141330D01*
X628663Y141999D01*
X628758Y142717D01*
X628663Y143434D01*
X628386Y144103D01*
X627946Y144678D01*
X627371Y145119D01*
X626702Y145396D01*
X625984Y145490D01*
D02*
G37*
G36*
X618110D02*
X617392Y145396D01*
X616723Y145119D01*
X616149Y144678D01*
X615708Y144103D01*
X615431Y143434D01*
X615337Y142717D01*
X615431Y141999D01*
X615708Y141330D01*
X616149Y140755D01*
X616723Y140314D01*
X617392Y140037D01*
X618110Y139943D01*
X618828Y140037D01*
X619497Y140314D01*
X620072Y140755D01*
X620512Y141330D01*
X620789Y141999D01*
X620884Y142717D01*
X620789Y143434D01*
X620512Y144103D01*
X620072Y144678D01*
X619497Y145119D01*
X618828Y145396D01*
X618110Y145490D01*
D02*
G37*
G36*
X611221D02*
X610503Y145396D01*
X609834Y145119D01*
X609259Y144678D01*
X608818Y144103D01*
X608541Y143434D01*
X608447Y142717D01*
X608541Y141999D01*
X608818Y141330D01*
X609259Y140755D01*
X609834Y140314D01*
X610503Y140037D01*
X611221Y139943D01*
X611938Y140037D01*
X612607Y140314D01*
X613182Y140755D01*
X613623Y141330D01*
X613900Y141999D01*
X613994Y142717D01*
X613900Y143434D01*
X613623Y144103D01*
X613182Y144678D01*
X612607Y145119D01*
X611938Y145396D01*
X611221Y145490D01*
D02*
G37*
G36*
X603346D02*
X602629Y145396D01*
X601960Y145119D01*
X601385Y144678D01*
X600944Y144103D01*
X600667Y143434D01*
X600573Y142717D01*
X600667Y141999D01*
X600944Y141330D01*
X601385Y140755D01*
X601960Y140314D01*
X602629Y140037D01*
X603346Y139943D01*
X604064Y140037D01*
X604733Y140314D01*
X605308Y140755D01*
X605749Y141330D01*
X606026Y141999D01*
X606120Y142717D01*
X606026Y143434D01*
X605749Y144103D01*
X605308Y144678D01*
X604733Y145119D01*
X604064Y145396D01*
X603346Y145490D01*
D02*
G37*
G36*
X523622Y145490D02*
X522904Y145396D01*
X522235Y145119D01*
X521661Y144678D01*
X521220Y144103D01*
X520943Y143434D01*
X520848Y142717D01*
X520943Y141999D01*
X521220Y141330D01*
X521661Y140755D01*
X522235Y140314D01*
X522904Y140037D01*
X523622Y139943D01*
X524340Y140037D01*
X525009Y140314D01*
X525583Y140755D01*
X526024Y141330D01*
X526301Y141999D01*
X526396Y142717D01*
X526301Y143434D01*
X526024Y144103D01*
X525583Y144678D01*
X525009Y145119D01*
X524340Y145396D01*
X523622Y145490D01*
D02*
G37*
G36*
X515748D02*
X515030Y145396D01*
X514361Y145119D01*
X513787Y144678D01*
X513346Y144103D01*
X513069Y143434D01*
X512974Y142717D01*
X513069Y141999D01*
X513346Y141330D01*
X513787Y140755D01*
X514361Y140314D01*
X515030Y140037D01*
X515748Y139943D01*
X516466Y140037D01*
X517135Y140314D01*
X517709Y140755D01*
X518150Y141330D01*
X518427Y141999D01*
X518522Y142717D01*
X518427Y143434D01*
X518150Y144103D01*
X517709Y144678D01*
X517135Y145119D01*
X516466Y145396D01*
X515748Y145490D01*
D02*
G37*
G36*
X440945D02*
X440227Y145396D01*
X439558Y145119D01*
X438984Y144678D01*
X438543Y144103D01*
X438266Y143434D01*
X438171Y142717D01*
X438266Y141999D01*
X438543Y141330D01*
X438984Y140755D01*
X439558Y140314D01*
X440227Y140037D01*
X440945Y139943D01*
X441663Y140037D01*
X442332Y140314D01*
X442906Y140755D01*
X443347Y141330D01*
X443624Y141999D01*
X443719Y142717D01*
X443624Y143434D01*
X443347Y144103D01*
X442906Y144678D01*
X442332Y145119D01*
X441663Y145396D01*
X440945Y145490D01*
D02*
G37*
G36*
X433071D02*
X432353Y145396D01*
X431684Y145119D01*
X431110Y144678D01*
X430669Y144103D01*
X430392Y143434D01*
X430297Y142717D01*
X430392Y141999D01*
X430669Y141330D01*
X431110Y140755D01*
X431684Y140314D01*
X432353Y140037D01*
X433071Y139943D01*
X433789Y140037D01*
X434458Y140314D01*
X435032Y140755D01*
X435473Y141330D01*
X435750Y141999D01*
X435845Y142717D01*
X435750Y143434D01*
X435473Y144103D01*
X435032Y144678D01*
X434458Y145119D01*
X433789Y145396D01*
X433071Y145490D01*
D02*
G37*
G36*
X425197D02*
X424479Y145396D01*
X423810Y145119D01*
X423236Y144678D01*
X422795Y144103D01*
X422518Y143434D01*
X422423Y142717D01*
X422518Y141999D01*
X422795Y141330D01*
X423236Y140755D01*
X423810Y140314D01*
X424479Y140037D01*
X425197Y139943D01*
X425915Y140037D01*
X426584Y140314D01*
X427158Y140755D01*
X427599Y141330D01*
X427876Y141999D01*
X427971Y142717D01*
X427876Y143434D01*
X427599Y144103D01*
X427158Y144678D01*
X426584Y145119D01*
X425915Y145396D01*
X425197Y145490D01*
D02*
G37*
G36*
X418307D02*
X417589Y145396D01*
X416920Y145119D01*
X416346Y144678D01*
X415905Y144103D01*
X415628Y143434D01*
X415533Y142717D01*
X415628Y141999D01*
X415905Y141330D01*
X416346Y140755D01*
X416920Y140314D01*
X417589Y140037D01*
X418307Y139943D01*
X419025Y140037D01*
X419694Y140314D01*
X420268Y140755D01*
X420709Y141330D01*
X420986Y141999D01*
X421081Y142717D01*
X420986Y143434D01*
X420709Y144103D01*
X420268Y144678D01*
X419694Y145119D01*
X419025Y145396D01*
X418307Y145490D01*
D02*
G37*
G36*
X386811D02*
X386093Y145396D01*
X385424Y145119D01*
X384850Y144678D01*
X384409Y144103D01*
X384132Y143434D01*
X384037Y142717D01*
X384132Y141999D01*
X384409Y141330D01*
X384850Y140755D01*
X385424Y140314D01*
X386093Y140037D01*
X386811Y139943D01*
X387529Y140037D01*
X388198Y140314D01*
X388772Y140755D01*
X389213Y141330D01*
X389490Y141999D01*
X389585Y142717D01*
X389490Y143434D01*
X389213Y144103D01*
X388772Y144678D01*
X388198Y145119D01*
X387529Y145396D01*
X386811Y145490D01*
D02*
G37*
G36*
X625984Y138601D02*
X625266Y138506D01*
X624597Y138229D01*
X624023Y137788D01*
X623582Y137214D01*
X623305Y136545D01*
X623210Y135827D01*
X623305Y135109D01*
X623582Y134440D01*
X624023Y133865D01*
X624597Y133425D01*
X625266Y133148D01*
X625984Y133053D01*
X626702Y133148D01*
X627371Y133425D01*
X627946Y133865D01*
X628386Y134440D01*
X628663Y135109D01*
X628758Y135827D01*
X628663Y136545D01*
X628386Y137214D01*
X627946Y137788D01*
X627371Y138229D01*
X626702Y138506D01*
X625984Y138601D01*
D02*
G37*
G36*
X603346D02*
X602629Y138506D01*
X601960Y138229D01*
X601385Y137788D01*
X600944Y137214D01*
X600667Y136545D01*
X600573Y135827D01*
X600667Y135109D01*
X600944Y134440D01*
X601385Y133865D01*
X601960Y133425D01*
X602629Y133148D01*
X603346Y133053D01*
X604064Y133148D01*
X604733Y133425D01*
X605308Y133865D01*
X605749Y134440D01*
X606026Y135109D01*
X606120Y135827D01*
X606026Y136545D01*
X605749Y137214D01*
X605308Y137788D01*
X604733Y138229D01*
X604064Y138506D01*
X603346Y138601D01*
D02*
G37*
G36*
X523622Y138601D02*
X522904Y138506D01*
X522235Y138229D01*
X521661Y137788D01*
X521220Y137214D01*
X520943Y136545D01*
X520848Y135827D01*
X520943Y135109D01*
X521220Y134440D01*
X521661Y133865D01*
X522235Y133425D01*
X522904Y133148D01*
X523622Y133053D01*
X524340Y133148D01*
X525009Y133425D01*
X525583Y133865D01*
X526024Y134440D01*
X526301Y135109D01*
X526396Y135827D01*
X526301Y136545D01*
X526024Y137214D01*
X525583Y137788D01*
X525009Y138229D01*
X524340Y138506D01*
X523622Y138601D01*
D02*
G37*
G36*
X515748D02*
X515030Y138506D01*
X514361Y138229D01*
X513787Y137788D01*
X513346Y137214D01*
X513069Y136545D01*
X512974Y135827D01*
X513069Y135109D01*
X513346Y134440D01*
X513787Y133865D01*
X514361Y133425D01*
X515030Y133148D01*
X515748Y133053D01*
X516466Y133148D01*
X517135Y133425D01*
X517709Y133865D01*
X518150Y134440D01*
X518427Y135109D01*
X518522Y135827D01*
X518427Y136545D01*
X518150Y137214D01*
X517709Y137788D01*
X517135Y138229D01*
X516466Y138506D01*
X515748Y138601D01*
D02*
G37*
G36*
X440945D02*
X440227Y138506D01*
X439558Y138229D01*
X438984Y137788D01*
X438543Y137214D01*
X438266Y136545D01*
X438171Y135827D01*
X438266Y135109D01*
X438543Y134440D01*
X438984Y133865D01*
X439558Y133425D01*
X440227Y133148D01*
X440945Y133053D01*
X441663Y133148D01*
X442332Y133425D01*
X442906Y133865D01*
X443347Y134440D01*
X443624Y135109D01*
X443719Y135827D01*
X443624Y136545D01*
X443347Y137214D01*
X442906Y137788D01*
X442332Y138229D01*
X441663Y138506D01*
X440945Y138601D01*
D02*
G37*
G36*
X433071D02*
X432353Y138506D01*
X431684Y138229D01*
X431110Y137788D01*
X430669Y137214D01*
X430392Y136545D01*
X430297Y135827D01*
X430392Y135109D01*
X430669Y134440D01*
X431110Y133865D01*
X431684Y133425D01*
X432353Y133148D01*
X433071Y133053D01*
X433789Y133148D01*
X434458Y133425D01*
X435032Y133865D01*
X435473Y134440D01*
X435750Y135109D01*
X435845Y135827D01*
X435750Y136545D01*
X435473Y137214D01*
X435032Y137788D01*
X434458Y138229D01*
X433789Y138506D01*
X433071Y138601D01*
D02*
G37*
G36*
X425197D02*
X424479Y138506D01*
X423810Y138229D01*
X423236Y137788D01*
X422795Y137214D01*
X422518Y136545D01*
X422423Y135827D01*
X422518Y135109D01*
X422795Y134440D01*
X423236Y133865D01*
X423810Y133425D01*
X424479Y133148D01*
X425197Y133053D01*
X425915Y133148D01*
X426584Y133425D01*
X427158Y133865D01*
X427599Y134440D01*
X427876Y135109D01*
X427971Y135827D01*
X427876Y136545D01*
X427599Y137214D01*
X427158Y137788D01*
X426584Y138229D01*
X425915Y138506D01*
X425197Y138601D01*
D02*
G37*
G36*
X417323D02*
X416605Y138506D01*
X415936Y138229D01*
X415361Y137788D01*
X414921Y137214D01*
X414644Y136545D01*
X414549Y135827D01*
X414644Y135109D01*
X414921Y134440D01*
X415361Y133865D01*
X415936Y133425D01*
X416605Y133148D01*
X417323Y133053D01*
X418041Y133148D01*
X418710Y133425D01*
X419284Y133865D01*
X419725Y134440D01*
X420002Y135109D01*
X420097Y135827D01*
X420002Y136545D01*
X419725Y137214D01*
X419284Y137788D01*
X418710Y138229D01*
X418041Y138506D01*
X417323Y138601D01*
D02*
G37*
G36*
X409449Y241177D02*
X398622D01*
X398232Y241100D01*
X397901Y240878D01*
X397680Y240548D01*
X397603Y240158D01*
Y164792D01*
X391996Y159186D01*
X391775Y158855D01*
X391697Y158465D01*
Y132874D01*
X391775Y132484D01*
X391996Y132153D01*
X392326Y131932D01*
X392717Y131854D01*
X399496D01*
X399606Y131840D01*
X399717Y131854D01*
X408465D01*
X408855Y131932D01*
X409186Y132153D01*
X410126Y133094D01*
X410433Y133053D01*
X411151Y133148D01*
X411820Y133425D01*
X412394Y133865D01*
X412835Y134440D01*
X413112Y135109D01*
X413207Y135827D01*
X413112Y136545D01*
X412835Y137214D01*
X412394Y137788D01*
X411820Y138229D01*
X411151Y138506D01*
X410468Y138596D01*
Y139947D01*
X411151Y140037D01*
X411820Y140314D01*
X412394Y140755D01*
X412835Y141330D01*
X413112Y141999D01*
X413207Y142717D01*
X413112Y143434D01*
X412835Y144103D01*
X412394Y144678D01*
X411820Y145119D01*
X411151Y145396D01*
X410468Y145486D01*
Y240158D01*
X410391Y240548D01*
X410170Y240878D01*
X409839Y241100D01*
X409449Y241177D01*
D02*
G37*
G36*
X386811Y138601D02*
X386093Y138506D01*
X385424Y138229D01*
X384850Y137788D01*
X384409Y137214D01*
X384132Y136545D01*
X384037Y135827D01*
X384132Y135109D01*
X384409Y134440D01*
X384850Y133865D01*
X385424Y133425D01*
X386093Y133148D01*
X386811Y133053D01*
X387529Y133148D01*
X388198Y133425D01*
X388772Y133865D01*
X389213Y134440D01*
X389490Y135109D01*
X389585Y135827D01*
X389490Y136545D01*
X389213Y137214D01*
X388772Y137788D01*
X388198Y138229D01*
X387529Y138506D01*
X386811Y138601D01*
D02*
G37*
G36*
X595472Y241177D02*
X580709D01*
X580318Y241100D01*
X579988Y240878D01*
X579977Y240862D01*
X579322Y240591D01*
X578747Y240150D01*
X578306Y239576D01*
X578029Y238907D01*
X577935Y238189D01*
X578029Y237471D01*
X578306Y236802D01*
X578747Y236228D01*
X579322Y235787D01*
X579689Y235635D01*
Y233854D01*
X579322Y233701D01*
X578747Y233260D01*
X578306Y232686D01*
X578029Y232017D01*
X577935Y231299D01*
X578029Y230581D01*
X578306Y229912D01*
X578747Y229338D01*
X579322Y228897D01*
X579689Y228745D01*
Y226964D01*
X579322Y226812D01*
X578747Y226371D01*
X578306Y225796D01*
X578029Y225127D01*
X577935Y224410D01*
X578029Y223692D01*
X578306Y223023D01*
X578747Y222448D01*
X579322Y222007D01*
X579689Y221855D01*
Y220074D01*
X579322Y219922D01*
X578747Y219481D01*
X578306Y218907D01*
X578029Y218238D01*
X577935Y217520D01*
X578029Y216802D01*
X578306Y216133D01*
X578747Y215558D01*
X579322Y215118D01*
X579689Y214965D01*
Y213184D01*
X579322Y213032D01*
X578747Y212591D01*
X578306Y212017D01*
X578029Y211348D01*
X577935Y210630D01*
X578029Y209912D01*
X578306Y209243D01*
X578747Y208669D01*
X579322Y208228D01*
X579689Y208076D01*
Y193499D01*
X579322Y193347D01*
X578747Y192906D01*
X578306Y192332D01*
X578029Y191663D01*
X577935Y190945D01*
X578029Y190227D01*
X578306Y189558D01*
X578747Y188984D01*
X579322Y188543D01*
X579689Y188391D01*
Y186609D01*
X579322Y186457D01*
X578747Y186016D01*
X578306Y185442D01*
X578029Y184773D01*
X577935Y184055D01*
X578029Y183337D01*
X578306Y182668D01*
X578747Y182094D01*
X579322Y181653D01*
X579689Y181501D01*
Y179720D01*
X579322Y179568D01*
X578747Y179127D01*
X578306Y178552D01*
X578029Y177883D01*
X577935Y177165D01*
X578029Y176447D01*
X578306Y175778D01*
X578747Y175204D01*
X579322Y174763D01*
X579689Y174611D01*
Y172830D01*
X579322Y172678D01*
X578747Y172237D01*
X578306Y171662D01*
X578029Y170993D01*
X577935Y170276D01*
X578029Y169558D01*
X578306Y168889D01*
X578747Y168314D01*
X579322Y167874D01*
X579689Y167721D01*
Y165940D01*
X579322Y165788D01*
X578747Y165347D01*
X578306Y164773D01*
X578039Y164126D01*
X578019Y164107D01*
X577798Y163776D01*
X577721Y163386D01*
Y144622D01*
X577322Y144103D01*
X577045Y143434D01*
X576951Y142717D01*
X577045Y141999D01*
X577322Y141330D01*
X577721Y140811D01*
Y137733D01*
X577322Y137214D01*
X577045Y136545D01*
X576951Y135827D01*
X577045Y135109D01*
X577322Y134440D01*
X577721Y133921D01*
Y133858D01*
X577798Y133468D01*
X578019Y133137D01*
X578350Y132916D01*
X578740Y132839D01*
X595472D01*
X595863Y132916D01*
X596193Y133137D01*
X596204Y133153D01*
X596859Y133425D01*
X597434Y133865D01*
X597875Y134440D01*
X598152Y135109D01*
X598246Y135827D01*
X598152Y136545D01*
X597875Y137214D01*
X597434Y137788D01*
X596859Y138229D01*
X596492Y138381D01*
Y140162D01*
X596859Y140314D01*
X597434Y140755D01*
X597875Y141330D01*
X598152Y141999D01*
X598246Y142717D01*
X598152Y143434D01*
X597875Y144103D01*
X597434Y144678D01*
X596859Y145119D01*
X596492Y145271D01*
Y240158D01*
X596414Y240548D01*
X596193Y240878D01*
X595863Y241100D01*
X595472Y241177D01*
D02*
G37*
G36*
X614173Y139814D02*
X613141Y139678D01*
X612180Y139279D01*
X611354Y138646D01*
X610720Y137820D01*
X610322Y136859D01*
X610186Y135827D01*
X610322Y134795D01*
X610720Y133833D01*
X611354Y133008D01*
X612180Y132374D01*
X613141Y131976D01*
X614173Y131840D01*
X615205Y131976D01*
X616167Y132374D01*
X616992Y133008D01*
X617626Y133833D01*
X618024Y134795D01*
X618160Y135827D01*
X618024Y136859D01*
X617626Y137820D01*
X616992Y138646D01*
X616167Y139279D01*
X615205Y139678D01*
X614173Y139814D01*
D02*
G37*
G36*
X506890Y241177D02*
X494095D01*
X493704Y241100D01*
X493373Y240878D01*
X493363Y240862D01*
X492708Y240591D01*
X492133Y240150D01*
X491692Y239576D01*
X491415Y238907D01*
X491321Y238189D01*
X491415Y237471D01*
X491692Y236802D01*
X492133Y236228D01*
X492708Y235787D01*
X493075Y235635D01*
Y233854D01*
X492708Y233701D01*
X492133Y233260D01*
X491692Y232686D01*
X491415Y232017D01*
X491321Y231299D01*
X491415Y230581D01*
X491692Y229912D01*
X492133Y229338D01*
X492708Y228897D01*
X493075Y228745D01*
Y226964D01*
X492708Y226812D01*
X492133Y226371D01*
X491692Y225796D01*
X491415Y225127D01*
X491321Y224409D01*
X491415Y223692D01*
X491692Y223023D01*
X492133Y222448D01*
X492708Y222007D01*
X493075Y221855D01*
Y220074D01*
X492708Y219922D01*
X492133Y219481D01*
X491692Y218906D01*
X491415Y218238D01*
X491321Y217520D01*
X491415Y216802D01*
X491692Y216133D01*
X492133Y215558D01*
X492708Y215118D01*
X493075Y214965D01*
Y213184D01*
X492708Y213032D01*
X492133Y212591D01*
X491692Y212017D01*
X491415Y211348D01*
X491321Y210630D01*
X491415Y209912D01*
X491692Y209243D01*
X492133Y208669D01*
X492708Y208228D01*
X493075Y208076D01*
Y193499D01*
X492708Y193347D01*
X492133Y192906D01*
X491692Y192332D01*
X491415Y191663D01*
X491321Y190945D01*
X491415Y190227D01*
X491692Y189558D01*
X492133Y188984D01*
X492708Y188543D01*
X493075Y188391D01*
Y186609D01*
X492708Y186457D01*
X492133Y186016D01*
X491692Y185442D01*
X491415Y184773D01*
X491321Y184055D01*
X491415Y183337D01*
X491692Y182668D01*
X492133Y182094D01*
X492708Y181653D01*
X493075Y181501D01*
Y179720D01*
X492708Y179568D01*
X492133Y179127D01*
X491692Y178552D01*
X491415Y177883D01*
X491321Y177165D01*
X491415Y176447D01*
X491692Y175778D01*
X492133Y175204D01*
X492708Y174763D01*
X493075Y174611D01*
Y172830D01*
X492708Y172678D01*
X492133Y172237D01*
X491692Y171662D01*
X491415Y170993D01*
X491321Y170276D01*
X491415Y169558D01*
X491692Y168889D01*
X492133Y168314D01*
X492708Y167874D01*
X493075Y167721D01*
Y165940D01*
X492708Y165788D01*
X492133Y165347D01*
X491692Y164773D01*
X491415Y164104D01*
X491321Y163386D01*
X491415Y162668D01*
X491692Y161999D01*
X492133Y161425D01*
X492708Y160984D01*
X493075Y160832D01*
Y147076D01*
X491385Y145386D01*
X490739Y145119D01*
X490165Y144678D01*
X489724Y144103D01*
X489456Y143457D01*
X489436Y143438D01*
X489216Y143107D01*
X489138Y142717D01*
Y133858D01*
X489216Y133468D01*
X489436Y133137D01*
X489767Y132916D01*
X490158Y132839D01*
X505275D01*
X505881Y132374D01*
X506842Y131976D01*
X507874Y131840D01*
X508906Y131976D01*
X509867Y132374D01*
X510693Y133008D01*
X511327Y133833D01*
X511725Y134795D01*
X511861Y135827D01*
X511725Y136859D01*
X511327Y137820D01*
X510693Y138646D01*
X509867Y139279D01*
X508968Y139652D01*
X508915Y139852D01*
X508933Y140179D01*
X509261Y140314D01*
X509835Y140755D01*
X510276Y141330D01*
X510553Y141999D01*
X510648Y142717D01*
X510553Y143434D01*
X510276Y144103D01*
X509835Y144678D01*
X509261Y145119D01*
X508592Y145396D01*
X507909Y145486D01*
Y160832D01*
X508277Y160984D01*
X508851Y161425D01*
X509292Y161999D01*
X509569Y162668D01*
X509663Y163386D01*
X509569Y164104D01*
X509292Y164773D01*
X508851Y165347D01*
X508277Y165788D01*
X507909Y165940D01*
Y167721D01*
X508277Y167874D01*
X508851Y168314D01*
X509292Y168889D01*
X509569Y169558D01*
X509663Y170276D01*
X509569Y170993D01*
X509292Y171662D01*
X508851Y172237D01*
X508277Y172678D01*
X507909Y172830D01*
Y174611D01*
X508277Y174763D01*
X508851Y175204D01*
X509292Y175778D01*
X509569Y176447D01*
X509663Y177165D01*
X509569Y177883D01*
X509292Y178552D01*
X508851Y179127D01*
X508277Y179568D01*
X507909Y179720D01*
Y181501D01*
X508277Y181653D01*
X508851Y182094D01*
X509292Y182668D01*
X509569Y183337D01*
X509663Y184055D01*
X509569Y184773D01*
X509292Y185442D01*
X508851Y186016D01*
X508277Y186457D01*
X507909Y186609D01*
Y188391D01*
X508277Y188543D01*
X508851Y188984D01*
X509292Y189558D01*
X509569Y190227D01*
X509663Y190945D01*
X509569Y191663D01*
X509292Y192332D01*
X508851Y192906D01*
X508277Y193347D01*
X507909Y193499D01*
Y208076D01*
X508277Y208228D01*
X508851Y208669D01*
X509292Y209243D01*
X509569Y209912D01*
X509663Y210630D01*
X509569Y211348D01*
X509292Y212017D01*
X508851Y212591D01*
X508277Y213032D01*
X507909Y213184D01*
Y214965D01*
X508277Y215118D01*
X508851Y215558D01*
X509292Y216133D01*
X509569Y216802D01*
X509663Y217520D01*
X509569Y218238D01*
X509292Y218906D01*
X508851Y219481D01*
X508277Y219922D01*
X507909Y220074D01*
Y221855D01*
X508277Y222007D01*
X508851Y222448D01*
X509292Y223023D01*
X509569Y223692D01*
X509663Y224410D01*
X509569Y225127D01*
X509292Y225796D01*
X508851Y226371D01*
X508277Y226812D01*
X507909Y226964D01*
Y228745D01*
X508277Y228897D01*
X508851Y229338D01*
X509292Y229912D01*
X509569Y230581D01*
X509663Y231299D01*
X509569Y232017D01*
X509292Y232686D01*
X508851Y233260D01*
X508277Y233701D01*
X507909Y233854D01*
Y235635D01*
X508277Y235787D01*
X508851Y236228D01*
X509292Y236802D01*
X509569Y237471D01*
X509663Y238189D01*
X509569Y238907D01*
X509292Y239576D01*
X508851Y240150D01*
X508277Y240591D01*
X507621Y240862D01*
X507611Y240878D01*
X507280Y241100D01*
X506890Y241177D01*
D02*
G37*
G36*
X568898Y114978D02*
X568180Y114884D01*
X567511Y114607D01*
X566936Y114166D01*
X566496Y113592D01*
X566218Y112923D01*
X566197Y112760D01*
X565693D01*
X565671Y112923D01*
X565394Y113592D01*
X564953Y114166D01*
X564379Y114607D01*
X563710Y114884D01*
X562992Y114978D01*
X562274Y114884D01*
X561605Y114607D01*
X561031Y114166D01*
X560590Y113592D01*
X560313Y112923D01*
X560291Y112760D01*
X559787D01*
X559766Y112923D01*
X559489Y113592D01*
X559048Y114166D01*
X558473Y114607D01*
X557804Y114884D01*
X557087Y114978D01*
X556369Y114884D01*
X555700Y114607D01*
X555125Y114166D01*
X554684Y113592D01*
X554407Y112923D01*
X554386Y112760D01*
X553882D01*
X553860Y112923D01*
X553583Y113592D01*
X553142Y114166D01*
X552568Y114607D01*
X551899Y114884D01*
X551181Y114978D01*
X550463Y114884D01*
X549794Y114607D01*
X549220Y114166D01*
X548779Y113592D01*
X548502Y112923D01*
X548481Y112760D01*
X547976D01*
X547955Y112923D01*
X547678Y113592D01*
X547237Y114166D01*
X546663Y114607D01*
X545994Y114884D01*
X545276Y114978D01*
X544558Y114884D01*
X543889Y114607D01*
X543314Y114166D01*
X542873Y113592D01*
X542596Y112923D01*
X542575Y112760D01*
X542071D01*
X542049Y112923D01*
X541772Y113592D01*
X541331Y114166D01*
X540757Y114607D01*
X540088Y114884D01*
X539370Y114978D01*
X538652Y114884D01*
X537983Y114607D01*
X537409Y114166D01*
X536968Y113592D01*
X536691Y112923D01*
X536669Y112760D01*
X536165D01*
X536144Y112923D01*
X535867Y113592D01*
X535426Y114166D01*
X534851Y114607D01*
X534183Y114884D01*
X533465Y114978D01*
X532747Y114884D01*
X532078Y114607D01*
X531503Y114166D01*
X531062Y113592D01*
X530785Y112923D01*
X530691Y112205D01*
X530785Y111487D01*
X531062Y110818D01*
X531503Y110243D01*
X532078Y109803D01*
X532747Y109526D01*
X533465Y109431D01*
X534183Y109526D01*
X534851Y109803D01*
X535426Y110243D01*
X535867Y110818D01*
X536144Y111487D01*
X536165Y111649D01*
X536669D01*
X536691Y111487D01*
X536968Y110818D01*
X537409Y110243D01*
X537983Y109803D01*
X538652Y109526D01*
X539370Y109431D01*
X540088Y109526D01*
X540757Y109803D01*
X541331Y110243D01*
X541772Y110818D01*
X542049Y111487D01*
X542071Y111649D01*
X542575D01*
X542596Y111487D01*
X542873Y110818D01*
X543314Y110243D01*
X543889Y109803D01*
X544558Y109526D01*
X545276Y109431D01*
X545994Y109526D01*
X546663Y109803D01*
X547237Y110243D01*
X547678Y110818D01*
X547955Y111487D01*
X547976Y111649D01*
X548481D01*
X548502Y111487D01*
X548779Y110818D01*
X549220Y110243D01*
X549794Y109803D01*
X550463Y109526D01*
X551181Y109431D01*
X551899Y109526D01*
X552568Y109803D01*
X553142Y110243D01*
X553583Y110818D01*
X553860Y111487D01*
X553882Y111649D01*
X554386D01*
X554407Y111487D01*
X554684Y110818D01*
X555125Y110243D01*
X555700Y109803D01*
X556369Y109526D01*
X557087Y109431D01*
X557804Y109526D01*
X558473Y109803D01*
X559048Y110243D01*
X559489Y110818D01*
X559766Y111487D01*
X559787Y111649D01*
X560291D01*
X560313Y111487D01*
X560590Y110818D01*
X561031Y110243D01*
X561605Y109803D01*
X562274Y109526D01*
X562992Y109431D01*
X563710Y109526D01*
X564379Y109803D01*
X564953Y110243D01*
X565394Y110818D01*
X565671Y111487D01*
X565693Y111649D01*
X566197D01*
X566218Y111487D01*
X566496Y110818D01*
X566936Y110243D01*
X567511Y109803D01*
X568180Y109526D01*
X568898Y109431D01*
X569616Y109526D01*
X570285Y109803D01*
X570859Y110243D01*
X571300Y110818D01*
X571577Y111487D01*
X571671Y112205D01*
X571577Y112923D01*
X571300Y113592D01*
X570859Y114166D01*
X570285Y114607D01*
X569616Y114884D01*
X568898Y114978D01*
D02*
G37*
%LPD*%
G36*
X409449Y133858D02*
X408465Y132874D01*
X392717D01*
Y158465D01*
X398622Y164370D01*
Y240158D01*
X409449D01*
Y133858D01*
D02*
G37*
G36*
X595472D02*
X578740D01*
Y163386D01*
X580709Y165354D01*
Y240158D01*
X595472D01*
Y133858D01*
D02*
G37*
G36*
X506890Y134843D02*
X505905Y133858D01*
X490158D01*
Y142717D01*
X494095Y146653D01*
X494095Y240158D01*
X506890D01*
Y134843D01*
D02*
G37*
D42*
X551181Y165748D02*
D03*
D43*
X488189Y405512D02*
D03*
Y385827D02*
D03*
X399606Y405512D02*
D03*
Y385827D02*
D03*
X614173Y116142D02*
D03*
X507874Y135827D02*
D03*
Y116142D02*
D03*
X574803Y405512D02*
D03*
Y385827D02*
D03*
X399606Y135827D02*
D03*
Y116142D02*
D03*
D44*
X464567Y127327D02*
D03*
X531496Y396295D02*
D03*
X617717D02*
D03*
X444882D02*
D03*
D45*
X634646Y370079D02*
D03*
Y417323D02*
D03*
Y405905D02*
D03*
X603346Y403543D02*
D03*
X609252D02*
D03*
X632874D02*
D03*
X626968D02*
D03*
X453740Y404528D02*
D03*
X430118D02*
D03*
X436024D02*
D03*
X459646D02*
D03*
X447835D02*
D03*
X441929D02*
D03*
X540354Y403543D02*
D03*
X522638D02*
D03*
X516732D02*
D03*
X546260Y395669D02*
D03*
Y403543D02*
D03*
X528543Y404528D02*
D03*
X534449Y403543D02*
D03*
X621063D02*
D03*
X615158Y404528D02*
D03*
X634842Y387795D02*
D03*
X631890D02*
D03*
X618110Y369094D02*
D03*
X531496D02*
D03*
X444882Y370079D02*
D03*
X458661Y371063D02*
D03*
X431102D02*
D03*
X440945D02*
D03*
X448819D02*
D03*
X517717Y370079D02*
D03*
X545276D02*
D03*
X527559D02*
D03*
X535433D02*
D03*
X604331D02*
D03*
X631890D02*
D03*
X614173D02*
D03*
X622047D02*
D03*
X602362Y393701D02*
D03*
X600394Y390748D02*
D03*
X602362Y379921D02*
D03*
X600394Y386811D02*
D03*
Y382874D02*
D03*
X604331Y390748D02*
D03*
Y382874D02*
D03*
Y386811D02*
D03*
X632874Y394685D02*
D03*
Y380906D02*
D03*
X634842Y391732D02*
D03*
X630905D02*
D03*
X634842Y383858D02*
D03*
X630905D02*
D03*
X516732Y380906D02*
D03*
Y394685D02*
D03*
X546260Y381890D02*
D03*
X548495Y384569D02*
D03*
X548228Y388779D02*
D03*
Y392717D02*
D03*
X544291D02*
D03*
Y384842D02*
D03*
Y388779D02*
D03*
X514764Y391732D02*
D03*
Y383858D02*
D03*
Y387795D02*
D03*
X518701Y383858D02*
D03*
Y391732D02*
D03*
Y387795D02*
D03*
X459646Y395669D02*
D03*
Y381890D02*
D03*
X430118Y395669D02*
D03*
Y381890D02*
D03*
X428150Y384842D02*
D03*
Y388779D02*
D03*
Y392717D02*
D03*
X432087D02*
D03*
Y384842D02*
D03*
Y388779D02*
D03*
X457677Y392717D02*
D03*
X461614D02*
D03*
X457677Y388779D02*
D03*
X461614D02*
D03*
Y384842D02*
D03*
X457677D02*
D03*
X533400Y142300D02*
D03*
X534800Y135400D02*
D03*
X536700Y143600D02*
D03*
X535400Y139400D02*
D03*
X567500Y136400D02*
D03*
X568600Y143300D02*
D03*
X565000Y144100D02*
D03*
X566700Y140200D02*
D03*
X543100Y146100D02*
D03*
X558700Y146400D02*
D03*
X561400Y144100D02*
D03*
X563100Y141000D02*
D03*
X564000Y137500D02*
D03*
X564100Y134200D02*
D03*
X563100Y130700D02*
D03*
X561200Y127500D02*
D03*
X559000Y125100D02*
D03*
X555900Y123400D02*
D03*
X552200Y122900D02*
D03*
X548500D02*
D03*
X545400Y124100D02*
D03*
X542800Y125700D02*
D03*
X540600Y127900D02*
D03*
X538900Y130900D02*
D03*
X540400Y143800D02*
D03*
X538800Y140500D02*
D03*
X538100Y137000D02*
D03*
X448900Y138000D02*
D03*
X449800Y142000D02*
D03*
X479100Y142800D02*
D03*
X480500Y138600D02*
D03*
X480100Y134300D02*
D03*
X475500Y143100D02*
D03*
X477000Y140000D02*
D03*
X477600Y136400D02*
D03*
X448300Y133900D02*
D03*
X453300Y142200D02*
D03*
X452000Y138900D02*
D03*
X455400Y126400D02*
D03*
X453100Y129400D02*
D03*
X464400Y122400D02*
D03*
X460900Y123100D02*
D03*
X458000Y124400D02*
D03*
X451500Y132300D02*
D03*
Y135700D02*
D03*
X476000Y129500D02*
D03*
X473600Y126500D02*
D03*
X470600Y124300D02*
D03*
X467600Y123000D02*
D03*
X477300Y132600D02*
D03*
X538000Y133800D02*
D03*
X524606Y337598D02*
D03*
X531496D02*
D03*
Y344488D02*
D03*
X524606D02*
D03*
X531496Y352362D02*
D03*
Y360236D02*
D03*
X517717Y337598D02*
D03*
X524606Y352362D02*
D03*
Y360236D02*
D03*
X437992Y337598D02*
D03*
X444882D02*
D03*
Y344488D02*
D03*
X437992D02*
D03*
X444882Y352362D02*
D03*
Y360236D02*
D03*
X431102Y337598D02*
D03*
X437992Y352362D02*
D03*
Y360236D02*
D03*
X611221Y361221D02*
D03*
Y353346D02*
D03*
X604331Y338583D02*
D03*
X618110Y361221D02*
D03*
Y353346D02*
D03*
X611221Y345472D02*
D03*
X618110D02*
D03*
Y338583D02*
D03*
X611221D02*
D03*
X595472Y135827D02*
D03*
X587598D02*
D03*
X579724D02*
D03*
X595472Y142717D02*
D03*
X587598D02*
D03*
X579724D02*
D03*
Y116142D02*
D03*
X587598D02*
D03*
X595472D02*
D03*
X603346D02*
D03*
X579724Y109252D02*
D03*
X587598D02*
D03*
X595472D02*
D03*
X603346D02*
D03*
X625984Y116142D02*
D03*
X633858D02*
D03*
X610236Y109252D02*
D03*
X618110D02*
D03*
X625984D02*
D03*
X633858D02*
D03*
X394685Y142717D02*
D03*
X402559D02*
D03*
X410433D02*
D03*
X394685Y135827D02*
D03*
X410433D02*
D03*
X492126Y142717D02*
D03*
X500000D02*
D03*
X507874D02*
D03*
X492126Y135827D02*
D03*
X500000D02*
D03*
X523622Y116142D02*
D03*
Y109252D02*
D03*
X600394Y370079D02*
D03*
X612205Y405512D02*
D03*
X606299D02*
D03*
X600394D02*
D03*
X618110D02*
D03*
X624016D02*
D03*
Y417323D02*
D03*
X618110D02*
D03*
X612205D02*
D03*
X606299D02*
D03*
X600394D02*
D03*
X629921Y405512D02*
D03*
Y417323D02*
D03*
X549213Y370079D02*
D03*
X513779D02*
D03*
X525591Y405512D02*
D03*
X519685D02*
D03*
X513779D02*
D03*
X531496D02*
D03*
X537402D02*
D03*
Y417323D02*
D03*
X531496D02*
D03*
X525591D02*
D03*
X519685D02*
D03*
X513779D02*
D03*
X543307Y405512D02*
D03*
X549213D02*
D03*
X543307Y417323D02*
D03*
X549213D02*
D03*
X462598Y371063D02*
D03*
X427165D02*
D03*
X438976Y406496D02*
D03*
X433071D02*
D03*
X427165D02*
D03*
X444882D02*
D03*
X450787D02*
D03*
Y418307D02*
D03*
X444882D02*
D03*
X438976D02*
D03*
X433071D02*
D03*
X427165D02*
D03*
X456693Y406496D02*
D03*
X462598D02*
D03*
X456693Y418307D02*
D03*
X462598D02*
D03*
X399606Y378937D02*
D03*
X488189D02*
D03*
X557087Y385827D02*
D03*
X565945D02*
D03*
X592520D02*
D03*
X583661D02*
D03*
X505905D02*
D03*
X497047D02*
D03*
X470472D02*
D03*
X479331D02*
D03*
X381890D02*
D03*
X390748D02*
D03*
X417323D02*
D03*
X408465D02*
D03*
X592520Y372047D02*
D03*
X574803D02*
D03*
X557087D02*
D03*
X592520Y380906D02*
D03*
X574803Y377953D02*
D03*
X557087Y380906D02*
D03*
X583661D02*
D03*
X565945D02*
D03*
X583661Y372047D02*
D03*
X565945D02*
D03*
X505905Y373031D02*
D03*
X488189D02*
D03*
X470472D02*
D03*
X505905Y381890D02*
D03*
X470472D02*
D03*
X497047D02*
D03*
X479331D02*
D03*
X497047Y373031D02*
D03*
X479331D02*
D03*
X417323Y372047D02*
D03*
X399606D02*
D03*
X381890D02*
D03*
X417323Y380906D02*
D03*
X381890D02*
D03*
X408465D02*
D03*
X390748D02*
D03*
X408465Y372047D02*
D03*
X390748D02*
D03*
X592520Y405512D02*
D03*
X557087D02*
D03*
Y414370D02*
D03*
X574803D02*
D03*
X592520D02*
D03*
X583661Y405512D02*
D03*
X565945D02*
D03*
X583661Y414370D02*
D03*
X565945D02*
D03*
X505905Y405512D02*
D03*
X470472D02*
D03*
Y414370D02*
D03*
X488189D02*
D03*
X505905D02*
D03*
X497047Y405512D02*
D03*
X479331D02*
D03*
X497047Y414370D02*
D03*
X479331D02*
D03*
X390748D02*
D03*
X408465D02*
D03*
X390748Y405512D02*
D03*
X408465D02*
D03*
X417323Y414370D02*
D03*
X399606D02*
D03*
X381890D02*
D03*
X515748Y109252D02*
D03*
X507874D02*
D03*
X500000D02*
D03*
X492126D02*
D03*
X439961D02*
D03*
X432087D02*
D03*
X424213D02*
D03*
X416339D02*
D03*
X515748Y116142D02*
D03*
X500000D02*
D03*
X492126D02*
D03*
X439961D02*
D03*
X432087D02*
D03*
X424213D02*
D03*
X409449Y109252D02*
D03*
X401575D02*
D03*
X393701D02*
D03*
X385827D02*
D03*
X377953D02*
D03*
X409449Y116142D02*
D03*
X393701D02*
D03*
X385827D02*
D03*
X377953D02*
D03*
X417323D02*
D03*
X381890Y405512D02*
D03*
X417323D02*
D03*
X631890Y268701D02*
D03*
Y363189D02*
D03*
Y355315D02*
D03*
Y347441D02*
D03*
Y339567D02*
D03*
Y331693D02*
D03*
Y323819D02*
D03*
Y315945D02*
D03*
Y308071D02*
D03*
Y300197D02*
D03*
Y292323D02*
D03*
Y284449D02*
D03*
Y276575D02*
D03*
X625984Y359252D02*
D03*
Y351378D02*
D03*
Y343504D02*
D03*
Y335630D02*
D03*
Y327756D02*
D03*
Y319882D02*
D03*
Y312008D02*
D03*
Y304134D02*
D03*
Y296260D02*
D03*
Y288386D02*
D03*
Y280512D02*
D03*
Y272638D02*
D03*
X631890Y261811D02*
D03*
Y253937D02*
D03*
Y246063D02*
D03*
Y238189D02*
D03*
Y230315D02*
D03*
Y222441D02*
D03*
Y214567D02*
D03*
Y206693D02*
D03*
Y198819D02*
D03*
Y190945D02*
D03*
Y183071D02*
D03*
Y175197D02*
D03*
Y167323D02*
D03*
X625984Y265748D02*
D03*
Y257874D02*
D03*
Y250000D02*
D03*
Y242126D02*
D03*
Y234252D02*
D03*
Y226378D02*
D03*
Y218504D02*
D03*
Y210630D02*
D03*
Y202756D02*
D03*
Y194882D02*
D03*
Y187008D02*
D03*
Y179134D02*
D03*
Y171260D02*
D03*
X542323Y269685D02*
D03*
Y364173D02*
D03*
Y356299D02*
D03*
Y348425D02*
D03*
Y340551D02*
D03*
Y332677D02*
D03*
Y324803D02*
D03*
Y316929D02*
D03*
Y309055D02*
D03*
Y301181D02*
D03*
Y277559D02*
D03*
X536417Y360236D02*
D03*
Y352362D02*
D03*
Y344488D02*
D03*
Y336614D02*
D03*
Y328740D02*
D03*
Y320866D02*
D03*
Y312992D02*
D03*
Y305118D02*
D03*
Y281496D02*
D03*
Y273622D02*
D03*
X542323Y262795D02*
D03*
Y254921D02*
D03*
Y239173D02*
D03*
Y231299D02*
D03*
Y223425D02*
D03*
Y215551D02*
D03*
Y207677D02*
D03*
Y199803D02*
D03*
Y191929D02*
D03*
Y184055D02*
D03*
Y176181D02*
D03*
Y168307D02*
D03*
X536417Y266732D02*
D03*
Y258858D02*
D03*
Y243110D02*
D03*
Y235236D02*
D03*
Y227362D02*
D03*
Y219488D02*
D03*
Y211614D02*
D03*
Y203740D02*
D03*
Y195866D02*
D03*
Y187992D02*
D03*
Y180118D02*
D03*
Y172244D02*
D03*
X449803D02*
D03*
Y180118D02*
D03*
Y187992D02*
D03*
Y195866D02*
D03*
Y203740D02*
D03*
Y211614D02*
D03*
Y219488D02*
D03*
Y227362D02*
D03*
Y235236D02*
D03*
Y243110D02*
D03*
Y258858D02*
D03*
Y266732D02*
D03*
X455709Y168307D02*
D03*
Y176181D02*
D03*
Y184055D02*
D03*
Y191929D02*
D03*
Y199803D02*
D03*
Y207677D02*
D03*
Y215551D02*
D03*
Y223425D02*
D03*
Y231299D02*
D03*
Y239173D02*
D03*
Y254921D02*
D03*
Y262795D02*
D03*
X449803Y273622D02*
D03*
Y281496D02*
D03*
Y305118D02*
D03*
Y312992D02*
D03*
Y320866D02*
D03*
Y328740D02*
D03*
Y336614D02*
D03*
Y344488D02*
D03*
Y352362D02*
D03*
Y360236D02*
D03*
X455709Y277559D02*
D03*
Y301181D02*
D03*
Y309055D02*
D03*
Y316929D02*
D03*
Y324803D02*
D03*
Y332677D02*
D03*
Y340551D02*
D03*
Y348425D02*
D03*
Y356299D02*
D03*
Y364173D02*
D03*
Y269685D02*
D03*
X553150Y259842D02*
D03*
Y267717D02*
D03*
Y275590D02*
D03*
Y307087D02*
D03*
Y314961D02*
D03*
Y322835D02*
D03*
Y330709D02*
D03*
Y338583D02*
D03*
Y346457D02*
D03*
Y354331D02*
D03*
Y362205D02*
D03*
X559055Y263779D02*
D03*
Y271654D02*
D03*
Y279528D02*
D03*
Y303150D02*
D03*
Y311024D02*
D03*
Y318898D02*
D03*
Y326772D02*
D03*
Y334646D02*
D03*
Y342520D02*
D03*
Y350394D02*
D03*
Y358268D02*
D03*
X564961Y362205D02*
D03*
Y354331D02*
D03*
Y346457D02*
D03*
Y338583D02*
D03*
Y330709D02*
D03*
Y322835D02*
D03*
Y314961D02*
D03*
Y307087D02*
D03*
Y299213D02*
D03*
Y291339D02*
D03*
Y283465D02*
D03*
Y275590D02*
D03*
Y267717D02*
D03*
Y259842D02*
D03*
X559055Y255906D02*
D03*
X478346Y362205D02*
D03*
X466535D02*
D03*
Y259842D02*
D03*
Y267717D02*
D03*
Y275590D02*
D03*
Y307087D02*
D03*
Y314961D02*
D03*
Y322835D02*
D03*
Y330709D02*
D03*
Y338583D02*
D03*
Y346457D02*
D03*
Y354331D02*
D03*
X472441Y263779D02*
D03*
Y271654D02*
D03*
Y279528D02*
D03*
Y303150D02*
D03*
Y311024D02*
D03*
Y318898D02*
D03*
Y326772D02*
D03*
Y334646D02*
D03*
Y342520D02*
D03*
Y350394D02*
D03*
Y358268D02*
D03*
X478346Y354331D02*
D03*
Y346457D02*
D03*
Y338583D02*
D03*
Y330709D02*
D03*
Y322835D02*
D03*
Y314961D02*
D03*
Y307087D02*
D03*
Y299213D02*
D03*
Y291339D02*
D03*
Y283465D02*
D03*
Y275590D02*
D03*
Y267717D02*
D03*
Y259842D02*
D03*
X472441Y255906D02*
D03*
X604800Y194100D02*
D03*
Y184600D02*
D03*
Y175100D02*
D03*
Y165500D02*
D03*
X518100Y174900D02*
D03*
X518200Y184500D02*
D03*
X518100Y194100D02*
D03*
X431600Y214800D02*
D03*
Y224900D02*
D03*
X431400Y234200D02*
D03*
Y243500D02*
D03*
X431600Y175600D02*
D03*
Y184600D02*
D03*
Y194100D02*
D03*
X518200Y215100D02*
D03*
Y224700D02*
D03*
Y233900D02*
D03*
Y243400D02*
D03*
X604800Y224600D02*
D03*
Y215100D02*
D03*
Y234200D02*
D03*
Y242900D02*
D03*
X580709Y190945D02*
D03*
Y163386D02*
D03*
X593504Y177165D02*
D03*
Y170276D02*
D03*
Y184055D02*
D03*
Y190945D02*
D03*
Y163386D02*
D03*
X587598Y170276D02*
D03*
Y177165D02*
D03*
Y184055D02*
D03*
Y190945D02*
D03*
Y163386D02*
D03*
X580709Y170276D02*
D03*
Y177165D02*
D03*
Y184055D02*
D03*
X606299Y301181D02*
D03*
Y328740D02*
D03*
X593504Y314961D02*
D03*
Y321850D02*
D03*
Y308071D02*
D03*
Y301181D02*
D03*
Y328740D02*
D03*
X599409Y321850D02*
D03*
Y314961D02*
D03*
Y308071D02*
D03*
Y301181D02*
D03*
Y328740D02*
D03*
X606299Y321850D02*
D03*
Y314961D02*
D03*
Y308071D02*
D03*
X613189D02*
D03*
Y314961D02*
D03*
Y321850D02*
D03*
Y301181D02*
D03*
Y328740D02*
D03*
X580709Y238189D02*
D03*
Y210630D02*
D03*
X593504Y224410D02*
D03*
Y217520D02*
D03*
Y231299D02*
D03*
Y238189D02*
D03*
Y210630D02*
D03*
X587598Y217520D02*
D03*
Y224410D02*
D03*
Y231299D02*
D03*
Y238189D02*
D03*
Y210630D02*
D03*
X580709Y217520D02*
D03*
Y224410D02*
D03*
Y231299D02*
D03*
X606299Y253937D02*
D03*
Y281496D02*
D03*
X593504Y267717D02*
D03*
Y274606D02*
D03*
Y260827D02*
D03*
Y281496D02*
D03*
X599409Y274606D02*
D03*
Y267717D02*
D03*
Y260827D02*
D03*
Y253937D02*
D03*
Y281496D02*
D03*
X606299Y274606D02*
D03*
Y267717D02*
D03*
Y260827D02*
D03*
X613189D02*
D03*
Y267717D02*
D03*
Y274606D02*
D03*
Y253937D02*
D03*
Y281496D02*
D03*
X494095Y190945D02*
D03*
Y163386D02*
D03*
X506890Y177165D02*
D03*
Y170276D02*
D03*
Y184055D02*
D03*
Y190945D02*
D03*
Y163386D02*
D03*
X500984Y170276D02*
D03*
Y177165D02*
D03*
Y184055D02*
D03*
Y190945D02*
D03*
Y163386D02*
D03*
X494095Y170276D02*
D03*
Y177165D02*
D03*
Y184055D02*
D03*
X519685Y301181D02*
D03*
Y328740D02*
D03*
X506890Y314961D02*
D03*
Y321850D02*
D03*
Y308071D02*
D03*
Y301181D02*
D03*
Y328740D02*
D03*
X512795Y321850D02*
D03*
Y314961D02*
D03*
Y308071D02*
D03*
Y301181D02*
D03*
Y328740D02*
D03*
X519685Y321850D02*
D03*
Y314961D02*
D03*
Y308071D02*
D03*
X526575D02*
D03*
Y314961D02*
D03*
Y321850D02*
D03*
Y301181D02*
D03*
Y328740D02*
D03*
X494095Y238189D02*
D03*
Y210630D02*
D03*
X506890Y224410D02*
D03*
Y217520D02*
D03*
Y231299D02*
D03*
Y238189D02*
D03*
Y210630D02*
D03*
X500984Y217520D02*
D03*
Y224409D02*
D03*
Y231299D02*
D03*
Y238189D02*
D03*
Y210630D02*
D03*
X494095Y217520D02*
D03*
Y224409D02*
D03*
Y231299D02*
D03*
X519685Y253937D02*
D03*
Y281496D02*
D03*
X506890Y267717D02*
D03*
Y274606D02*
D03*
Y260827D02*
D03*
Y281496D02*
D03*
X512795Y274606D02*
D03*
Y267717D02*
D03*
Y260827D02*
D03*
Y253937D02*
D03*
Y281496D02*
D03*
X519685Y274606D02*
D03*
Y267717D02*
D03*
Y260827D02*
D03*
X526575D02*
D03*
Y267717D02*
D03*
Y274606D02*
D03*
Y253937D02*
D03*
Y281496D02*
D03*
X407480Y190945D02*
D03*
Y163386D02*
D03*
Y170276D02*
D03*
Y177165D02*
D03*
Y184055D02*
D03*
X400591D02*
D03*
Y177165D02*
D03*
Y170276D02*
D03*
Y190945D02*
D03*
Y163386D02*
D03*
X433071Y301181D02*
D03*
Y328740D02*
D03*
X420276Y314961D02*
D03*
Y321850D02*
D03*
Y308071D02*
D03*
Y301181D02*
D03*
Y328740D02*
D03*
X426181Y321850D02*
D03*
Y314961D02*
D03*
Y308071D02*
D03*
Y301181D02*
D03*
Y328740D02*
D03*
X433071Y321850D02*
D03*
Y314961D02*
D03*
Y308071D02*
D03*
X439961D02*
D03*
Y314961D02*
D03*
Y321850D02*
D03*
Y301181D02*
D03*
Y328740D02*
D03*
X407480Y238189D02*
D03*
Y210630D02*
D03*
Y217520D02*
D03*
Y224410D02*
D03*
Y231299D02*
D03*
X400591D02*
D03*
Y224410D02*
D03*
Y217520D02*
D03*
Y238189D02*
D03*
Y210630D02*
D03*
X433071Y253937D02*
D03*
Y281496D02*
D03*
X420276Y267717D02*
D03*
Y274606D02*
D03*
Y260827D02*
D03*
Y253937D02*
D03*
Y281496D02*
D03*
X426181Y274606D02*
D03*
Y267717D02*
D03*
Y260827D02*
D03*
Y253937D02*
D03*
Y281496D02*
D03*
X433071Y274606D02*
D03*
Y267717D02*
D03*
Y260827D02*
D03*
X439961D02*
D03*
Y267717D02*
D03*
Y274606D02*
D03*
Y253937D02*
D03*
Y281496D02*
D03*
X474409Y102362D02*
D03*
X480315D02*
D03*
X468504D02*
D03*
X462598D02*
D03*
X456693D02*
D03*
X450787D02*
D03*
X446850Y112205D02*
D03*
X452756D02*
D03*
X458661D02*
D03*
X464567D02*
D03*
X470472D02*
D03*
X482283D02*
D03*
X476378D02*
D03*
X482283Y153543D02*
D03*
X476378D02*
D03*
X470472D02*
D03*
X464567D02*
D03*
X458661D02*
D03*
X452756D02*
D03*
X566929Y102362D02*
D03*
X561024D02*
D03*
X555118D02*
D03*
X549213D02*
D03*
X543307D02*
D03*
X537402D02*
D03*
X551181Y112205D02*
D03*
X539370D02*
D03*
X533465D02*
D03*
X545276D02*
D03*
X557087D02*
D03*
X562992D02*
D03*
X568898D02*
D03*
Y153543D02*
D03*
X562992D02*
D03*
X557087D02*
D03*
X551181D02*
D03*
X545276D02*
D03*
X539370D02*
D03*
X533465D02*
D03*
X385827Y255906D02*
D03*
X391732Y259842D02*
D03*
Y267717D02*
D03*
Y275590D02*
D03*
Y283465D02*
D03*
Y291339D02*
D03*
Y299213D02*
D03*
Y307087D02*
D03*
Y314961D02*
D03*
Y322835D02*
D03*
Y330709D02*
D03*
Y338583D02*
D03*
Y346457D02*
D03*
Y354331D02*
D03*
Y362205D02*
D03*
X385827Y358268D02*
D03*
Y350394D02*
D03*
Y342520D02*
D03*
Y334646D02*
D03*
Y326772D02*
D03*
Y318898D02*
D03*
Y311024D02*
D03*
Y303150D02*
D03*
Y295276D02*
D03*
Y287402D02*
D03*
Y279528D02*
D03*
Y271654D02*
D03*
Y263779D02*
D03*
X379921Y362205D02*
D03*
Y354331D02*
D03*
Y346457D02*
D03*
Y338583D02*
D03*
Y330709D02*
D03*
Y322835D02*
D03*
Y314961D02*
D03*
Y307087D02*
D03*
Y299213D02*
D03*
Y291339D02*
D03*
Y283465D02*
D03*
Y275590D02*
D03*
Y267717D02*
D03*
Y259842D02*
D03*
X408465Y248031D02*
D03*
X495079Y257874D02*
D03*
Y248031D02*
D03*
X581693D02*
D03*
Y277559D02*
D03*
Y267717D02*
D03*
Y257874D02*
D03*
X408465Y277559D02*
D03*
Y267717D02*
D03*
Y257874D02*
D03*
X495079Y277559D02*
D03*
Y267717D02*
D03*
M02*
