G04*
G04 #@! TF.GenerationSoftware,Altium Limited,Altium Designer,18.0.12 (696)*
G04*
G04 Layer_Physical_Order=1*
G04 Layer_Color=255*
%FSLAX25Y25*%
%MOIN*%
G70*
G01*
G75*
%ADD13C,0.01000*%
%ADD51R,0.03543X0.03150*%
%ADD52R,0.03402X0.03098*%
%ADD53R,0.19685X0.07480*%
%ADD54O,0.02362X0.07480*%
%ADD55R,0.06102X0.04331*%
%ADD56R,0.06102X0.04331*%
%ADD57R,0.06102X0.13583*%
%ADD58R,0.03543X0.05118*%
%ADD59R,0.03150X0.03543*%
%ADD60R,0.02362X0.04528*%
%ADD61R,0.20472X0.05512*%
%ADD62R,0.11000X0.05500*%
%ADD63R,0.03098X0.03402*%
G04:AMPARAMS|DCode=64|XSize=110.24mil|YSize=39.37mil|CornerRadius=19.68mil|HoleSize=0mil|Usage=FLASHONLY|Rotation=90.000|XOffset=0mil|YOffset=0mil|HoleType=Round|Shape=RoundedRectangle|*
%AMROUNDEDRECTD64*
21,1,0.11024,0.00000,0,0,90.0*
21,1,0.07087,0.03937,0,0,90.0*
1,1,0.03937,0.00000,0.03544*
1,1,0.03937,0.00000,-0.03544*
1,1,0.03937,0.00000,-0.03544*
1,1,0.03937,0.00000,0.03544*
%
%ADD64ROUNDEDRECTD64*%
G04:AMPARAMS|DCode=65|XSize=23.62mil|YSize=66.93mil|CornerRadius=11.81mil|HoleSize=0mil|Usage=FLASHONLY|Rotation=0.000|XOffset=0mil|YOffset=0mil|HoleType=Round|Shape=RoundedRectangle|*
%AMROUNDEDRECTD65*
21,1,0.02362,0.04331,0,0,0.0*
21,1,0.00000,0.06693,0,0,0.0*
1,1,0.02362,0.00000,-0.02166*
1,1,0.02362,0.00000,-0.02166*
1,1,0.02362,0.00000,0.02166*
1,1,0.02362,0.00000,0.02166*
%
%ADD65ROUNDEDRECTD65*%
%ADD66R,0.04528X0.02362*%
%ADD67R,0.04331X0.06102*%
%ADD68R,0.04331X0.06102*%
%ADD69R,0.13583X0.06102*%
%ADD70R,0.05512X0.03937*%
%ADD71R,0.04724X0.01181*%
%ADD72R,0.01181X0.04724*%
%ADD73R,0.08661X0.02362*%
G04:AMPARAMS|DCode=74|XSize=27.56mil|YSize=70.87mil|CornerRadius=4.13mil|HoleSize=0mil|Usage=FLASHONLY|Rotation=0.000|XOffset=0mil|YOffset=0mil|HoleType=Round|Shape=RoundedRectangle|*
%AMROUNDEDRECTD74*
21,1,0.02756,0.06260,0,0,0.0*
21,1,0.01929,0.07087,0,0,0.0*
1,1,0.00827,0.00965,-0.03130*
1,1,0.00827,-0.00965,-0.03130*
1,1,0.00827,-0.00965,0.03130*
1,1,0.00827,0.00965,0.03130*
%
%ADD74ROUNDEDRECTD74*%
G04:AMPARAMS|DCode=75|XSize=62.99mil|YSize=78.74mil|CornerRadius=15.75mil|HoleSize=0mil|Usage=FLASHONLY|Rotation=180.000|XOffset=0mil|YOffset=0mil|HoleType=Round|Shape=RoundedRectangle|*
%AMROUNDEDRECTD75*
21,1,0.06299,0.04724,0,0,180.0*
21,1,0.03150,0.07874,0,0,180.0*
1,1,0.03150,-0.01575,0.02362*
1,1,0.03150,0.01575,0.02362*
1,1,0.03150,0.01575,-0.02362*
1,1,0.03150,-0.01575,-0.02362*
%
%ADD75ROUNDEDRECTD75*%
%ADD76R,0.10236X0.04331*%
%ADD77R,0.02400X0.06000*%
%ADD78C,0.02000*%
%ADD79R,0.03700X0.03200*%
%ADD80R,0.03200X0.03700*%
%ADD81R,0.03500X0.39600*%
%ADD82R,0.10700X0.17500*%
%ADD83R,0.07900X0.36300*%
%ADD84R,0.09300X0.12500*%
%ADD85R,0.13000X0.09000*%
%ADD86R,0.29000X0.10900*%
%ADD87R,0.05800X0.18500*%
%ADD88R,0.03000X0.91500*%
%ADD89R,1.74000X0.05000*%
%ADD90R,0.07500X0.07500*%
%ADD91R,0.07500X0.08500*%
%ADD92R,0.07000X0.08000*%
%ADD93R,0.12000X0.14500*%
%ADD94R,0.07000X0.05500*%
%ADD95C,0.05906*%
%ADD96R,0.05906X0.05906*%
%ADD97C,0.23600*%
%ADD98C,0.02362*%
%ADD99C,0.03937*%
G36*
X355786Y343709D02*
X355324Y343517D01*
X353524Y345318D01*
X353127Y345583D01*
X352659Y345676D01*
X284473D01*
X284206Y346176D01*
X284266Y346267D01*
X355786D01*
Y343709D01*
D02*
G37*
G36*
X491890Y340667D02*
X491390Y340430D01*
X490813Y340873D01*
X489924Y341241D01*
X488971Y341367D01*
X488017Y341241D01*
X487129Y340873D01*
X486366Y340288D01*
X485780Y339525D01*
X485412Y338636D01*
X485287Y337683D01*
X485412Y336729D01*
X485780Y335841D01*
X486366Y335078D01*
X487129Y334492D01*
X488017Y334124D01*
X488971Y333998D01*
X489924Y334124D01*
X490813Y334492D01*
X491390Y334935D01*
X491890Y334698D01*
Y312968D01*
X490682Y311759D01*
X487402D01*
Y305664D01*
X486297D01*
X486000Y305724D01*
X485532Y305630D01*
X485135Y305365D01*
X484944Y305174D01*
X484472Y305409D01*
Y311759D01*
X484214D01*
Y342500D01*
X484159Y342773D01*
X484005Y343005D01*
X483773Y343159D01*
X483500Y343214D01*
X455000D01*
X454727Y343159D01*
X454495Y343005D01*
X454341Y342773D01*
X454286Y342500D01*
Y297000D01*
X454341Y296727D01*
X454495Y296495D01*
X472495Y278495D01*
X472727Y278341D01*
X473000Y278286D01*
X475147D01*
X475338Y277824D01*
X473985Y276472D01*
X470969D01*
Y275223D01*
X468500D01*
X468032Y275130D01*
X467635Y274865D01*
X466635Y273865D01*
X466370Y273468D01*
X466277Y273000D01*
Y270440D01*
X465836Y270204D01*
X465734Y270272D01*
X465000Y270418D01*
X464266Y270272D01*
X463644Y269856D01*
X463228Y269234D01*
X463082Y268500D01*
X463228Y267766D01*
X463644Y267144D01*
X463776Y267055D01*
Y249256D01*
X461781Y247261D01*
X461320Y247507D01*
X461418Y248000D01*
X461272Y248734D01*
X460856Y249356D01*
X460234Y249772D01*
X459500Y249918D01*
X458766Y249772D01*
X458516Y249605D01*
X456014D01*
X455546Y249512D01*
X455149Y249246D01*
X454707Y248805D01*
X452810D01*
X452341Y248711D01*
X451944Y248446D01*
X451622Y248124D01*
X441507D01*
X440024Y249606D01*
Y251702D01*
X439931Y252170D01*
X439666Y252567D01*
X437967Y254265D01*
X437570Y254531D01*
X437102Y254624D01*
X431911D01*
X430556Y255978D01*
X430605Y256476D01*
X430856Y256644D01*
X431272Y257266D01*
X431418Y258000D01*
X431272Y258734D01*
X430856Y259356D01*
X430234Y259772D01*
X429705Y259877D01*
Y260503D01*
X429695Y260551D01*
Y261014D01*
X429869Y261151D01*
X430195Y261322D01*
X430381Y261285D01*
X431882D01*
X432400Y261182D01*
X432918Y261285D01*
X434081D01*
X434354Y261339D01*
X434586Y261494D01*
X434740Y261726D01*
X434795Y261999D01*
Y265199D01*
X434740Y265472D01*
X434586Y265703D01*
X434354Y265858D01*
X434081Y265913D01*
X430381D01*
X430195Y265876D01*
X429869Y266047D01*
X429695Y266184D01*
Y295730D01*
X430567Y296602D01*
X434601D01*
Y297628D01*
X435799D01*
Y296602D01*
X440601D01*
Y301100D01*
X435799D01*
Y300075D01*
X434601D01*
Y301100D01*
X433424D01*
Y302300D01*
X434501D01*
Y306798D01*
X429699D01*
Y302300D01*
X430976D01*
Y301100D01*
X429799D01*
Y299295D01*
X427606Y297102D01*
X427521Y296975D01*
X427021Y297126D01*
Y300693D01*
X425179D01*
Y302028D01*
X426231D01*
Y306972D01*
X421681D01*
Y302028D01*
X422732D01*
Y298913D01*
X422825Y298445D01*
X423091Y298048D01*
X423259Y297880D01*
Y294765D01*
X426748D01*
X427021Y294765D01*
X427248Y294359D01*
Y261716D01*
X426786Y261524D01*
X425005Y263305D01*
Y264386D01*
X424911Y264855D01*
X424646Y265251D01*
X423251Y266646D01*
X422855Y266912D01*
X422386Y267005D01*
X420414D01*
X419945Y266912D01*
X419549Y266646D01*
X419298Y266395D01*
X418734Y266772D01*
X418000Y266918D01*
X417342Y266787D01*
X417152Y266848D01*
X416818Y267074D01*
X416749Y267417D01*
X416484Y267814D01*
X416433Y267865D01*
X416036Y268130D01*
X415567Y268224D01*
X413772D01*
Y270119D01*
X409558D01*
X409528Y270161D01*
X409410Y270412D01*
X409361Y270619D01*
X409367Y270628D01*
X409412Y270670D01*
X409444Y270743D01*
X409488Y270808D01*
X409500Y270869D01*
X409525Y270925D01*
X409527Y271004D01*
X409542Y271081D01*
X413772D01*
Y272132D01*
X413956D01*
X414424Y272225D01*
X414821Y272491D01*
X417707Y275377D01*
X419253D01*
X419722Y275470D01*
X420119Y275735D01*
X422265Y277881D01*
X422530Y278278D01*
X422623Y278747D01*
Y285907D01*
X423281D01*
Y291835D01*
X420214D01*
Y301500D01*
X420208Y301528D01*
X420213Y301585D01*
X420515Y301989D01*
X420580Y302028D01*
X420719D01*
Y306972D01*
X416169D01*
Y305664D01*
X405845D01*
Y308520D01*
X408349Y311024D01*
X408725Y311586D01*
X408857Y312250D01*
Y335611D01*
X408932Y335651D01*
X409357Y335740D01*
X409866Y335078D01*
X410629Y334492D01*
X411427Y334161D01*
Y312350D01*
X411520Y311881D01*
X411785Y311485D01*
X413484Y309786D01*
X413881Y309521D01*
X414349Y309428D01*
X429699D01*
Y308402D01*
X434501D01*
Y312900D01*
X429699D01*
Y311875D01*
X414856D01*
X413874Y312856D01*
Y334310D01*
X414313Y334492D01*
X415076Y335078D01*
X415661Y335841D01*
X416030Y336729D01*
X416155Y337683D01*
X416030Y338636D01*
X415661Y339525D01*
X415076Y340288D01*
X414313Y340873D01*
X413424Y341241D01*
X412471Y341367D01*
X411517Y341241D01*
X410629Y340873D01*
X409866Y340288D01*
X409357Y339625D01*
X408932Y339714D01*
X408857Y339755D01*
Y344786D01*
X491890D01*
Y340667D01*
D02*
G37*
G36*
X405390D02*
X404890Y340430D01*
X404313Y340873D01*
X403424Y341241D01*
X402471Y341367D01*
X401517Y341241D01*
X400629Y340873D01*
X399866Y340288D01*
X399280Y339525D01*
X398912Y338636D01*
X398787Y337683D01*
X398912Y336729D01*
X399280Y335841D01*
X399866Y335078D01*
X400629Y334492D01*
X401517Y334124D01*
X402471Y333998D01*
X403424Y334124D01*
X404313Y334492D01*
X404890Y334935D01*
X405390Y334698D01*
Y312968D01*
X404182Y311759D01*
X400903D01*
Y305664D01*
X399797D01*
X399500Y305724D01*
X399032Y305630D01*
X398635Y305365D01*
X398444Y305174D01*
X397972Y305409D01*
Y311759D01*
X397714D01*
Y342500D01*
X397659Y342773D01*
X397505Y343005D01*
X397273Y343159D01*
X397000Y343214D01*
X368500D01*
X368227Y343159D01*
X367995Y343005D01*
X367841Y342773D01*
X367786Y342500D01*
Y297000D01*
X367841Y296727D01*
X367995Y296495D01*
X385995Y278495D01*
X386227Y278341D01*
X386500Y278286D01*
X397000D01*
X397095Y278208D01*
Y271681D01*
X397188Y271213D01*
X397454Y270816D01*
X399635Y268635D01*
X400032Y268370D01*
X400500Y268277D01*
X402628D01*
Y265569D01*
X406700D01*
X408635Y263635D01*
X409032Y263370D01*
X409500Y263277D01*
X410833D01*
X411035Y262776D01*
X410857Y262605D01*
X406281D01*
X405813Y262511D01*
X405416Y262246D01*
X405252Y262082D01*
X404870Y262198D01*
X404742Y262279D01*
X404356Y262856D01*
X403734Y263272D01*
X403000Y263418D01*
X402266Y263272D01*
X401644Y262856D01*
X401228Y262234D01*
X401191Y262047D01*
X400648Y261882D01*
X400300Y262230D01*
Y264901D01*
X396096D01*
Y265127D01*
X396003Y265595D01*
X395738Y265992D01*
X394887Y266844D01*
X394918Y267000D01*
X394772Y267734D01*
X394356Y268356D01*
X393734Y268772D01*
X393000Y268918D01*
X392266Y268772D01*
X391644Y268356D01*
X391228Y267734D01*
X391082Y267000D01*
X391228Y266266D01*
X391644Y265644D01*
X392266Y265228D01*
X393000Y265082D01*
X393157Y265113D01*
X393650Y264620D01*
Y254403D01*
X393583D01*
Y248279D01*
X393650D01*
Y247086D01*
X393306Y246856D01*
X393181Y246669D01*
X392684Y246622D01*
X392572Y246658D01*
X391413Y247817D01*
X391605Y248279D01*
X392227D01*
Y254403D01*
X389725D01*
Y256998D01*
X389632Y257466D01*
X389367Y257863D01*
X388965Y258265D01*
X388568Y258530D01*
X388100Y258624D01*
X387398D01*
Y259801D01*
X382900D01*
Y258624D01*
X382400D01*
X381932Y258530D01*
X381703Y258378D01*
X381500Y258418D01*
X380766Y258272D01*
X380144Y257856D01*
X379728Y257234D01*
X379582Y256500D01*
X379728Y255766D01*
X380144Y255144D01*
X380244Y255077D01*
X380307Y254433D01*
X379937Y254063D01*
X379672Y253666D01*
X379578Y253198D01*
Y249913D01*
X378988Y249323D01*
X375205D01*
X374223Y250305D01*
Y251393D01*
X376865Y254035D01*
X377130Y254432D01*
X377223Y254900D01*
Y256397D01*
X379165Y258339D01*
X379430Y258736D01*
X379523Y259204D01*
Y278593D01*
X379985Y278784D01*
X382977Y275793D01*
Y267800D01*
X383070Y267332D01*
X383335Y266935D01*
X385052Y265218D01*
X384728Y264734D01*
X384582Y264000D01*
X384728Y263266D01*
X385144Y262644D01*
X385766Y262228D01*
X386500Y262082D01*
X387234Y262228D01*
X387856Y262644D01*
X388272Y263266D01*
X388418Y264000D01*
X388272Y264734D01*
X387856Y265356D01*
X387723Y265445D01*
Y265500D01*
X387630Y265968D01*
X387365Y266365D01*
X385423Y268307D01*
Y276300D01*
X385330Y276768D01*
X385065Y277165D01*
X365921Y296310D01*
Y329993D01*
X366065Y330138D01*
X366330Y330535D01*
X366424Y331003D01*
Y340497D01*
X366330Y340965D01*
X366065Y341362D01*
X365362Y342065D01*
X364965Y342330D01*
X364935Y342370D01*
X364693Y342894D01*
X364714Y343000D01*
Y344786D01*
X405390D01*
Y340667D01*
D02*
G37*
G36*
X322287Y342767D02*
X320272Y340753D01*
X319896Y340191D01*
X319788Y339648D01*
X319591Y339557D01*
X319475Y339533D01*
X319268Y339537D01*
X318756Y340205D01*
X317992Y340791D01*
X317104Y341159D01*
X316150Y341284D01*
X315197Y341159D01*
X314308Y340791D01*
X313545Y340205D01*
X312960Y339442D01*
X312592Y338554D01*
X312466Y337600D01*
X312592Y336646D01*
X312960Y335758D01*
X313545Y334995D01*
X314308Y334409D01*
X315197Y334041D01*
X316150Y333916D01*
X317104Y334041D01*
X317992Y334409D01*
X318756Y334995D01*
X319264Y335658D01*
X319690Y335568D01*
X319764Y335528D01*
Y313842D01*
X317682Y311759D01*
X314403D01*
Y305664D01*
X313441D01*
X312973Y305571D01*
X312576Y305306D01*
X311990Y304721D01*
X311426Y304864D01*
X311368Y305059D01*
X311472Y305241D01*
X311472D01*
Y311759D01*
X311214D01*
Y342500D01*
X311168Y342729D01*
X311178Y342801D01*
X311456Y343229D01*
X322095D01*
X322287Y342767D01*
D02*
G37*
G36*
X526786Y301100D02*
X522299D01*
Y300075D01*
X521101D01*
Y301100D01*
X519923D01*
Y302300D01*
X521001D01*
Y306798D01*
X516199D01*
Y302300D01*
X517477D01*
Y301100D01*
X516299D01*
Y298181D01*
X514934Y296815D01*
X514669Y296419D01*
X514576Y295950D01*
Y291334D01*
X510243Y287001D01*
X509781Y287192D01*
Y291835D01*
X506714D01*
Y301500D01*
X506708Y301528D01*
X506713Y301585D01*
X507015Y301989D01*
X507080Y302028D01*
X507219D01*
Y306972D01*
X502669D01*
Y305664D01*
X492346D01*
Y308520D01*
X494849Y311024D01*
X495225Y311586D01*
X495357Y312250D01*
Y335611D01*
X495432Y335651D01*
X495857Y335740D01*
X496366Y335078D01*
X497129Y334492D01*
X497927Y334161D01*
Y312350D01*
X498020Y311881D01*
X498285Y311485D01*
X499984Y309786D01*
X500381Y309521D01*
X500849Y309428D01*
X516199D01*
Y308402D01*
X521001D01*
Y312900D01*
X516199D01*
Y311875D01*
X501356D01*
X500374Y312856D01*
Y334310D01*
X500813Y334492D01*
X501576Y335078D01*
X502162Y335841D01*
X502530Y336729D01*
X502655Y337683D01*
X502530Y338636D01*
X502162Y339525D01*
X501576Y340288D01*
X500813Y340873D01*
X499924Y341241D01*
X498971Y341367D01*
X498017Y341241D01*
X497129Y340873D01*
X496366Y340288D01*
X495857Y339625D01*
X495432Y339714D01*
X495357Y339755D01*
Y344786D01*
X526786D01*
Y301100D01*
D02*
G37*
G36*
X355786Y335762D02*
Y331500D01*
X355841Y331227D01*
X355995Y330995D01*
X356227Y330841D01*
X356500Y330786D01*
X363239D01*
X363474Y330500D01*
Y296810D01*
X363012Y296619D01*
X360963Y298667D01*
X360566Y298932D01*
X360098Y299026D01*
X354101D01*
Y301100D01*
X349299D01*
Y300075D01*
X348101D01*
Y301100D01*
X346923D01*
Y302300D01*
X348001D01*
Y306798D01*
X343199D01*
Y302300D01*
X344477D01*
Y301100D01*
X343299D01*
Y296602D01*
X348101D01*
Y297628D01*
X349299D01*
Y296602D01*
X352631D01*
X352749Y296579D01*
X359591D01*
X377077Y279093D01*
Y259711D01*
X375135Y257769D01*
X374870Y257372D01*
X374777Y256904D01*
Y255407D01*
X372134Y252765D01*
X371869Y252368D01*
X371776Y251900D01*
Y249798D01*
X371869Y249330D01*
X372134Y248933D01*
X373833Y247234D01*
X374230Y246969D01*
X374698Y246876D01*
X376555D01*
X376823Y246376D01*
X376728Y246234D01*
X376582Y245500D01*
X376721Y244800D01*
X376719Y244752D01*
X376438Y244300D01*
X372099D01*
Y243724D01*
X371436D01*
Y245999D01*
X364524D01*
Y240662D01*
X371436D01*
Y241277D01*
X372099D01*
Y239921D01*
X357548D01*
X357080Y239828D01*
X356683Y239563D01*
X354458Y237338D01*
X349564D01*
Y237172D01*
X348901D01*
Y238198D01*
X344823D01*
Y253099D01*
X344730Y253567D01*
X344464Y253964D01*
X335063Y263365D01*
X334666Y263631D01*
X334197Y263724D01*
X328106D01*
X326723Y265107D01*
X326914Y265569D01*
X327272D01*
Y268563D01*
X327772Y268844D01*
X328112Y268776D01*
X332000D01*
X332468Y268870D01*
X332865Y269135D01*
X334365Y270635D01*
X334630Y271032D01*
X334723Y271500D01*
Y274993D01*
X335765Y276035D01*
X336030Y276432D01*
X336123Y276900D01*
Y285907D01*
X336781D01*
Y291835D01*
X333714D01*
Y301500D01*
X333708Y301528D01*
X333713Y301585D01*
X334015Y301989D01*
X334080Y302028D01*
X334219D01*
Y306972D01*
X329669D01*
Y305664D01*
X319345D01*
Y308520D01*
X322723Y311898D01*
X323099Y312460D01*
X323231Y313124D01*
Y334615D01*
X323731Y334852D01*
X324308Y334409D01*
X324927Y334153D01*
Y312350D01*
X325020Y311881D01*
X325285Y311485D01*
X326984Y309786D01*
X327381Y309521D01*
X327849Y309428D01*
X343199D01*
Y308402D01*
X348001D01*
Y312900D01*
X343199D01*
Y311875D01*
X328356D01*
X327374Y312856D01*
Y334153D01*
X327993Y334409D01*
X328756Y334995D01*
X329341Y335758D01*
X329709Y336646D01*
X329835Y337600D01*
X329709Y338554D01*
X329341Y339442D01*
X328898Y340019D01*
X329135Y340519D01*
X351029D01*
X355786Y335762D01*
D02*
G37*
G36*
X483500Y311759D02*
X479529D01*
Y311714D01*
X476500D01*
X476227Y311659D01*
X475995Y311505D01*
X475841Y311273D01*
X475786Y311000D01*
Y309221D01*
X475782Y309200D01*
X475786Y309179D01*
Y305500D01*
X475841Y305227D01*
X475995Y304995D01*
X476227Y304841D01*
X476500Y304786D01*
X477376D01*
X477900Y304682D01*
X478424Y304786D01*
X483500D01*
Y279230D01*
X483270Y279000D01*
X473000D01*
X455000Y297000D01*
Y342500D01*
X483500D01*
Y311759D01*
D02*
G37*
G36*
X397000D02*
X393028D01*
Y311714D01*
X390000D01*
X389727Y311659D01*
X389495Y311505D01*
X389341Y311273D01*
X389286Y311000D01*
Y305500D01*
X389341Y305227D01*
X389495Y304995D01*
X389727Y304841D01*
X390000Y304786D01*
X390879D01*
X390966Y304728D01*
X391700Y304582D01*
X392434Y304728D01*
X392521Y304786D01*
X397000D01*
Y279000D01*
X386500D01*
X368500Y297000D01*
Y342500D01*
X397000D01*
Y311759D01*
D02*
G37*
G36*
X310500D02*
X306528D01*
Y311714D01*
X303500D01*
X303227Y311659D01*
X302995Y311505D01*
X302841Y311273D01*
X302786Y311000D01*
Y305500D01*
X302841Y305227D01*
X302995Y304995D01*
X303227Y304841D01*
X303500Y304786D01*
X305179D01*
X305200Y304782D01*
X305221Y304786D01*
X310500D01*
Y279000D01*
X300000D01*
X293114Y285886D01*
Y294447D01*
X293153D01*
Y301753D01*
X292683D01*
X292673Y301759D01*
X292400Y301814D01*
X286600D01*
X286327Y301759D01*
X286317Y301753D01*
X285847D01*
Y294447D01*
X285886D01*
Y293767D01*
X285424Y293576D01*
X282706Y296294D01*
X283059Y297146D01*
X283184Y298100D01*
X283059Y299054D01*
X282691Y299942D01*
X282105Y300705D01*
X282000Y300786D01*
Y341970D01*
X282530Y342500D01*
X310500D01*
Y311759D01*
D02*
G37*
G36*
X522299Y296602D02*
X526786D01*
Y276214D01*
X510649Y276214D01*
X510252Y276632D01*
Y283549D01*
X516664Y289962D01*
X516930Y290358D01*
X517023Y290827D01*
Y295444D01*
X518181Y296602D01*
X521101D01*
Y297628D01*
X522299D01*
Y296602D01*
D02*
G37*
G36*
X416169Y302028D02*
X418972D01*
X419500Y301500D01*
Y278577D01*
X418747Y277823D01*
X417200D01*
X416732Y277730D01*
X416335Y277465D01*
X414234Y275364D01*
X413772Y275555D01*
Y275631D01*
X412723D01*
Y277055D01*
X412856Y277144D01*
X413272Y277766D01*
X413418Y278500D01*
X413272Y279234D01*
X412856Y279856D01*
X412234Y280272D01*
X411500Y280418D01*
X410766Y280272D01*
X410144Y279856D01*
X409728Y279234D01*
X409582Y278500D01*
X409728Y277766D01*
X410144Y277144D01*
X410277Y277055D01*
Y275631D01*
X408828D01*
Y271081D01*
X408362Y271000D01*
X408038D01*
X407572Y271500D01*
Y275631D01*
X406223D01*
Y276555D01*
X406356Y276644D01*
X406772Y277266D01*
X406918Y278000D01*
X406772Y278734D01*
X406356Y279356D01*
X405734Y279772D01*
X405000Y279918D01*
X404266Y279772D01*
X403644Y279356D01*
X403228Y278734D01*
X403082Y278000D01*
X403228Y277266D01*
X403644Y276644D01*
X403777Y276555D01*
Y275631D01*
X402628D01*
X402628Y271081D01*
X402162Y271000D01*
X400730D01*
X399542Y272188D01*
Y302812D01*
X399948Y303218D01*
X416169D01*
Y302028D01*
D02*
G37*
G36*
X476481Y274853D02*
Y271528D01*
X481031D01*
Y272777D01*
X484786D01*
Y271223D01*
X483000D01*
X482532Y271130D01*
X482135Y270865D01*
X481493Y270223D01*
X481031Y270414D01*
Y270972D01*
X476481D01*
Y266028D01*
X479645D01*
X479836Y265566D01*
X479493Y265224D01*
X477500D01*
X477032Y265130D01*
X476635Y264865D01*
X469185Y257416D01*
X468723Y257607D01*
Y266560D01*
X469165Y266796D01*
X469266Y266728D01*
X470000Y266582D01*
X470469Y266675D01*
X470969Y266330D01*
Y266028D01*
X475519D01*
Y270972D01*
X470969D01*
Y270670D01*
X470469Y270325D01*
X470000Y270418D01*
X469266Y270272D01*
X469165Y270204D01*
X468723Y270440D01*
Y272493D01*
X469007Y272777D01*
X470969D01*
Y271528D01*
X475519D01*
Y274545D01*
X476019Y275045D01*
X476481Y274853D01*
D02*
G37*
G36*
X502669Y302028D02*
X505472D01*
X506000Y301500D01*
Y276730D01*
X500493Y271223D01*
X499224D01*
Y277055D01*
X499356Y277144D01*
X499772Y277766D01*
X499918Y278500D01*
X499772Y279234D01*
X499356Y279856D01*
X498734Y280272D01*
X498000Y280418D01*
X497266Y280272D01*
X496644Y279856D01*
X496228Y279234D01*
X496082Y278500D01*
X496228Y277766D01*
X496644Y277144D01*
X496776Y277055D01*
Y271223D01*
X485500D01*
Y272777D01*
X487500D01*
X487968Y272870D01*
X488365Y273135D01*
X491343Y276113D01*
X491500Y276082D01*
X492234Y276228D01*
X492856Y276644D01*
X493272Y277266D01*
X493418Y278000D01*
X493272Y278734D01*
X492856Y279356D01*
X492234Y279772D01*
X491500Y279918D01*
X490766Y279772D01*
X490144Y279356D01*
X489728Y278734D01*
X489582Y278000D01*
X489613Y277843D01*
X486993Y275223D01*
X485500D01*
Y277770D01*
X485684Y277954D01*
X485949Y278351D01*
X486042Y278819D01*
Y302812D01*
X486448Y303218D01*
X502669D01*
Y302028D01*
D02*
G37*
G36*
X329669D02*
X332472D01*
X333000Y301500D01*
Y276730D01*
X332635Y276365D01*
X332370Y275968D01*
X332277Y275500D01*
Y272007D01*
X331493Y271223D01*
X328619D01*
X328058Y271784D01*
X327721Y272009D01*
X327272Y272459D01*
Y275631D01*
X326223D01*
Y277055D01*
X326356Y277144D01*
X326772Y277766D01*
X326918Y278500D01*
X326772Y279234D01*
X326356Y279856D01*
X325734Y280272D01*
X325000Y280418D01*
X324266Y280272D01*
X323644Y279856D01*
X323228Y279234D01*
X323082Y278500D01*
X323228Y277766D01*
X323644Y277144D01*
X323777Y277055D01*
Y275631D01*
X322328D01*
Y271081D01*
X321862Y271000D01*
X321538D01*
X321072Y271500D01*
Y275631D01*
X319724D01*
Y276555D01*
X319856Y276644D01*
X320272Y277266D01*
X320418Y278000D01*
X320272Y278734D01*
X319856Y279356D01*
X319234Y279772D01*
X318500Y279918D01*
X317766Y279772D01*
X317144Y279356D01*
X316728Y278734D01*
X316582Y278000D01*
X316728Y277266D01*
X317144Y276644D01*
X317277Y276555D01*
Y275631D01*
X316128D01*
X316128Y271081D01*
X315662Y271000D01*
X313042D01*
Y302312D01*
X313948Y303218D01*
X329669D01*
Y302028D01*
D02*
G37*
G36*
X530500Y275500D02*
Y255000D01*
X527691D01*
X527637Y255273D01*
X527482Y255505D01*
X527250Y255659D01*
X526977Y255714D01*
X500714Y255714D01*
X500441Y255659D01*
X500357Y255603D01*
X500273Y255659D01*
X500000Y255714D01*
X481451D01*
X481178Y255659D01*
X481000Y255540D01*
X480637Y255633D01*
X480500Y255690D01*
Y262891D01*
X480865Y263135D01*
X484257Y266527D01*
X501750D01*
X502218Y266620D01*
X502615Y266885D01*
X509894Y274163D01*
X510159Y274560D01*
X510252Y275028D01*
Y275103D01*
X510649Y275500D01*
X530500Y275500D01*
D02*
G37*
G36*
X416628Y248244D02*
X416839Y247779D01*
X416688Y247554D01*
X416595Y247086D01*
Y244181D01*
X416688Y243713D01*
X416954Y243316D01*
X417713Y242557D01*
X417682Y242400D01*
X417828Y241666D01*
X418244Y241044D01*
X418866Y240628D01*
X419600Y240482D01*
X420334Y240628D01*
X420956Y241044D01*
X421156Y241342D01*
X421656Y241190D01*
Y234886D01*
X416343Y229573D01*
X415882Y229819D01*
X415918Y230000D01*
X415772Y230734D01*
X415356Y231356D01*
X414734Y231772D01*
X414000Y231918D01*
X413266Y231772D01*
X412644Y231356D01*
X412555Y231224D01*
X406988D01*
X406520Y231130D01*
X406123Y230865D01*
X394694Y219437D01*
X394316Y219594D01*
X394223Y219673D01*
Y242133D01*
X394130Y242601D01*
X393865Y242998D01*
X393350Y243513D01*
X393668Y243902D01*
X393928Y243728D01*
X394662Y243582D01*
X395396Y243728D01*
X396018Y244144D01*
X396081Y244238D01*
X396581D01*
X396644Y244144D01*
X397266Y243728D01*
X398000Y243582D01*
X398734Y243728D01*
X399356Y244144D01*
X399772Y244766D01*
X399918Y245500D01*
X399772Y246234D01*
X399356Y246856D01*
X398734Y247272D01*
X398065Y247405D01*
Y248279D01*
X405461D01*
Y246082D01*
X405228Y245734D01*
X405082Y245000D01*
X405228Y244266D01*
X405644Y243644D01*
X406266Y243228D01*
X407000Y243082D01*
X407734Y243228D01*
X408356Y243644D01*
X408772Y244266D01*
X408918Y245000D01*
X408772Y245734D01*
X408356Y246356D01*
X407907Y246656D01*
Y248279D01*
X416589D01*
X416628Y248244D01*
D02*
G37*
G36*
X437512Y243258D02*
X437432Y242630D01*
X437335Y242565D01*
X435720Y240950D01*
X431203D01*
Y241018D01*
X425803D01*
Y242373D01*
X431203D01*
Y244211D01*
X431402Y244374D01*
X436395D01*
X437512Y243258D01*
D02*
G37*
G36*
X376774Y236892D02*
Y235824D01*
X376867Y235356D01*
X377132Y234959D01*
X378552Y233539D01*
X378361Y233077D01*
X373853D01*
X373385Y232983D01*
X372988Y232718D01*
X370493Y230223D01*
X367000D01*
X366532Y230130D01*
X366135Y229865D01*
X364435Y228165D01*
X364170Y227768D01*
X364096Y227400D01*
X362899D01*
Y222902D01*
X367701D01*
Y227350D01*
X367765Y227400D01*
X367820D01*
X368299Y226927D01*
Y222902D01*
X373101D01*
Y226371D01*
X375391Y228660D01*
X380197D01*
Y228593D01*
X386321D01*
Y228684D01*
X386673Y228754D01*
X387070Y229019D01*
X391315Y233263D01*
X391776Y233072D01*
Y222440D01*
X391336Y222204D01*
X391234Y222272D01*
X390500Y222418D01*
X389766Y222272D01*
X389144Y221856D01*
X388749Y221266D01*
X386321D01*
Y221333D01*
X380197D01*
Y221266D01*
X378601D01*
Y221298D01*
X373799D01*
Y220272D01*
X373101D01*
Y221298D01*
X368299D01*
Y216800D01*
X370572D01*
X370761Y216446D01*
X370793Y216300D01*
X370657Y215618D01*
X370803Y214884D01*
X370884Y214764D01*
X370648Y214323D01*
X364909D01*
X345994Y233238D01*
X346186Y233700D01*
X348901D01*
Y234725D01*
X349564D01*
Y232001D01*
X356476D01*
Y235895D01*
X358055Y237474D01*
X376191D01*
X376774Y236892D01*
D02*
G37*
G36*
X479786Y258238D02*
X477274Y255726D01*
X476899Y255163D01*
X476767Y254500D01*
Y223829D01*
X476305Y223638D01*
X469266Y230677D01*
X469512Y231046D01*
X469605Y231514D01*
Y233486D01*
X469512Y233955D01*
X469246Y234351D01*
X467851Y235746D01*
X467454Y236012D01*
X466986Y236105D01*
X465014D01*
X464545Y236012D01*
X464149Y235746D01*
X464126Y235723D01*
X463081D01*
X462924Y236224D01*
X463084Y236462D01*
X463356Y236644D01*
X463772Y237266D01*
X463918Y238000D01*
X463772Y238734D01*
X463356Y239356D01*
X463054Y239558D01*
X462983Y240194D01*
X470065Y247276D01*
X470330Y247673D01*
X470424Y248141D01*
Y255193D01*
X478007Y262776D01*
X479786D01*
Y258238D01*
D02*
G37*
G36*
X420191Y229337D02*
X420228Y229150D01*
X420644Y228528D01*
X421266Y228112D01*
X422000Y227966D01*
X422734Y228112D01*
X423356Y228528D01*
X423445Y228660D01*
X425079D01*
Y224657D01*
Y221266D01*
X422417D01*
X422356Y221356D01*
X421734Y221772D01*
X421000Y221918D01*
X420266Y221772D01*
X419644Y221356D01*
X419228Y220734D01*
X419082Y220000D01*
X419228Y219266D01*
X419644Y218644D01*
X420266Y218228D01*
X421000Y218082D01*
X421734Y218228D01*
X422356Y218644D01*
X422473Y218818D01*
X425079D01*
Y216782D01*
Y213569D01*
X424542D01*
X422865Y215246D01*
X422468Y215511D01*
X422000Y215605D01*
X414381D01*
X413913Y215511D01*
X413516Y215246D01*
X411635Y213365D01*
X411370Y212968D01*
X411276Y212500D01*
Y211807D01*
X410223Y210754D01*
X409724Y210961D01*
Y219493D01*
X419712Y229482D01*
X420191Y229337D01*
D02*
G37*
G36*
X500000Y223740D02*
X494957D01*
Y220000D01*
X485000D01*
X480500Y224000D01*
Y254049D01*
X481451Y255000D01*
X500000D01*
Y223740D01*
D02*
G37*
G36*
X530835Y351657D02*
X530500Y351214D01*
X356500D01*
X356227Y351159D01*
X355995Y351005D01*
X355841Y350773D01*
X355786Y350500D01*
Y349733D01*
X283189D01*
X282525Y349601D01*
X281963Y349226D01*
X277027Y344290D01*
X276651Y343727D01*
X276519Y343064D01*
Y304151D01*
X273622Y301253D01*
X273246Y300691D01*
X273114Y300027D01*
Y296173D01*
X273246Y295510D01*
X273622Y294947D01*
X277667Y290902D01*
Y288636D01*
X277558Y288591D01*
X276795Y288005D01*
X276209Y287242D01*
X275841Y286354D01*
X275716Y285400D01*
X275841Y284446D01*
X276209Y283558D01*
X276795Y282795D01*
X277558Y282209D01*
X278446Y281841D01*
X279400Y281716D01*
X280354Y281841D01*
X281242Y282209D01*
X282005Y282795D01*
X282591Y283558D01*
X282959Y284446D01*
X283084Y285400D01*
X282959Y286354D01*
X282591Y287242D01*
X282005Y288005D01*
X281242Y288591D01*
X281133Y288636D01*
Y291620D01*
X281001Y292283D01*
X280626Y292846D01*
X280626Y292846D01*
X279546Y293925D01*
X279732Y294446D01*
X280454Y294541D01*
X281342Y294909D01*
X282105Y295495D01*
X282472Y295519D01*
X284920Y293071D01*
X285151Y292916D01*
X285424Y292862D01*
X285698Y292916D01*
X286159Y293108D01*
X286391Y293262D01*
X286546Y293494D01*
X286600Y293767D01*
Y294447D01*
X286561Y294643D01*
Y301078D01*
X286670Y301100D01*
X292330D01*
X292439Y301078D01*
Y294643D01*
X292400Y294447D01*
Y285886D01*
X292454Y285613D01*
X292609Y285382D01*
X299495Y278495D01*
X299727Y278341D01*
X300000Y278286D01*
X310500D01*
X310595Y278208D01*
Y270181D01*
X310688Y269713D01*
X310954Y269316D01*
X313291Y266979D01*
X313688Y266714D01*
X314156Y266621D01*
X316128D01*
Y265569D01*
X319145D01*
X324779Y259935D01*
X325176Y259670D01*
X325644Y259577D01*
X332986D01*
X340676Y251887D01*
Y233198D01*
X340769Y232730D01*
X341034Y232333D01*
X362832Y210535D01*
X363229Y210270D01*
X363698Y210176D01*
X365831D01*
X366022Y209715D01*
X353531Y197223D01*
X328300D01*
Y198401D01*
X324525D01*
Y213799D01*
X326500D01*
Y218601D01*
X326424D01*
Y219561D01*
X328065D01*
Y219686D01*
X328700D01*
X328786Y219616D01*
Y217300D01*
X328841Y217027D01*
X328995Y216795D01*
X329227Y216641D01*
X329500Y216586D01*
X332199D01*
Y216402D01*
X337001D01*
Y216586D01*
X338800D01*
X339073Y216641D01*
X339305Y216795D01*
X339459Y217027D01*
X339514Y217300D01*
Y228079D01*
X339518Y228100D01*
X339514Y228121D01*
Y229800D01*
X339459Y230073D01*
X339305Y230305D01*
X339073Y230459D01*
X338800Y230514D01*
X329500D01*
X329414Y230585D01*
Y246136D01*
X332691D01*
Y253639D01*
X329414D01*
Y256700D01*
X329359Y256973D01*
X329205Y257205D01*
X328973Y257359D01*
X328700Y257414D01*
X320800D01*
X320527Y257359D01*
X320295Y257205D01*
X320141Y256973D01*
X320086Y256700D01*
Y253639D01*
X317709D01*
Y246136D01*
X320086D01*
Y220400D01*
X320141Y220127D01*
X320295Y219895D01*
X320527Y219741D01*
X320800Y219686D01*
X322335D01*
Y219561D01*
X323976D01*
Y218601D01*
X322002D01*
Y213799D01*
X322078D01*
Y192401D01*
X317700D01*
Y189481D01*
X309942Y181723D01*
X285791D01*
X285661Y181882D01*
X285479Y182223D01*
X285514Y182400D01*
Y186180D01*
X285564D01*
Y191910D01*
X286032Y191986D01*
X304636D01*
Y190609D01*
X312139D01*
Y205591D01*
X304636D01*
Y204314D01*
X300914D01*
Y241900D01*
X300859Y242173D01*
X300705Y242405D01*
X300473Y242559D01*
X300200Y242614D01*
X296700D01*
X296427Y242559D01*
X296195Y242405D01*
X296041Y242173D01*
X295986Y241900D01*
Y204314D01*
X279800D01*
X279527Y204259D01*
X279295Y204105D01*
X279141Y203873D01*
X279086Y203600D01*
Y200965D01*
X278061D01*
Y195235D01*
X279086D01*
Y192700D01*
X278634Y192410D01*
X277382D01*
Y213199D01*
X277898D01*
Y218001D01*
X273400D01*
Y213199D01*
X273916D01*
Y192410D01*
X272413D01*
X271945Y192317D01*
X271573Y192069D01*
X271527Y192059D01*
X271295Y191905D01*
X271141Y191673D01*
X271086Y191400D01*
Y182400D01*
X271141Y182127D01*
X271295Y181895D01*
X271527Y181741D01*
X271800Y181686D01*
X282649D01*
X282856Y181186D01*
X279322Y177653D01*
X273747D01*
Y170347D01*
X281053D01*
Y175923D01*
X284407Y179277D01*
X304428D01*
Y176315D01*
X303337Y175224D01*
X300847D01*
X300591Y175842D01*
X300005Y176605D01*
X299242Y177191D01*
X298354Y177559D01*
X297400Y177684D01*
X296446Y177559D01*
X295558Y177191D01*
X294795Y176605D01*
X294209Y175842D01*
X293841Y174954D01*
X293716Y174000D01*
X293841Y173046D01*
X294209Y172158D01*
X294795Y171395D01*
X295558Y170809D01*
X296446Y170441D01*
X297400Y170316D01*
X297928Y170385D01*
X298428Y169951D01*
Y163701D01*
X298000D01*
Y158899D01*
X298428D01*
Y157114D01*
X298389Y157056D01*
X298243Y156323D01*
Y151991D01*
X298389Y151258D01*
X298805Y150635D01*
X299427Y150220D01*
X300161Y150074D01*
X300895Y150220D01*
X301517Y150635D01*
X301933Y151258D01*
X302079Y151991D01*
Y156323D01*
X301933Y157056D01*
X301894Y157114D01*
Y158899D01*
X302498D01*
Y163701D01*
X301894D01*
Y171239D01*
X301762Y171902D01*
X301512Y172276D01*
X301751Y172776D01*
X303844D01*
X303928Y172793D01*
X304428Y172392D01*
Y169269D01*
X309372D01*
Y170321D01*
X318044D01*
X318512Y170414D01*
X318909Y170679D01*
X320265Y172035D01*
X320530Y172432D01*
X320623Y172900D01*
Y174700D01*
X321500D01*
Y182100D01*
X317700D01*
Y174700D01*
X318177D01*
Y173407D01*
X317537Y172768D01*
X309372D01*
Y173776D01*
X312700D01*
X313168Y173870D01*
X313565Y174135D01*
X314130Y174700D01*
X316500D01*
Y182100D01*
X314432D01*
X314241Y182562D01*
X319278Y187599D01*
X322119D01*
X322172Y187334D01*
X322437Y186937D01*
X324083Y185291D01*
X324480Y185026D01*
X324948Y184932D01*
X334028D01*
Y184423D01*
X327104D01*
X326636Y184330D01*
X326239Y184065D01*
X324274Y182100D01*
X322700D01*
Y174700D01*
X326500D01*
Y180865D01*
X327611Y181976D01*
X333837D01*
X334028Y181785D01*
Y178469D01*
X337047D01*
Y175821D01*
X335307D01*
Y172059D01*
X341235D01*
Y172059D01*
X341676Y171919D01*
Y169200D01*
X341770Y168732D01*
X342035Y168335D01*
X350377Y159993D01*
Y137800D01*
X350470Y137332D01*
X350735Y136935D01*
X353235Y134435D01*
X353632Y134170D01*
X354100Y134076D01*
X444600D01*
X445068Y134170D01*
X445465Y134435D01*
X447907Y136876D01*
X501600D01*
X502068Y136970D01*
X502465Y137235D01*
X513168Y147938D01*
X513434Y148335D01*
X513527Y148803D01*
Y153832D01*
X513902Y153907D01*
X514270Y154153D01*
X514516Y154522D01*
X514603Y154956D01*
Y158355D01*
X517724Y161477D01*
X518900D01*
Y160299D01*
X523398D01*
Y165101D01*
X518900D01*
Y163924D01*
X517217D01*
X516749Y163830D01*
X516352Y163565D01*
X514757Y161970D01*
X514270Y162019D01*
X513902Y162265D01*
X513468Y162351D01*
X511539D01*
X511104Y162265D01*
X510736Y162018D01*
X510490Y161650D01*
X510403Y161216D01*
Y154956D01*
X510490Y154522D01*
X510736Y154153D01*
X511080Y153923D01*
Y149310D01*
X501093Y139323D01*
X447400D01*
X446932Y139230D01*
X446535Y138965D01*
X444093Y136523D01*
X437074D01*
X436974Y137023D01*
X437105Y137078D01*
X437662Y137505D01*
X438090Y138063D01*
X438359Y138712D01*
X438450Y139409D01*
Y146495D01*
X438359Y147192D01*
X438090Y147841D01*
X437662Y148399D01*
X437105Y148826D01*
X436456Y149095D01*
X435759Y149187D01*
X435062Y149095D01*
X434413Y148826D01*
X433856Y148399D01*
X433428Y147841D01*
X433159Y147192D01*
X433068Y146495D01*
Y139409D01*
X433159Y138712D01*
X433428Y138063D01*
X433856Y137505D01*
X434413Y137078D01*
X434544Y137023D01*
X434444Y136523D01*
X406956D01*
X406856Y137023D01*
X406987Y137078D01*
X407544Y137505D01*
X407972Y138063D01*
X408241Y138712D01*
X408332Y139409D01*
Y146495D01*
X408241Y147192D01*
X407972Y147841D01*
X407544Y148399D01*
X406987Y148826D01*
X406338Y149095D01*
X405641Y149187D01*
X404944Y149095D01*
X404295Y148826D01*
X403738Y148399D01*
X403310Y147841D01*
X403041Y147192D01*
X402949Y146495D01*
Y139409D01*
X403041Y138712D01*
X403310Y138063D01*
X403738Y137505D01*
X404295Y137078D01*
X404426Y137023D01*
X404326Y136523D01*
X388198D01*
X388098Y137023D01*
X388305Y137109D01*
X388862Y137537D01*
X389290Y138094D01*
X389559Y138743D01*
X389651Y139440D01*
Y146527D01*
X389559Y147224D01*
X389290Y147873D01*
X388862Y148430D01*
X388305Y148858D01*
X387656Y149127D01*
X386959Y149218D01*
X386262Y149127D01*
X385613Y148858D01*
X385056Y148430D01*
X384628Y147873D01*
X384359Y147224D01*
X384267Y146527D01*
Y139440D01*
X384359Y138743D01*
X384628Y138094D01*
X385056Y137537D01*
X385613Y137109D01*
X385820Y137023D01*
X385720Y136523D01*
X358080D01*
X357980Y137023D01*
X358187Y137109D01*
X358744Y137537D01*
X359172Y138094D01*
X359441Y138743D01*
X359532Y139440D01*
Y146527D01*
X359441Y147224D01*
X359172Y147873D01*
X358744Y148430D01*
X358187Y148858D01*
X357538Y149127D01*
X356841Y149218D01*
X356144Y149127D01*
X355495Y148858D01*
X354938Y148430D01*
X354510Y147873D01*
X354241Y147224D01*
X354150Y146527D01*
Y139440D01*
X354241Y138743D01*
X354510Y138094D01*
X354938Y137537D01*
X355495Y137109D01*
X355702Y137023D01*
X355602Y136523D01*
X354607D01*
X352823Y138307D01*
Y160500D01*
X352730Y160968D01*
X352465Y161365D01*
X347697Y166133D01*
X347888Y166595D01*
X371319D01*
X371787Y166689D01*
X372184Y166954D01*
X388407Y183177D01*
X404860D01*
X405777Y182260D01*
Y179445D01*
X405644Y179356D01*
X405228Y178734D01*
X405082Y178000D01*
X405228Y177266D01*
X405644Y176644D01*
X406266Y176228D01*
X407000Y176082D01*
X407157Y176113D01*
X408435Y174835D01*
X408832Y174570D01*
X409300Y174477D01*
X412405D01*
Y173819D01*
X422467D01*
Y174477D01*
X424999D01*
Y173902D01*
X429077D01*
Y168509D01*
X427491Y166923D01*
X422467D01*
Y167581D01*
X412405D01*
Y163819D01*
X422467D01*
Y164477D01*
X427998D01*
X428466Y164570D01*
X428863Y164835D01*
X431166Y167137D01*
X431431Y167534D01*
X431524Y168003D01*
Y178199D01*
X431431Y178667D01*
X431166Y179064D01*
X429448Y180782D01*
X429772Y181266D01*
X429918Y182000D01*
X429915Y182015D01*
X430376Y182261D01*
X440577Y172061D01*
Y166400D01*
X439399D01*
Y161902D01*
X444201D01*
Y162928D01*
X444899D01*
Y161902D01*
X449701D01*
Y162928D01*
X450299D01*
Y161902D01*
X455101D01*
Y166400D01*
X450299D01*
Y165375D01*
X449701D01*
Y166400D01*
X444899D01*
Y165375D01*
X444201D01*
Y166400D01*
X443023D01*
Y172567D01*
X443014Y172614D01*
X443462Y172926D01*
X443701Y172780D01*
X445518Y172027D01*
X447431Y171568D01*
X449393Y171413D01*
X451354Y171568D01*
X453268Y172027D01*
X455085Y172780D01*
X456763Y173808D01*
X458259Y175086D01*
X459537Y176582D01*
X460565Y178260D01*
X461318Y180077D01*
X461777Y181991D01*
X461932Y183952D01*
X461777Y185913D01*
X461318Y187827D01*
X460565Y189644D01*
X459537Y191322D01*
X458259Y192818D01*
X456763Y194096D01*
X455085Y195124D01*
X453268Y195877D01*
X451354Y196336D01*
X449393Y196491D01*
X447431Y196336D01*
X445518Y195877D01*
X443701Y195124D01*
X442023Y194096D01*
X440527Y192818D01*
X439249Y191322D01*
X438221Y189644D01*
X437468Y187827D01*
X437009Y185913D01*
X436854Y183952D01*
X437009Y181991D01*
X437468Y180077D01*
X437992Y178813D01*
X437568Y178530D01*
X430732Y185365D01*
X430336Y185630D01*
X429994Y185698D01*
X429702Y186162D01*
X429772Y186266D01*
X429918Y187000D01*
X429772Y187734D01*
X429610Y187976D01*
X431665Y190031D01*
X431930Y190428D01*
X432023Y190896D01*
Y202693D01*
X435352Y206022D01*
X440646D01*
X441114Y206115D01*
X441511Y206380D01*
X450965Y215835D01*
X451230Y216232D01*
X451324Y216700D01*
Y219684D01*
X456851Y225212D01*
X457117Y225608D01*
X457210Y226077D01*
Y226996D01*
X457562Y227285D01*
X458296Y227431D01*
X458918Y227847D01*
X459334Y228469D01*
X459460Y229102D01*
X459751Y229256D01*
X459970Y229299D01*
X469776Y219493D01*
Y170545D01*
X469870Y170076D01*
X470135Y169679D01*
X471976Y167838D01*
Y165802D01*
X472069Y165334D01*
X472334Y164937D01*
X473037Y164234D01*
X473434Y163969D01*
X473903Y163876D01*
X477094D01*
X478535Y162435D01*
X478932Y162170D01*
X479400Y162076D01*
X490488D01*
X490747Y161727D01*
X490799Y161620D01*
X490718Y161216D01*
Y154956D01*
X490805Y154522D01*
X491051Y154153D01*
X491419Y153907D01*
X491854Y153821D01*
X493783D01*
X494217Y153907D01*
X494585Y154153D01*
X494832Y154522D01*
X494918Y154956D01*
Y161216D01*
X494832Y161650D01*
X494585Y162019D01*
X494217Y162265D01*
X493783Y162351D01*
X493748D01*
X493483Y162747D01*
X492916Y163315D01*
X493107Y163777D01*
X495493D01*
X496316Y162954D01*
Y162248D01*
X495972Y162019D01*
X495726Y161650D01*
X495640Y161216D01*
Y154956D01*
X495726Y154522D01*
X495972Y154153D01*
X496340Y153907D01*
X496775Y153821D01*
X498704D01*
X499138Y153907D01*
X499507Y154153D01*
X499753Y154522D01*
X499839Y154956D01*
Y161216D01*
X499753Y161650D01*
X499507Y162019D01*
X499138Y162265D01*
X498763Y162339D01*
Y163461D01*
X498670Y163929D01*
X498405Y164326D01*
X496865Y165865D01*
X496468Y166130D01*
X496000Y166224D01*
X484300D01*
Y167277D01*
X496993D01*
X501237Y163033D01*
Y162248D01*
X500893Y162019D01*
X500647Y161650D01*
X500561Y161216D01*
Y154956D01*
X500647Y154522D01*
X500893Y154153D01*
X501262Y153907D01*
X501696Y153821D01*
X503625D01*
X504060Y153907D01*
X504428Y154153D01*
X504674Y154522D01*
X504760Y154956D01*
Y161216D01*
X504674Y161650D01*
X504428Y162019D01*
X504060Y162265D01*
X503684Y162339D01*
Y163539D01*
X503591Y164008D01*
X503326Y164404D01*
X498365Y169365D01*
X497968Y169630D01*
X497500Y169723D01*
X484300D01*
Y170401D01*
X479922D01*
Y171099D01*
X484300D01*
Y172276D01*
X496993D01*
X506277Y162993D01*
Y162283D01*
X506183Y162265D01*
X505815Y162019D01*
X505569Y161650D01*
X505482Y161216D01*
Y154956D01*
X505569Y154522D01*
X505815Y154153D01*
X506183Y153907D01*
X506617Y153821D01*
X508546D01*
X508981Y153907D01*
X509349Y154153D01*
X509595Y154522D01*
X509682Y154956D01*
Y161216D01*
X509595Y161650D01*
X509349Y162019D01*
X508981Y162265D01*
X508723Y162316D01*
Y163500D01*
X508630Y163968D01*
X508365Y164365D01*
X498365Y174365D01*
X497968Y174630D01*
X497500Y174723D01*
X484300D01*
Y175901D01*
X479922D01*
Y176802D01*
X479828Y177270D01*
X479563Y177667D01*
X477323Y179907D01*
Y205641D01*
X477500Y205786D01*
X484500D01*
X484773Y205841D01*
X485005Y205995D01*
X485159Y206227D01*
X485214Y206500D01*
Y214500D01*
X485159Y214773D01*
X485005Y215005D01*
X484773Y215159D01*
X484500Y215214D01*
X480233D01*
Y222672D01*
X480689Y222877D01*
X484526Y219467D01*
X484628Y219407D01*
X484727Y219341D01*
X484748Y219337D01*
X484766Y219326D01*
X484884Y219309D01*
X485000Y219286D01*
X489528D01*
Y219281D01*
X494472D01*
Y219286D01*
X494957D01*
X495231Y219341D01*
X495462Y219495D01*
X495617Y219727D01*
X495671Y220000D01*
Y223026D01*
X500000D01*
X500273Y223081D01*
X500505Y223236D01*
X500659Y223467D01*
X500714Y223740D01*
Y254529D01*
D01*
Y255000D01*
X501208D01*
D01*
X508335D01*
X526977Y255000D01*
Y240500D01*
Y239100D01*
X522599D01*
X522599Y239100D01*
X522300Y239201D01*
Y239201D01*
X522141Y239201D01*
X517802D01*
Y234399D01*
X522300D01*
Y234399D01*
X522599Y234602D01*
X526977D01*
Y233523D01*
D01*
Y228500D01*
Y228100D01*
X522599D01*
Y228100D01*
X522401Y228100D01*
Y228100D01*
X517599D01*
Y227075D01*
X516208D01*
X514918Y228364D01*
Y231111D01*
X514772Y231845D01*
X514356Y232467D01*
X513734Y232883D01*
X513000Y233029D01*
X512266Y232883D01*
X511644Y232467D01*
X511228Y231845D01*
X511082Y231111D01*
Y225993D01*
X511228Y225259D01*
X511644Y224637D01*
X512266Y224221D01*
X513000Y224075D01*
X513734Y224221D01*
X514356Y224637D01*
X514435Y224754D01*
X515081Y224822D01*
X515233Y224721D01*
X515701Y224628D01*
X517599D01*
Y223602D01*
X522401D01*
Y223602D01*
X522599Y223602D01*
Y223602D01*
X526416D01*
X526623Y223102D01*
X525519Y221998D01*
X522599D01*
Y217500D01*
X527401D01*
Y220419D01*
X529066Y222084D01*
X529331Y222481D01*
X529424Y222950D01*
Y254286D01*
X530500D01*
X530835Y253843D01*
Y132265D01*
X269465Y132265D01*
Y356835D01*
X530835Y356835D01*
Y351657D01*
D02*
G37*
G36*
X412644Y228644D02*
X413266Y228228D01*
X414000Y228082D01*
X414181Y228118D01*
X414427Y227657D01*
X407635Y220865D01*
X407370Y220468D01*
X407276Y220000D01*
Y209521D01*
X403970D01*
Y210620D01*
X403877Y211089D01*
X403612Y211486D01*
X399851Y215246D01*
X399454Y215511D01*
X398986Y215605D01*
X394976D01*
X394785Y216067D01*
X407495Y228777D01*
X412555D01*
X412644Y228644D01*
D02*
G37*
G36*
X389646Y203397D02*
X392227D01*
Y208310D01*
X392245Y208338D01*
X392336Y208798D01*
X393583D01*
Y203397D01*
X393650D01*
Y201778D01*
X393743Y201310D01*
X394008Y200913D01*
X395002Y199919D01*
Y196999D01*
X397657D01*
X397752Y196919D01*
X398006Y196499D01*
X397986Y196400D01*
Y194197D01*
X397524Y194006D01*
X395465Y196065D01*
X395068Y196330D01*
X394600Y196423D01*
X389307D01*
X379105Y206626D01*
Y207986D01*
X379012Y208454D01*
X378851Y208695D01*
X379063Y209195D01*
X389646D01*
Y203397D01*
D02*
G37*
G36*
X410759Y203336D02*
X410948Y202897D01*
X410788Y202659D01*
X410695Y202190D01*
Y195881D01*
X410788Y195413D01*
X411054Y195016D01*
X415286Y190783D01*
Y190151D01*
X414786Y189944D01*
X407907Y196823D01*
Y197565D01*
X408044Y197770D01*
X408137Y198238D01*
Y202241D01*
X408044Y202709D01*
X408005Y202769D01*
Y203397D01*
X410695D01*
X410759Y203336D01*
D02*
G37*
G36*
X419173Y203397D02*
X419873D01*
X423502Y199768D01*
Y197499D01*
X427877D01*
Y192107D01*
X424656Y188887D01*
X424500Y188918D01*
X423766Y188772D01*
X423144Y188356D01*
X422728Y187734D01*
X422582Y187000D01*
X422728Y186266D01*
X422796Y186164D01*
X422560Y185723D01*
X419007D01*
X416244Y188486D01*
X416451Y188986D01*
X419700D01*
X419973Y189041D01*
X420205Y189195D01*
X420359Y189427D01*
X420414Y189700D01*
Y192900D01*
X420359Y193173D01*
X420208Y193400D01*
X420359Y193627D01*
X420414Y193900D01*
Y197100D01*
X420359Y197373D01*
X420205Y197605D01*
X419973Y197759D01*
X419700Y197814D01*
X416717D01*
X414842Y199688D01*
Y200979D01*
X415423Y201560D01*
X415688Y201957D01*
X415781Y202425D01*
Y203397D01*
X417817D01*
Y208701D01*
X417914Y208798D01*
X419173D01*
Y203397D01*
D02*
G37*
G36*
X353026Y194315D02*
X348135Y189423D01*
X347870Y189026D01*
X347777Y188558D01*
Y183507D01*
X346895Y182625D01*
X346472Y182800D01*
Y182800D01*
X341723D01*
Y183762D01*
X346472D01*
Y188312D01*
X341528D01*
Y187279D01*
X338972D01*
Y188531D01*
X334028D01*
Y187379D01*
X328709D01*
X328300Y187599D01*
Y192401D01*
X327275D01*
Y193599D01*
X328300D01*
Y194776D01*
X352835D01*
X353026Y194315D01*
D02*
G37*
G36*
X374144Y205644D02*
X374766Y205228D01*
X375500Y205082D01*
X376234Y205228D01*
X376786Y205597D01*
X377016Y205254D01*
X387935Y194335D01*
X388332Y194070D01*
X388800Y193976D01*
X394093D01*
X396935Y191135D01*
X397332Y190870D01*
X397800Y190777D01*
X403200D01*
X403668Y190870D01*
X404065Y191135D01*
X404765Y191835D01*
X405030Y192232D01*
X405124Y192700D01*
Y195642D01*
X405623Y195743D01*
X405819Y195451D01*
X417635Y183635D01*
X418032Y183370D01*
X418500Y183276D01*
X422321D01*
X422554Y182776D01*
X422390Y182581D01*
X412405D01*
Y178819D01*
X422467D01*
Y179476D01*
X423200D01*
X423668Y179570D01*
X424065Y179835D01*
X424343Y180113D01*
X424500Y180082D01*
X425234Y180228D01*
X425856Y180644D01*
X425938Y180767D01*
X426460Y180804D01*
X426777Y180500D01*
X426870Y180032D01*
X427135Y179635D01*
X427907Y178862D01*
X427716Y178400D01*
X424999D01*
Y176924D01*
X422467D01*
Y177581D01*
X412405D01*
Y176924D01*
X409807D01*
X408887Y177843D01*
X408918Y178000D01*
X408772Y178734D01*
X408356Y179356D01*
X408223Y179445D01*
Y182767D01*
X408130Y183235D01*
X407865Y183632D01*
X406232Y185265D01*
X405835Y185530D01*
X405367Y185624D01*
X387900D01*
X387432Y185530D01*
X387035Y185265D01*
X370812Y169042D01*
X350093D01*
Y172081D01*
X347223D01*
Y175500D01*
X347130Y175968D01*
X346865Y176365D01*
X345824Y177407D01*
Y178250D01*
X346472D01*
Y179302D01*
X346525D01*
X346993Y179395D01*
X347390Y179660D01*
X349865Y182135D01*
X349880Y182157D01*
X350392Y182023D01*
X350395Y181991D01*
X350854Y180077D01*
X351607Y178260D01*
X352635Y176582D01*
X353913Y175086D01*
X355409Y173808D01*
X357086Y172780D01*
X358904Y172027D01*
X360817Y171568D01*
X362779Y171413D01*
X364740Y171568D01*
X366653Y172027D01*
X368471Y172780D01*
X370149Y173808D01*
X371645Y175086D01*
X372923Y176582D01*
X373951Y178260D01*
X374704Y180077D01*
X375163Y181991D01*
X375317Y183952D01*
X375163Y185913D01*
X374704Y187827D01*
X373951Y189644D01*
X372923Y191322D01*
X371645Y192818D01*
X370149Y194096D01*
X368471Y195124D01*
X366653Y195877D01*
X364740Y196336D01*
X362779Y196491D01*
X360817Y196336D01*
X358904Y195877D01*
X358629Y195763D01*
X358351Y196179D01*
X367949Y205777D01*
X374055D01*
X374144Y205644D01*
D02*
G37*
%LPC*%
G36*
X449393Y287042D02*
X447431Y286887D01*
X445518Y286428D01*
X443701Y285675D01*
X442023Y284647D01*
X440527Y283369D01*
X439249Y281873D01*
X438221Y280196D01*
X437468Y278378D01*
X437009Y276465D01*
X436854Y274503D01*
X437009Y272542D01*
X437468Y270628D01*
X438221Y268811D01*
X439249Y267133D01*
X440527Y265637D01*
X442023Y264359D01*
X443701Y263331D01*
X445518Y262578D01*
X447431Y262119D01*
X449393Y261965D01*
X451354Y262119D01*
X453268Y262578D01*
X455085Y263331D01*
X456763Y264359D01*
X458259Y265637D01*
X459537Y267133D01*
X460565Y268811D01*
X461318Y270628D01*
X461777Y272542D01*
X461932Y274503D01*
X461777Y276465D01*
X461318Y278378D01*
X460565Y280196D01*
X459537Y281873D01*
X458259Y283369D01*
X456763Y284647D01*
X455085Y285675D01*
X453268Y286428D01*
X451354Y286887D01*
X449393Y287042D01*
D02*
G37*
G36*
X512731Y306972D02*
X508181D01*
Y302028D01*
X509232D01*
Y298913D01*
X509326Y298445D01*
X509591Y298048D01*
X509759Y297880D01*
Y294765D01*
X513521D01*
Y300693D01*
X511679D01*
Y302028D01*
X512731D01*
Y306972D01*
D02*
G37*
G36*
X339731D02*
X335181D01*
Y302028D01*
X336232D01*
Y298913D01*
X336326Y298445D01*
X336591Y298048D01*
X336759Y297880D01*
Y294765D01*
X340521D01*
Y300693D01*
X338679D01*
Y302028D01*
X339731D01*
Y306972D01*
D02*
G37*
G36*
X362779Y287042D02*
X360817Y286887D01*
X358904Y286428D01*
X357086Y285675D01*
X355409Y284647D01*
X353913Y283369D01*
X352635Y281873D01*
X351607Y280196D01*
X350854Y278378D01*
X350395Y276465D01*
X350240Y274503D01*
X350395Y272542D01*
X350854Y270628D01*
X351607Y268811D01*
X352635Y267133D01*
X353913Y265637D01*
X355409Y264359D01*
X357086Y263331D01*
X358904Y262578D01*
X360817Y262119D01*
X362779Y261965D01*
X364740Y262119D01*
X366653Y262578D01*
X368471Y263331D01*
X370149Y264359D01*
X371645Y265637D01*
X372923Y267133D01*
X373951Y268811D01*
X374704Y270628D01*
X375163Y272542D01*
X375317Y274503D01*
X375163Y276465D01*
X374704Y278378D01*
X373951Y280196D01*
X372923Y281873D01*
X371645Y283369D01*
X370149Y284647D01*
X368471Y285675D01*
X366653Y286428D01*
X364740Y286887D01*
X362779Y287042D01*
D02*
G37*
G36*
X472624Y341335D02*
X465318D01*
Y334030D01*
X472624D01*
Y341335D01*
D02*
G37*
G36*
X386124D02*
X378818D01*
Y334030D01*
X386124D01*
Y341335D01*
D02*
G37*
G36*
X299803Y341253D02*
X292498D01*
Y333947D01*
X299803D01*
Y341253D01*
D02*
G37*
G36*
X511300Y239201D02*
Y239201D01*
X511214Y239201D01*
X506802D01*
Y234399D01*
X507016D01*
X507207Y233937D01*
X507135Y233865D01*
X506870Y233468D01*
X506777Y233000D01*
Y232556D01*
X506644Y232467D01*
X506228Y231845D01*
X506082Y231111D01*
Y225993D01*
X506228Y225259D01*
X506644Y224637D01*
X507266Y224221D01*
X508000Y224075D01*
X508734Y224221D01*
X509356Y224637D01*
X509772Y225259D01*
X509918Y225993D01*
Y231111D01*
X509772Y231845D01*
X509356Y232467D01*
X509342Y232612D01*
X510365Y233635D01*
X510630Y234032D01*
X510704Y234399D01*
X511300D01*
Y234399D01*
X511700D01*
Y234399D01*
X516198D01*
Y239201D01*
X511786D01*
X511700Y239201D01*
Y239201D01*
X511300D01*
D02*
G37*
G36*
X494472Y218319D02*
X489528D01*
Y213769D01*
X493500D01*
X496082Y211188D01*
Y207489D01*
X496228Y206755D01*
X496644Y206133D01*
X497107Y205823D01*
X497242Y205251D01*
X495204Y203214D01*
X481500Y203214D01*
X481227Y203159D01*
X480995Y203005D01*
X480841Y202773D01*
X480786Y202500D01*
X480786Y194500D01*
X480841Y194227D01*
X480992Y194000D01*
X480841Y193773D01*
X480786Y193500D01*
Y179000D01*
X480841Y178727D01*
X480995Y178495D01*
X481227Y178341D01*
X481500Y178286D01*
X493500D01*
X493773Y178341D01*
X494005Y178495D01*
X494159Y178727D01*
X494214Y179000D01*
Y193500D01*
X494667Y193786D01*
X519000Y193786D01*
X519273Y193841D01*
X519505Y193995D01*
X519659Y194227D01*
X519714Y194500D01*
Y197419D01*
X522599D01*
Y195000D01*
X527401D01*
Y199498D01*
X524481D01*
X524471Y199508D01*
X524075Y199773D01*
X523606Y199866D01*
X519714D01*
Y200500D01*
X519659Y200773D01*
X519505Y201005D01*
X518091Y202418D01*
X518256Y202961D01*
X518300Y202970D01*
X518784Y202486D01*
X519181Y202221D01*
X519649Y202128D01*
X522599D01*
Y201102D01*
X527401D01*
Y205600D01*
X526224D01*
Y206500D01*
X527401D01*
Y210998D01*
X522599D01*
Y210998D01*
X522401D01*
Y210998D01*
X517599D01*
Y209972D01*
X514918D01*
Y212607D01*
X514772Y213341D01*
X514356Y213963D01*
X513734Y214379D01*
X513000Y214525D01*
X512266Y214379D01*
X511644Y213963D01*
X511228Y213341D01*
X511082Y212607D01*
Y207489D01*
X511228Y206755D01*
X511320Y206617D01*
X510932Y206299D01*
X509889Y207342D01*
X509918Y207489D01*
Y212607D01*
X509772Y213341D01*
X509356Y213963D01*
X508734Y214379D01*
X508000Y214525D01*
X507266Y214379D01*
X507155Y214305D01*
X506714Y214540D01*
Y214860D01*
X506659Y215133D01*
X506505Y215365D01*
X506273Y215519D01*
X506000Y215574D01*
X499500D01*
X499227Y215519D01*
X498995Y215365D01*
X498841Y215133D01*
X498786Y214860D01*
X498286Y214468D01*
X498000Y214525D01*
X497266Y214379D01*
X496718Y214013D01*
X494472Y216259D01*
Y218319D01*
D02*
G37*
G36*
X401995Y182581D02*
X391933D01*
Y178819D01*
X401995D01*
Y182581D01*
D02*
G37*
G36*
Y167581D02*
X391933D01*
Y163819D01*
X401995D01*
Y167581D01*
D02*
G37*
G36*
Y177581D02*
X391933D01*
Y173819D01*
X400951D01*
X401689Y173081D01*
X401482Y172581D01*
X391933D01*
Y168819D01*
X401995D01*
Y169476D01*
X403293D01*
X406416Y166354D01*
Y163453D01*
X406509Y162985D01*
X406774Y162587D01*
X410523Y158838D01*
X410920Y158573D01*
X411247Y158508D01*
X411481Y158154D01*
X411531Y157980D01*
X411400Y157323D01*
Y155324D01*
X410237D01*
X407695Y157865D01*
X407298Y158130D01*
X406830Y158223D01*
X388318D01*
X382377Y164165D01*
X381980Y164430D01*
X381512Y164523D01*
X368800D01*
X368332Y164430D01*
X367935Y164165D01*
X363653Y159883D01*
X363388Y159486D01*
X363295Y159018D01*
Y158799D01*
X363162Y158710D01*
X362746Y158088D01*
X362600Y157354D01*
Y153023D01*
X362746Y152289D01*
X363162Y151667D01*
X363784Y151251D01*
X364518Y151105D01*
X365252Y151251D01*
X365874Y151667D01*
X366290Y152289D01*
X366436Y153023D01*
Y157354D01*
X366290Y158088D01*
X365901Y158670D01*
X369307Y162076D01*
X372093D01*
X372284Y161615D01*
X369858Y159188D01*
X369439Y159272D01*
X368705Y159126D01*
X368083Y158710D01*
X367667Y158088D01*
X367521Y157354D01*
Y153023D01*
X367667Y152289D01*
X368083Y151667D01*
X368705Y151251D01*
X369439Y151105D01*
X370173Y151251D01*
X370795Y151667D01*
X371211Y152289D01*
X371357Y153023D01*
Y157227D01*
X372045Y157915D01*
X372506Y157668D01*
X372443Y157354D01*
Y153023D01*
X372589Y152289D01*
X373005Y151667D01*
X373627Y151251D01*
X374361Y151105D01*
X375095Y151251D01*
X375717Y151667D01*
X376133Y152289D01*
X376279Y153023D01*
Y157354D01*
X376164Y157933D01*
X376742Y158511D01*
X379762D01*
X385538Y152735D01*
X385935Y152470D01*
X386403Y152376D01*
X404915D01*
X409246Y148045D01*
X409643Y147780D01*
X410111Y147687D01*
X420911D01*
X421379Y147780D01*
X421776Y148045D01*
X424026Y150296D01*
X424291Y150693D01*
X424384Y151161D01*
Y151547D01*
X424517Y151635D01*
X424933Y152258D01*
X425079Y152991D01*
Y157323D01*
X424933Y158056D01*
X424517Y158679D01*
X423895Y159094D01*
X423197Y159233D01*
X420162Y162269D01*
X419765Y162534D01*
X419297Y162627D01*
X412599D01*
X411224Y164003D01*
Y167500D01*
X411130Y167968D01*
X410865Y168365D01*
X405365Y173865D01*
X404968Y174130D01*
X404500Y174223D01*
X404007D01*
X401995Y176236D01*
Y177581D01*
D02*
G37*
G36*
X316500Y161700D02*
X312700D01*
Y154300D01*
X316500D01*
Y161700D01*
D02*
G37*
G36*
X295500Y162418D02*
X294766Y162272D01*
X294144Y161856D01*
X293728Y161234D01*
X293582Y160500D01*
X293728Y159766D01*
X294017Y159334D01*
Y157767D01*
X293884Y157679D01*
X293468Y157056D01*
X293322Y156323D01*
Y151991D01*
X293468Y151258D01*
X293884Y150635D01*
X294506Y150220D01*
X295240Y150074D01*
X295974Y150220D01*
X296596Y150635D01*
X297012Y151258D01*
X297158Y151991D01*
Y156323D01*
X297012Y157056D01*
X296596Y157679D01*
X296463Y157767D01*
Y158881D01*
X296856Y159144D01*
X297272Y159766D01*
X297418Y160500D01*
X297272Y161234D01*
X296856Y161856D01*
X296234Y162272D01*
X295500Y162418D01*
D02*
G37*
G36*
X290300Y162518D02*
X289566Y162372D01*
X288944Y161956D01*
X288528Y161334D01*
X288382Y160600D01*
X288528Y159866D01*
X288944Y159244D01*
X289095Y159142D01*
Y157767D01*
X288963Y157679D01*
X288547Y157056D01*
X288401Y156323D01*
Y151991D01*
X288547Y151258D01*
X288963Y150635D01*
X289585Y150220D01*
X290319Y150074D01*
X291053Y150220D01*
X291675Y150635D01*
X292091Y151258D01*
X292237Y151991D01*
Y156323D01*
X292091Y157056D01*
X291675Y157679D01*
X291543Y157767D01*
Y159168D01*
X291656Y159244D01*
X292072Y159866D01*
X292218Y160600D01*
X292072Y161334D01*
X291656Y161956D01*
X291034Y162372D01*
X290300Y162518D01*
D02*
G37*
G36*
X285300Y162218D02*
X284566Y162072D01*
X283944Y161656D01*
X283528Y161034D01*
X283382Y160300D01*
X283528Y159566D01*
X283944Y158944D01*
X284167Y158795D01*
Y157767D01*
X284034Y157679D01*
X283618Y157056D01*
X283472Y156323D01*
Y151991D01*
X283618Y151258D01*
X284034Y150635D01*
X284656Y150220D01*
X285390Y150074D01*
X286124Y150220D01*
X286746Y150635D01*
X287162Y151258D01*
X287308Y151991D01*
Y156323D01*
X287162Y157056D01*
X286746Y157679D01*
X286613Y157767D01*
Y158915D01*
X286656Y158944D01*
X287072Y159566D01*
X287218Y160300D01*
X287072Y161034D01*
X286656Y161656D01*
X286034Y162072D01*
X285300Y162218D01*
D02*
G37*
G36*
X280500Y158240D02*
X279766Y158094D01*
X279144Y157679D01*
X278728Y157056D01*
X278582Y156323D01*
Y151991D01*
X278728Y151258D01*
X279144Y150635D01*
X279766Y150220D01*
X280500Y150074D01*
X281234Y150220D01*
X281856Y150635D01*
X282272Y151258D01*
X282418Y151991D01*
Y156323D01*
X282272Y157056D01*
X281856Y157679D01*
X281234Y158094D01*
X280500Y158240D01*
D02*
G37*
G36*
X321500Y161700D02*
X317700D01*
Y154300D01*
X318177D01*
Y139200D01*
X318270Y138732D01*
X318535Y138335D01*
X321135Y135735D01*
X321532Y135470D01*
X322000Y135377D01*
X327500D01*
X327968Y135470D01*
X328365Y135735D01*
X330516Y137886D01*
X330782Y138283D01*
X330875Y138751D01*
Y138973D01*
X331375Y139142D01*
X331795Y138595D01*
X332558Y138009D01*
X333446Y137641D01*
X334400Y137516D01*
X335354Y137641D01*
X336242Y138009D01*
X337005Y138595D01*
X337591Y139358D01*
X337959Y140246D01*
X338084Y141200D01*
X337959Y142154D01*
X337591Y143042D01*
X337005Y143805D01*
X336242Y144391D01*
X335354Y144759D01*
X334400Y144884D01*
X333446Y144759D01*
X332558Y144391D01*
X331795Y143805D01*
X331375Y143258D01*
X330875Y143427D01*
Y146899D01*
X331900D01*
Y146899D01*
X332300D01*
Y146899D01*
X336798D01*
Y151701D01*
X332300D01*
Y151701D01*
X331900D01*
Y151701D01*
X327402D01*
Y146899D01*
X328428D01*
Y142265D01*
X327959Y142154D01*
X327591Y143042D01*
X327005Y143805D01*
X326242Y144391D01*
X325823Y144564D01*
Y148249D01*
X325798Y148377D01*
Y151701D01*
X321300D01*
Y146899D01*
X323376D01*
Y144730D01*
X322558Y144391D01*
X321795Y143805D01*
X321209Y143042D01*
X321124Y142835D01*
X320623Y142934D01*
Y154300D01*
X321500D01*
Y161700D01*
D02*
G37*
G36*
X455101Y160298D02*
X450299D01*
Y155800D01*
X451476D01*
Y151718D01*
X451570Y151249D01*
X451835Y150852D01*
X452098Y150590D01*
X451841Y149971D01*
X451716Y149018D01*
X451841Y148064D01*
X452209Y147175D01*
X452795Y146412D01*
X453558Y145827D01*
X454447Y145459D01*
X455400Y145333D01*
X456354Y145459D01*
X457242Y145827D01*
X458005Y146412D01*
X458591Y147175D01*
X458959Y148064D01*
X459084Y149018D01*
X458959Y149971D01*
X458591Y150860D01*
X458005Y151623D01*
X457242Y152208D01*
X456354Y152576D01*
X455400Y152702D01*
X454447Y152576D01*
X454339Y152532D01*
X453924Y152810D01*
Y155800D01*
X455101D01*
Y160298D01*
D02*
G37*
G36*
X523330Y149775D02*
X520180D01*
X519293Y149599D01*
X518540Y149096D01*
X518038Y148344D01*
X517861Y147456D01*
Y142731D01*
X518038Y141844D01*
X518540Y141092D01*
X519293Y140589D01*
X520180Y140412D01*
X523330D01*
X524218Y140589D01*
X524970Y141092D01*
X525473Y141844D01*
X525649Y142731D01*
Y147456D01*
X525473Y148344D01*
X524970Y149096D01*
X524218Y149599D01*
X523330Y149775D01*
D02*
G37*
G36*
X480220D02*
X477070D01*
X476183Y149599D01*
X475430Y149096D01*
X474927Y148344D01*
X474751Y147456D01*
Y142731D01*
X474927Y141844D01*
X475430Y141092D01*
X476183Y140589D01*
X477070Y140412D01*
X480220D01*
X481107Y140589D01*
X481860Y141092D01*
X482363Y141844D01*
X482539Y142731D01*
Y147456D01*
X482363Y148344D01*
X481860Y149096D01*
X481107Y149599D01*
X480220Y149775D01*
D02*
G37*
G36*
X331200Y164123D02*
X327500D01*
X327032Y164030D01*
X326635Y163765D01*
X324570Y161700D01*
X322700D01*
Y154300D01*
X326500D01*
Y160170D01*
X327138Y160808D01*
X327600Y160616D01*
Y154300D01*
X331400D01*
Y160316D01*
X331862Y160508D01*
X332977Y159393D01*
Y157700D01*
X333070Y157232D01*
X333335Y156835D01*
X338109Y152060D01*
X338402Y151701D01*
X338402D01*
X338402Y151701D01*
Y146899D01*
X339277D01*
Y144400D01*
X339370Y143932D01*
X339635Y143535D01*
X340747Y142422D01*
Y137547D01*
X348053D01*
Y144853D01*
X341778D01*
X341723Y144907D01*
Y146899D01*
X342900D01*
Y151701D01*
X341664D01*
X341630Y151868D01*
X341365Y152265D01*
X335423Y158207D01*
Y159900D01*
X335330Y160368D01*
X335065Y160765D01*
X332065Y163765D01*
X331668Y164030D01*
X331200Y164123D01*
D02*
G37*
G36*
X312759Y148187D02*
X312062Y148095D01*
X311413Y147826D01*
X310856Y147399D01*
X310428Y146841D01*
X310159Y146192D01*
X310068Y145495D01*
Y138409D01*
X310159Y137712D01*
X310428Y137063D01*
X310856Y136505D01*
X311413Y136078D01*
X312062Y135809D01*
X312759Y135717D01*
X313456Y135809D01*
X314105Y136078D01*
X314662Y136505D01*
X315090Y137063D01*
X315359Y137712D01*
X315451Y138409D01*
Y145495D01*
X315359Y146192D01*
X315090Y146841D01*
X314662Y147399D01*
X314105Y147826D01*
X313456Y148095D01*
X312759Y148187D01*
D02*
G37*
G36*
X272800D02*
X272103Y148095D01*
X271454Y147826D01*
X270897Y147399D01*
X270469Y146841D01*
X270200Y146192D01*
X270109Y145495D01*
Y138409D01*
X270200Y137712D01*
X270469Y137063D01*
X270897Y136505D01*
X271454Y136078D01*
X272103Y135809D01*
X272800Y135717D01*
X273497Y135809D01*
X274146Y136078D01*
X274703Y136505D01*
X275131Y137063D01*
X275400Y137712D01*
X275491Y138409D01*
Y145495D01*
X275400Y146192D01*
X275131Y146841D01*
X274703Y147399D01*
X274146Y147826D01*
X273497Y148095D01*
X272800Y148187D01*
D02*
G37*
%LPD*%
G36*
X506000Y207500D02*
X506100Y207400D01*
X506228Y206755D01*
X506644Y206133D01*
X507266Y205717D01*
X507911Y205589D01*
X510500Y203000D01*
X516500D01*
X519000Y200500D01*
Y199866D01*
X506000D01*
X505532Y199773D01*
X505135Y199508D01*
X504870Y199111D01*
X504776Y198643D01*
X504870Y198174D01*
X505135Y197777D01*
X505532Y197512D01*
X506000Y197419D01*
X519000D01*
Y194500D01*
X481500Y194500D01*
X481500Y202500D01*
X495500Y202500D01*
X498713Y205713D01*
X498734Y205717D01*
X499356Y206133D01*
X499772Y206755D01*
X499918Y207489D01*
Y212607D01*
X499772Y213341D01*
X499500Y213748D01*
Y214860D01*
X506000D01*
Y207500D01*
D02*
G37*
D13*
X376000Y256904D02*
X378300Y259204D01*
X376000Y254900D02*
Y256904D01*
X373000Y251900D02*
X376000Y254900D01*
X378300Y259204D02*
Y279600D01*
X373000Y249798D02*
Y251900D01*
X360098Y297802D02*
X378300Y279600D01*
X352749Y297802D02*
X360098D01*
X438967Y221400D02*
X441600D01*
X438357Y222010D02*
X438967Y221400D01*
X446400Y227600D02*
Y229200D01*
X444800Y226000D02*
X446400Y227600D01*
X438400Y226000D02*
X444800D01*
X436319Y223919D02*
X438400Y226000D01*
X428201Y223919D02*
X436319D01*
X438000Y228900D02*
X441800D01*
X435047Y225947D02*
X438000Y228900D01*
X428141Y225947D02*
X435047D01*
X402747Y254439D02*
X403900Y255592D01*
Y259000D01*
X400779Y254875D02*
X402200Y256296D01*
Y260700D01*
X398810Y255310D02*
X400500Y257000D01*
Y260300D01*
X402747Y251341D02*
Y254439D01*
X400779Y251341D02*
Y254875D01*
X398810Y251341D02*
Y255310D01*
X403900Y259000D02*
X406281Y261381D01*
X411619D01*
X402200Y260700D02*
X403000Y261500D01*
X397800Y192000D02*
X403200D01*
X394600Y195200D02*
X397800Y192000D01*
X388800Y195200D02*
X394600D01*
X377881Y206119D02*
X388800Y195200D01*
X403900Y197628D02*
X405214Y198942D01*
X403900Y192700D02*
Y197628D01*
X403200Y192000D02*
X403900Y192700D01*
X401500Y195300D02*
Y197633D01*
X403381Y199514D01*
Y201486D01*
X401986Y202881D02*
X403381Y201486D01*
X401419Y202881D02*
X401986D01*
X400779Y203521D02*
X401419Y202881D01*
X400779Y203521D02*
Y206459D01*
X406914Y198238D02*
Y202241D01*
X405214Y198942D02*
Y201537D01*
X406684Y198008D02*
X406914Y198238D01*
X406684Y196316D02*
Y198008D01*
X406781Y202374D02*
Y206362D01*
Y202374D02*
X406914Y202241D01*
X405081Y201670D02*
Y202190D01*
Y201670D02*
X405214Y201537D01*
X406684Y206459D02*
X406781Y206362D01*
X404716Y202555D02*
Y206459D01*
Y202555D02*
X405081Y202190D01*
X425954Y208945D02*
X427400Y207500D01*
X422627Y208945D02*
X425954D01*
X421552Y210021D02*
X422627Y208945D01*
X417407Y210021D02*
X421552D01*
X416527Y209140D02*
X417407Y210021D01*
X416527Y206459D02*
Y209140D01*
X414381Y214381D02*
X422000D01*
X415500Y212000D02*
X421977D01*
X423331Y210646D01*
X422000Y214381D02*
X424035Y212346D01*
X438533D01*
X423331Y210646D02*
X439237D01*
X412500Y212500D02*
X414381Y214381D01*
X411919Y195881D02*
X416700Y191100D01*
X411919Y195881D02*
Y202190D01*
X412590Y202861D01*
Y206459D01*
X416000Y200500D02*
X416600Y199900D01*
X413619Y199181D02*
X416800Y196000D01*
X413619Y199181D02*
Y201486D01*
X414558Y202425D01*
Y206459D01*
X455986Y228119D02*
X457562Y229695D01*
X430800Y203200D02*
X434845Y207245D01*
X430800Y190896D02*
Y203200D01*
X428000Y188096D02*
X430800Y190896D01*
X454000Y226495D02*
Y230500D01*
X429100Y204000D02*
X434046Y208945D01*
X429100Y191600D02*
Y204000D01*
X424500Y187000D02*
X429100Y191600D01*
X450100Y216700D02*
Y220191D01*
X440646Y207245D02*
X450100Y216700D01*
X434845Y207245D02*
X440646D01*
X448400Y217404D02*
Y220895D01*
X439941Y208945D02*
X448400Y217404D01*
X434046Y208945D02*
X439941D01*
X450100Y220191D02*
X455986Y226077D01*
X448400Y220895D02*
X454000Y226495D01*
X390936Y208719D02*
X391027D01*
X446700Y221599D02*
X452119Y227018D01*
X446700Y218108D02*
Y221599D01*
X439237Y210646D02*
X446700Y218108D01*
X486059Y304441D02*
X504944D01*
X445000Y222303D02*
X450419Y227722D01*
X445000Y218812D02*
Y222303D01*
X438533Y212346D02*
X445000Y218812D01*
X428141Y222010D02*
X438357D01*
X445318Y235319D02*
X446819D01*
X446022Y233619D02*
X448962D01*
X455986Y226077D02*
Y228119D01*
X452119Y227018D02*
Y231486D01*
X450419Y232672D02*
X457831Y240084D01*
X450419Y227722D02*
Y232672D01*
X444203Y231800D02*
X446022Y233619D01*
X443499Y233500D02*
X445318Y235319D01*
X438700Y233500D02*
X443499D01*
X437996Y231800D02*
X444203D01*
X428141Y223979D02*
X428201Y223919D01*
X435975Y233821D02*
X437996Y231800D01*
X436588Y235612D02*
X438700Y233500D01*
X428320Y235612D02*
X436588D01*
X432700Y227900D02*
X434000D01*
X432684Y227916D02*
X432700Y227900D01*
X428141Y227916D02*
X432684D01*
X428141Y235790D02*
X428320Y235612D01*
X446819Y235319D02*
X447500Y236000D01*
X428141Y233821D02*
X435975D01*
X424579Y232031D02*
X427963D01*
X428141Y231853D01*
X448500Y240000D02*
X450119Y238381D01*
X439000Y240000D02*
X448500D01*
X436758Y237758D02*
X439000Y240000D01*
X497539Y157786D02*
Y163461D01*
X451800Y241700D02*
X452738Y240762D01*
X438200Y241700D02*
X451800D01*
X436227Y239727D02*
X438200Y241700D01*
X417819Y244181D02*
X419600Y242400D01*
X417819Y244181D02*
Y247086D01*
X418495Y247762D01*
Y251341D01*
X420200Y246996D02*
X420698Y247494D01*
Y251107D01*
X420464Y251341D02*
X420698Y251107D01*
X492618Y157786D02*
Y161882D01*
X420200Y246100D02*
Y246996D01*
X424579Y232031D02*
Y247493D01*
X424256Y247816D02*
X424579Y247493D01*
X424256Y247816D02*
Y248527D01*
X422556Y247112D02*
Y249232D01*
Y247112D02*
X422581Y247086D01*
Y245114D02*
Y247086D01*
X422556Y245088D02*
X422581Y245114D01*
X422556Y243769D02*
Y245088D01*
X426781Y257351D02*
X428514Y255619D01*
X426781Y257351D02*
Y259799D01*
X425081Y256647D02*
X427810Y253919D01*
X425081Y256647D02*
Y259095D01*
X423381Y255943D02*
X424579Y254745D01*
X423381Y255943D02*
Y258290D01*
X420890Y260781D02*
X423381Y258290D01*
X418852Y260781D02*
X420890D01*
X418300Y256700D02*
X419200D01*
X421681Y255219D02*
X422879Y254021D01*
X421681Y255219D02*
Y257586D01*
X417819Y259081D02*
X420186D01*
X412400Y264500D02*
X417819Y259081D01*
X420186D02*
X421681Y257586D01*
X421400Y262776D02*
X425081Y259095D01*
X421400Y262776D02*
Y263400D01*
X423781Y262799D02*
X426781Y259799D01*
X423781Y262799D02*
Y264386D01*
X422386Y265781D02*
X423781Y264386D01*
X420414Y265781D02*
X422386D01*
X419633Y265000D02*
X420414Y265781D01*
X418000Y265000D02*
X419633D01*
X428943Y258000D02*
X429500D01*
X429185Y255619D02*
X431404Y253400D01*
X428514Y255619D02*
X429185D01*
X428481Y253919D02*
X430700Y251700D01*
X427810Y253919D02*
X428481D01*
X428472Y260512D02*
Y296237D01*
Y260512D02*
X428481Y260503D01*
Y258462D02*
Y260503D01*
Y258462D02*
X428943Y258000D01*
X415619Y264014D02*
X418852Y260781D01*
X416527Y254927D02*
X418300Y256700D01*
X409500Y264500D02*
X412400D01*
X412500Y256516D02*
Y257500D01*
X409000Y257611D02*
X412590Y254022D01*
X416527Y251341D02*
Y254927D01*
X399559Y304441D02*
X418444D01*
X422879Y249555D02*
Y254021D01*
X411300Y267000D02*
X415567D01*
X415619Y264014D02*
Y266949D01*
X415567Y267000D02*
X415619Y266949D01*
X424579Y248850D02*
Y254745D01*
X419253Y276600D02*
X421400Y278747D01*
X417200Y276600D02*
X419253D01*
X413956Y273356D02*
X417200Y276600D01*
X411300Y273356D02*
X413956D01*
X421400Y278747D02*
Y287400D01*
X290319Y154157D02*
Y161019D01*
X285390Y154157D02*
Y160910D01*
X444600Y135300D02*
X447400Y138100D01*
X354100Y135300D02*
X444600D01*
X351600Y137800D02*
X354100Y135300D01*
X285300Y160300D02*
Y160820D01*
X285390Y160910D01*
X290300Y160600D02*
Y161000D01*
X290319Y161019D01*
X295240Y160240D02*
X295500Y160500D01*
X295240Y154157D02*
Y160240D01*
X272413Y191187D02*
X281813D01*
X501600Y138100D02*
X512303Y148803D01*
X447400Y138100D02*
X501600D01*
X342900Y169200D02*
X351600Y160500D01*
Y137800D02*
Y160500D01*
X342900Y169200D02*
Y176582D01*
X371319Y167819D02*
X387900Y184400D01*
X405367D02*
X407000Y182767D01*
X387900Y184400D02*
X405367D01*
X340500Y144400D02*
X344600Y140300D01*
X340500Y144400D02*
Y151400D01*
X324400Y156300D02*
Y159800D01*
X334200Y157700D02*
X340500Y151400D01*
X334200Y157700D02*
Y159900D01*
X327500Y162900D02*
X331200D01*
X334200Y159900D01*
X338271Y166460D02*
Y168729D01*
X337560Y169440D02*
X338271Y168729D01*
X331600Y169440D02*
X337560D01*
X329400Y171640D02*
X331600Y169440D01*
X329400Y171640D02*
Y176700D01*
X334344Y183200D02*
X338271Y179273D01*
X324400Y176700D02*
Y180496D01*
X327104Y183200D01*
X334344D01*
X324400Y159800D02*
X327500Y162900D01*
X329651Y138751D02*
Y149300D01*
X327500Y136600D02*
X329651Y138751D01*
X322000Y136600D02*
X327500D01*
X319400Y139200D02*
X322000Y136600D01*
X319400Y139200D02*
Y156300D01*
X278500Y298700D02*
X280453Y300653D01*
Y342153D01*
X282753Y344453D01*
X352659D01*
X428082Y155157D02*
Y159018D01*
X423781Y163319D02*
X428082Y159018D01*
X412608Y163319D02*
X423781D01*
X368800Y163300D02*
X381512D01*
X364518Y159018D02*
X368800Y163300D01*
X374000Y161600D02*
X380807D01*
X369439Y157039D02*
X374000Y161600D01*
X369439Y155189D02*
Y157039D01*
X407639Y163453D02*
Y166861D01*
Y163453D02*
X411388Y159704D01*
X415695D01*
X418239Y157160D01*
Y155157D02*
Y157160D01*
X412092Y161404D02*
X419297D01*
X410000Y163496D02*
X412092Y161404D01*
X411933Y163995D02*
X412608Y163319D01*
X411905Y163995D02*
X411933D01*
X411905D02*
Y169405D01*
X419297Y161404D02*
X423161Y157539D01*
X410000Y163496D02*
Y167500D01*
X334197Y262500D02*
X343599Y253099D01*
X327600Y262500D02*
X334197D01*
X324800Y265300D02*
X327600Y262500D01*
X324800Y265300D02*
Y267844D01*
X313441Y304441D02*
X331944D01*
X341899Y233198D02*
Y252394D01*
X333493Y260800D02*
X341899Y252394D01*
X325644Y260800D02*
X333493D01*
X412500Y211300D02*
Y212500D01*
X410621Y209421D02*
X412500Y211300D01*
X410621Y206459D02*
Y209421D01*
X312700Y175000D02*
X314400Y176700D01*
X308956Y175000D02*
X312700D01*
X306900Y177056D02*
X308956Y175000D01*
X318044Y171544D02*
X319400Y172900D01*
X306900Y171544D02*
X318044D01*
X437101Y248395D02*
X440296Y245200D01*
X437101Y248395D02*
Y250997D01*
X436398Y251700D02*
X437101Y250997D01*
X440296Y245200D02*
X452833D01*
X456014Y248381D02*
X459119D01*
X459500Y248000D01*
X455214Y247581D02*
X456014Y248381D01*
X452810Y247581D02*
X455214D01*
X452129Y246900D02*
X452810Y247581D01*
X441000Y246900D02*
X452129D01*
X438801Y249099D02*
X441000Y246900D01*
X438801Y249099D02*
Y251702D01*
X437102Y253400D02*
X438801Y251702D01*
X431404Y253400D02*
X437102D01*
X430700Y251700D02*
X436398D01*
X453514Y245881D02*
X456881D01*
X457000Y246000D01*
X452833Y245200D02*
X453514Y245881D01*
X364497Y341200D02*
X365200Y340497D01*
Y331003D02*
Y340497D01*
X364697Y330500D02*
X365200Y331003D01*
X364697Y295803D02*
Y330500D01*
Y295803D02*
X384200Y276300D01*
X356003Y341200D02*
X364497D01*
X355957Y341154D02*
X356003Y341200D01*
X355957Y341154D02*
X355957D01*
X352659Y344453D02*
X355957Y341154D01*
X327849Y310651D02*
X345600D01*
X311819Y302819D02*
X313441Y304441D01*
X311819Y270181D02*
Y302819D01*
X487800Y263800D02*
X493300D01*
X469200Y255700D02*
X477500Y264000D01*
X469200Y248141D02*
Y255700D01*
X461440Y240381D02*
X469200Y248141D01*
X483750Y267750D02*
X501750D01*
X480000Y264000D02*
X483750Y267750D01*
X477500Y264000D02*
X480000D01*
X479000Y212000D02*
Y255000D01*
X467700Y230512D02*
X476100Y222112D01*
Y179400D02*
Y222112D01*
Y179400D02*
X478698Y176802D01*
X466000Y229808D02*
X474400Y221408D01*
X466000Y229808D02*
Y232500D01*
X474400Y175049D02*
Y221408D01*
Y175049D02*
X475949Y173500D01*
X462819Y230585D02*
X472700Y220704D01*
X462819Y230585D02*
Y231988D01*
X472700Y171249D02*
Y220704D01*
Y171249D02*
X475949Y168000D01*
X459881Y231119D02*
X471000Y220000D01*
Y170545D02*
Y220000D01*
Y170545D02*
X473200Y168345D01*
X479000Y255000D02*
X487800Y263800D01*
X421042Y220042D02*
X428141D01*
X421000Y220000D02*
X421042Y220042D01*
X324948Y186156D02*
X336900D01*
X323302Y187802D02*
X324948Y186156D01*
X323302Y187802D02*
Y215251D01*
X324251Y216200D01*
X344368Y167819D02*
X371319D01*
X517217Y162700D02*
X521149D01*
X512303Y157786D02*
X517217Y162700D01*
X512303Y148803D02*
Y157786D01*
X340500Y186056D02*
X343200D01*
X337000D02*
X340500D01*
Y178982D02*
X342900Y176582D01*
X340500Y178982D02*
Y186056D01*
X349000Y188558D02*
X367442Y207000D01*
X349000Y183000D02*
Y188558D01*
X346525Y180525D02*
X349000Y183000D01*
X344000Y180525D02*
X346525D01*
X344600Y176900D02*
X346000Y175500D01*
X344000Y180525D02*
X344600Y179925D01*
Y176900D02*
Y179925D01*
X346000Y171329D02*
Y175500D01*
Y171329D02*
X347129Y170200D01*
X407000Y178000D02*
Y182767D01*
X387553Y225947D02*
X388000Y225500D01*
X383259Y225947D02*
X387553D01*
X390042Y220042D02*
X390500Y220500D01*
X383259Y220042D02*
X390042D01*
X393000Y219633D02*
Y242133D01*
X390248Y216881D02*
X393000Y219633D01*
X387014Y216881D02*
X390248D01*
X386238Y216105D02*
X387014Y216881D01*
X383259Y216105D02*
X386238D01*
X383551Y247000D02*
Y251000D01*
Y243956D02*
Y247000D01*
X388500Y236500D02*
Y241104D01*
X385940Y243664D02*
X388500Y241104D01*
X383259Y243664D02*
X385940D01*
X386500Y246229D02*
X391000Y241728D01*
X386500Y246229D02*
Y247000D01*
X391000Y234679D02*
Y241728D01*
X386205Y229884D02*
X391000Y234679D01*
X394662Y245500D02*
X394873Y245711D01*
X388000Y249500D02*
X391750Y245750D01*
X388000Y249500D02*
Y251498D01*
X394873Y245711D02*
Y251341D01*
X385597Y253901D02*
X388000Y251498D01*
X391750Y243383D02*
Y245750D01*
Y243383D02*
X393000Y242133D01*
X378500Y245500D02*
X379399Y246399D01*
X379495Y248099D02*
X380802Y249406D01*
X374698Y248099D02*
X379495D01*
X409300Y170700D02*
X413200D01*
X404619Y175381D02*
X409300Y170700D01*
X404619Y175381D02*
Y181781D01*
X404500Y173000D02*
X410000Y167500D01*
X403500Y173000D02*
X404500D01*
X403800Y170700D02*
X407639Y166861D01*
X396964Y170700D02*
X403800D01*
X413200Y170700D02*
X417436D01*
X407000Y178000D02*
X409300Y175700D01*
X417436D01*
X420464Y204536D02*
X425000Y200000D01*
X425100Y199900D01*
X425000Y200000D02*
Y204000D01*
X416600Y199900D02*
X419649D01*
X391100Y199400D02*
X391149D01*
X388000Y202500D02*
X391100Y199400D01*
X399900D02*
X401000Y200500D01*
X397251Y199400D02*
X399900D01*
X427000Y250633D02*
X428633Y249000D01*
X427000Y250633D02*
Y251000D01*
X380800Y247000D02*
X383551D01*
X380199Y246399D02*
X380800Y247000D01*
X379399Y246399D02*
X380199D01*
X382500Y261000D02*
X389000D01*
X377700Y256200D02*
X382500Y261000D01*
X377700Y251251D02*
Y256200D01*
X381500Y256500D02*
X382400Y257400D01*
X385149D01*
X377449Y251000D02*
X377700Y251251D01*
X336900Y186156D02*
X337000Y186056D01*
X324251Y216200D02*
X325200Y217149D01*
Y223313D01*
X318149Y216200D02*
Y221309D01*
X316145Y223313D02*
X318149Y221309D01*
X308636Y223313D02*
X316145D01*
X281813Y189045D02*
Y191187D01*
X308387Y198100D02*
X308387Y198100D01*
X281813Y198100D02*
X308387D01*
X281409Y206751D02*
X281813Y207155D01*
X281751Y207217D02*
X281813Y207155D01*
X281751Y207217D02*
Y215600D01*
X435500Y219500D02*
X437500D01*
X435381Y219381D02*
X435500Y219500D01*
X434014Y219381D02*
X435381D01*
X431703Y217070D02*
X434014Y219381D01*
X431703Y216985D02*
Y217070D01*
X430823Y216105D02*
X431703Y216985D01*
X428141Y216105D02*
X430823D01*
X432136Y214136D02*
X435000Y217000D01*
X428141Y214136D02*
X432136D01*
X491200Y163300D02*
X492618Y161882D01*
X479400Y163300D02*
X491200D01*
X473200Y165802D02*
X473903Y165099D01*
X477601D01*
X479400Y163300D01*
X467700Y230512D02*
Y230833D01*
X468381Y231514D01*
Y233486D01*
X466986Y234881D02*
X468381Y233486D01*
X465014Y234881D02*
X466986D01*
X478698Y166406D02*
Y176802D01*
X459014Y231119D02*
X459881D01*
X457562Y229203D02*
Y229695D01*
X452119Y231486D02*
X460736Y240103D01*
X448962Y233619D02*
X457127Y241784D01*
X460000Y233500D02*
X461000Y234500D01*
X457619Y232514D02*
X459014Y231119D01*
X457619Y232514D02*
Y234486D01*
X459633Y236500D01*
X461500D01*
X458312Y240084D02*
X459036Y240807D01*
X457831Y240084D02*
X458312D01*
X457190Y241784D02*
X459188Y243781D01*
X457127Y241784D02*
X457190D01*
X439000Y243500D02*
X454500D01*
X452738Y240762D02*
X453000Y240500D01*
X450119Y238381D02*
X450500Y238000D01*
X478698Y166406D02*
X480104Y165000D01*
X461500Y236500D02*
X462000Y237000D01*
X459036Y241085D02*
X460032Y242081D01*
X459036Y240807D02*
Y241085D01*
X464633Y234500D02*
X465014Y234881D01*
X461000Y234500D02*
X464633D01*
X473200Y165802D02*
Y168345D01*
X428141Y239727D02*
X436227D01*
X436902Y245598D02*
X439000Y243500D01*
X431402Y245598D02*
X436902D01*
X433046Y241695D02*
X434200Y242849D01*
X428141Y241695D02*
X433046D01*
X428141Y237758D02*
X436758D01*
X460875Y240242D02*
X461014Y240381D01*
X460736Y240103D02*
Y240381D01*
X460032Y242081D02*
X460736D01*
X467500Y248845D01*
X461014Y240381D02*
X461440D01*
X462000Y237000D02*
Y238000D01*
X459188Y243781D02*
X460032D01*
X465000Y248750D01*
X467500Y248845D02*
Y273000D01*
X429500Y246500D02*
X430500D01*
X431402Y245598D01*
X434151Y249000D02*
X434200Y248951D01*
X428633Y249000D02*
X434151D01*
X426279Y246646D02*
X428633Y249000D01*
X426279Y244854D02*
Y246646D01*
Y244854D02*
X427469Y243664D01*
X428141D01*
X422556Y249232D02*
X422879Y249555D01*
X424256Y248527D02*
X424579Y248850D01*
X422556Y243769D02*
X422879Y243445D01*
Y234379D02*
Y243445D01*
X411619Y261381D02*
X412000Y261000D01*
X411300Y267000D02*
Y267844D01*
X428472Y296237D02*
X431086Y298851D01*
X408500Y220000D02*
X422879Y234379D01*
X406156Y267844D02*
X409500Y264500D01*
X405100Y267844D02*
X406156D01*
X496000Y165000D02*
X497539Y163461D01*
X480104Y165000D02*
X496000D01*
X428000Y187000D02*
Y188096D01*
X465000Y248750D02*
Y268500D01*
X429867Y184500D02*
X441800Y172567D01*
X418500Y184500D02*
X429867D01*
X406684Y196316D02*
X418500Y184500D01*
X428000Y180500D02*
X430301Y178199D01*
X428000Y180500D02*
Y182000D01*
X423200Y180700D02*
X424500Y182000D01*
X441800Y164151D02*
Y172567D01*
X430301Y168003D02*
Y178199D01*
X427998Y165700D02*
X430301Y168003D01*
X417436Y165700D02*
X427998D01*
X417436Y180700D02*
X423200D01*
X425100Y199900D02*
X425751D01*
X420464Y204536D02*
Y206459D01*
X418495Y201054D02*
X419649Y199900D01*
X418495Y201054D02*
Y206459D01*
X426949Y175700D02*
X427400Y176151D01*
X417436Y175700D02*
X426949D01*
X426749Y170700D02*
X427400Y170049D01*
X417436Y170700D02*
X426749D01*
X411905Y169405D02*
X413200Y170700D01*
X364518Y155189D02*
Y159018D01*
X409730Y154100D02*
X412261D01*
X406830Y157000D02*
X409730Y154100D01*
X387812Y157000D02*
X406830D01*
X381512Y163300D02*
X387812Y157000D01*
X412261Y154100D02*
X413318Y155157D01*
X380268Y159735D02*
X386403Y153600D01*
X376235Y159735D02*
X380268D01*
X374361Y157861D02*
X376235Y159735D01*
X374361Y155189D02*
Y157861D01*
X384800Y151900D02*
X404717D01*
X381511Y155189D02*
X384800Y151900D01*
X379282Y155189D02*
X381511D01*
X386403Y153600D02*
X405422D01*
X387107Y155300D02*
X406126D01*
X410815Y150610D02*
X416610D01*
X418111Y152111D01*
Y155028D01*
X418239Y155157D01*
X423161Y151161D02*
Y155157D01*
X420911Y148910D02*
X423161Y151161D01*
X410111Y148910D02*
X420911D01*
X428082Y151582D02*
Y155157D01*
X423710Y147211D02*
X428082Y151582D01*
X409407Y147211D02*
X423710D01*
X404717Y151900D02*
X409407Y147211D01*
X405422Y153600D02*
X410111Y148910D01*
X406126Y155300D02*
X410815Y150610D01*
X380807Y161600D02*
X387107Y155300D01*
X396964Y175700D02*
X400800D01*
X403500Y173000D01*
X423161Y155157D02*
Y157539D01*
X391149Y199400D02*
X392905Y201156D01*
Y206459D01*
X394873Y201778D02*
X397251Y199400D01*
X394873Y201778D02*
Y206459D01*
X367738Y209700D02*
X376167D01*
X377881Y207986D01*
Y206119D02*
Y207986D01*
X378252Y215748D02*
X380577Y218073D01*
X378252Y215748D02*
X378381Y215618D01*
X372575D02*
X378381D01*
X363698Y211400D02*
X374129D01*
X341899Y233198D02*
X363698Y211400D01*
X374129D02*
X374328Y211600D01*
X367442Y207000D02*
X375500D01*
X354038Y196000D02*
X367738Y209700D01*
X326051Y196000D02*
X354038D01*
X373424Y213100D02*
X373624Y213300D01*
X364402Y213100D02*
X373424D01*
X373624Y213300D02*
X378389D01*
X379571Y212119D01*
X377204Y211600D02*
X378385Y210419D01*
X389811D01*
X374328Y211600D02*
X377204D01*
X379571Y212119D02*
X389107D01*
X343599Y233903D02*
X364402Y213100D01*
X326051Y196000D02*
X326051Y196000D01*
X326051Y190000D02*
Y196000D01*
X380577Y218073D02*
X383259D01*
X319249Y156149D02*
X319400Y156300D01*
X329651Y149300D02*
X334549D01*
X323549D02*
X324600Y148249D01*
Y140300D02*
Y148249D01*
X303844Y174000D02*
X306900Y177056D01*
X297400Y174000D02*
X303844D01*
X310449Y180500D02*
X319949Y190000D01*
X283900Y180500D02*
X310449D01*
X277400Y174000D02*
X283900Y180500D01*
X319400Y172900D02*
Y176700D01*
X338271Y173940D02*
Y179273D01*
X398800Y262000D02*
X400500Y260300D01*
X396842Y257342D02*
X398000Y258500D01*
X396842Y251341D02*
Y257342D01*
X393000Y267000D02*
X394873Y265127D01*
Y251341D02*
Y265127D01*
X414558Y251341D02*
Y254458D01*
X412500Y256516D02*
X414558Y254458D01*
X412590Y251341D02*
Y254022D01*
X409000Y257611D02*
Y259000D01*
X398000Y245500D02*
Y245530D01*
X396842Y246688D02*
X398000Y245530D01*
X396842Y246688D02*
Y251341D01*
X386500Y264000D02*
Y265500D01*
X384200Y267800D02*
X386500Y265500D01*
X389000Y261000D02*
X390500Y262500D01*
X391949D01*
X384200Y267800D02*
Y276300D01*
X373000Y249798D02*
X374698Y248099D01*
X380802Y249406D02*
Y253198D01*
X381505Y253901D02*
X385597D01*
X380802Y253198D02*
X381505Y253901D01*
X383259Y229884D02*
X386205D01*
X318600Y267844D02*
X325644Y260800D01*
X402747Y206459D02*
Y210620D01*
X398986Y214381D02*
X402747Y210620D01*
X393773Y214381D02*
X398986D01*
X389811Y210419D02*
X393773Y214381D01*
X406988Y230000D02*
X414000D01*
X391817Y210021D02*
X396021D01*
X398000Y212000D01*
X389107Y212119D02*
X406988Y230000D01*
X391114Y209318D02*
X391817Y210021D01*
X391114Y208806D02*
Y209318D01*
X391027Y208719D02*
X391114Y208806D01*
X390936Y206459D02*
Y208719D01*
X408500Y206612D02*
Y220000D01*
X421384Y229884D02*
X422000D01*
X428141D01*
X343599Y233903D02*
Y253099D01*
X351700Y298851D02*
X352749Y297802D01*
X378000Y224500D02*
X378521Y223979D01*
X383259D01*
X376200Y225151D02*
X377049Y226000D01*
X376200Y225151D02*
Y226700D01*
X377416Y227916D01*
X383259D01*
X376000Y222000D02*
X383249D01*
X368251D02*
X376000D01*
X376200Y222200D01*
Y225151D01*
X383249Y222000D02*
X383259Y222010D01*
X365300Y219049D02*
X368251Y222000D01*
X370700Y219049D02*
X376200D01*
X377193Y220042D01*
X383259D01*
X383206Y226000D02*
X383259Y225947D01*
X377049Y226000D02*
X383206D01*
X374884Y229884D02*
X383259D01*
X370700Y225700D02*
X374884Y229884D01*
X370700Y225151D02*
Y225700D01*
X373853Y231853D02*
X383259D01*
X371000Y229000D02*
X373853Y231853D01*
X367000Y229000D02*
X371000D01*
X365300Y227300D02*
X367000Y229000D01*
X365300Y225151D02*
Y227300D01*
X370000Y231500D02*
Y234500D01*
X369831Y234669D02*
X370000Y234500D01*
X367980Y234669D02*
X369831D01*
X367980D02*
X369260Y235949D01*
X374500D01*
X351740Y242051D02*
X353020Y243331D01*
X346500Y242051D02*
X351740D01*
X351740Y235949D02*
X353020Y234669D01*
X346500Y235949D02*
X351740D01*
X369511Y242500D02*
X375051D01*
X376401Y241150D01*
X368580Y243431D02*
X369511Y242500D01*
X376650Y241150D02*
X379697Y238103D01*
X376401Y241150D02*
X376650D01*
X380000Y233821D02*
X383259D01*
X377997Y235824D02*
X380000Y233821D01*
X377997Y235824D02*
Y237399D01*
X376698Y238698D02*
X377997Y237399D01*
X357548Y238698D02*
X376698D01*
X353620Y234769D02*
X357548Y238698D01*
X379697Y236670D02*
Y238103D01*
Y236670D02*
X380577Y235790D01*
X383259D01*
X387636Y214136D02*
X388000Y214500D01*
X383259Y214136D02*
X387636D01*
X431086Y298851D02*
X432200D01*
X501750Y267750D02*
X509028Y275028D01*
Y284056D01*
X515799Y290827D01*
Y295950D01*
X518700Y298851D01*
X507329Y276328D02*
Y288299D01*
X501000Y270000D02*
X507329Y276328D01*
Y288299D02*
X507900Y288871D01*
X470000Y268500D02*
X470000Y268500D01*
X473244D01*
X468500Y274000D02*
X473244D01*
X467500Y273000D02*
X468500Y274000D01*
X408500Y206612D02*
X408653Y206459D01*
X406684Y245316D02*
X407000Y245000D01*
X406684Y245316D02*
Y251341D01*
X383259Y243664D02*
X383551Y243956D01*
X388502Y253775D02*
X390936Y251341D01*
X388502Y253775D02*
Y256998D01*
X388100Y257400D02*
X388502Y256998D01*
X385149Y257400D02*
X388100D01*
X391251Y261802D02*
X391949Y262500D01*
X391251Y257400D02*
Y261802D01*
Y257400D02*
X392905Y255746D01*
Y251341D02*
Y255746D01*
X447300Y164151D02*
X452700D01*
X441800D02*
X447300D01*
X452700Y151718D02*
X455400Y149018D01*
X452700Y151718D02*
Y158049D01*
X482051Y173500D02*
X497500D01*
X507500Y163500D01*
X497500Y168500D02*
X502461Y163539D01*
X482551Y168500D02*
X497500D01*
X507500Y157904D02*
Y163500D01*
X482051Y168000D02*
X482551Y168500D01*
X502461Y157786D02*
Y163539D01*
X507382Y157786D02*
X507500Y157904D01*
X519649Y203351D02*
X525000D01*
X518500Y204500D02*
X519649Y203351D01*
X508000Y207500D02*
X511000Y204500D01*
X518500D01*
X508000Y207500D02*
Y210048D01*
X498000D02*
Y211000D01*
X492956Y216044D02*
X498000Y211000D01*
X492000Y216044D02*
X492956D01*
X528201Y222950D02*
Y263299D01*
X526557Y264943D02*
X528201Y263299D01*
X515300Y264943D02*
X526557D01*
X525000Y219749D02*
X528201Y222950D01*
X523606Y198643D02*
X525000Y197249D01*
X506000Y198643D02*
X523606D01*
X525000Y203351D02*
Y208749D01*
X513000Y210048D02*
X514299Y208749D01*
X520000D01*
X515701Y225851D02*
X525000D01*
X513000Y228552D02*
X515701Y225851D01*
X524949Y236800D02*
X525000Y236851D01*
X520051Y236800D02*
X524949D01*
X509051D02*
X513949D01*
X509051D02*
X509500Y236351D01*
Y234500D02*
Y236351D01*
X508000Y233000D02*
X509500Y234500D01*
X508000Y228552D02*
Y233000D01*
X498000Y270000D02*
X501000D01*
X483000D02*
X498000D01*
X481500Y268500D02*
X483000Y270000D01*
X478756Y268500D02*
X481500D01*
X484819Y278819D02*
Y303319D01*
X483500Y277500D02*
X484819Y278819D01*
X476744Y277500D02*
X483500D01*
X473244Y274000D02*
X476744Y277500D01*
X484819Y303319D02*
X486000Y304500D01*
X486059Y304441D01*
X504944D02*
Y304500D01*
X487500Y274000D02*
X491500Y278000D01*
X478756Y274000D02*
X487500D01*
X498000Y270000D02*
Y278500D01*
X510456Y298913D02*
Y304500D01*
Y298913D02*
X511640Y297729D01*
X518700Y298851D02*
X524700D01*
X518700D02*
Y304449D01*
X518600Y304549D02*
X518700Y304449D01*
X499150Y312350D02*
Y337600D01*
Y312350D02*
X500849Y310651D01*
X518600D01*
X403444Y269500D02*
X405100Y267844D01*
X400500Y269500D02*
X403444D01*
X398319Y271681D02*
X400500Y269500D01*
X398319Y271681D02*
Y303319D01*
X399500Y304500D01*
X399559Y304441D01*
X418444D02*
Y304500D01*
X411500Y273556D02*
Y278500D01*
X411300Y273356D02*
X411500Y273556D01*
X405000Y273456D02*
Y278000D01*
Y273456D02*
X405100Y273356D01*
X423956Y298913D02*
Y304500D01*
Y298913D02*
X425140Y297729D01*
X432200Y298851D02*
X438200D01*
X432200D02*
Y304449D01*
X432100Y304549D02*
X432200Y304449D01*
X412650Y312350D02*
Y337600D01*
Y312350D02*
X414349Y310651D01*
X432100D01*
X326150Y312350D02*
X327849Y310651D01*
X326150Y312350D02*
Y337600D01*
X345600Y304549D02*
X345700Y304449D01*
Y298851D02*
Y304449D01*
Y298851D02*
X351700D01*
X337456Y298913D02*
X338640Y297729D01*
X337456Y298913D02*
Y304500D01*
X332000Y270000D02*
X333500Y271500D01*
X328112Y270000D02*
X332000D01*
X327193Y270919D02*
X328112Y270000D01*
X333500Y271500D02*
Y275500D01*
X334900Y276900D01*
Y288871D01*
X327081Y270919D02*
X327193D01*
X324800Y273200D02*
X327081Y270919D01*
X324800Y273200D02*
Y273356D01*
X314156Y267844D02*
X318600D01*
X311819Y270181D02*
X314156Y267844D01*
X331944Y304441D02*
Y304500D01*
X318500Y273456D02*
X318600Y273356D01*
X318500Y273456D02*
Y278000D01*
X324800Y273356D02*
X325000Y273556D01*
Y278500D01*
D51*
X492000Y221556D02*
D03*
X492000Y216044D02*
D03*
X405100Y273356D02*
D03*
Y267844D02*
D03*
X411300Y273356D02*
D03*
Y267844D02*
D03*
X306900Y171544D02*
D03*
Y177056D02*
D03*
X318600Y267844D02*
D03*
Y273356D02*
D03*
X324800Y267844D02*
D03*
Y273356D02*
D03*
X344000Y186037D02*
D03*
Y180525D02*
D03*
X336500Y186256D02*
D03*
Y180744D02*
D03*
D52*
X427400Y170049D02*
D03*
X427400Y176151D02*
D03*
X438200Y292749D02*
D03*
Y298851D02*
D03*
X432200D02*
D03*
Y292749D02*
D03*
X518700Y298851D02*
D03*
Y292749D02*
D03*
X525000Y236851D02*
D03*
Y230749D02*
D03*
X520000Y219749D02*
D03*
Y225851D02*
D03*
X525000Y225851D02*
D03*
X525000Y219749D02*
D03*
X520000Y208749D02*
D03*
X520000Y214851D02*
D03*
X525000D02*
D03*
Y208749D02*
D03*
Y203351D02*
D03*
Y197249D02*
D03*
X345600Y310651D02*
D03*
Y304549D02*
D03*
X345700Y292749D02*
D03*
Y298851D02*
D03*
X351700D02*
D03*
Y292749D02*
D03*
X334600Y212549D02*
D03*
Y218651D02*
D03*
X346500Y242051D02*
D03*
Y235949D02*
D03*
X365300Y219049D02*
D03*
Y225151D02*
D03*
X376200D02*
D03*
Y219049D02*
D03*
X370700Y225151D02*
D03*
Y219049D02*
D03*
X374500Y235949D02*
D03*
Y242051D02*
D03*
X441800Y158049D02*
D03*
Y164151D02*
D03*
X447300D02*
D03*
Y158049D02*
D03*
X452700D02*
D03*
Y164151D02*
D03*
X524700Y298851D02*
D03*
Y292749D02*
D03*
X518600Y310651D02*
D03*
Y304549D02*
D03*
X432100Y310651D02*
D03*
Y304549D02*
D03*
X434200Y248951D02*
D03*
Y242849D02*
D03*
D53*
X505500Y219300D02*
D03*
D54*
X498000Y210048D02*
D03*
X503000D02*
D03*
X508000D02*
D03*
X513000D02*
D03*
X498000Y228552D02*
D03*
X503000D02*
D03*
X508000D02*
D03*
X513000D02*
D03*
D55*
X281813Y207155D02*
D03*
D56*
X281813Y198100D02*
D03*
X281813Y189045D02*
D03*
D57*
X308387Y198100D02*
D03*
D58*
X395500Y308500D02*
D03*
X403374D02*
D03*
X425500Y281000D02*
D03*
X417626D02*
D03*
X482000Y308500D02*
D03*
X489874D02*
D03*
X512000Y281000D02*
D03*
X504126D02*
D03*
X316874Y308500D02*
D03*
X309000D02*
D03*
X331126Y281000D02*
D03*
X339000D02*
D03*
D59*
X423956Y304500D02*
D03*
X418444D02*
D03*
X510456D02*
D03*
X504944D02*
D03*
X478756Y268500D02*
D03*
X473244D02*
D03*
X478756Y274000D02*
D03*
X473244D02*
D03*
X331944Y304500D02*
D03*
X337456D02*
D03*
D60*
X425140Y297729D02*
D03*
X417660D02*
D03*
X421400Y288871D02*
D03*
X511640Y297729D02*
D03*
X504160D02*
D03*
X507900Y288871D02*
D03*
X334900D02*
D03*
X331160Y297729D02*
D03*
X338640D02*
D03*
D61*
X515300Y264943D02*
D03*
Y245257D02*
D03*
X506000Y198643D02*
D03*
X506000Y178957D02*
D03*
D62*
X493300Y246400D02*
D03*
Y263800D02*
D03*
D63*
X509051Y236800D02*
D03*
X502949D02*
D03*
X520051D02*
D03*
X513949D02*
D03*
X323549Y149300D02*
D03*
X329651D02*
D03*
X340651D02*
D03*
X334549D02*
D03*
X306351Y161300D02*
D03*
X300249D02*
D03*
X326051Y196000D02*
D03*
X319949Y196000D02*
D03*
Y190000D02*
D03*
X326051D02*
D03*
X281751Y215600D02*
D03*
X275649D02*
D03*
X292349Y215800D02*
D03*
X298451D02*
D03*
X318149Y216200D02*
D03*
X324251D02*
D03*
X377449Y251000D02*
D03*
X383551D02*
D03*
X391251Y257400D02*
D03*
X385149D02*
D03*
X391949Y262500D02*
D03*
X398051D02*
D03*
X419649Y199900D02*
D03*
X425751D02*
D03*
X391149Y199400D02*
D03*
X397251D02*
D03*
X482051Y173500D02*
D03*
X475949D02*
D03*
X482051Y168000D02*
D03*
X475949D02*
D03*
X521149Y162700D02*
D03*
X527251D02*
D03*
D64*
X272800Y141952D02*
D03*
X312759D02*
D03*
X386959Y142983D02*
D03*
X356841D02*
D03*
X435759Y142952D02*
D03*
X405641D02*
D03*
D65*
X280500Y154157D02*
D03*
X285390D02*
D03*
X300161D02*
D03*
X305082D02*
D03*
X290319D02*
D03*
X295240D02*
D03*
X379282Y155189D02*
D03*
X374361D02*
D03*
X369439D02*
D03*
X364518D02*
D03*
X428082Y155157D02*
D03*
X423161D02*
D03*
X418239D02*
D03*
X413318D02*
D03*
D66*
X347129Y170200D02*
D03*
X338271Y166460D02*
D03*
Y173940D02*
D03*
D67*
X316145Y223313D02*
D03*
D68*
X325200Y223313D02*
D03*
X334255D02*
D03*
D69*
X325200Y249887D02*
D03*
D70*
X353020Y243331D02*
D03*
X367980D02*
D03*
X353020Y234669D02*
D03*
X367980Y234669D02*
D03*
D71*
X383259Y243664D02*
D03*
Y241695D02*
D03*
Y239727D02*
D03*
Y237758D02*
D03*
Y235790D02*
D03*
Y233821D02*
D03*
Y231853D02*
D03*
Y229884D02*
D03*
Y227916D02*
D03*
Y225947D02*
D03*
Y223979D02*
D03*
Y222010D02*
D03*
Y220042D02*
D03*
Y218073D02*
D03*
Y216105D02*
D03*
Y214136D02*
D03*
X428141D02*
D03*
Y216105D02*
D03*
Y218073D02*
D03*
Y220042D02*
D03*
Y222010D02*
D03*
Y223979D02*
D03*
Y225947D02*
D03*
Y227916D02*
D03*
Y229884D02*
D03*
Y231853D02*
D03*
Y233821D02*
D03*
Y235790D02*
D03*
Y237758D02*
D03*
Y239727D02*
D03*
Y241695D02*
D03*
Y243664D02*
D03*
D72*
X390936Y206459D02*
D03*
X392905D02*
D03*
X394873D02*
D03*
X396842D02*
D03*
X398810D02*
D03*
X400779D02*
D03*
X402747D02*
D03*
X404716D02*
D03*
X406684D02*
D03*
X408653D02*
D03*
X410621D02*
D03*
X412590D02*
D03*
X414558D02*
D03*
X416527D02*
D03*
X418495D02*
D03*
X420464D02*
D03*
Y251341D02*
D03*
X418495D02*
D03*
X416527D02*
D03*
X414558D02*
D03*
X412590D02*
D03*
X410621D02*
D03*
X408653D02*
D03*
X406684D02*
D03*
X404716D02*
D03*
X402747D02*
D03*
X400779D02*
D03*
X398810D02*
D03*
X396842D02*
D03*
X394873D02*
D03*
X392905D02*
D03*
X390936D02*
D03*
D73*
X417436Y170700D02*
D03*
X396964Y170700D02*
D03*
X417436Y165700D02*
D03*
Y175700D02*
D03*
X417436Y180700D02*
D03*
X396964Y165700D02*
D03*
Y175700D02*
D03*
Y180700D02*
D03*
D74*
X502661Y158086D02*
D03*
X512503Y158086D02*
D03*
X487897Y158086D02*
D03*
X507582D02*
D03*
X497739D02*
D03*
X492818D02*
D03*
D75*
X521755Y145094D02*
D03*
X478645D02*
D03*
D76*
X487000Y198615D02*
D03*
X487000Y187985D02*
D03*
D77*
X314600Y158000D02*
D03*
X319600D02*
D03*
X324600D02*
D03*
X329500D02*
D03*
X329600Y178400D02*
D03*
X324600D02*
D03*
X319600D02*
D03*
X314600D02*
D03*
D78*
X274847Y296173D02*
X279400Y291620D01*
Y285400D02*
Y291620D01*
X278253Y343064D02*
X283189Y348000D01*
X278253Y303433D02*
Y343064D01*
X274847Y300027D02*
X278253Y303433D01*
X274847Y296173D02*
Y300027D01*
X283189Y348000D02*
X358500D01*
X275649Y190049D02*
Y215600D01*
X274500Y188900D02*
X275649Y190049D01*
X297400Y174000D02*
X300161Y171239D01*
Y154157D02*
Y171239D01*
X493000Y348500D02*
X493624Y347876D01*
Y312250D02*
Y347876D01*
X489874Y308500D02*
X493624Y312250D01*
X407124Y347624D02*
X407500Y348000D01*
X407124Y312250D02*
Y347624D01*
X403374Y308500D02*
X407124Y312250D01*
X351747Y342253D02*
X359750Y334250D01*
X324223Y342253D02*
X351747D01*
X321498Y339527D02*
X324223Y342253D01*
X321498Y313124D02*
Y339527D01*
X316874Y308500D02*
X321498Y313124D01*
X478500Y254500D02*
X487800Y263800D01*
X478500Y212000D02*
Y254500D01*
Y212000D02*
X482000Y208500D01*
D79*
X400550Y194800D02*
D03*
X427250Y207600D02*
D03*
X417850Y191300D02*
D03*
Y195500D02*
D03*
X441750Y221000D02*
D03*
X446650Y229100D02*
D03*
X441950Y229000D02*
D03*
X432231Y263599D02*
D03*
X441150Y236400D02*
D03*
D80*
X432900Y229750D02*
D03*
D81*
X298450Y222100D02*
D03*
D82*
X313550Y223750D02*
D03*
D83*
X324750Y238550D02*
D03*
D84*
X334150Y223550D02*
D03*
D85*
X278300Y186900D02*
D03*
D86*
X294300Y198150D02*
D03*
D87*
X289500Y291850D02*
D03*
D88*
X529000Y302750D02*
D03*
D89*
X443500Y348000D02*
D03*
D90*
X360250Y346750D02*
D03*
D91*
Y335750D02*
D03*
D92*
X481000Y210500D02*
D03*
D93*
X487500Y186250D02*
D03*
D94*
X480000Y308250D02*
D03*
X393500D02*
D03*
X307000D02*
D03*
D95*
X297400Y174000D02*
D03*
X287400D02*
D03*
X478971Y337683D02*
D03*
X488971D02*
D03*
X498971D02*
D03*
X392471D02*
D03*
X402471D02*
D03*
X412471D02*
D03*
X306150Y337600D02*
D03*
X316150D02*
D03*
X326150D02*
D03*
X324400Y141200D02*
D03*
X334400D02*
D03*
X279500Y298100D02*
D03*
X279400Y285400D02*
D03*
X455400Y149018D02*
D03*
D96*
X277400Y174000D02*
D03*
X468971Y337683D02*
D03*
X382471D02*
D03*
X296150Y337600D02*
D03*
X344400Y141200D02*
D03*
X289500Y298100D02*
D03*
X289400Y285400D02*
D03*
X445400Y149018D02*
D03*
D97*
X362779Y183952D02*
D03*
Y274503D02*
D03*
X449393D02*
D03*
Y183952D02*
D03*
D98*
X491600Y225800D02*
D03*
X415500Y212000D02*
D03*
X416000Y200500D02*
D03*
X432400Y263100D02*
D03*
X441200Y236400D02*
D03*
X419600Y242400D02*
D03*
X420200Y246100D02*
D03*
X421400Y263400D02*
D03*
X419200Y256700D02*
D03*
X429500Y258000D02*
D03*
X412500Y257500D02*
D03*
X517300Y278300D02*
D03*
X523900Y285800D02*
D03*
X517700Y285700D02*
D03*
X519700Y281200D02*
D03*
X524900Y281100D02*
D03*
X521800Y278200D02*
D03*
X360700Y207400D02*
D03*
X364200Y198600D02*
D03*
X446900Y290200D02*
D03*
X396700Y226900D02*
D03*
X368800Y249600D02*
D03*
X373000Y263800D02*
D03*
X351600Y249300D02*
D03*
X350600Y265100D02*
D03*
X359900Y248200D02*
D03*
X303600Y265200D02*
D03*
X299500Y256000D02*
D03*
X299300Y265000D02*
D03*
X292300Y222000D02*
D03*
X279100Y226300D02*
D03*
X288600Y229400D02*
D03*
X286800Y221200D02*
D03*
X282100Y163700D02*
D03*
X277600Y163800D02*
D03*
X284300Y143800D02*
D03*
X280400Y143500D02*
D03*
X464100Y153600D02*
D03*
X468100Y144800D02*
D03*
X411300Y186000D02*
D03*
X406800Y190500D02*
D03*
X422700Y193000D02*
D03*
X437200Y195200D02*
D03*
X477700Y309200D02*
D03*
X477900Y306600D02*
D03*
X391700Y309300D02*
D03*
Y306500D02*
D03*
X305100Y309600D02*
D03*
X305200Y306700D02*
D03*
X285300Y160300D02*
D03*
X290300Y160600D02*
D03*
X295500Y160500D02*
D03*
X298200Y233500D02*
D03*
Y236100D02*
D03*
X298300Y238800D02*
D03*
X310700Y219700D02*
D03*
X314600Y216500D02*
D03*
X310900Y228600D02*
D03*
X317200Y228500D02*
D03*
X325000Y255300D02*
D03*
X327200Y245100D02*
D03*
X324700Y242300D02*
D03*
X322300Y245600D02*
D03*
X326700Y238900D02*
D03*
X322200Y239100D02*
D03*
X331100Y228200D02*
D03*
X337600Y228100D02*
D03*
X337200Y218900D02*
D03*
X331500Y219200D02*
D03*
X275700Y188000D02*
D03*
Y184100D02*
D03*
X278900Y184200D02*
D03*
X283100Y184300D02*
D03*
X296000Y194300D02*
D03*
X298900Y194400D02*
D03*
X302200D02*
D03*
X513600Y137600D02*
D03*
X378000Y195200D02*
D03*
X303300Y252900D02*
D03*
X488100Y208800D02*
D03*
X391300Y273900D02*
D03*
X380900Y270900D02*
D03*
X390100Y261000D02*
D03*
X394500Y144000D02*
D03*
X277400Y243700D02*
D03*
X276500Y250600D02*
D03*
X437600Y261400D02*
D03*
X458300Y258100D02*
D03*
X443100Y251500D02*
D03*
X474200Y255100D02*
D03*
X472200Y243200D02*
D03*
X473200Y231600D02*
D03*
X436500Y170500D02*
D03*
X456700Y170900D02*
D03*
X399900Y217500D02*
D03*
X415400Y219200D02*
D03*
X358500Y348000D02*
D03*
X362000Y346500D02*
D03*
X358500Y344500D02*
D03*
Y338000D02*
D03*
X361500Y336500D02*
D03*
X358500Y333500D02*
D03*
X479500Y210000D02*
D03*
X482000Y208500D02*
D03*
Y212000D02*
D03*
X418500Y238500D02*
D03*
X411500Y244500D02*
D03*
X344000Y209500D02*
D03*
Y223500D02*
D03*
X359000Y224000D02*
D03*
X286000Y213000D02*
D03*
X527000Y167500D02*
D03*
X488500Y150500D02*
D03*
X421000Y220000D02*
D03*
X388000Y225500D02*
D03*
X390500Y220500D02*
D03*
X388500Y236500D02*
D03*
X386500Y247000D02*
D03*
X394662Y245500D02*
D03*
X378500D02*
D03*
X404619Y181781D02*
D03*
X407000Y178000D02*
D03*
X425000Y204000D02*
D03*
X388000Y202500D02*
D03*
X401000Y200500D02*
D03*
X434500Y243000D02*
D03*
X427000Y251000D02*
D03*
X381500Y256500D02*
D03*
X437500Y219500D02*
D03*
X435000Y217000D02*
D03*
X462819Y231988D02*
D03*
X457562Y229203D02*
D03*
X454500Y230500D02*
D03*
X460000Y233500D02*
D03*
X466000Y232500D02*
D03*
X454500Y243500D02*
D03*
X452738Y240762D02*
D03*
X450119Y238381D02*
D03*
X447500Y236000D02*
D03*
X459500Y248000D02*
D03*
X457000Y246000D02*
D03*
X462000Y238000D02*
D03*
X429500Y246500D02*
D03*
X412000Y261000D02*
D03*
X403000Y261500D02*
D03*
X418000Y265000D02*
D03*
X428000Y187000D02*
D03*
X424500D02*
D03*
X428000Y182000D02*
D03*
X424500D02*
D03*
X375500Y207000D02*
D03*
X372575Y215618D02*
D03*
X393000Y267000D02*
D03*
X398000Y258500D02*
D03*
X409000Y259000D02*
D03*
X398000Y245500D02*
D03*
X386500Y264000D02*
D03*
X414000Y230000D02*
D03*
X422000Y229884D02*
D03*
X370000Y231500D02*
D03*
X388000Y214500D02*
D03*
X398000Y212000D02*
D03*
X465000Y268500D02*
D03*
X470000Y268500D02*
D03*
X407000Y245000D02*
D03*
X487500Y181000D02*
D03*
X490500D02*
D03*
X487500Y183500D02*
D03*
X490500D02*
D03*
X515000Y188000D02*
D03*
X507000D02*
D03*
X499000D02*
D03*
X516500Y191500D02*
D03*
X513000D02*
D03*
X509000D02*
D03*
X505000D02*
D03*
X501000D02*
D03*
X497000D02*
D03*
X503000Y241000D02*
D03*
X518000Y230000D02*
D03*
X519500Y232500D02*
D03*
X521000Y230000D02*
D03*
X482500Y241000D02*
D03*
X486000D02*
D03*
X489500D02*
D03*
X493000D02*
D03*
X497000D02*
D03*
X496500Y251500D02*
D03*
X493000D02*
D03*
X489500D02*
D03*
X486000D02*
D03*
X482500D02*
D03*
X495000Y226000D02*
D03*
X493000Y228000D02*
D03*
X488000Y226000D02*
D03*
X490000Y228000D02*
D03*
X495000Y230000D02*
D03*
X491500D02*
D03*
X488000D02*
D03*
X493000Y232000D02*
D03*
X490000D02*
D03*
X494500Y234500D02*
D03*
X491500D02*
D03*
X488500D02*
D03*
X507000Y250000D02*
D03*
X509500Y252000D02*
D03*
X512000Y250000D02*
D03*
X514500Y252000D02*
D03*
X522000Y250000D02*
D03*
X524500Y252000D02*
D03*
X519500D02*
D03*
X517000Y250000D02*
D03*
X499000Y221500D02*
D03*
X512000Y217000D02*
D03*
X509000D02*
D03*
X506000D02*
D03*
X503000D02*
D03*
X500000D02*
D03*
X497000D02*
D03*
X502000Y221500D02*
D03*
X505000D02*
D03*
X508000D02*
D03*
X511000D02*
D03*
X514000D02*
D03*
X477500Y287000D02*
D03*
Y284000D02*
D03*
Y281000D02*
D03*
X474500D02*
D03*
Y284000D02*
D03*
Y287000D02*
D03*
X489500Y291500D02*
D03*
X494000D02*
D03*
X499000D02*
D03*
X494500Y297000D02*
D03*
X489500D02*
D03*
X492000Y294000D02*
D03*
X496500D02*
D03*
X487500D02*
D03*
X499000Y297000D02*
D03*
X487500Y280000D02*
D03*
X498000Y278500D02*
D03*
X491500Y278000D02*
D03*
X391000Y287000D02*
D03*
Y284000D02*
D03*
Y281000D02*
D03*
X388000D02*
D03*
Y284000D02*
D03*
Y287000D02*
D03*
X403000Y291500D02*
D03*
X407500D02*
D03*
X412500D02*
D03*
X408000Y297000D02*
D03*
X403000D02*
D03*
X405500Y294000D02*
D03*
X410000D02*
D03*
X401000D02*
D03*
X412500Y297000D02*
D03*
X401000Y280000D02*
D03*
X411500Y278500D02*
D03*
X405000Y278000D02*
D03*
X318500D02*
D03*
X325000Y278500D02*
D03*
X314500Y280000D02*
D03*
X326000Y297000D02*
D03*
X314500Y294000D02*
D03*
X323500D02*
D03*
X319000D02*
D03*
X316500Y297000D02*
D03*
X321500D02*
D03*
X326000Y291500D02*
D03*
X321000D02*
D03*
X316500D02*
D03*
X301500Y287000D02*
D03*
Y284000D02*
D03*
Y281000D02*
D03*
X304500D02*
D03*
Y284000D02*
D03*
Y287000D02*
D03*
D99*
X483763Y152574D02*
D03*
X516637D02*
D03*
M02*
