G04*
G04 #@! TF.GenerationSoftware,Altium Limited,Altium Designer,18.0.12 (696)*
G04*
G04 Layer_Color=16711935*
%FSLAX25Y25*%
%MOIN*%
G70*
G01*
G75*
%ADD21R,0.04202X0.03898*%
%ADD22R,0.20485X0.08280*%
%ADD23O,0.03162X0.08280*%
%ADD32R,0.03898X0.04202*%
G04:AMPARAMS|DCode=33|XSize=118.24mil|YSize=47.37mil|CornerRadius=23.68mil|HoleSize=0mil|Usage=FLASHONLY|Rotation=90.000|XOffset=0mil|YOffset=0mil|HoleType=Round|Shape=RoundedRectangle|*
%AMROUNDEDRECTD33*
21,1,0.11824,0.00000,0,0,90.0*
21,1,0.07087,0.04737,0,0,90.0*
1,1,0.04737,0.00000,0.03544*
1,1,0.04737,0.00000,-0.03544*
1,1,0.04737,0.00000,-0.03544*
1,1,0.04737,0.00000,0.03544*
%
%ADD33ROUNDEDRECTD33*%
G04:AMPARAMS|DCode=34|XSize=31.62mil|YSize=74.93mil|CornerRadius=15.81mil|HoleSize=0mil|Usage=FLASHONLY|Rotation=0.000|XOffset=0mil|YOffset=0mil|HoleType=Round|Shape=RoundedRectangle|*
%AMROUNDEDRECTD34*
21,1,0.03162,0.04331,0,0,0.0*
21,1,0.00000,0.07493,0,0,0.0*
1,1,0.03162,0.00000,-0.02166*
1,1,0.03162,0.00000,-0.02166*
1,1,0.03162,0.00000,0.02166*
1,1,0.03162,0.00000,0.02166*
%
%ADD34ROUNDEDRECTD34*%
%ADD42R,0.09461X0.03162*%
%ADD47C,0.06706*%
%ADD48R,0.06706X0.06706*%
%ADD49C,0.24400*%
%ADD50C,0.03162*%
%ADD115R,0.10249X0.13792*%
%ADD116R,0.06312X0.21272*%
G04:AMPARAMS|DCode=117|XSize=31.62mil|YSize=74.93mil|CornerRadius=15.81mil|HoleSize=0mil|Usage=FLASHONLY|Rotation=90.000|XOffset=0mil|YOffset=0mil|HoleType=Round|Shape=RoundedRectangle|*
%AMROUNDEDRECTD117*
21,1,0.03162,0.04331,0,0,90.0*
21,1,0.00000,0.07493,0,0,90.0*
1,1,0.03162,0.02166,0.00000*
1,1,0.03162,0.02166,0.00000*
1,1,0.03162,-0.02166,0.00000*
1,1,0.03162,-0.02166,0.00000*
%
%ADD117ROUNDEDRECTD117*%
G04:AMPARAMS|DCode=118|XSize=118.24mil|YSize=47.37mil|CornerRadius=23.68mil|HoleSize=0mil|Usage=FLASHONLY|Rotation=0.000|XOffset=0mil|YOffset=0mil|HoleType=Round|Shape=RoundedRectangle|*
%AMROUNDEDRECTD118*
21,1,0.11824,0.00000,0,0,0.0*
21,1,0.07087,0.04737,0,0,0.0*
1,1,0.04737,0.03544,0.00000*
1,1,0.04737,-0.03544,0.00000*
1,1,0.04737,-0.03544,0.00000*
1,1,0.04737,0.03544,0.00000*
%
%ADD118ROUNDEDRECTD118*%
%ADD119R,0.02178X0.05524*%
%ADD120R,0.06706X0.06706*%
D21*
X427400Y170149D02*
D03*
X427400Y176251D02*
D03*
X298600Y251151D02*
D03*
X298600Y245049D02*
D03*
X392600Y233349D02*
D03*
X392600Y239451D02*
D03*
X398100Y233349D02*
D03*
X398100Y239451D02*
D03*
D22*
X402500Y294500D02*
D03*
X489000D02*
D03*
X316000D02*
D03*
D23*
X410000Y285248D02*
D03*
X405000D02*
D03*
X400000D02*
D03*
X395000D02*
D03*
X410000Y303752D02*
D03*
X405000D02*
D03*
X400000D02*
D03*
X395000D02*
D03*
X496500Y285248D02*
D03*
X491500D02*
D03*
X486500D02*
D03*
X481500D02*
D03*
X496500Y303752D02*
D03*
X491500D02*
D03*
X486500D02*
D03*
X481500D02*
D03*
X308500D02*
D03*
X313500D02*
D03*
X318500D02*
D03*
X323500D02*
D03*
X308500Y285248D02*
D03*
X313500D02*
D03*
X318500D02*
D03*
X323500D02*
D03*
D32*
X403249Y212300D02*
D03*
X409351D02*
D03*
D33*
X356841Y142983D02*
D03*
X386959D02*
D03*
X405641Y142952D02*
D03*
X435759D02*
D03*
D34*
X364518Y155189D02*
D03*
X369439D02*
D03*
X374361D02*
D03*
X379282D02*
D03*
X413318Y155157D02*
D03*
X418239D02*
D03*
X423161D02*
D03*
X428082D02*
D03*
D42*
X417436Y175700D02*
D03*
X396964D02*
D03*
X417436Y180700D02*
D03*
X417436Y170700D02*
D03*
X417436Y165700D02*
D03*
X396964Y180700D02*
D03*
X396964Y170700D02*
D03*
Y165700D02*
D03*
D47*
X297400Y174000D02*
D03*
X287400D02*
D03*
X478971Y337683D02*
D03*
X488971D02*
D03*
X498971D02*
D03*
X392471D02*
D03*
X402471D02*
D03*
X412471D02*
D03*
X306150Y337600D02*
D03*
X316150D02*
D03*
X326150D02*
D03*
X324400Y141200D02*
D03*
X334400D02*
D03*
X279500Y298100D02*
D03*
X279400Y285400D02*
D03*
X455400Y149018D02*
D03*
D48*
X277400Y174000D02*
D03*
X468971Y337683D02*
D03*
X382471D02*
D03*
X296150Y337600D02*
D03*
X344400Y141200D02*
D03*
X289500Y298100D02*
D03*
X289400Y285400D02*
D03*
X445400Y149018D02*
D03*
D49*
X362779Y183952D02*
D03*
Y274503D02*
D03*
X449393D02*
D03*
Y183952D02*
D03*
D50*
X491600Y225800D02*
D03*
X415500Y212000D02*
D03*
X416000Y200500D02*
D03*
X432400Y263100D02*
D03*
X441200Y236400D02*
D03*
X419600Y242400D02*
D03*
X420200Y246100D02*
D03*
X421400Y263400D02*
D03*
X419200Y256700D02*
D03*
X429500Y258000D02*
D03*
X412500Y257500D02*
D03*
X517300Y278300D02*
D03*
X523900Y285800D02*
D03*
X517700Y285700D02*
D03*
X519700Y281200D02*
D03*
X524900Y281100D02*
D03*
X521800Y278200D02*
D03*
X360700Y207400D02*
D03*
X364200Y198600D02*
D03*
X446900Y290200D02*
D03*
X396700Y226900D02*
D03*
X368800Y249600D02*
D03*
X373000Y263800D02*
D03*
X351600Y249300D02*
D03*
X350600Y265100D02*
D03*
X359900Y248200D02*
D03*
X303600Y265200D02*
D03*
X299500Y256000D02*
D03*
X299300Y265000D02*
D03*
X292300Y222000D02*
D03*
X279100Y226300D02*
D03*
X288600Y229400D02*
D03*
X286800Y221200D02*
D03*
X282100Y163700D02*
D03*
X277600Y163800D02*
D03*
X284300Y143800D02*
D03*
X280400Y143500D02*
D03*
X464100Y153600D02*
D03*
X468100Y144800D02*
D03*
X411300Y186000D02*
D03*
X406800Y190500D02*
D03*
X422700Y193000D02*
D03*
X437200Y195200D02*
D03*
X477700Y309200D02*
D03*
X477900Y306600D02*
D03*
X391700Y309300D02*
D03*
Y306500D02*
D03*
X305100Y309600D02*
D03*
X305200Y306700D02*
D03*
X285300Y160300D02*
D03*
X290300Y160600D02*
D03*
X295500Y160500D02*
D03*
X298200Y233500D02*
D03*
Y236100D02*
D03*
X298300Y238800D02*
D03*
X310700Y219700D02*
D03*
X314600Y216500D02*
D03*
X310900Y228600D02*
D03*
X317200Y228500D02*
D03*
X325000Y255300D02*
D03*
X327200Y245100D02*
D03*
X324700Y242300D02*
D03*
X322300Y245600D02*
D03*
X326700Y238900D02*
D03*
X322200Y239100D02*
D03*
X331100Y228200D02*
D03*
X337600Y228100D02*
D03*
X337200Y218900D02*
D03*
X331500Y219200D02*
D03*
X275700Y188000D02*
D03*
Y184100D02*
D03*
X278900Y184200D02*
D03*
X283100Y184300D02*
D03*
X296000Y194300D02*
D03*
X298900Y194400D02*
D03*
X302200D02*
D03*
X513600Y137600D02*
D03*
X378000Y195200D02*
D03*
X303300Y252900D02*
D03*
X488100Y208800D02*
D03*
X391300Y273900D02*
D03*
X380900Y270900D02*
D03*
X390100Y261000D02*
D03*
X394500Y144000D02*
D03*
X277400Y243700D02*
D03*
X276500Y250600D02*
D03*
X437600Y261400D02*
D03*
X458300Y258100D02*
D03*
X443100Y251500D02*
D03*
X474200Y255100D02*
D03*
X472200Y243200D02*
D03*
X473200Y231600D02*
D03*
X436500Y170500D02*
D03*
X456700Y170900D02*
D03*
X399900Y217500D02*
D03*
X415400Y219200D02*
D03*
X358500Y348000D02*
D03*
X362000Y346500D02*
D03*
X358500Y344500D02*
D03*
Y338000D02*
D03*
X361500Y336500D02*
D03*
X358500Y333500D02*
D03*
X479500Y210000D02*
D03*
X482000Y208500D02*
D03*
Y212000D02*
D03*
X418500Y238500D02*
D03*
X411500Y244500D02*
D03*
X344000Y209500D02*
D03*
Y223500D02*
D03*
X359000Y224000D02*
D03*
X286000Y213000D02*
D03*
X527000Y167500D02*
D03*
X488500Y150500D02*
D03*
X421000Y220000D02*
D03*
X388000Y225500D02*
D03*
X390500Y220500D02*
D03*
X388500Y236500D02*
D03*
X386500Y247000D02*
D03*
X394662Y245500D02*
D03*
X378500D02*
D03*
X404619Y181781D02*
D03*
X407000Y178000D02*
D03*
X425000Y204000D02*
D03*
X388000Y202500D02*
D03*
X401000Y200500D02*
D03*
X434500Y243000D02*
D03*
X427000Y251000D02*
D03*
X381500Y256500D02*
D03*
X437500Y219500D02*
D03*
X435000Y217000D02*
D03*
X462819Y231988D02*
D03*
X457562Y229203D02*
D03*
X454500Y230500D02*
D03*
X460000Y233500D02*
D03*
X466000Y232500D02*
D03*
X454500Y243500D02*
D03*
X452738Y240762D02*
D03*
X450119Y238381D02*
D03*
X447500Y236000D02*
D03*
X459500Y248000D02*
D03*
X457000Y246000D02*
D03*
X462000Y238000D02*
D03*
X429500Y246500D02*
D03*
X412000Y261000D02*
D03*
X403000Y261500D02*
D03*
X418000Y265000D02*
D03*
X428000Y187000D02*
D03*
X424500D02*
D03*
X428000Y182000D02*
D03*
X424500D02*
D03*
X375500Y207000D02*
D03*
X372575Y215618D02*
D03*
X393000Y267000D02*
D03*
X398000Y258500D02*
D03*
X409000Y259000D02*
D03*
X398000Y245500D02*
D03*
X386500Y264000D02*
D03*
X414000Y230000D02*
D03*
X422000Y229884D02*
D03*
X370000Y231500D02*
D03*
X388000Y214500D02*
D03*
X398000Y212000D02*
D03*
X465000Y268500D02*
D03*
X470000Y268500D02*
D03*
X407000Y245000D02*
D03*
X487500Y181000D02*
D03*
X490500D02*
D03*
X487500Y183500D02*
D03*
X490500D02*
D03*
X515000Y188000D02*
D03*
X507000D02*
D03*
X499000D02*
D03*
X516500Y191500D02*
D03*
X513000D02*
D03*
X509000D02*
D03*
X505000D02*
D03*
X501000D02*
D03*
X497000D02*
D03*
X503000Y241000D02*
D03*
X518000Y230000D02*
D03*
X519500Y232500D02*
D03*
X521000Y230000D02*
D03*
X482500Y241000D02*
D03*
X486000D02*
D03*
X489500D02*
D03*
X493000D02*
D03*
X497000D02*
D03*
X496500Y251500D02*
D03*
X493000D02*
D03*
X489500D02*
D03*
X486000D02*
D03*
X482500D02*
D03*
X495000Y226000D02*
D03*
X493000Y228000D02*
D03*
X488000Y226000D02*
D03*
X490000Y228000D02*
D03*
X495000Y230000D02*
D03*
X491500D02*
D03*
X488000D02*
D03*
X493000Y232000D02*
D03*
X490000D02*
D03*
X494500Y234500D02*
D03*
X491500D02*
D03*
X488500D02*
D03*
X507000Y250000D02*
D03*
X509500Y252000D02*
D03*
X512000Y250000D02*
D03*
X514500Y252000D02*
D03*
X522000Y250000D02*
D03*
X524500Y252000D02*
D03*
X519500D02*
D03*
X517000Y250000D02*
D03*
X499000Y221500D02*
D03*
X512000Y217000D02*
D03*
X509000D02*
D03*
X506000D02*
D03*
X503000D02*
D03*
X500000D02*
D03*
X497000D02*
D03*
X502000Y221500D02*
D03*
X505000D02*
D03*
X508000D02*
D03*
X511000D02*
D03*
X514000D02*
D03*
X477500Y287000D02*
D03*
Y284000D02*
D03*
Y281000D02*
D03*
X474500D02*
D03*
Y284000D02*
D03*
Y287000D02*
D03*
X489500Y291500D02*
D03*
X494000D02*
D03*
X499000D02*
D03*
X494500Y297000D02*
D03*
X489500D02*
D03*
X492000Y294000D02*
D03*
X496500D02*
D03*
X487500D02*
D03*
X499000Y297000D02*
D03*
X487500Y280000D02*
D03*
X498000Y278500D02*
D03*
X491500Y278000D02*
D03*
X391000Y287000D02*
D03*
Y284000D02*
D03*
Y281000D02*
D03*
X388000D02*
D03*
Y284000D02*
D03*
Y287000D02*
D03*
X403000Y291500D02*
D03*
X407500D02*
D03*
X412500D02*
D03*
X408000Y297000D02*
D03*
X403000D02*
D03*
X405500Y294000D02*
D03*
X410000D02*
D03*
X401000D02*
D03*
X412500Y297000D02*
D03*
X401000Y280000D02*
D03*
X411500Y278500D02*
D03*
X405000Y278000D02*
D03*
X318500D02*
D03*
X325000Y278500D02*
D03*
X314500Y280000D02*
D03*
X326000Y297000D02*
D03*
X314500Y294000D02*
D03*
X323500D02*
D03*
X319000D02*
D03*
X316500Y297000D02*
D03*
X321500D02*
D03*
X326000Y291500D02*
D03*
X321000D02*
D03*
X316500D02*
D03*
X301500Y287000D02*
D03*
Y284000D02*
D03*
Y281000D02*
D03*
X304500D02*
D03*
Y284000D02*
D03*
Y287000D02*
D03*
D115*
X491219Y230700D02*
D03*
X518581D02*
D03*
D116*
X488158Y320500D02*
D03*
X507842D02*
D03*
X479843D02*
D03*
X460157D02*
D03*
X401657D02*
D03*
X421343D02*
D03*
X393342D02*
D03*
X373657D02*
D03*
X334842D02*
D03*
X315158D02*
D03*
X287158D02*
D03*
X306842D02*
D03*
D117*
X290900Y255521D02*
D03*
Y250600D02*
D03*
Y245678D02*
D03*
Y240757D02*
D03*
D118*
X278695Y263198D02*
D03*
X278695Y233080D02*
D03*
D119*
X403461Y237060D02*
D03*
X406020D02*
D03*
X408580D02*
D03*
X411139Y237060D02*
D03*
X411139Y219540D02*
D03*
X408580D02*
D03*
X406020Y219540D02*
D03*
X403461D02*
D03*
D120*
X340200Y163910D02*
D03*
Y177690D02*
D03*
X328900Y163410D02*
D03*
X328900Y177190D02*
D03*
X317000Y163610D02*
D03*
Y177390D02*
D03*
M02*
