M48
;Layer_Color=9474304
;FILE_FORMAT=2:5
INCH,LZ
;TYPE=PLATED
T1F00S00C0.01181
T2F00S00C0.03543
T3F00S00C0.03937
T4F00S00C0.12000
%
T01
X02804Y01435
X02843Y01438
X03945Y0144
X04681Y01448
X04641Y01536
X04885Y01505
X05136Y01376
X0527Y01675
X0515Y0188
X05165Y01915
X0513
X0509
X0505
X0501
X0497
X0499Y0188
X0507
X04905Y01835
Y0181
X04875
Y01835
X04881Y02088
X0482Y02085
Y0212
X04795Y021
X0488Y0226
X04916Y02258
X0495Y0226
X0493Y0228
X049
X04915Y023
X0495
X0493Y0232
X049
X0488Y023
X04885Y02345
X04915
X04945
X0493Y0241
X04895
X0486
X04825
Y02515
X0486
X04895
X0493
X04965
X0497Y0241
X0503
X0507Y025
X05095Y0252
X0512Y025
X05145Y0252
X0517Y025
X05195Y0252
X0522Y025
X05245Y0252
X05195Y02325
X0518Y023
X0521
X0514Y02215
X0511
X0508
X0505
X0502
X0499
X05Y0217
X0503
X0506
X0509
X0512
X0497
X04732Y02316
X04722Y02432
X04742Y02551
X047Y02685
X04745Y0281
X04775
Y0284
Y0287
X04745
Y0284
X04875Y028
X04915Y0278
X0498Y02785
X0499Y02915
X0494
X04895
X04875Y0294
X0492
X04965
X04945Y0297
X0499
X04895
X04779Y03066
X04777Y03092
X05177Y02857
X05239Y02858
X05249Y02811
X05197Y02812
X05218Y02782
X05173Y02783
X0465Y02685
X04583Y02581
X04595Y0248
X0457Y0246
X04545Y02435
X0452738Y0240762
X0450119Y0238381
X04475Y0236
X04412Y02364
X04345Y0243
X04295Y02465
X0427Y0251
X04295Y0258
X04324Y02631
X04376Y02614
X04431Y02515
X04202Y02461
X04196Y02424
X04185Y02385
X0422Y0229884
X0414Y023
X04154Y02192
X0421Y022
X04155Y0212
X0416Y02005
X0425Y0204
X04227Y0193
X04245Y0187
X0428
Y0182
X04245
X04113Y0186
X04068Y01905
X0404619Y0181781
X0407Y0178
X0401Y02005
X0398Y0212
X03999Y02175
X03905Y02205
X0388Y02255
X03967Y02269
X03885Y02365
X03865Y0247
X03785Y02455
X03688Y02496
X03599Y02482
X03516Y02493
X03506Y02651
X0373Y02638
X03865Y0264
X03901Y0261
X0393Y0267
X03913Y02739
X0391Y0281
Y0284
Y0287
X0388
Y0284
Y0281
X0401Y028
X0405Y0278
X04115Y02785
X04125Y02915
X04075
X0403
X0401Y0294
X04055
X041
X0408Y0297
X04125
X0403
X03917Y03065
Y03093
X03809Y02709
X03815Y02565
X0398Y02585
X0403Y02615
X0409Y0259
X04125Y02575
X0412Y0261
X0418Y0265
X04214Y02634
X04192Y02567
X04115Y02445
X0407Y0245
X0398Y02455
X0394662
X0388Y02145
Y02025
X03755Y0207
X0372575Y0215618
X037Y02315
X0359Y0224
X0344Y02235
X03376Y02281
X03311Y02282
X03315Y02192
X03372Y02189
X0344Y02095
X03607Y02074
X03642Y01986
X0378Y01952
X04372
X0435Y0217
X04375Y02195
X04545Y02305
X0457562Y0229203
X046Y02335
X0462819Y0231988
X0466Y02325
X0462Y0238
X04469Y02902
X0326Y02915
X03235Y0294
X0319
X03145
X03165Y02915
X0321
X03215Y0297
X0326
X03165
X03145Y028
X03185Y0278
X0325Y02785
Y02553
X03272Y02451
X03247Y02423
X03267Y02389
X03222Y02391
X03223Y02456
X03172Y02285
X03146Y02165
X04365Y01705
X04567Y01709
X02955Y01605
X02903Y01606
X02853Y01603
X02821Y01637
X02776Y01638
X02789Y01842
X02757Y01841
Y0188
X02831Y01843
X0296Y01943
X02989Y01944
X03022
X03107Y02197
X03109Y02286
X02982Y02335
Y02361
X02983Y02388
X02995Y0256
X03033Y02529
X03036Y02652
X02993Y0265
X03015Y0281
Y0284
Y0287
X03045
Y0284
Y0281
X03052Y03067
X03051Y03096
X02765Y02506
X02774Y02437
X02791Y02263
X02886Y02294
X02868Y02212
X02923Y0222
X0286Y0213
X03585Y03335
Y0338
X03615Y03365
X0362Y03465
X03585Y0348
Y03445
T02
X03244Y01412
X03344
X03444
X04454Y0149018
X04554
X02974Y0174
X02874
X02774
X02794Y02854
X02894
X02895Y02981
X02795
X029615Y03376
X030615
X031615
X032615
X0382471Y0337683
X0392471
X0402471
X0412471
X0468971
X0478971
X0488971
X0498971
T03
X0483763Y0152574
X0516637
T04
X0362779Y0183952
X0449393
Y0274503
X0362779
M30
